<?xml version="1.0" encoding="utf-8"?>
<!-- Generator: Adobe Illustrator 16.0.0, SVG Export Plug-In . SVG Version: 6.00 Build 0)  -->
<!DOCTYPE svg PUBLIC "-//W3C//DTD SVG 1.1//EN" "http://www.w3.org/Graphics/SVG/1.1/DTD/svg11.dtd">
<svg version="1.1" id="Layer_1" xmlns="http://www.w3.org/2000/svg" xmlns:xlink="http://www.w3.org/1999/xlink" x="0px" y="0px"
	 width="100px" height="86.603px" viewBox="0 0 100 86.603" enable-background="new 0 0 100 86.603" xml:space="preserve">
<polygon fill-rule="evenodd" clip-rule="evenodd" fill="#507F9F" points="25,86.604 0,43.302 25,0 75.003,0 100.001,43.302 
	75.003,86.604 "/>
<g>
	<path fill-rule="evenodd" clip-rule="evenodd" fill="#FFFFFF" d="M49.646,71.003c-6.579-0.021-12.748-1.547-18.322-5.128
		c-3.625-2.327-6.599-5.307-8.324-9.312c-2.649-6.148-1.739-11.922,2.235-17.227c2.936-3.92,6.878-6.521,11.39-8.276
		c1.711-0.664,3.508-1.133,5.29-1.598c0.613-0.161,0.789-0.426,0.852-1.008c0.153-1.445,0.398-2.882,0.566-4.324
		c0.061-0.512,0.241-0.703,0.781-0.7c3.635,0.021,7.274,0.021,10.914,0.001c0.556-0.004,0.764,0.154,0.829,0.732
		c0.164,1.501,0.43,2.99,0.615,4.487c0.057,0.479,0.26,0.645,0.715,0.742c3.834,0.82,7.452,2.19,10.754,4.333
		c3.238,2.104,5.982,4.709,7.792,8.163c3.039,5.802,2.751,11.526-0.706,17.051c-2.591,4.14-6.35,6.945-10.725,8.965
		C59.655,70.05,54.755,71.025,49.646,71.003z M48.542,70.346c5.823,0,10.418-0.835,14.8-2.71c4.375-1.875,8.189-4.515,10.907-8.494
		c3.531-5.172,4.11-10.664,1.367-16.367c-1.641-3.409-4.234-6.015-7.341-8.123c-3.331-2.261-7-3.716-10.918-4.563
		c-0.188-0.042-0.414,0.082-0.623,0.129c0.139,0.209,0.248,0.446,0.425,0.617c0.104,0.102,0.315,0.095,0.476,0.141
		c1.261,0.359,2.551,0.649,3.785,1.09c4.363,1.556,8.227,3.892,11.263,7.463c5.058,5.95,5.298,13.675,0.558,19.82
		c-3.104,4.03-7.253,6.608-12.006,8.228c-7.323,2.5-14.715,2.584-22.105,0.333c-4.77-1.453-8.983-3.867-12.286-7.681
		c-2.414-2.784-3.91-5.984-4.094-9.708c-0.203-4.145,1.231-7.743,3.856-10.884c3.574-4.273,8.258-6.761,13.532-8.27
		c0.617-0.176,1.242-0.33,1.871-0.465c0.387-0.082,0.528-0.335,0.441-0.66c-0.023-0.09-0.41-0.168-0.59-0.116
		c-1.691,0.489-3.41,0.906-5.047,1.538c-4.604,1.774-8.602,4.442-11.508,8.503c-3.457,4.827-4.293,10.07-2.043,15.648
		c1.488,3.688,4.081,6.517,7.297,8.784C36.269,68.62,42.708,70.252,48.542,70.346z M47.452,48.9c0.961-0.43,1.219-1.125,1.188-2.023
		c-0.039-1.063-0.008-2.125-0.012-3.188c-0.004-1.37-0.559-1.933-1.926-1.945c-1.146-0.01-2.291-0.016-3.438,0
		c-1.368,0.019-1.317-0.273-1.317,1.281c-0.004,4.414-0.012,8.836,0,13.25c0.005,1.773-0.238,1.531,1.566,1.547
		c0.902,0.008,0.906-0.008,0.909-0.944c0.001-2.235,0.017-4.472-0.01-6.709c-0.008-0.573,0.198-0.721,0.727-0.688
		c0.754,0.052,1.035,0.294,1.043,1.107c0.016,1.898-0.008,3.802,0.012,5.703c0.017,1.703-0.303,1.523,1.58,1.531
		c0.844,0.003,0.852-0.01,0.854-0.828c0.006-2.039-0.018-4.081,0.014-6.124C48.649,50.001,48.382,49.34,47.452,48.9z M48.608,65.77
		c4.577,0.01,8.001-0.464,11.334-1.517c3.892-1.233,7.42-3.103,10.274-6.095c4.493-4.709,4.821-10.791,0.825-15.905
		c-2.286-2.923-5.325-4.836-8.716-6.203c-1.446-0.582-2.969-0.975-4.466-1.431c-0.136-0.042-0.316,0.081-0.48,0.128
		c0.078,0.197,0.118,0.416,0.24,0.58c0.063,0.087,0.258,0.074,0.393,0.113c0.724,0.209,1.454,0.396,2.173,0.633
		c3.742,1.24,7.14,3.053,9.836,6.006c4.092,4.477,4.198,10.305,0.273,14.907c-2.385,2.804-5.431,4.647-8.843,5.882
		c-7.497,2.712-15.065,2.767-22.628,0.281c-3.551-1.166-6.75-2.984-9.298-5.789c-4.285-4.719-4.266-10.632,0.02-15.346
		c1.816-1.998,3.985-3.529,6.438-4.598c1.711-0.744,3.508-1.291,5.276-1.9c0.379-0.132,0.738-0.261,0.572-0.713
		c-0.039-0.108-0.541-0.139-0.785-0.062c-1.309,0.403-2.629,0.785-3.895,1.301c-3.328,1.36-6.307,3.248-8.618,6.068
		c-3.633,4.438-3.867,9.719-0.598,14.407c1.477,2.124,3.423,3.756,5.632,5.07C38.536,64.55,43.973,65.706,48.608,65.77z
		 M35.188,48.166c-0.07-0.013-0.139-0.025-0.208-0.039c0-1.648,0.005-3.297-0.003-4.945c-0.005-1.633,0.147-1.406-1.447-1.422
		c-1.014-0.008-1.019,0-1.021,1.005c-0.001,4.503-0.009,9.01,0.002,13.518c0.005,1.798-0.251,1.555,1.633,1.567
		c0.816,0.003,0.829-0.016,0.832-0.864c0.006-2.236-0.003-4.477,0.012-6.715c0.002-0.285-0.18-0.701,0.371-0.771
		c0.656-0.084,1.184,0.122,1.317,0.612c0.07,0.265,0.066,0.554,0.066,0.835c0.008,1.734-0.016,3.469,0.008,5.203
		c0.028,1.969-0.364,1.672,1.838,1.71c0.486,0.009,0.623-0.207,0.619-0.659c-0.012-2.408,0.008-4.814-0.014-7.222
		c-0.01-0.913-0.584-1.501-1.497-1.618c-0.325-0.047-0.659-0.047-1.119-0.076c1.047-2.176,2.055-4.276,3.071-6.392
		c-1.251-0.289-1.309-0.263-1.777,0.71c-0.208,0.43-0.411,0.859-0.617,1.287C36.567,45.314,35.878,46.742,35.188,48.166z
		 M67.475,51.947c0-0.977-0.018-1.96,0.009-2.938c0.018-0.516-0.181-0.691-0.681-0.68c-1.038,0.022-2.07-0.008-3.108,0.008
		c-0.431,0.008-0.681-0.094-0.674-0.602c0.024-1.313-0.007-2.628,0.016-3.945c0.009-0.648,0.313-0.905,0.946-0.891
		c0.632,0.012,0.898,0.266,0.91,0.922c0.017,0.813,0.003,1.625,0.005,2.436c0.006,0.876,0.009,0.876,0.88,0.884
		c1.702,0.016,1.657,0.014,1.712-1.741c0.047-1.378-0.352-2.493-1.602-3.165c-1.398-0.75-2.806-0.688-4.141,0.169
		c-0.765,0.492-1.259,1.207-1.274,2.151c-0.022,1.453,0,2.906-0.016,4.362c-0.006,0.43,0.149,0.594,0.587,0.586
		c1.063-0.018,2.125,0.021,3.188-0.016c0.515-0.018,0.68,0.146,0.673,0.662c-0.023,1.82,0.004,3.639-0.001,5.454
		c-0.004,0.726-0.289,1.042-0.891,1.054c-0.638,0.016-0.971-0.336-0.984-1.07c-0.014-0.922,0.016-1.849-0.009-2.771
		c-0.051-2.232,0.453-1.838-1.98-1.885c-0.441-0.009-0.589,0.169-0.582,0.594c0.018,1.147,0,2.293,0.014,3.438
		c0.011,0.843,0.417,1.498,1.04,2.024c1.25,1.068,3.37,1.139,4.689,0.154c0.835-0.625,1.297-1.438,1.281-2.508
		C67.466,53.736,67.477,52.844,67.475,51.947z M57.393,57.822c1.425-0.008,1.237,0.141,1.106-1.273
		c-0.01-0.109-0.041-0.219-0.057-0.328c-0.422-2.85-0.84-5.695-1.266-8.541c-0.264-1.772-0.553-3.538-0.797-5.306
		c-0.068-0.496-0.271-0.673-0.758-0.641c-0.531,0.034-1.063,0.007-1.594,0.008c-1.055,0.002-1.063,0-1.195,1.01
		c-0.62,4.766-1.234,9.531-1.844,14.297c-0.046,0.352-0.179,0.734,0.422,0.781c0.797,0.063,1.017-0.031,1.099-0.617
		c0.11-0.834,0.222-1.664,0.3-2.5c0.033-0.352,0.169-0.492,0.523-0.479c0.555,0.019,1.117,0.042,1.673-0.005
		c0.522-0.047,0.687,0.196,0.749,0.656c0.109,0.803,0.266,1.599,0.369,2.399c0.053,0.382,0.225,0.548,0.597,0.538
		C56.943,57.814,57.169,57.822,57.393,57.822z M49.653,24.194c-1.623,0-3.246,0.016-4.869-0.011
		c-0.518-0.009-0.717,0.147-0.79,0.688c-0.458,3.464-0.958,6.924-1.451,10.386c-0.147,1.032,0.188,1.893,0.965,2.546
		c0.465,0.387,0.992,0.738,1.551,0.971c2.569,1.07,5.225,1.177,7.892,0.461c0.844-0.227,1.672-0.643,2.404-1.128
		c0.979-0.648,1.377-1.631,1.215-2.839c-0.471-3.493-0.93-6.985-1.361-10.481c-0.063-0.475-0.242-0.605-0.688-0.602
		C52.896,24.204,51.272,24.194,49.653,24.194z M50.795,67.901c-0.023-0.422-0.039-0.703-0.05-0.979
		c-0.012-0.419-0.286-0.537-0.622-0.47c-0.525,0.105-1.258-0.363-1.545,0.34c-0.197,0.485-0.26,1.164-0.08,1.639
		c0.299,0.791,1.109,0.244,1.687,0.369c0.306,0.067,0.626-0.008,0.61-0.46C50.788,68.146,50.795,67.952,50.795,67.901z
		 M47.186,63.034c0.859,0.101,0.859,0.101,1.215-0.399c0.256-0.36,0.519-0.721,0.746-1.101c0.367-0.609,0.238-1.257-0.291-1.626
		c-0.507-0.352-1.184-0.266-1.585,0.195c-0.432,0.492-0.414,1.125,0.133,1.625c0.281,0.259,0.375,0.425,0.109,0.729
		C47.389,62.596,47.319,62.787,47.186,63.034z M51.412,67.478c0.063,1.469-0.088,1.322,1.328,1.205
		c0.164-0.016,0.359,0.023,0.489-0.054c0.151-0.086,0.301-0.26,0.347-0.426c0.044-0.176-0.045-0.379-0.063-0.574
		c-0.181-1.781-0.278-1.304-1.531-1.25c-0.497,0.022-0.625,0.25-0.57,0.684C51.427,67.198,51.412,67.339,51.412,67.478z
		 M44.37,68.433c0.623,0.047,0.717-0.158,0.819-1.746c0.034-0.53-0.182-0.645-1.384-0.727c-0.484-0.035-0.762,0.574-0.883,1.799
		C42.864,68.337,43.153,68.228,44.37,68.433z M47.819,67.565c0.035-1.112,0.035-1.112-0.633-1.206
		c-1.271-0.179-1.289-0.168-1.438,1.112c-0.01,0.083-0.014,0.165-0.021,0.25c-0.088,0.889-0.089,0.898,0.834,0.953
		C47.842,68.753,47.778,69.011,47.819,67.565z M54.625,68.461c1.255-0.036,1.733-0.251,1.594-0.68
		c-0.199-0.618,0.146-1.633-0.767-1.771c-1-0.154-1.462,0.202-1.36,0.688C54.224,67.315,53.904,68.146,54.625,68.461z
		 M41.317,65.503c-0.066,0.053-0.27,0.125-0.32,0.258c-0.195,0.516-0.359,1.048-0.494,1.586c-0.026,0.103,0.087,0.313,0.193,0.374
		c0.961,0.547,1.434,0.344,1.68-0.702c0.051-0.214,0.07-0.438,0.141-0.648c0.137-0.413,0-0.636-0.418-0.711
		C41.879,65.62,41.663,65.573,41.317,65.503z M57.256,67.962c1.343-0.012,1.558-0.295,1.265-1.428
		c-0.063-0.242-0.094-0.508-0.219-0.711c-0.094-0.145-0.317-0.273-0.484-0.281c-0.273-0.009-0.547,0.086-0.819,0.141
		c-0.446,0.086-0.399,0.406-0.294,0.703C56.904,66.933,56.729,67.656,57.256,67.962z M58.99,65.541
		c0.158,0.541,0.291,1.056,0.469,1.552c0.04,0.113,0.25,0.263,0.344,0.241c0.431-0.104,0.901-0.188,1.236-0.44
		c0.12-0.086-0.103-0.638-0.181-0.975c-0.031-0.134-0.079-0.267-0.154-0.384c-0.136-0.22-0.306-0.613-0.439-0.604
		c-0.402,0.024-0.797,0.198-1.187,0.34C59.021,65.292,59.014,65.464,58.99,65.541z M45.558,61.322c0-0.276,0.037-0.563-0.01-0.83
		c-0.047-0.271-0.109-0.686-0.283-0.756c-0.424-0.18-0.824,0.07-1.054,0.447c-0.084,0.139-0.002,0.561,0.033,0.567
		c0.504,0.054,0.334,0.431,0.355,0.696c0.021,0.305-0.005,0.609,0.008,0.915c0.012,0.344-0.094,0.772,0.492,0.757
		c0.594-0.02,0.434-0.469,0.454-0.797C45.575,61.994,45.558,61.659,45.558,61.322z M40.305,65.437
		c-0.039-0.089-0.055-0.169-0.102-0.23c-0.41-0.505-1.25-0.359-1.48,0.258c-0.09,0.234-0.16,0.469-0.246,0.703
		C38.2,66.926,38.192,66.944,39,67.175c0.23,0.066,0.676,0.078,0.719-0.016C39.965,66.604,40.119,66.015,40.305,65.437z
		 M24.897,52.36c-0.367,0.243-1.078-0.262-1.295,0.43c-0.145,0.462,0.423,1.54,0.688,1.545c0.469,0.003,1.47-0.489,1.48-0.731
		C25.794,52.992,25.387,52.369,24.897,52.36z M38.243,34.91c1.006-0.109,1.168-0.37,0.871-1.234
		c-0.09-0.266-0.148-0.551-0.293-0.783c-0.087-0.143-0.354-0.317-0.467-0.275c-0.369,0.133-1.021,0.432-0.998,0.535
		c0.136,0.587,0.43,1.139,0.691,1.693C38.075,34.908,38.235,34.909,38.243,34.91z M33.277,62.111
		c-0.121,0.102-0.242,0.164-0.315,0.267c-0.194,0.272-0.345,0.578-0.556,0.837c-0.369,0.46-0.297,0.748,0.223,1.04
		c0.791,0.442,0.776,0.469,1.215-0.354c0.078-0.147,0.164-0.297,0.223-0.452c0.086-0.222,0.277-0.58,0.197-0.661
		C34,62.518,33.637,62.343,33.277,62.111z M55.554,61.381c0.002,0,0.004,0,0.004,0c0-0.333,0.026-0.669-0.009-1.003
		c-0.023-0.223-0.108-0.611-0.207-0.627c-0.276-0.038-0.602,0.028-0.859,0.154c-0.328,0.161-0.53,0.697-0.242,0.791
		c0.609,0.197,0.344,0.602,0.383,0.922c0.047,0.328,0.02,0.665,0.016,1c-0.008,0.344,0.149,0.571,0.492,0.474
		c0.172-0.051,0.38-0.286,0.406-0.461C55.597,62.221,55.554,61.799,55.554,61.381z M67.249,63.891
		c-0.063-0.132-0.078-0.184-0.109-0.228c-0.203-0.332-0.43-0.647-0.609-0.989c-0.237-0.438-0.484-0.484-0.915-0.205
		c-0.69,0.439-0.712,0.408-0.341,1.126c0.066,0.121,0.139,0.242,0.202,0.361c0.469,0.891,0.473,0.891,1.323,0.319
		C66.967,64.159,67.109,64.009,67.249,63.891z M64.17,63.3c-0.881,0.078-1.156,0.569-0.813,1.295
		c0.056,0.126,0.114,0.251,0.173,0.376c0.375,0.805,0.87,0.914,1.468,0.278c0.102-0.107,0.053-0.459-0.046-0.633
		C64.699,64.159,64.616,63.572,64.17,63.3z M52.208,61.416c0,0,0.001,0,0.005,0c0-0.333,0.031-0.671-0.013-0.998
		c-0.031-0.243-0.156-0.673-0.242-0.674c-0.305,0-0.642,0.094-0.905,0.251c-0.281,0.169-0.438,0.622-0.109,0.733
		c0.469,0.156,0.312,0.448,0.329,0.709c0.03,0.414-0.033,0.838,0.038,1.244c0.027,0.165,0.294,0.399,0.453,0.399
		c0.148,0,0.398-0.25,0.423-0.421C52.249,62.253,52.208,61.831,52.208,61.416z M33.482,37.095c-0.225-0.393-0.387-0.686-0.556-0.969
		c-0.488-0.814-0.48-0.798-1.292-0.254c-0.396,0.266-0.561,0.496-0.185,0.908c0.223,0.244,0.362,0.565,0.593,0.799
		c0.12,0.117,0.411,0.211,0.541,0.146C32.906,37.568,33.184,37.314,33.482,37.095z M61.936,33.164
		c-0.047-0.105-0.062-0.223-0.112-0.242c-0.381-0.151-0.763-0.326-1.162-0.387c-0.096-0.016-0.28,0.355-0.375,0.57
		c-0.129,0.273-0.203,0.573-0.313,0.855c-0.099,0.246-0.205,0.508,0.155,0.598c0.352,0.09,0.925,0.281,1.042,0.141
		C61.521,34.257,61.695,33.679,61.936,33.164z M64.069,34.017c-0.063-0.115-0.086-0.193-0.141-0.252
		c-0.501-0.563-1.22-0.477-1.532,0.188c-0.116,0.25-0.265,0.496-0.334,0.76c-0.042,0.174-0.032,0.501,0.055,0.545
		c0.335,0.16,0.926,0.424,1.029,0.306C63.539,35.117,63.78,34.535,64.069,34.017z M74.794,52.486
		c-0.748-0.029-1.061,0.297-1.137,1.104c-0.025,0.302,0.787,0.749,1.389,0.771c0.313,0.009,0.742-0.766,0.711-1.427
		C75.718,52.181,75.062,52.664,74.794,52.486z M32.523,61.721c-0.321-0.25-0.575-0.5-0.879-0.654
		c-0.122-0.061-0.394,0.045-0.527,0.156c-0.227,0.193-0.403,0.451-0.597,0.686c-0.457,0.561-0.466,0.574,0.145,1
		c0.232,0.163,0.694,0.4,0.752,0.336C31.814,62.799,32.133,62.284,32.523,61.721z M66.889,35.312
		c-0.11,0.098-0.228,0.168-0.297,0.27c-0.186,0.278-0.324,0.591-0.526,0.854c-0.344,0.449-0.208,0.684,0.244,0.979
		c0.506,0.335,0.821,0.352,1.11-0.226c0.125-0.244,0.344-0.44,0.477-0.683c0.07-0.124,0.117-0.383,0.055-0.438
		C67.635,35.8,67.279,35.582,66.889,35.312z M37.351,35.188c-0.245-0.537-0.46-0.933-0.605-1.353
		c-0.159-0.461-0.374-0.52-0.811-0.319c-0.864,0.397-0.875,0.374-0.45,1.188c0.141,0.271,0.247,0.584,0.45,0.796
		c0.121,0.124,0.43,0.157,0.614,0.103C36.833,35.524,37.086,35.332,37.351,35.188z M36.258,63.912
		c-0.027-0.102-0.023-0.184-0.056-0.199c-0.315-0.172-0.622-0.389-0.96-0.459c-0.121-0.027-0.355,0.277-0.472,0.469
		c-0.192,0.303-0.365,0.631-0.473,0.969c-0.047,0.156,0.028,0.475,0.137,0.531c0.324,0.148,0.922,0.375,1.002,0.268
		C35.793,65.009,36.008,64.425,36.258,63.912z M69.186,62.61c-0.042-0.139-0.045-0.201-0.078-0.239
		c-0.338-0.403-0.677-0.814-1.039-1.196c-0.063-0.07-0.26-0.063-0.374-0.02c-0.801,0.299-0.9,0.622-0.431,1.339
		c0.109,0.165,0.195,0.353,0.329,0.484c0.162,0.156,0.444,0.416,0.538,0.369C68.52,63.15,68.854,62.853,69.186,62.61z M40.7,31.94
		c-1-0.023-1.266,0.329-1.02,1.103c0.06,0.186,0.125,0.37,0.191,0.553c0.254,0.695,0.734,0.9,1.286,0.416
		c0.464-0.404-0.069-0.902-0.126-1.359C41,32.378,40.79,32.124,40.7,31.94z M29.382,61.884c0.117-0.042,0.184-0.047,0.215-0.084
		c0.354-0.392,0.707-0.784,1.043-1.194c0.052-0.063,0.049-0.217,0.009-0.3c-0.283-0.6-0.917-0.711-1.431-0.269
		c-0.125,0.108-0.275,0.198-0.375,0.331c-0.151,0.196-0.426,0.541-0.372,0.618C28.73,61.331,29.085,61.606,29.382,61.884z
		 M63.195,66.026c-0.299-0.652-0.538-1.185-0.798-1.705c-0.032-0.069-0.18-0.117-0.276-0.121c-0.648-0.01-0.959,0.443-0.725,1.059
		c0.134,0.363,0.25,0.744,0.438,1.077c0.07,0.12,0.361,0.213,0.5,0.165C62.639,66.394,62.912,66.19,63.195,66.026z M35.406,36.095
		c-0.363-0.627-0.66-1.161-0.98-1.678c-0.031-0.051-0.208-0.047-0.305-0.02c-0.856,0.227-1.004,0.582-0.563,1.351
		c0.125,0.217,0.227,0.462,0.393,0.642c0.119,0.126,0.365,0.267,0.494,0.222C34.77,36.501,35.059,36.291,35.406,36.095z
		 M58.849,34.183c0.281-0.012,0.299-0.007,0.603-0.971c0.103-0.334,0.078-0.713,0.109-1.068c0-0.013-0.047-0.028-0.071-0.044
		c-0.679-0.43-1.109-0.266-1.319,0.505c-0.049,0.188-0.095,0.375-0.149,0.561C57.812,33.903,58.068,34.218,58.849,34.183z
		 M31.652,38.315c-0.312-0.423-0.599-0.828-0.902-1.22c-0.079-0.104-0.26-0.268-0.293-0.248c-0.364,0.236-0.742,0.475-1.036,0.785
		c-0.068,0.073,0.11,0.482,0.271,0.643C30.686,39.275,30.39,39.462,31.652,38.315z M38.122,64.722
		c-0.034-0.109-0.039-0.197-0.082-0.259c-0.301-0.428-1.044-0.391-1.266,0.072c-0.183,0.375-0.339,0.763-0.505,1.147
		c-0.17,0.392,0.137,0.511,0.392,0.585c0.258,0.073,0.724,0.151,0.781,0.049C37.729,65.814,37.911,65.25,38.122,64.722z
		 M68.665,39.072c0.248-0.25,0.481-0.471,0.701-0.703c0.713-0.742,0.689-0.718-0.047-1.352c-0.435-0.374-0.702-0.337-0.969,0.141
		c-0.094,0.171-0.242,0.305-0.338,0.474c-0.12,0.206-0.349,0.537-0.282,0.621C67.959,38.553,68.297,38.767,68.665,39.072z
		 M28.66,38.374c-0.104,0.042-0.168,0.05-0.203,0.088c-0.279,0.306-0.622,0.581-0.786,0.941c-0.051,0.108,0.391,0.456,0.622,0.677
		c0.14,0.133,0.299,0.251,0.466,0.352c0.11,0.063,0.264,0.133,0.374,0.102c0.637-0.156,0.851-0.887,0.409-1.344
		c-0.194-0.203-0.385-0.402-0.588-0.594C28.859,38.502,28.743,38.433,28.66,38.374z M66.045,35.061
		c-0.055-0.129-0.071-0.21-0.117-0.272c-0.422-0.582-1.131-0.537-1.477,0.094c-0.117,0.221-0.266,0.434-0.345,0.668
		c-0.062,0.177-0.108,0.509-0.033,0.552c0.323,0.183,0.894,0.494,1.008,0.384C65.487,36.087,65.741,35.539,66.045,35.061z
		 M70.259,40.502c0.277-0.21,0.497-0.371,0.709-0.54c0.851-0.674,0.829-0.656,0.092-1.391c-0.35-0.344-0.585-0.35-0.874,0.027
		c-0.135,0.176-0.336,0.301-0.468,0.478c-0.131,0.182-0.35,0.496-0.285,0.59C69.639,39.978,69.959,40.212,70.259,40.502z
		 M69.577,59.613c-0.349,0.303-0.664,0.506-0.865,0.787c-0.071,0.102,0.115,0.415,0.231,0.603c0.131,0.21,0.298,0.406,0.49,0.563
		c0.169,0.145,0.495,0.367,0.573,0.312c0.351-0.251,0.634-0.594,0.945-0.904C70.506,60.533,70.061,60.093,69.577,59.613z
		 M27.75,60.353c0.495-0.488,0.938-0.922,1.372-1.361c0.015-0.014-0.035-0.099-0.056-0.146c-0.3-0.68-0.804-0.828-1.413-0.414
		c-0.137,0.094-0.292,0.172-0.403,0.289c-0.156,0.161-0.43,0.445-0.387,0.518C27.085,59.609,27.394,59.923,27.75,60.353z
		 M72.601,59.287c-0.116-0.129-0.188-0.244-0.289-0.318c-0.289-0.217-0.603-0.399-0.883-0.623c-0.28-0.227-0.462-0.17-0.705,0.072
		c-0.673,0.677-0.687,0.675,0.07,1.311c0.084,0.07,0.157,0.163,0.256,0.211c0.226,0.11,0.565,0.352,0.675,0.275
		C72.054,59.986,72.296,59.626,72.601,59.287z M27.054,40.08c-1.174,1.094-1.152,1.273,0.155,1.977
		c0.318,0.172,0.522,0.18,0.778-0.125c0.586-0.695,0.603-0.702-0.146-1.266C27.578,40.47,27.312,40.275,27.054,40.08z
		 M74.702,47.939c0.915,0.008,1.25-0.109,1.262-0.455c0.024-0.6-0.312-1.319-0.612-1.311c-0.618,0.016-1.376,0.389-1.384,0.677
		C73.952,47.478,74.259,47.931,74.702,47.939z M73.194,41.206c-0.719-1.392-0.854-1.415-1.972-0.509
		c-0.333,0.273-0.396,0.447-0.099,0.802c0.556,0.659,0.537,0.682,1.25,0.245C72.654,41.572,72.922,41.384,73.194,41.206z
		 M72.976,58.533c0.109-0.047,0.211-0.055,0.249-0.109c0.226-0.344,0.486-0.68,0.613-1.063c0.029-0.086-0.424-0.346-0.667-0.506
		c-0.188-0.119-0.391-0.265-0.594-0.283c-0.172-0.018-0.422,0.078-0.531,0.211c-0.18,0.219-0.438,0.68-0.375,0.742
		C72.062,57.908,72.534,58.205,72.976,58.533z M24.552,43.9c-0.216,0.547-0.407,0.953-0.531,1.375
		c-0.059,0.203,1.178,0.803,1.485,0.609c0.295-0.188,0.647-0.88,0.587-0.938C25.691,44.572,25.187,44.306,24.552,43.9z
		 M26.441,44.153c0.262-0.416,0.493-0.729,0.665-1.073c0.086-0.174-1.19-1.147-1.37-0.999c-0.337,0.28-0.548,0.709-0.813,1.077
		C25.387,43.462,25.852,43.767,26.441,44.153z M26.632,55.658c0.051-0.609-0.582-1.108-1.104-0.94
		c-1.288,0.409-1.316,0.479-0.752,1.44c0.172,0.291,0.327,0.405,0.647,0.216c0.309-0.185,0.646-0.317,0.961-0.489
		C26.495,55.823,26.574,55.712,26.632,55.658z M27.711,57.402c-0.02-0.619-0.743-1.041-1.241-0.803
		c-1.181,0.566-1.175,0.59-0.612,1.41c0.274,0.403,0.516,0.436,0.874,0.156c0.241-0.186,0.507-0.337,0.752-0.521
		C27.585,57.571,27.661,57.457,27.711,57.402z M73.665,41.814c-0.557,0.358-0.978,0.617-1.385,0.895
		c-0.047,0.029-0.052,0.152-0.042,0.223c0.081,0.676,0.651,0.979,1.284,0.695c0.155-0.065,0.336-0.095,0.452-0.203
		c0.15-0.141,0.386-0.398,0.344-0.508C74.163,42.537,73.905,42.201,73.665,41.814z M75.007,55.361
		c-0.094-0.102-0.158-0.227-0.265-0.273c-0.306-0.133-0.634-0.211-0.94-0.344c-0.352-0.156-0.553-0.063-0.742,0.273
		c-0.397,0.703-0.398,0.758,0.314,1.123c0.227,0.111,0.445,0.242,0.68,0.323c0.109,0.039,0.328,0.038,0.367-0.031
		C74.632,56.105,74.796,55.751,75.007,55.361z M75.429,45.064c-0.258-0.365-0.443-0.844-0.789-1.053
		c-0.305-0.18-1.448,0.608-1.352,0.82c0.156,0.351,0.102,0.894,0.646,0.952C74.421,45.837,75.335,45.376,75.429,45.064z
		 M24.381,50.462c-0.304,0-0.529-0.021-0.745,0.008c-0.118,0.016-0.277,0.087-0.329,0.183c-0.269,0.481,0.173,1.208,0.717,1.2
		c0.167,0,0.331-0.008,0.498-0.023c0.755-0.055,0.821-0.188,0.677-0.93C25.082,50.298,24.645,50.501,24.381,50.462z M24.188,49.939
		c0.297-0.094,0.723-0.094,0.867-0.297c0.398-0.559,0.031-1.165-0.669-1.227c-0.167-0.012-0.335-0.008-0.498-0.039
		c-0.418-0.07-0.603,0.086-0.646,0.519C23.156,49.791,23.209,49.861,24.188,49.939z M75.188,50.414
		c-0.268,0.048-0.697,0.016-0.768,0.159c-0.162,0.327-0.173,0.741-0.172,1.116c0,0.07,0.36,0.156,0.563,0.196
		c0.247,0.049,0.499,0.085,0.748,0.069c0.141-0.008,0.337-0.086,0.4-0.195C76.399,51.009,76.063,50.455,75.188,50.414z
		 M24.457,47.83c0.813,0.042,0.844,0,0.961-0.664c0.121-0.693-0.453-0.57-0.792-0.712c-0.176-0.077-0.376-0.116-0.569-0.132
		c-0.12-0.008-0.334,0.047-0.354,0.112c-0.104,0.373-0.212,0.755-0.198,1.13c0.004,0.094,0.454,0.174,0.703,0.25
		C24.285,47.837,24.374,47.827,24.457,47.83z M62.545,40.095c-0.024,0.056-0.047,0.117-0.071,0.18
		c0.477,0.316,0.946,0.642,1.431,0.945c0.101,0.063,0.289,0.086,0.382,0.031c0.524-0.32,1.032-0.672,1.547-1.008
		c-0.029-0.053-0.054-0.102-0.077-0.148C64.686,40.095,63.615,40.095,62.545,40.095z M75.206,49.863c0.057,0,0.113-0.002,0.168,0
		c0.463,0.035,0.823-0.003,0.773-0.644c-0.054-0.724-0.086-0.789-0.837-0.759c-0.112,0.001-0.225,0.017-0.334,0.016
		c-0.547-0.017-0.691,0.241-0.688,0.775C74.292,49.994,74.78,49.845,75.206,49.863z M41.921,33.054c0.06,0,0.123-0.001,0.185-0.001
		c0.055-0.37,0.141-0.737,0.152-1.105c0.004-0.117-0.183-0.241-0.281-0.359c-0.113,0.121-0.328,0.254-0.316,0.363
		C41.704,32.324,41.829,32.687,41.921,33.054z M57.115,32.914c0.071,0,0.144,0,0.216,0c0.083-0.35,0.198-0.696,0.229-1.052
		c0.008-0.102-0.237-0.223-0.367-0.336c-0.078,0.113-0.234,0.23-0.227,0.34C56.982,32.217,57.06,32.566,57.115,32.914z"/>
	<path fill-rule="evenodd" clip-rule="evenodd" fill="#FFFFFF" d="M23.738,33.351c0.094,0.254,0.208,0.504,0.276,0.766
		c0.189,0.729-0.35,1.299-1.03,0.996c-0.476-0.212-1.009-0.611-1.21-1.063c-0.524-1.184-1.377-1.367-2.502-1.168
		c-1.292,0.227-2.502,0.618-3.479,1.531c-0.636,0.596-1.002,1.306-0.736,2.299c0.533-0.33,0.954-0.617,1.198-1.173
		c0.512-1.173,2.187-1.868,3.401-1.481c1.424,0.454,2,1.98,1.335,3.428c-0.835,1.813-3.62,2.773-5.354,1.336
		c-0.145-0.12-0.308-0.219-0.521-0.374c-0.328,0.78-0.227,1.521-0.116,2.249c0.011,0.072,0.337,0.141,0.516,0.141
		c0.547-0.008,1.115-0.156,1.636-0.055c0.699,0.141,1.001,0.648,0.914,1.203c-0.098,0.617-0.535,1-1.279,0.919
		c-0.618-0.068-1.216-0.316-1.938-0.513c-0.489,0.81-0.461,1.782-0.104,2.741c0.233,0.619,0.634,1.176,0.934,1.775
		c0.312,0.625,0.675,1.238,0.853,1.898c0.121,0.453,0.056,1.008-0.091,1.463c-0.177,0.544-0.83,0.818-1.297,0.685
		c-0.449-0.125-0.876-0.836-0.773-1.353c0.03-0.155,0.214-0.272,0.327-0.406c0.087,0.12,0.216,0.231,0.255,0.369
		c0.097,0.345,0.119,0.813,0.618,0.703c0.464-0.098,0.547-0.559,0.452-0.955c-0.129-0.538-0.308-1.077-0.539-1.577
		c-0.365-0.787-0.832-1.523-1.184-2.313c-0.539-1.203-0.618-2.422,0.056-3.628c0.109-0.196,0.139-0.481,0.098-0.708
		c-0.192-1.061-0.241-2.103,0.054-3.156c0.063-0.227,0.013-0.5-0.042-0.741c-0.366-1.603-0.029-2.944,2.084-4.001
		c0.878-0.439,1.917-0.561,2.887-0.811c0.286-0.075,0.586-0.1,0.879-0.148c0.003-0.069,0.004-0.139,0.007-0.208
		c-0.387-0.051-0.789-0.051-1.158-0.16c-0.549-0.161-1.116-0.336-1.599-0.629c-0.402-0.246-0.541-0.723-0.306-1.191
		c0.25-0.496,0.713-0.551,1.156-0.358c0.477,0.208,1.021,0.426,1.34,0.804c0.684,0.813,1.514,0.958,2.473,0.848
		c-0.224-0.824-0.52-1.047-1.326-1.18c-0.572-0.094-1.158-0.227-1.684-0.457c-0.623-0.273-0.85-0.918-0.601-1.371
		c0.262-0.477,0.861-0.6,1.478-0.238c0.405,0.239,0.833,0.508,1.12,0.867c0.644,0.806,1.494,0.867,2.465,0.867
		c-0.257-0.589-0.594-0.913-1.222-1.042c-0.615-0.126-1.224-0.391-1.773-0.704c-0.502-0.289-0.646-0.922-0.438-1.317
		c0.211-0.4,0.768-0.569,1.334-0.237c0.54,0.316,1.001,0.781,1.458,1.219c0.416,0.399,1.575,0.551,1.976,0.179
		c0.103-0.097,0.155-0.301,0.149-0.453c-0.138-3.438,3.45-5.074,6.375-4.471c2.138,0.44,3.805,1.705,5.38,3.109
		c0.164,0.146,0.136,0.51,0.199,0.772c-0.064,0.031-0.128,0.063-0.191,0.094c-0.404-0.324-0.781-0.688-1.215-0.965
		c-1.127-0.718-2.224-1.517-3.435-2.063c-1.698-0.769-3.41-0.496-4.949,0.532c-1.109,0.741-1.584,1.823-1.43,3.183
		c0.617,0.053,0.938-0.15,1.093-0.718c0.263-0.97,0.948-1.556,1.896-1.843c1.292-0.392,2.59-0.482,3.856,0.073
		c0.922,0.405,1.567,1.077,1.688,2.128c0.125,1.103-0.427,1.879-1.289,2.465c-2.262,1.543-5.559,1.215-7.48-0.727
		c-0.456-0.462-0.598-0.477-1.61-0.141c0.294,0.773,0.846,1.157,1.655,1.318c0.563,0.111,1.11,0.358,1.627,0.62
		c0.44,0.224,0.639,0.624,0.405,1.128c-0.227,0.489-0.691,0.692-1.109,0.481c-0.578-0.293-1.164-0.685-1.573-1.178
		c-0.646-0.781-1.43-0.822-2.369-0.787c0.254,0.612,0.573,0.968,1.203,1.105c0.532,0.117,1.06,0.366,1.52,0.663
		c0.566,0.368,0.661,0.937,0.348,1.372c-0.324,0.451-0.825,0.517-1.417,0.172c-0.215-0.125-0.415-0.28-0.622-0.422
		c-0.84-1.427-1.316-1.677-2.619-1.25C22.047,32.562,22.893,32.957,23.738,33.351z M27.631,26.924
		c0.06,0.068,0.118,0.137,0.177,0.203c0.128-0.031,0.254-0.07,0.384-0.094c0.655-0.117,1.311-0.316,1.967-0.324
		c0.75-0.012,1.359,0.579,1.422,1.186c0.058,0.592-0.377,1.166-1.102,1.4c-1.158,0.373-2.217,0.191-3.105-0.664
		c-0.361-0.347-0.668-0.452-1.038-0.052c1.095,1.689,5.016,2.251,7.046,0.027c0.543-0.596,0.559-1.374,0.034-1.992
		c-0.3-0.351-0.687-0.686-1.102-0.865c-1.359-0.586-2.689-0.317-3.937,0.365C28.074,26.281,27.877,26.651,27.631,26.924z
		 M17.081,35.414c0.556,0,0.943-0.029,1.324,0.006c0.961,0.09,1.321,0.776,0.942,1.672c-0.499,1.177-2.385,1.583-3.134,0.291
		c-0.139-0.24-0.267-0.436-0.572-0.183c-0.259,0.218-0.328,0.446-0.094,0.716c0.128,0.143,0.259,0.297,0.417,0.406
		c1.816,1.259,3.661,0.384,4.452-1.175c0.58-1.145-0.138-2.434-1.396-2.561C18.329,34.515,17.716,34.777,17.081,35.414z
		 M27.828,27.807c0.66,0.907,1.619,1.163,2.432,0.723c0.209-0.115,0.333-0.391,0.494-0.594c-0.229-0.165-0.467-0.483-0.685-0.469
		C29.344,27.511,28.628,27.675,27.828,27.807z M18.261,36.011c-0.935-0.004-1.562,0.279-1.584,0.607
		c-0.026,0.404,0.487,0.844,0.984,0.837c0.533-0.001,1.171-0.518,1.066-0.948C18.667,36.268,18.343,36.095,18.261,36.011z
		 M16.656,42.434c0.289-0.206,0.517-0.369,0.746-0.526c-0.187-0.211-0.361-0.586-0.562-0.601c-0.444-0.032-0.902,0.108-1.349,0.2
		c-0.032,0.004-0.069,0.25-0.036,0.268C15.824,41.995,16.207,42.194,16.656,42.434z M19.412,31.347
		c0.042-0.087,0.084-0.177,0.127-0.266c-0.338-0.271-0.651-0.59-1.027-0.79c-0.18-0.098-0.479,0.023-0.726,0.047
		c0.127,0.219,0.202,0.539,0.39,0.633C18.554,31.163,18.996,31.229,19.412,31.347z M20.702,29.605
		c0.048-0.104,0.098-0.208,0.146-0.313c-0.398-0.277-0.782-0.578-1.204-0.813c-0.109-0.061-0.335,0.09-0.506,0.142
		c0.06,0.171,0.073,0.444,0.186,0.496C19.765,29.319,20.239,29.448,20.702,29.605z M25.665,30.768
		c-0.048,0.096-0.099,0.192-0.15,0.289c0.391,0.27,0.771,0.558,1.18,0.793c0.097,0.055,0.292-0.065,0.441-0.105
		c-0.048-0.168-0.051-0.437-0.156-0.485C26.561,31.057,26.106,30.924,25.665,30.768z M22.273,28.215
		c0.059-0.089,0.117-0.179,0.175-0.268c-0.368-0.303-0.723-0.621-1.112-0.895c-0.096-0.066-0.3,0.02-0.454,0.036
		c0.042,0.168,0.031,0.425,0.138,0.491C21.417,27.825,21.852,28.008,22.273,28.215z M24.049,32.208
		c-0.05,0.068-0.101,0.139-0.151,0.209c0.24,0.277,0.452,0.59,0.733,0.818c0.119,0.096,0.384,0.017,0.582,0.017
		c-0.058-0.194-0.054-0.472-0.183-0.563C24.738,32.48,24.379,32.363,24.049,32.208z M22.25,33.246
		c-0.055,0.063-0.113,0.127-0.169,0.191c0.259,0.34,0.501,0.695,0.79,1.008c0.074,0.08,0.291,0.027,0.442,0.037
		c0.006-0.152,0.078-0.381,0.004-0.443C22.984,33.748,22.609,33.503,22.25,33.246z"/>
	<path fill-rule="evenodd" clip-rule="evenodd" fill="#FFFFFF" d="M76.054,29.741c0.977,0.036,1.79-0.027,2.418-0.813
		c0.286-0.359,0.712-0.632,1.113-0.875c0.575-0.344,1.255-0.226,1.508,0.199c0.28,0.466,0.024,1.127-0.645,1.428
		c-0.476,0.213-1.009,0.322-1.527,0.416c-0.97,0.172-0.976,0.153-1.509,1.161c0.917,0.08,1.725,0.099,2.417-0.692
		c0.382-0.434,0.988-0.713,1.539-0.945c0.381-0.159,0.858-0.113,1.085,0.363c0.227,0.469,0.116,0.965-0.292,1.191
		c-0.569,0.32-1.217,0.5-1.848,0.688c-0.292,0.088-0.623,0.051-0.939,0.07c-0.003,0.072-0.009,0.145-0.017,0.215
		c0.164,0.044,0.328,0.091,0.492,0.13c0.979,0.219,2.005,0.316,2.929,0.68c1.943,0.766,2.891,2.102,2.478,4.093
		c-0.074,0.369,0.015,0.772,0.016,1.157c0.008,0.858,0.051,1.72,0,2.577c-0.024,0.422-0.063,0.781,0.176,1.189
		c0.686,1.178,0.44,2.388-0.085,3.545c-0.373,0.811-0.841,1.578-1.232,2.38c-0.184,0.371-0.34,0.776-0.414,1.183
		c-0.055,0.281-0.023,0.625,0.102,0.883c0.201,0.406,0.633,0.359,0.82-0.055c0.064-0.152,0.055-0.341,0.129-0.484
		c0.067-0.125,0.205-0.211,0.31-0.313c0.085,0.102,0.203,0.195,0.241,0.313c0.149,0.477-0.204,1.25-0.637,1.43
		c-0.496,0.203-1.195-0.039-1.395-0.602c-0.155-0.425-0.246-0.961-0.125-1.375c0.215-0.742,0.599-1.433,0.938-2.133
		c0.289-0.603,0.688-1.164,0.898-1.789c0.171-0.516,0.172-1.094,0.165-1.647c-0.001-0.322-0.173-0.641-0.267-0.961
		c-0.292,0.098-0.578,0.22-0.875,0.281c-0.461,0.095-0.93,0.202-1.391,0.202c-0.538,0-0.875-0.338-0.992-0.863
		c-0.123-0.566,0.18-0.996,0.656-1.113c0.571-0.141,1.211-0.172,1.789-0.07c0.494,0.091,0.688,0.031,0.695-0.461
		c0.007-0.602,0-1.203,0-1.995c-0.383,0.245-0.571,0.335-0.729,0.464c-1.557,1.287-4.138,0.57-5.099-0.948
		c-0.83-1.316-0.578-2.914,0.603-3.605c1.226-0.717,3.272-0.152,3.85,1.135c0.258,0.582,0.665,0.918,1.217,1.286
		c0.284-0.861,0.023-1.519-0.513-2.093c-0.893-0.963-2.05-1.422-3.313-1.664c-0.025-0.004-0.055-0.003-0.081-0.009
		c-1.309-0.335-2.327-0.105-2.895,1.294c-0.135,0.343-0.548,0.665-0.907,0.798c-0.305,0.112-0.805,0.054-1.058-0.14
		c-0.387-0.291-0.296-0.834,0.026-1.121c0.508-0.452,1.11-0.805,1.695-1.166c0.289-0.18,0.624-0.284,1.063-0.478
		c-1.258-0.359-1.625-0.219-2.273,0.623c-0.305,0.394-0.65,0.776-1.054,1.058c-0.478,0.341-1.079,0.215-1.353-0.172
		c-0.289-0.406-0.227-0.995,0.273-1.328c0.477-0.318,1.028-0.563,1.579-0.717c0.601-0.167,0.98-0.47,1.171-1.124
		c-0.883-0.003-1.695-0.043-2.267,0.769c-0.225,0.314-0.506,0.621-0.834,0.818c-0.337,0.21-0.766,0.398-1.148,0.379
		c-0.281-0.012-0.664-0.322-0.779-0.595c-0.089-0.222,0.062-0.738,0.264-0.852c0.617-0.355,1.289-0.676,1.983-0.828
		c0.751-0.164,1.158-0.582,1.47-1.297c-0.714-0.242-1.248-0.281-1.859,0.34c-1.848,1.867-5.211,2.048-7.343,0.495
		c-1.757-1.284-1.58-3.534,0.382-4.467c1.547-0.733,3.111-0.567,4.618,0.145c0.625,0.293,1.086,0.832,1.237,1.516
		c0.13,0.582,0.443,0.793,1.077,0.801c0.224-1.032-0.073-1.933-0.774-2.656c-1.344-1.383-3.019-1.761-4.86-1.336
		c-2.914,0.669-1.645,0.281-4.211,2.35c-0.366,0.295-0.728,0.592-1.134,0.92c-0.257-0.371-0.288-0.66,0.024-0.926
		c1.454-1.235,2.945-2.426,4.841-2.921c1.721-0.45,3.392-0.317,4.925,0.651c1.22,0.768,1.867,1.885,1.93,3.34
		c0.016,0.32-0.195,0.824,0.368,0.868c0.567,0.046,1.187,0.53,1.702-0.161c0.232-0.313,0.501-0.605,0.797-0.855
		c0.252-0.211,0.552-0.387,0.856-0.512c0.443-0.184,0.933-0.186,1.19,0.273c0.264,0.465,0.133,1.004-0.313,1.263
		c-0.589,0.347-1.248,0.616-1.908,0.794C76.679,28.88,76.318,29.121,76.054,29.741z M71.89,27.053
		c0.047-0.047,0.1-0.096,0.148-0.145c-0.171-0.238-0.305-0.516-0.516-0.71c-1.056-0.958-3.602-1.04-4.722-0.174
		c-1.145,0.883-1.138,2.134,0.018,3.009c1.585,1.202,4.102,1.315,5.766,0.238c0.311-0.199,0.569-0.48,0.859-0.73
		c-0.504-0.445-0.805-0.256-1.151,0.074c-0.958,0.909-2.091,0.991-3.271,0.544c-0.521-0.196-0.88-0.599-0.883-1.208
		c0-0.62,0.38-1.01,0.909-1.171c0.412-0.124,0.88-0.13,1.31-0.082C70.874,26.757,71.379,26.93,71.89,27.053z M83.739,36.954
		c-0.123,0.189-0.201,0.337-0.301,0.467c-0.845,1.089-2.517,0.872-3.083-0.396c-0.378-0.849-0.02-1.536,0.895-1.649
		c0.403-0.051,0.813-0.009,1.251-0.009c-0.673-0.831-1.7-1.054-2.548-0.584c-0.727,0.404-1.039,1.336-0.734,2.197
		c0.645,1.826,3.266,2.477,4.695,1.171C84.429,37.681,84.407,37.472,83.739,36.954z M71.835,27.916
		c-0.693-0.429-1.447-0.555-2.219-0.514c-0.219,0.012-0.422,0.288-0.633,0.444c0.168,0.226,0.289,0.542,0.513,0.66
		C70.264,28.914,71.147,28.674,71.835,27.916z M82.041,37.417c0.482,0.006,0.927-0.345,0.962-0.762
		c0.035-0.374-0.519-0.692-1.238-0.713c-0.385-0.01-0.762,0.029-0.82,0.506C80.891,36.861,81.543,37.413,82.041,37.417z
		 M83.188,42.259c0.273-0.109,0.616-0.219,0.921-0.396c0.086-0.05,0.133-0.373,0.063-0.443c-0.386-0.403-1.405-0.324-1.758,0.102
		c-0.219,0.261-0.156,0.464,0.126,0.596C82.71,42.192,82.913,42.202,83.188,42.259z M80.124,31.042
		c0.06,0.104,0.117,0.207,0.177,0.311c0.479-0.177,0.971-0.322,1.424-0.552c0.121-0.06,0.116-0.368,0.165-0.563
		c-0.174-0.031-0.402-0.147-0.519-0.078C80.937,30.42,80.538,30.742,80.124,31.042z M78.864,29.256
		c0.046,0.095,0.09,0.19,0.136,0.285c0.465-0.152,0.937-0.279,1.382-0.475c0.109-0.049,0.118-0.32,0.177-0.489
		c-0.169-0.055-0.396-0.205-0.5-0.146C79.64,28.67,79.257,28.975,78.864,29.256z M74.216,30.979
		c-0.053-0.09-0.104-0.181-0.154-0.272c-0.414,0.14-0.837,0.248-1.227,0.437c-0.148,0.071-0.206,0.329-0.305,0.503
		c0.195,0.043,0.439,0.184,0.57,0.11C73.499,31.542,73.848,31.245,74.216,30.979z M77.258,27.885
		c0.04,0.059,0.081,0.118,0.121,0.178c0.525,0.013,0.979-0.19,1.362-0.557c0.094-0.093,0.088-0.287,0.131-0.434
		c-0.17-0.027-0.391-0.137-0.498-0.068C77.983,27.266,77.63,27.585,77.258,27.885z M75.913,32.292
		c-0.672-0.114-1.039,0.109-1.336,0.457c-0.086,0.105-0.064,0.301-0.094,0.455c0.178,0.018,0.422,0.119,0.521,0.039
		C75.309,32.996,75.556,32.678,75.913,32.292z M77.609,33.378c-0.049-0.057-0.103-0.113-0.156-0.168
		c-0.328,0.219-0.681,0.406-0.97,0.668c-0.109,0.102-0.058,0.371-0.08,0.566c0.174-0.035,0.415-0.008,0.51-0.113
		C77.179,34.042,77.382,33.699,77.609,33.378z"/>
	<path fill-rule="evenodd" clip-rule="evenodd" fill="#FFFFFF" d="M55.88,19.598c-0.273,0.621-0.44,1.119-0.709,1.554
		c-0.15,0.248-1.017,0.066-1.349-0.316c-0.113-0.13-0.038-0.477,0.027-0.704c0.07-0.264,0.197-0.527,0.359-0.75
		c0.138-0.195,0.423-0.511,0.523-0.469C55.14,19.08,55.505,19.361,55.88,19.598z M54.708,20.974
		c0.156-0.162,0.242-0.252,0.327-0.341c-0.171-0.153-0.335-0.325-0.525-0.447c-0.029-0.019-0.201,0.185-0.31,0.286
		C54.357,20.628,54.514,20.781,54.708,20.974z M55.514,19.852c-0.032-0.072-0.063-0.146-0.095-0.22
		c-0.18-0.097-0.348-0.234-0.539-0.271c-0.075-0.015-0.195,0.185-0.297,0.29c0.189,0.117,0.367,0.266,0.57,0.337
		C55.248,20.022,55.396,19.902,55.514,19.852z"/>
	<path fill-rule="evenodd" clip-rule="evenodd" fill="#FFFFFF" d="M48.497,18.444c-0.099-0.035-0.209-0.051-0.287-0.112
		c-0.336-0.263-0.656-0.294-0.945,0.059c-0.266,0.327-0.212,0.944,0.102,1.226c0.296,0.262,0.639,0.305,0.859-0.042
		c0.075-0.118-0.109-0.403-0.207-0.712c0.184,0.036,0.535,0.008,0.621,0.145c0.129,0.207,0.188,0.715,0.086,0.77
		c-0.329,0.188-0.743,0.328-1.118,0.313c-0.525-0.023-0.82-0.422-0.907-0.938c-0.088-0.519,0.188-1.069,0.646-1.237
		C47.858,17.725,48.319,17.779,48.497,18.444z"/>
	<path fill-rule="evenodd" clip-rule="evenodd" fill="#FFFFFF" d="M50.881,20.132c-0.375-0.34-0.064-0.982-0.719-1.008
		c-0.609-0.024-0.32,0.645-0.836,0.864c0.039-0.691,0.063-1.305,0.122-1.915c0.01-0.093,0.176-0.238,0.277-0.24
		c0.359-0.006,0.734-0.014,1.078,0.083c0.153,0.043,0.348,0.332,0.336,0.5C51.108,18.953,50.989,19.486,50.881,20.132z
		 M50.186,19.003c0.254-0.238,0.398-0.371,0.539-0.503c-0.156-0.118-0.297-0.302-0.469-0.333c-0.125-0.022-0.406,0.161-0.406,0.247
		C49.854,18.573,50.015,18.729,50.186,19.003z"/>
	<path fill-rule="evenodd" clip-rule="evenodd" fill="#FFFFFF" d="M46.686,20.179c-1.369-0.336-1.252-0.211-1.854,0.592
		c-0.084-0.865-0.051-1.557,0.082-2.24c0.01-0.056,0.5-0.134,0.574-0.044C45.897,18.992,46.247,19.546,46.686,20.179z M45.489,19.05
		c-0.092,0.021-0.184,0.043-0.277,0.063c0.051,0.189,0.098,0.378,0.146,0.565c0.098-0.029,0.283-0.075,0.28-0.086
		C45.602,19.409,45.543,19.23,45.489,19.05z"/>
	<path fill-rule="evenodd" clip-rule="evenodd" fill="#FFFFFF" d="M52.998,20.573c-0.411-0.105-0.828-0.191-1.227-0.332
		c-0.094-0.032-0.164-0.258-0.159-0.393c0.002-0.189,0.081-0.381,0.13-0.569c0.356-1.312,0.567-1.393,1.784-0.526
		c-0.232-0.042-0.466-0.109-0.701-0.116c-0.164-0.005-0.328,0.073-0.492,0.113c0.116,0.147,0.205,0.324,0.352,0.433
		c0.141,0.106,0.336,0.145,0.477,0.359c-0.156-0.02-0.32-0.074-0.477-0.051c-0.214,0.032-0.422,0.122-0.633,0.188
		c0.141,0.16,0.259,0.354,0.43,0.473c0.164,0.116,0.379,0.153,0.57,0.226C53.037,20.442,53.015,20.507,52.998,20.573z"/>
	<path fill-rule="evenodd" clip-rule="evenodd" fill="#FFFFFF" d="M43.274,20.931c0.469-0.146,0.746-0.232,1.023-0.316
		c0.029,0.066,0.059,0.134,0.09,0.2c-0.418,0.199-0.832,0.407-1.262,0.579c-0.027,0.012-0.254-0.266-0.238-0.388
		c0.074-0.511,0.203-1.015,0.332-1.601c-0.391,0.098-0.691,0.172-0.988,0.246c-0.023-0.058-0.048-0.113-0.073-0.171
		c0.401-0.194,0.795-0.399,1.208-0.563c0.033-0.012,0.275,0.282,0.258,0.411C43.551,19.835,43.412,20.331,43.274,20.931z"/>
	<path fill-rule="evenodd" clip-rule="evenodd" fill="#FFFFFF" d="M19.32,29.862c0.636-0.637,1.249-0.898,1.94-0.828
		c1.258,0.126,1.977,1.414,1.396,2.56c-0.79,1.559-2.637,2.436-4.453,1.175c-0.157-0.108-0.288-0.261-0.416-0.405
		c-0.233-0.271-0.167-0.497,0.095-0.716c0.303-0.254,0.432-0.058,0.571,0.184c0.75,1.294,2.635,0.888,3.133-0.292
		c0.379-0.896,0.02-1.582-0.941-1.671C20.265,29.832,19.877,29.862,19.32,29.862z"/>
	<path fill-rule="evenodd" clip-rule="evenodd" fill="#FFFFFF" d="M23.339,26.569"/>
	<path fill-rule="evenodd" clip-rule="evenodd" fill="#FFFFFF" d="M25.957,27.819l0.02-0.02"/>
	<path fill-rule="evenodd" clip-rule="evenodd" fill="#FFFFFF" d="M20.025,24.788"/>
	<path fill-rule="evenodd" clip-rule="evenodd" fill="#FFFFFF" d="M70.802,22.471"/>
	<path fill-rule="evenodd" clip-rule="evenodd" fill="#FFFFFF" d="M71.8,21.412"/>
	<path fill-rule="evenodd" clip-rule="evenodd" fill="#FFFFFF" d="M45.774,45.345c0,0.508,0.02,1.008-0.004,1.514
		c-0.034,0.762-0.742,1.22-1.414,0.892c-0.133-0.063-0.215-0.359-0.219-0.547c-0.02-1.148-0.021-2.294-0.004-3.44
		c0.004-0.349-0.18-0.826,0.492-0.828c0.691-0.005,1.096,0.229,1.137,0.815c0.036,0.531,0.008,1.063,0.008,1.594
		C45.772,45.345,45.774,45.345,45.774,45.345z"/>
	<path fill-rule="evenodd" clip-rule="evenodd" fill="#FFFFFF" d="M54.482,44.447c0.383,2.539,0.754,5.078,1.157,7.617
		c0.083,0.502-0.071,0.653-0.548,0.624c-0.421-0.029-0.842-0.022-1.258-0.003c-0.45,0.02-0.577-0.137-0.508-0.598
		c0.242-1.656,0.443-3.32,0.656-4.984c0.114-0.88,0.224-1.759,0.336-2.641C54.373,44.455,54.427,44.453,54.482,44.447z"/>
	<path fill-rule="evenodd" clip-rule="evenodd" fill="#FFFFFF" d="M49.667,24.897c1.402,0,2.799,0.013,4.198-0.008
		c0.484-0.008,0.666,0.146,0.73,0.652c0.39,3.109,0.823,6.211,1.238,9.317c0.154,1.122-0.328,1.957-1.219,2.581
		c-1.059,0.745-2.281,1.03-3.546,1.168c-1.922,0.213-3.812,0.073-5.58-0.755c-2.016-0.943-2.158-1.985-1.952-3.455
		c0.405-2.88,0.796-5.763,1.206-8.642c0.121-0.855,0.141-0.856,0.979-0.859C47.038,24.893,48.35,24.897,49.667,24.897z
		 M52.038,32.812c0,1.02,0,1.959,0,2.899c0.003,1.057,0.117,1.203,1.109,1.394c0.593,0.115,1.499-0.549,1.379-1.034
		c-0.298-1.22-0.63-2.434-0.927-3.653c-0.081-0.329-0.246-0.468-0.578-0.466c-2.179,0.004-4.358-0.012-6.538,0.02
		c-0.203,0.004-0.525,0.241-0.584,0.435c-0.383,1.225-0.715,2.465-1.037,3.707c-0.038,0.148,0.037,0.435,0.148,0.497
		c0.385,0.214,0.693,0.673,1.26,0.415c0.556-0.254,0.891-0.563,0.845-1.258c-0.069-0.992-0.018-1.99-0.018-3.075
		c0.281,0.085,0.438,0.117,0.582,0.179c0.438,0.18,0.781,0.283,1.289-0.039c0.352-0.223,1.04-0.109,1.484,0.079
		c0.32,0.136,0.54,0.159,0.835,0.072C51.495,32.921,51.708,32.886,52.038,32.812z M48.459,31.161
		c-0.055-0.002-0.111-0.002-0.171-0.005c-0.127-0.762-0.266-1.521-0.383-2.285c-0.051-0.317-0.131-0.62,0.253-0.875
		c0.244-0.161,0.247-0.557-0.159-0.61c-0.461-0.063-0.946-0.031-1.415,0.021c-0.078,0.01-0.18,0.487-0.168,0.493
		c0.706,0.283,0.293,0.79,0.225,1.192c-0.104,0.605-0.246,1.204-0.41,1.796c-0.133,0.483,0.008,0.653,0.51,0.643
		c1.227-0.021,2.453-0.024,3.68,0.003c0.555,0.012,0.648-0.195,0.555-0.706c-0.193-1.07-0.321-2.152-0.492-3.228
		c-0.041-0.286-0.129-0.535,0.296-0.633c0.117-0.027,0.25-0.371,0.213-0.53c-0.033-0.141-0.283-0.309-0.455-0.324
		c-0.469-0.044-0.949-0.036-1.422,0c-0.148,0.012-0.394,0.164-0.41,0.277c-0.025,0.182,0.082,0.534,0.175,0.55
		c0.516,0.086,0.356,0.427,0.305,0.701C48.952,28.816,48.702,29.988,48.459,31.161z M51.183,31.526c0.581,0,1.073-0.017,1.566,0.004
		c0.46,0.021,0.679-0.094,0.562-0.62c-0.148-0.681-0.251-1.373-0.344-2.066c-0.031-0.23,0.008-0.481,0.069-0.708
		c0.056-0.211,0.188-0.398,0.286-0.597c-0.23-0.063-0.456-0.156-0.688-0.181c-0.277-0.03-0.561-0.026-0.838,0.008
		c-0.408,0.052-0.572,0.441-0.251,0.599c0.513,0.257,0.297,0.582,0.227,0.905C51.597,29.713,51.397,30.553,51.183,31.526z
		 M51.458,36.535c0.08-0.042,0.164-0.087,0.248-0.129c0-0.77,0.015-1.539-0.012-2.309c-0.004-0.219-0.126-0.436-0.197-0.652
		c-0.295,0.137-0.804,0.229-0.843,0.416c-0.121,0.613-0.172,1.28-0.047,1.885C50.67,36.055,51.162,36.275,51.458,36.535z
		 M47.553,36.175c1.266-0.406,1.102-0.394,1.098-2.066c-0.004-0.733-0.575-0.665-1.098-0.766
		C47.553,34.299,47.553,35.205,47.553,36.175z M47.022,26.195c0.188-0.586-0.469-0.447-0.631-0.735
		c-0.137,0.289-0.625,0.148-0.648,0.685c-0.027,0.573,0.43,0.527,0.639,0.78C46.59,26.676,47.19,26.776,47.022,26.195z
		 M53.154,26.964c0.047,0.042,0.094,0.085,0.141,0.126c0.162-0.304,0.445-0.611,0.445-0.912c-0.008-0.258-0.344-0.512-0.586-0.84
		C53.154,25.999,53.154,26.483,53.154,26.964z"/>
	<path fill-rule="evenodd" clip-rule="evenodd" fill="#FFFFFF" d="M48.303,60.501c0.068,0.117,0.184,0.235,0.183,0.352
		c-0.001,0.08-0.167,0.158-0.258,0.239c-0.091-0.114-0.23-0.215-0.261-0.34c-0.027-0.108,0.078-0.243,0.125-0.365
		C48.163,60.423,48.233,60.462,48.303,60.501z"/>
</g>
</svg>
