<?xml version="1.0" encoding="utf-8"?>
<!-- Generator: Adobe Illustrator 16.0.0, SVG Export Plug-In . SVG Version: 6.00 Build 0)  -->
<!DOCTYPE svg PUBLIC "-//W3C//DTD SVG 1.1//EN" "http://www.w3.org/Graphics/SVG/1.1/DTD/svg11.dtd">
<svg version="1.1" id="Layer_1" xmlns="http://www.w3.org/2000/svg" xmlns:xlink="http://www.w3.org/1999/xlink" x="0px" y="0px"
	 width="100px" height="86.603px" viewBox="0 0 100 86.603" enable-background="new 0 0 100 86.603" xml:space="preserve">
<polygon fill-rule="evenodd" clip-rule="evenodd" fill="#507F9F" points="25.001,86.604 0,43.302 25.001,0 75.003,0 100.001,43.302 
	75.003,86.604 "/>
<g>
	<path fill-rule="evenodd" clip-rule="evenodd" fill="#FFFFFF" d="M50.835,59.524c-11.226,0-22.45,0-33.671,0
		c-0.164,0-0.323-0.021-0.479,0.004c-0.409,0.048-0.583-0.09-0.555-0.529c0.035-0.544,0.007-1.09,0.007-1.634
		c0-3.051-0.001-6.101,0-9.151c0-0.717,0.005-0.722,0.693-0.722c22.674-0.001,45.348-0.001,68.022,0
		c0.703,0,0.707,0.004,0.707,0.695c0.001,3.517,0.004,7.014-0.002,10.53c-0.002,0.911,0.119,0.804-0.781,0.805
		C73.47,59.525,62.152,59.524,50.835,59.524z M29.025,53.521c0.847-0.348,0.962-0.97,0.942-1.638c-0.002-0.175,0-0.368,0-0.543
		c-0.035-1.167-0.511-1.653-1.675-1.679c-0.999-0.021-2-0.005-3.004-0.006c-1.246,0-1.327,0.104-1.146,1.358
		c0.015,0.11,0.104,0.307,0.17,0.308c0.454,0.013,0.338,0.341,0.341,0.595c0.008,0.989,0.015,1.997-0.005,2.989
		c-0.01,0.354,0.221,0.854-0.419,0.971c-0.051,0-0.087,0.195-0.089,0.292c-0.017,0.3,0.001,0.601-0.011,0.889
		c-0.018,0.321,0.112,0.45,0.436,0.436c0.547-0.02,1.097-0.021,1.637,0.004c0.417,0.029,0.569-0.113,0.546-0.535
		c-0.026-0.667,0.01-1.318-0.007-1.984c-0.015-0.412,0.01-0.675,0.557-0.663c0.5,0.011,0.636,0.176,0.591,0.641
		c-0.031,0.335-0.003,0.678-0.003,1.017c0,1.515,0,1.53,1.518,1.511c1.239-0.009,1.083,0.25,1.083-1.119
		c0-0.188-0.083-0.51-0.16-0.521c-0.477-0.052-0.362-0.396-0.358-0.659C29.999,54.489,29.83,53.914,29.025,53.521z M33.399,52.757
		c0-0.525,0.002-1.043-0.001-1.574c-0.011-0.472,0.141-1.143-0.101-1.364c-0.292-0.255-0.937-0.16-1.423-0.154
		c-1.248,0.013-1.073-0.23-1.077,1.15c-0.001,0.161,0.051,0.481,0.106,0.483c0.601,0.062,0.402,0.505,0.408,0.828
		c0.013,1.253-0.009,2.502,0.008,3.75c0.022,1.109,0.493,1.589,1.593,1.604c0.68,0.02,1.361,0.021,2.048,0
		c1.166-0.017,1.605-0.466,1.618-1.619c0.012-1.3-0.002-2.604,0.008-3.896c0.002-0.268-0.119-0.625,0.368-0.652
		c0.054-0.003,0.144-0.206,0.154-0.314c0.017-0.321-0.004-0.641,0.004-0.951c0.017-0.315-0.14-0.4-0.416-0.394
		c-0.522,0.013-1.042-0.002-1.565,0.004c-0.622,0.007-0.626,0.011-0.628,0.664c-0.005,1.662-0.02,3.323,0.006,4.984
		c0.002,0.442-0.185,0.503-0.572,0.511c-0.411,0.009-0.567-0.101-0.548-0.534C33.419,54.438,33.399,53.592,33.399,52.757z
		 M48.708,57.486c1.398,0,1.398,0,1.29-1.277c-0.006-0.056,0.012-0.107-0.014-0.134c-0.045-0.095-0.106-0.253-0.165-0.255
		c-0.451-0.012-0.413-0.351-0.471-0.629c-0.305-1.651-0.635-3.3-0.916-4.958c-0.08-0.461-0.263-0.6-0.708-0.588
		c-0.729,0.038-1.457,0.029-2.187,0.002c-0.364-0.012-0.517,0.125-0.577,0.484c-0.252,1.514-0.506,3.013-0.817,4.496
		c-0.095,0.451,0.118,1.115-0.65,1.247c-0.025,0.001-0.061,0.071-0.061,0.104c-0.001,0.452-0.071,0.937,0.056,1.354
		c0.038,0.133,0.593,0.122,0.912,0.148c0.202,0.027,0.41,0.005,0.618,0.005c0.868,0,0.868,0,0.989-0.833
		c0.023-0.172,0.072-0.361,0.068-0.537c-0.008-0.404,0.165-0.518,0.574-0.538c0.517-0.027,0.655,0.159,0.702,0.646
		C47.487,57.49,47.516,57.486,48.708,57.486z M23.518,55.161c0-0.641-0.01-1.282,0.003-1.92c0.012-0.348-0.139-0.484-0.484-0.475
		c-0.523,0.021-1.045,0.039-1.565-0.004c-0.463-0.02-0.627,0.165-0.561,0.599c0.063,0.402-0.271,0.993,0.509,1.072
		c0.045,0.006,0.087,0.194,0.095,0.304c0.02,0.203-0.008,0.41,0.012,0.611c0.05,0.517-0.293,0.457-0.612,0.46
		c-0.36,0.022-0.545-0.066-0.535-0.479c0.02-1.155,0.003-2.313,0.015-3.477c0.002-0.206-0.102-0.545,0.264-0.488
		c0.294,0.027,0.777-0.303,0.862,0.294c0.054,0.337,0.291,0.327,0.506,0.305c0.458-0.039,0.915-0.104,1.37-0.173
		c0.021-0.003,0.03-0.157,0.031-0.253c0.003-0.476-0.012-0.953,0.007-1.429c0.013-0.319-0.09-0.464-0.424-0.457
		c-1.068,0.02-2.139-0.018-3.206,0.026c-0.964,0.027-1.461,0.537-1.486,1.514c-0.033,1.593-0.035,3.188-0.002,4.78
		c0.018,1.014,0.484,1.474,1.475,1.501c1.092,0.038,2.186,0,3.276,0.021c0.382,0.01,0.463-0.16,0.454-0.496
		C23.511,56.386,23.518,55.773,23.518,55.161z M39.956,49.671c0-0.005,0-0.01,0-0.016c-0.411,0-0.819,0-1.227,0
		c-1.215,0-1.387,0.205-1.156,1.412c0.024,0.095,0.137,0.258,0.221,0.266c0.359,0.031,0.296,0.286,0.298,0.499
		c0.007,1.156,0.006,2.313,0.001,3.487c-0.001,0.212,0.031,0.418-0.3,0.499c-0.26,0.058-0.346,1.444-0.126,1.602
		c0.067,0.053,0.171,0.06,0.252,0.06c0.796,0.006,1.593,0.009,2.389-0.004c0.098-0.001,0.282-0.074,0.283-0.117
		c0.013-0.498-0.009-0.995-0.013-1.482c-0.613-0.14-0.345-0.632-0.399-0.997c-0.055-0.396,0.153-0.514,0.519-0.496
		c0.455,0.022,0.915,0.021,1.367-0.03c0.753-0.069,1.193-0.458,1.248-1.191c0.046-0.754,0.049-1.515-0.028-2.255
		c-0.083-0.856-0.475-1.191-1.352-1.228C41.275,49.638,40.613,49.671,39.956,49.671z"/>
	<path fill-rule="evenodd" clip-rule="evenodd" fill="#FFFFFF" d="M22.45,29.318c0.511-0.508,1.032-0.994,1.516-1.524
		c0.314-0.35,0.652-0.498,1.125-0.476c1.228,0.069,2.457,0.03,3.678,0.139c1.164,0.105,1.84,0.798,2.026,1.963
		c0.093,0.604,0.111,1.225,0.114,1.834c0.016,2.728,0.006,5.463,0.008,8.195c0,0.843,0.005,0.844,0.823,0.805
		c0.116-0.005,0.235-0.001,0.344-0.031c0.415-0.083,0.571,0.063,0.562,0.496c-0.018,1.272-0.01,2.552-0.003,3.825
		c0.004,0.343-0.101,0.485-0.461,0.482c-2.253-0.015-4.506-0.027-6.758,0.007c-0.576,0.009-0.483-0.334-0.483-0.671
		c0-3.729,0-7.467,0-11.196c0-0.185-0.012-0.369,0-0.543c0.033-0.38-0.121-0.553-0.507-0.544c-0.567,0.017-1.136,0.008-1.709,0.005
		c-0.305-0.001-0.454,0.125-0.449,0.452c0.017,0.407,0.002,0.816,0.002,1.232c0,3.525,0.001,7.05-0.001,10.584
		c0,0.659-0.004,0.664-0.665,0.666c-1.551,0.003-3.095,0.004-4.646,0c-0.659-0.002-0.667-0.008-0.668-0.679
		c-0.003-3.758-0.001-7.516-0.002-11.265c0-0.208,0.045-0.431-0.024-0.612c-0.058-0.146-0.245-0.239-0.384-0.347
		c-0.031-0.017-0.092,0.007-0.136,0.008c-1.18,0.024-1.18,0.024-1.18-1.13c0-1.049,0.008-2.098-0.005-3.146
		c-0.007-0.356,0.061-0.53,0.477-0.529c2.252,0.022,4.505,0.021,6.758,0c0.409-0.001,0.504,0.169,0.483,0.526
		c-0.019,0.468-0.007,0.93-0.007,1.399C22.338,29.266,22.395,29.295,22.45,29.318z"/>
	<path fill-rule="evenodd" clip-rule="evenodd" fill="#FFFFFF" d="M70.031,36.286c0-1.574-0.002-3.142,0.001-4.712
		c0.001-0.272-0.005-0.547,0.036-0.822c0.267-2.254,1.531-3.398,3.818-3.417c2.574-0.017,5.149-0.016,7.724,0.004
		c0.46,0.004,0.913,0.073,1.357,0.181c1.313,0.318,2.004,1.15,2.155,2.646c0.082,0.862,0.102,1.728,0.115,2.595
		c0.022,1.341-0.018,2.682,0.019,4.023c0.005,0.49-0.172,0.618-0.63,0.613c-2.603-0.023-5.191-0.012-7.791-0.01
		c-0.799,0.001-0.803,0.005-0.81,0.784c-0.006,0.658-0.009,1.317,0.001,1.976c0.01,0.665,0.012,0.675,0.705,0.682
		c0.627,0.005,1.269-0.022,1.908,0.009c0.449,0.015,0.633-0.169,0.578-0.605c-0.004-0.019-0.001-0.048,0-0.068
		c0.01-1.265,0.01-1.265,1.26-1.265c1.387,0,2.773,0.023,4.16-0.003c0.484-0.013,0.633,0.161,0.614,0.627
		c-0.06,0.817-0.025,1.638-0.105,2.455c-0.191,2.059-1.153,2.953-3.222,3.025c-0.873,0.038-1.73,0.013-2.604,0.014
		c-1.837,0.001-3.692,0.014-5.528-0.005c-2.66-0.025-3.72-1.072-3.757-3.744C70.012,39.609,70.032,37.948,70.031,36.286z
		 M77.587,34.15c0.394,0,0.775-0.005,1.155,0c0.304,0.008,0.484-0.083,0.477-0.416c-0.014-0.591-0.014-1.182,0.001-1.772
		c0.008-0.341-0.175-0.439-0.476-0.438c-0.747,0.004-1.493,0.01-2.239-0.003c-0.36-0.006-0.482,0.172-0.478,0.508
		c0.007,0.542,0.012,1.085-0.003,1.635c-0.013,0.393,0.18,0.512,0.546,0.487C76.908,34.138,77.248,34.15,77.587,34.15z"/>
	<path fill-rule="evenodd" clip-rule="evenodd" fill="#FFFFFF" d="M34.786,36.266c0-1.565-0.004-3.139,0.001-4.712
		c0-0.338,0.02-0.681,0.07-1.013c0.343-2.086,1.474-3.151,3.604-3.189c2.706-0.063,5.411-0.024,8.121-0.008
		c0.363,0.002,0.725,0.076,1.079,0.153c1.335,0.313,2.086,1.174,2.212,2.688c0.093,1.195,0.087,2.404,0.115,3.614
		c0.022,0.932,0.006,1.865,0.004,2.798c-0.001,0.787-0.002,0.79-0.77,0.791c-2.477,0.002-4.963,0.001-7.44,0.001
		c-0.184,0-0.369,0.012-0.546,0.002c-0.32-0.016-0.455,0.151-0.455,0.454c0,0.845,0.003,1.68-0.002,2.525
		c-0.002,0.36,0.181,0.472,0.518,0.465c0.728-0.016,1.457-0.017,2.185-0.002c0.344,0.007,0.498-0.129,0.486-0.48
		c-0.019-0.32,0.009-0.642-0.005-0.961c-0.018-0.333,0.095-0.491,0.464-0.49c1.705,0.01,3.414,0.003,5.116,0
		c0.268,0,0.467,0.05,0.446,0.373c-0.053,1.112-0.011,2.237-0.187,3.331c-0.269,1.618-1.272,2.335-3.085,2.395
		c-1.155,0.051-2.322,0.018-3.478,0.02c-1.525,0.001-3.05,0.012-4.575-0.008c-0.453-0.006-0.911-0.044-1.356-0.122
		c-1.442-0.25-2.186-0.969-2.384-2.416c-0.117-0.901-0.12-1.813-0.139-2.723C34.766,38.59,34.786,37.43,34.786,36.266z
		 M42.346,34.15c0.383,0,0.766-0.006,1.153,0c0.305,0.008,0.476-0.086,0.468-0.417c-0.014-0.59-0.014-1.181,0-1.771
		c0.008-0.34-0.167-0.439-0.468-0.437c-0.746,0.004-1.5,0.009-2.246-0.003c-0.359-0.005-0.481,0.173-0.478,0.508
		c0.007,0.542,0.011,1.085-0.002,1.635c-0.012,0.39,0.186,0.512,0.547,0.487C41.659,34.138,42,34.15,42.346,34.15z"/>
	<path fill-rule="evenodd" clip-rule="evenodd" fill="#FFFFFF" d="M59.948,41.295c-0.163,0.257-0.284,0.442-0.406,0.628
		c-0.519,0.906-1.052,1.816-1.562,2.716c-0.153,0.277-0.323,0.392-0.649,0.389c-1.565-0.019-3.142-0.021-4.713-0.001
		c-0.371,0.005-0.509-0.115-0.509-0.512c0.01-1.292,0.004-2.594,0-3.887c0-0.328,0.121-0.5,0.438-0.41
		c0.98,0.277,1.499-0.208,1.92-1.024c0.481-0.882,1.042-1.712,1.608-2.538c0.267-0.389,0.314-0.679,0.019-1.086
		c-0.702-0.983-1.353-1.997-2.007-3.016c-0.229-0.347-0.47-0.457-0.894-0.436c-1.289,0.074-1.063,0.17-1.084-0.974
		c0-1.088,0.015-2.187,0-3.274c-0.004-0.414,0.11-0.553,0.542-0.553c1.538,0.03,3.091,0.023,4.645,0.002
		c0.346-0.002,0.527,0.126,0.691,0.419c0.503,0.945,1.032,1.872,1.546,2.805c0.119,0.201,0.235,0.384,0.406,0.658
		c0.147-0.223,0.274-0.377,0.356-0.541c0.552-0.95,1.097-1.894,1.607-2.858c0.191-0.333,0.396-0.488,0.802-0.485
		c1.496,0.032,2.998,0.031,4.508,0c0.44-0.002,0.577,0.133,0.57,0.58c-0.021,1.224-0.016,2.458,0,3.686
		c0.002,0.419-0.078,0.694-0.555,0.565c-0.938-0.254-1.389,0.25-1.803,0.995c-0.463,0.832-0.994,1.63-1.529,2.421
		c-0.263,0.364-0.282,0.65-0.037,1.043c0.666,1.03,1.305,2.083,1.914,3.148c0.243,0.424,0.538,0.582,0.993,0.498
		c0.185-0.032,0.367-0.031,0.54-0.052c0.306-0.041,0.477,0.032,0.477,0.391c-0.01,1.341-0.007,2.682,0,4.032
		c0,0.291-0.119,0.396-0.412,0.396c-1.604-0.009-3.227-0.014-4.849,0.008c-0.347,0.005-0.467-0.199-0.608-0.449
		c-0.512-0.88-1.038-1.76-1.552-2.64C60.236,41.745,60.114,41.563,59.948,41.295z"/>
	<path fill-rule="evenodd" clip-rule="evenodd" fill="#FFFFFF" d="M26.665,52.074c0.08-0.776,0.109-0.776,0.828-0.742
		c0.286,0.018,0.416,0.104,0.395,0.386c-0.009,0.162,0,0.325,0,0.484c-0.002,0.591-0.41,0.895-0.935,0.61
		C26.778,52.71,26.755,52.337,26.665,52.074z"/>
	<path fill-rule="evenodd" clip-rule="evenodd" fill="#FFFFFF" d="M46.747,51.655c0.108,0.721,0.205,1.444,0.326,2.144
		c0.061,0.331-0.064,0.401-0.355,0.402c-0.293,0.001-0.417-0.089-0.375-0.405c0.112-0.7,0.208-1.422,0.31-2.142
		C46.683,51.654,46.717,51.654,46.747,51.655z"/>
	<path fill-rule="evenodd" clip-rule="evenodd" fill="#FFFFFF" d="M41.313,52.176c-0.093,0.318,0.228,0.839-0.481,0.813
		c-0.635-0.022-0.635,0.019-0.643-0.621c-0.002-0.135-0.002-0.271,0-0.405c0.008-0.648,0.008-0.611,0.632-0.632
		C41.584,51.306,41.196,51.873,41.313,52.176z"/>
</g>
</svg>
