<?xml version="1.0" encoding="utf-8"?>
<!-- Generator: Adobe Illustrator 16.0.0, SVG Export Plug-In . SVG Version: 6.00 Build 0)  -->
<!DOCTYPE svg PUBLIC "-//W3C//DTD SVG 1.1//EN" "http://www.w3.org/Graphics/SVG/1.1/DTD/svg11.dtd">
<svg version="1.1" xmlns="http://www.w3.org/2000/svg" xmlns:xlink="http://www.w3.org/1999/xlink" x="0px" y="0px" width="1900px"
	 height="800px" viewBox="-352 0 1900 800" enable-background="new -352 0 1900 800" xml:space="preserve">
<g id="Layer_1">
	<g id="background_x5F_color" display="none">
		<rect display="inline" fill="#F3F1EA" width="1200" height="800"/>
	</g>
	<g id="dirt" display="none">
		<rect x="-350" y="636.843" display="inline" fill="#756757" width="1900.543" height="163.157"/>
	</g>
	<g id="gornji_grad">
		
			<linearGradient id="SVGID_1_" gradientUnits="userSpaceOnUse" x1="935.5903" y1="602.1074" x2="935.5903" y2="151.6807" gradientTransform="matrix(1 0 0 1 16.6797 -40.9199)">
			<stop  offset="0" style="stop-color:#FFFFFF;stop-opacity:0.5"/>
			<stop  offset="0.0051" style="stop-color:#F7F7F7;stop-opacity:0.5045"/>
			<stop  offset="0.0252" style="stop-color:#DDDDDC;stop-opacity:0.5224"/>
			<stop  offset="0.0483" style="stop-color:#C7C7C6;stop-opacity:0.5429"/>
			<stop  offset="0.0753" style="stop-color:#B6B6B5;stop-opacity:0.5669"/>
			<stop  offset="0.1088" style="stop-color:#ABABAA;stop-opacity:0.5965"/>
			<stop  offset="0.1556" style="stop-color:#A4A4A3;stop-opacity:0.6381"/>
			<stop  offset="0.2857" style="stop-color:#A2A2A1;stop-opacity:0.7536"/>
			<stop  offset="0.3842" style="stop-color:#8C8C8B;stop-opacity:0.7876"/>
			<stop  offset="0.5455" style="stop-color:#6E6E6D;stop-opacity:0.8432"/>
			<stop  offset="0.7042" style="stop-color:#585857;stop-opacity:0.898"/>
			<stop  offset="0.8577" style="stop-color:#4B4B4A;stop-opacity:0.9509"/>
			<stop  offset="1" style="stop-color:#474746"/>
		</linearGradient>
		<path fill="url(#SVGID_1_)" d="M1548.026,560.738c0.002-1.139,4.163-177.063,4.163-177.063s-26.972-12.281-26.971-13.134
			c0.01-12.74,0.01-25.479,0.04-38.219c0.005-2.124-0.241-3.847-3.016-3.841c-14.849,0.033-29.694,0.021-44.543,0.009
			c-1.902-0.002-2.933,0.823-2.929,2.786c0.016,7.606-0.047,15.214,0.074,22.819c0.055,3.369,0.539,6.729,0.711,10.099
			c0.097,1.862-0.854,2.875-2.837,2.872c-12.465-0.019-24.93-0.022-37.395,0.008c-2.124,0.005-2.985-1.043-2.987-3.037
			c-0.003-2.199-0.077-4.401-0.012-6.598c0.249-8.225,0.54-16.448,0.825-24.671c0.067-1.959,0.057-3.813-1.761-5.191
			c-9.334-7.083-18.66-14.175-27.919-21.355c-1.884-1.46-3.216-1.308-4.98,0.213c-7.902,6.808-15.904,13.501-23.884,20.222
			c-1.657,1.396-2.317,3.088-2.302,5.292c0.084,10.356,0.054,20.713,0.022,31.07c-0.004,0.875-0.305,1.749-0.467,2.624
			c-0.899-0.315-1.896-0.478-2.687-0.97c-6.062-3.778-12.028-7.707-18.143-11.395c-2.252-1.358-3.034-3.002-3.02-5.581
			c0.103-15.397,0.063-30.795,0.067-46.192c0.005-12.374-0.033-24.747,0.044-37.119c0.015-2.314-0.685-3.872-2.604-5.313
			c-6.218-4.667-12.302-9.517-18.357-14.394c-1.536-1.237-3.021-1.743-5.018-1.545c-17.498,1.738-35.005,3.397-52.512,5.046
			c-4.967,0.468-5.019,0.427-4.987,5.386c0.077,12.371,0.206,24.742,0.28,37.113c0.027,4.573-0.171,4.737-4.845,4.748
			c-4.949,0.011-9.898,0.017-14.85-0.003c-4.57-0.019-4.855-0.297-4.854-4.822c0.006-18.331,0.024-36.662,0.038-54.992
			c0.004-5.403,0.002-5.418-5.53-5.447c-15.03-0.08-30.063-0.104-45.092-0.237c-5.458-0.049-5.55-0.252-5.548-5.583
			c0.012-25.571-0.005-51.143,0.086-76.713c0.01-2.631-0.759-4.492-2.85-6.104c-3.328-2.57-6.561-5.284-9.664-8.121
			c-1.789-1.634-3.603-2.155-5.974-1.774c-9.136,1.467-18.295,2.789-27.438,4.197c-3.584,0.552-3.732,0.734-3.739,4.388
			c-0.02,8.523,0.003,17.047,0.001,25.571c-0.001,4.818-0.012,4.802-4.618,5.683c-5.312,1.015-10.624,2.019-15.919,3.106
			c-6.119,1.257-5.88,0.268-5.875,7.121c0.016,20.805,0.036,41.61,0.036,62.416c0,3.245-0.395,3.521-3.275,2.21
			c-4.585-2.086-9.114-4.295-13.698-6.382c-1.978-0.9-2.891-2.213-2.811-4.479c0.145-4.119,0.067-8.247,0.024-12.372
			c-0.031-3.075-0.414-3.462-3.548-3.479c-6.688-0.035-13.382-0.031-20.07-0.006c-3.624,0.014-3.911,0.297-3.915,3.951
			c-0.015,11.457,0.047,22.914,0.002,34.37c-0.035,8.76,0.987,6.58-7.238,9.611c-2.622,0.966-3.081,0.584-3.104-2.228
			c-0.045-5.499-0.068-10.999,0.009-16.497c0.032-2.359-0.995-3.315-3.289-3.308c-3.115,0.009-6.231-0.08-9.345-0.189
			c-1.434-0.05-2.279,0.469-2.438,1.951c-0.317,2.987-0.756,5.967-0.935,8.963c-0.12,2.009-0.818,3.084-2.953,3.047
			c-3.115-0.054-6.232-0.024-9.35-0.026c-1.688,0-2.541-0.819-2.535-2.525c0.004-1.466-0.027-2.933-0.027-4.399
			c0.009-18.789-0.02-37.578,0.074-56.366c0.014-2.572-0.726-4.099-3.295-4.871c-2.535-0.762-4.961-1.896-7.43-2.879
			c-6.827-2.721-6.826-2.724-6.859-10.1c-0.022-4.522-0.021-4.602-4.559-4.683c-2.146-0.038-3.148-0.798-3.311-3.018
			c-0.613-8.479-1.389-16.945-2.016-25.422c-0.674-9.117-1.249-18.24-1.867-27.36c-0.124-1.828-0.222-3.658-0.403-5.48
			c-0.048-0.477-0.375-0.925-0.575-1.387c-0.223,0.441-0.615,0.872-0.642,1.325c-0.182,3.018-0.377,6.04-0.396,9.061
			c-0.084,15.947-0.111,31.895-0.173,47.842c-0.017,4.193-0.226,4.394-4.32,4.41c-6.052,0.023-6.155-0.447-6.007,5.995
			c0.058,2.389-0.938,3.488-3.239,3.874c-3.794,0.637-7.55,1.497-11.336,2.18c-1.923,0.347-2.772,1.225-2.769,3.318
			c0.104,41.793,0.15,83.586,0.206,125.38c0.001,1.191-0.02,2.383-0.041,3.573c-0.031,1.634-0.756,2.573-2.505,2.571
			c-8.892-0.011-17.78-0.012-26.67,0.001c-1.871,0.003-2.638-0.954-2.611-2.74c0.021-1.558-0.014-3.116-0.014-4.674
			c0.003-16.498,0.011-32.995,0.009-49.493c0-1.644,0.151-3.309-1.752-4.25c-2.38-1.175-4.605-2.698-7.054-3.683
			c-1.411-0.568-3.242-0.812-4.693-0.445c-8.524,2.158-16.996,4.528-25.479,6.853c-3.748,1.027-3.811,1.125-3.813,5.121
			c-0.008,8.982,0.005,17.964,0.01,26.946c0.008,13.748,0.023,27.496,0.021,41.244c-0.003,4.281-0.175,4.432-4.537,4.448
			c-3.852,0.013-7.699-0.005-11.55,0.007c-4.261,0.014-4.432,0.189-4.441,4.564c-0.013,4.582,0.035,9.165-0.021,13.747
			c-0.036,3.034-0.521,3.521-3.554,3.549c-5.499,0.05-10.998,0.039-16.497,0.014c-4.294-0.02-4.566-0.369-4.668-4.781
			c-0.171-7.51-0.216-15.03-0.688-22.522c-0.194-3.1-0.007-6.599-3.811-8.42c-24.038-11.51-48.038-23.098-72.009-34.745
			c-2.119-1.029-4.049-1.262-6.319-0.777c-42.556,9.099-85.121,18.146-127.686,27.202c-3.648,0.776-3.79,0.918-3.796,4.739
			c-0.012,7.424,0.012,14.848,0,22.271c-0.008,4.28-0.157,4.428-4.547,4.431c-16.498,0.008-32.996,0.009-49.493,0
			c-4.331-0.002-4.448-0.123-4.448-4.512c0-16.314,0.024-32.628,0.015-48.942c-0.001-3.309-0.36-3.681-3.63-3.684
			c-18.788-0.02-37.577-0.02-56.365-0.001c-3.326,0.003-3.671,0.354-3.682,3.629c-0.025,8.707-0.063,17.415,0.025,26.121
			c0.024,2.47-0.745,3.584-3.371,3.862c-9.836,1.042-19.653,2.273-29.468,3.509c-4.503,0.567-5.107,0.127-5.105-4.488
			c0.007-19.431,0.085-38.861,0.019-58.291c-0.035-9.855,1.346-7.549-7.034-12.578c-0.235-0.141-0.436-0.358-0.685-0.457
			c-3.333-1.308-4.036-4.236-4.402-7.294c-0.761-6.349-1.388-12.714-2.157-19.062c-1.076-8.881-2.22-17.755-3.374-26.626
			c-0.079-0.612-0.471-1.183-0.717-1.773c-0.31,0.627-0.783,1.225-0.899,1.886c-0.603,3.415-1.132,6.844-1.655,10.271
			c-1.874,12.274-3.76,24.547-5.574,36.83c-0.246,1.661-0.952,2.67-2.543,3.176c-4.802,1.527-9.567,3.163-14.384,4.638
			c-4.896,1.5-4.941,1.438-4.92,6.574c0.099,22.819,0.24,45.638,0.314,68.458l-66.281,23.533v188
			c0.643-0.016,5.283-0.009,5.925-0.009c364.32,0,818.346,19.484,1182.664,19.486c1.009,0,2.018,0.027,3.024,0.034L1548.026,560.738
			z"/>
	</g>
	<g id="donji_grad">
		<g>
			
				<linearGradient id="SVGID_2_" gradientUnits="userSpaceOnUse" x1="981.2686" y1="679.7617" x2="981.2686" y2="455.79" gradientTransform="matrix(1 0 0 1 16.6797 -40.9199)">
				<stop  offset="0" style="stop-color:#707172"/>
				<stop  offset="0.1349" style="stop-color:#6B6C6C"/>
				<stop  offset="0.5006" style="stop-color:#636363"/>
				<stop  offset="1" style="stop-color:#616060"/>
			</linearGradient>
			<path fill="url(#SVGID_2_)" d="M352.358,637.835c1095.199,0.006,1497.864,1.002,1191.979,1.002c1.375,0,2.75,0.016,4.125-0.01
				c3.37-0.063,3.803-0.461,3.804-3.838c0.012-67.306,0.013-133.606,0.009-200.91c-0.241-0.01-0.495-0.014-0.765-0.016l-4.123,0.628
				c-14.021,0.089-28.046,0.048-42.066,0.062c-4.248,0.004-4.549,0.305-4.547,4.529c0.005,13.104,0.035,26.213,0.043,39.316
				c0.004,4.419-0.188,4.603-4.698,4.606c-8.434,0.011-16.864,0.012-25.297,0c-4.354-0.008-4.555-0.207-4.561-4.456
				c-0.01-5.957-0.05-11.916,0.032-17.871c0.027-2.055-0.747-3.411-2.44-4.547c-2.584-1.73-4.988-3.724-7.534-5.515
				c-16.179-11.386-32.343-22.787-48.608-34.047c-1.605-1.11-3.858-1.812-5.813-1.815c-31.527-0.111-63.058-0.083-94.585-0.074
				c-4.358,0.001-4.583,0.242-4.581,4.744c0.004,12.557,0.035,25.113,0.032,37.67c-0.001,3.458-0.341,3.801-3.774,3.808
				c-10.082,0.022-20.164-0.015-30.245,0.03c-2.466,0.011-4.975,0.002-7.389,0.424c-13.087,2.288-26.152,4.693-39.222,7.086
				c-17.846,3.27-35.686,6.567-53.529,9.837c-3.36,0.614-3.656,0.354-3.662-3.04c-0.013-6.51,0.019-13.017,0.006-19.521
				c-0.007-3.893-0.063-4.055-3.824-4.529c-2.135-0.268-2.771-1.365-2.747-3.308c0.046-3.94-0.008-7.882,0.019-11.823
				c0.036-5.588-0.399-11.246,0.338-16.741c0.524-3.918-0.373-4.646-4.037-4.64c-22.455,0.051-44.91,0.019-67.365,0.031
				c-3.996,0.002-4.436,0.446-4.447,4.418c-0.018,5.498,0.008,10.998,0.016,16.497c0.002,1.697-0.313,3.301-2.449,3.205
				c-3.139-0.142-3.648,1.684-3.559,4.206c0.153,4.211,0.299,8.424,0.34,12.637c0.025,3.014-0.481,3.467-3.545,3.52
				c-2.565,0.044-5.134-0.004-7.698,0.025c-3.604,0.041-3.987,0.414-4.03,3.92c-0.031,2.566-0.09,5.136,0.01,7.697
				c0.099,2.485-1.006,3.461-3.441,3.432c-5.683-0.068-11.364,0.002-17.047-0.021c-3.762-0.018-4.105-0.361-4.105-4.084
				c0-13.017,0.029-26.029,0.03-39.044c0-3.915-0.276-4.224-4.005-4.804c-8.06-1.257-16.107-2.574-24.181-3.733
				c-5.425-0.78-10.972-2.317-16.31-1.829c-26.271,2.404-52.489,5.379-78.729,8.143c-29.696,3.129-59.396,6.244-89.095,9.373
				c-3.896,0.411-4.047,0.58-4.05,4.583c-0.005,9.624,0.03,19.247,0.012,28.87c-0.005,3.089-0.438,3.529-3.492,3.556
				c-4.946,0.043-9.896,0.044-14.847-0.001c-3.033-0.025-3.443-0.473-3.474-3.582c-0.035-3.572,0.015-7.148-0.017-10.725
				c-0.026-3.404-0.233-3.773-3.707-4.097c-8.389-0.784-16.795-1.396-25.188-2.109c-25.006-2.126-50.013-4.253-75.015-6.425
				c-3.146-0.273-5.867,0.408-8.594,2.079c-9.754,5.981-19.602,11.813-29.457,17.631c-2.937,1.73-3.272,1.476-3.278-2.038
				c-0.017-8.064-0.031-16.131,0.049-24.195c0.022-2.549-0.835-3.754-3.563-4.073c-23.563-2.776-47.108-5.724-70.672-8.511
				c-4.433-0.521-8.98-1.145-13.377-0.712c-14.312,1.407-28.578,3.281-42.861,4.979c-9.006,1.067-18.013,2.14-27.02,3.209
				c-3.264,0.388-3.684,0.839-3.754,4.144c-0.024,1.099-0.008,2.199-0.006,3.299c0.021,16.773,0.054,33.545,0.06,50.317
				c0.001,3.426-0.361,3.844-3.474,3.846c-14.391,0.016-28.779-0.043-43.168,0.002c-2.485,0.008-3.438-0.98-3.395-3.442
				c0.099-5.497,0.05-10.998,0.033-16.497c-0.012-3.804-0.341-4.163-4.037-4.169c-12.74-0.021-25.479-0.021-38.219,0.001
				c-3.606,0.006-3.981,0.38-3.988,3.938c-0.015,9.167,0.022,18.331,0.017,27.497c-0.003,4.098-0.249,4.344-4.396,4.346
				c-13.198,0.005-26.396-0.014-39.593-0.021L352.358,637.835z"/>
		</g>
		<path fill="#AEBA63" d="M501.8,456.045l17.943-1.26v-10.354c0,0-16.29,1.714-17.999,1.893L501.8,456.045z"/>
		<path fill="#AEBA63" d="M501.8,474.044l17.943-1.26V462.43c0,0-16.29,1.713-17.999,1.893L501.8,474.044z"/>
		<path fill="#AEBA63" d="M501.8,494.044l17.943-1.26V482.43c0,0-16.29,1.713-17.999,1.893L501.8,494.044z"/>
		<path fill="#AEBA63" d="M836.162,456.852l17.943-1.26v-10.353c0,0-16.291,1.713-18,1.891L836.162,456.852z"/>
		<path fill="#AEBA63" d="M836.162,474.851l17.943-1.26v-10.353c0,0-16.291,1.713-18,1.891L836.162,474.851z"/>
		<path fill="#AEBA63" d="M1027.383,443.658l-17.942-1.26v-10.354c0,0,16.291,1.713,17.999,1.891L1027.383,443.658z"/>
		<path fill="#AEBA63" d="M1027.438,480.667l-17.998-1.277v-10.354c0,0,16.291,1.713,17.998,1.891V480.667z"/>
		<path fill="#AEBA63" d="M1027.438,462.667l-17.998-1.277v-10.354c0,0,16.291,1.713,17.998,1.891V462.667z"/>
		<rect x="1316.444" y="427.19" fill="#AEBA63" width="19.622" height="9.466"/>
		<rect x="1316.444" y="442.931" fill="#AEBA63" width="19.622" height="9.465"/>
	</g>
	<g id="gornji_grad_1_">
		
			<linearGradient id="SVGID_3_" gradientUnits="userSpaceOnUse" x1="-264.0884" y1="602.1074" x2="-264.0884" y2="151.6807" gradientTransform="matrix(1 0 0 1 16.6797 -40.9199)">
			<stop  offset="0" style="stop-color:#FFFFFF;stop-opacity:0.5"/>
			<stop  offset="0.0051" style="stop-color:#F7F7F7;stop-opacity:0.5045"/>
			<stop  offset="0.0252" style="stop-color:#DDDDDC;stop-opacity:0.5224"/>
			<stop  offset="0.0483" style="stop-color:#C7C7C6;stop-opacity:0.5429"/>
			<stop  offset="0.0753" style="stop-color:#B6B6B5;stop-opacity:0.5669"/>
			<stop  offset="0.1088" style="stop-color:#ABABAA;stop-opacity:0.5965"/>
			<stop  offset="0.1556" style="stop-color:#A4A4A3;stop-opacity:0.6381"/>
			<stop  offset="0.2857" style="stop-color:#A2A2A1;stop-opacity:0.7536"/>
			<stop  offset="0.3842" style="stop-color:#8C8C8B;stop-opacity:0.7876"/>
			<stop  offset="0.5455" style="stop-color:#6E6E6D;stop-opacity:0.8432"/>
			<stop  offset="0.7042" style="stop-color:#585857;stop-opacity:0.898"/>
			<stop  offset="0.8577" style="stop-color:#4B4B4A;stop-opacity:0.9509"/>
			<stop  offset="1" style="stop-color:#474746"/>
		</linearGradient>
		<path fill="url(#SVGID_3_)" d="M352.358,560.738C352.36,559.6,352.5,383.23,352.5,383.23s-26.949-11.836-26.948-12.689
			c0.011-12.74,0.011-25.479,0.04-38.219c0.005-2.124-0.242-3.847-3.016-3.841c-14.85,0.033-29.694,0.021-44.543,0.009
			c-1.902-0.002-2.933,0.823-2.929,2.786c0.016,7.606-0.047,15.214,0.075,22.819c0.054,3.369,0.539,6.729,0.711,10.099
			c0.096,1.862-0.854,2.875-2.837,2.872c-12.465-0.019-24.93-0.022-37.395,0.008c-2.124,0.005-2.985-1.043-2.987-3.037
			c-0.003-2.199-0.077-4.401-0.012-6.598c0.249-8.225,0.54-16.448,0.825-24.671c0.068-1.959,0.057-3.813-1.76-5.191
			c-9.334-7.083-18.661-14.175-27.919-21.355c-1.884-1.46-3.216-1.308-4.981,0.213c-7.902,6.808-15.904,13.501-23.884,20.222
			c-1.657,1.396-2.317,3.088-2.301,5.292c0.084,10.356,0.053,20.713,0.022,31.07c-0.004,0.875-0.305,1.749-0.467,2.624
			c-0.899-0.315-1.896-0.478-2.686-0.97c-6.062-3.778-12.028-7.707-18.143-11.395c-2.252-1.358-3.034-3.002-3.019-5.581
			c0.102-15.397,0.063-30.795,0.067-46.192c0.005-12.374-0.033-24.747,0.044-37.119c0.015-2.314-0.684-3.872-2.603-5.313
			c-6.218-4.667-12.302-9.517-18.358-14.394c-1.536-1.237-3.021-1.743-5.017-1.545c-17.498,1.738-35.005,3.397-52.512,5.046
			c-4.967,0.468-5.019,0.427-4.987,5.386c0.077,12.371,0.206,24.742,0.28,37.113c0.027,4.573-0.171,4.737-4.845,4.748
			c-4.949,0.011-9.898,0.017-14.849-0.003c-4.571-0.019-4.856-0.297-4.855-4.822c0.006-18.331,0.024-36.662,0.038-54.992
			c0.004-5.403,0.002-5.418-5.53-5.447c-15.03-0.08-30.063-0.104-45.092-0.237c-5.458-0.049-5.55-0.252-5.548-5.583
			c0.012-25.571-0.005-51.143,0.086-76.713c0.01-2.631-0.759-4.492-2.849-6.104c-3.329-2.57-6.561-5.284-9.665-8.121
			c-1.789-1.634-3.602-2.155-5.973-1.774c-9.136,1.467-18.295,2.789-27.439,4.197c-3.584,0.552-3.732,0.734-3.739,4.388
			c-0.019,8.523,0.003,17.047,0.001,25.571c-0.001,4.818-0.012,4.802-4.618,5.683c-5.312,1.015-10.624,2.019-15.919,3.106
			c-6.119,1.257-5.88,0.268-5.875,7.121c0.016,20.805,0.036,41.61,0.036,62.416c0,3.245-0.394,3.521-3.275,2.21
			c-4.585-2.086-9.114-4.295-13.699-6.382c-1.977-0.9-2.89-2.213-2.81-4.479c0.145-4.119,0.067-8.247,0.024-12.372
			c-0.031-3.075-0.414-3.462-3.547-3.479c-6.689-0.035-13.382-0.031-20.071-0.006c-3.624,0.014-3.911,0.297-3.915,3.951
			c-0.014,11.457,0.047,22.914,0.002,34.37c-0.035,8.76,0.987,6.58-7.238,9.611c-2.622,0.966-3.081,0.584-3.104-2.228
			c-0.045-5.499-0.069-10.999,0.008-16.497c0.033-2.359-0.995-3.315-3.289-3.308c-3.115,0.009-6.231-0.08-9.345-0.189
			c-1.433-0.05-2.279,0.469-2.438,1.951c-0.317,2.987-0.756,5.967-0.935,8.963c-0.12,2.009-0.818,3.084-2.953,3.047
			c-3.115-0.054-6.232-0.024-9.349-0.026c-1.688,0-2.541-0.819-2.536-2.525c0.004-1.466-0.027-2.933-0.027-4.399
			c0.009-18.789-0.019-37.578,0.074-56.366c0.014-2.572-0.725-4.099-3.295-4.871c-2.535-0.762-4.961-1.896-7.429-2.879
			c-6.827-2.721-6.826-2.724-6.86-10.1c-0.022-4.522-0.021-4.602-4.558-4.683c-2.146-0.038-3.149-0.798-3.311-3.018
			c-0.613-8.479-1.388-16.945-2.015-25.422c-0.674-9.117-1.249-18.24-1.868-27.36c-0.124-1.828-0.221-3.658-0.403-5.48
			c-0.048-0.477-0.375-0.925-0.575-1.387c-0.223,0.441-0.615,0.872-0.642,1.325c-0.181,3.018-0.377,6.04-0.395,9.061
			c-0.084,15.947-0.111,31.895-0.173,47.842c-0.017,4.193-0.226,4.394-4.32,4.41c-6.052,0.023-6.156-0.447-6.007,5.995
			c0.057,2.389-0.938,3.488-3.239,3.874c-3.794,0.637-7.55,1.497-11.336,2.18c-1.923,0.347-2.773,1.225-2.769,3.318
			c0.104,41.793,0.15,83.586,0.206,125.38c0.001,1.191-0.019,2.383-0.041,3.573c-0.031,1.634-0.756,2.573-2.505,2.571
			c-8.891-0.011-17.78-0.012-26.67,0.001c-1.871,0.003-2.637-0.954-2.611-2.74c0.021-1.558-0.014-3.116-0.014-4.674
			c0.003-16.498,0.011-32.995,0.009-49.493c0-1.644,0.151-3.309-1.752-4.25c-2.38-1.175-4.605-2.698-7.054-3.683
			c-1.411-0.568-3.242-0.812-4.693-0.445c-8.524,2.158-16.996,4.528-25.479,6.853c-3.748,1.027-3.811,1.125-3.813,5.121
			c-0.008,8.982,0.005,17.964,0.01,26.946c0.008,13.748,0.023,27.496,0.02,41.244c-0.003,4.281-0.174,4.432-4.537,4.448
			c-3.851,0.013-7.699-0.005-11.55,0.007c-4.26,0.014-4.431,0.189-4.441,4.564c-0.013,4.582,0.035,9.165-0.021,13.747
			c-0.036,3.034-0.521,3.521-3.553,3.549c-5.499,0.05-10.998,0.039-16.497,0.014c-4.294-0.02-4.567-0.369-4.668-4.781
			c-0.171-7.51-0.216-15.03-0.688-22.522c-0.194-3.1-0.007-6.599-3.81-8.42c-24.038-11.51-48.038-23.098-72.009-34.745
			c-2.119-1.029-4.049-1.262-6.319-0.777c-42.556,9.099-85.122,18.146-127.686,27.202c-3.648,0.776-3.79,0.918-3.796,4.739
			c-0.012,7.424,0.012,14.848,0,22.271c-0.008,4.28-0.157,4.428-4.547,4.431c-16.498,0.008-32.996,0.009-49.493,0
			c-4.331-0.002-4.448-0.123-4.448-4.512c0-16.314,0.024-32.628,0.014-48.942c-0.001-3.309-0.36-3.681-3.629-3.684
			c-18.789-0.02-37.578-0.02-56.366-0.001c-3.326,0.003-3.671,0.354-3.681,3.629c-0.026,8.707-0.063,17.415,0.025,26.121
			c0.025,2.47-0.745,3.584-3.371,3.862c-9.836,1.042-19.653,2.273-29.468,3.509c-4.503,0.567-5.107,0.127-5.105-4.488
			c0.007-19.431,0.085-38.861,0.018-58.291c-0.035-9.855,1.346-7.549-7.034-12.578c-0.235-0.141-0.435-0.358-0.684-0.457
			c-3.333-1.308-4.037-4.236-4.403-7.294c-0.761-6.349-1.388-12.714-2.157-19.062c-1.076-8.881-2.22-17.755-3.374-26.626
			c-0.079-0.612-0.471-1.183-0.717-1.773c-0.309,0.627-0.783,1.225-0.899,1.886c-0.603,3.415-1.132,6.844-1.656,10.271
			c-1.874,12.274-3.759,24.547-5.574,36.83c-0.246,1.661-0.952,2.67-2.543,3.176c-4.801,1.527-9.567,3.163-14.384,4.638
			c-4.896,1.5-4.941,1.438-4.919,6.574c0.098,22.819,0.24,45.638,0.314,68.458l-66.281,23.533v188
			c0.642-0.016,5.283-0.009,5.925-0.009c364.32,0,818.345,19.484,1182.664,19.486c1.01,0,2.018,0.027,3.024,0.034L352.358,560.738z"
			/>
	</g>
	<g id="donji_grad_1_">
		<g>
			
				<linearGradient id="SVGID_4_" gradientUnits="userSpaceOnUse" x1="-214.9482" y1="678.7617" x2="-214.9483" y2="454.79" gradientTransform="matrix(1 0 0 1 16.6797 -40.9199)">
				<stop  offset="0" style="stop-color:#707172"/>
				<stop  offset="0.1349" style="stop-color:#6B6C6C"/>
				<stop  offset="0.5006" style="stop-color:#636363"/>
				<stop  offset="1" style="stop-color:#616060"/>
			</linearGradient>
			<path fill="url(#SVGID_4_)" d="M-843.859,636.835c1095.2,0.006,1497.866,1.002,1191.979,1.002c1.375,0,2.75,0.016,4.125-0.01
				c3.37-0.063,3.803-0.461,3.804-3.838c0.011-67.306,0.012-133.606,0.008-200.91c-0.24-0.01-0.495-0.014-0.764-0.016l-4.123,0.628
				c-14.021,0.089-28.046,0.048-42.067,0.062c-4.247,0.004-4.549,0.305-4.547,4.529c0.005,13.104,0.036,26.213,0.044,39.316
				c0.003,4.419-0.188,4.603-4.698,4.606c-8.434,0.011-16.864,0.012-25.297,0c-4.354-0.008-4.554-0.207-4.56-4.456
				c-0.01-5.957-0.05-11.916,0.032-17.871c0.027-2.055-0.747-3.411-2.44-4.547c-2.584-1.73-4.989-3.724-7.534-5.515
				c-16.179-11.386-32.343-22.787-48.609-34.047c-1.605-1.11-3.858-1.812-5.813-1.815c-31.528-0.111-63.058-0.083-94.585-0.074
				c-4.359,0.001-4.583,0.242-4.581,4.744c0.004,12.557,0.035,25.113,0.032,37.67c-0.001,3.458-0.341,3.801-3.775,3.808
				c-10.081,0.022-20.164-0.015-30.245,0.03c-2.465,0.011-4.974,0.002-7.388,0.424c-13.087,2.288-26.153,4.693-39.222,7.086
				c-17.846,3.27-35.686,6.567-53.529,9.837c-3.361,0.614-3.656,0.354-3.662-3.04c-0.013-6.51,0.018-13.017,0.006-19.521
				c-0.007-3.893-0.063-4.055-3.825-4.529c-2.135-0.268-2.77-1.365-2.747-3.308c0.046-3.94-0.008-7.882,0.019-11.823
				c0.036-5.588-0.4-11.246,0.337-16.741c0.525-3.918-0.373-4.646-4.037-4.64c-22.455,0.051-44.91,0.019-67.365,0.031
				c-3.996,0.002-4.435,0.446-4.447,4.418c-0.018,5.498,0.008,10.998,0.016,16.497c0.002,1.697-0.313,3.301-2.45,3.205
				c-3.138-0.142-3.648,1.684-3.558,4.206c0.153,4.211,0.299,8.424,0.339,12.637c0.026,3.014-0.481,3.467-3.544,3.52
				c-2.566,0.044-5.134-0.004-7.699,0.025c-3.603,0.041-3.987,0.414-4.03,3.92c-0.031,2.566-0.09,5.136,0.01,7.697
				c0.098,2.485-1.006,3.461-3.442,3.432c-5.682-0.068-11.364,0.002-17.047-0.021c-3.761-0.018-4.105-0.361-4.105-4.084
				c0-13.017,0.029-26.029,0.03-39.044c0-3.915-0.276-4.224-4.005-4.804c-8.059-1.257-16.107-2.574-24.18-3.733
				c-5.425-0.78-10.972-2.317-16.31-1.829c-26.271,2.404-52.489,5.379-78.729,8.143c-29.697,3.129-59.396,6.244-89.095,9.373
				c-3.896,0.411-4.047,0.58-4.05,4.583c-0.005,9.624,0.03,19.247,0.012,28.87c-0.005,3.089-0.438,3.529-3.492,3.556
				c-4.947,0.043-9.897,0.044-14.847-0.001c-3.033-0.025-3.443-0.473-3.474-3.582c-0.035-3.572,0.015-7.148-0.016-10.725
				c-0.027-3.404-0.234-3.773-3.707-4.097c-8.389-0.784-16.795-1.396-25.189-2.109c-25.006-2.126-50.013-4.253-75.015-6.425
				c-3.145-0.273-5.867,0.408-8.593,2.079c-9.754,5.981-19.602,11.813-29.457,17.631c-2.937,1.73-3.273,1.476-3.279-2.038
				c-0.016-8.064-0.031-16.131,0.049-24.195c0.023-2.549-0.835-3.754-3.563-4.073c-23.564-2.776-47.109-5.724-70.672-8.511
				c-4.433-0.521-8.981-1.145-13.377-0.712c-14.313,1.407-28.578,3.281-42.861,4.979c-9.006,1.067-18.013,2.14-27.02,3.209
				c-3.264,0.388-3.683,0.839-3.754,4.144c-0.024,1.099-0.008,2.199-0.006,3.299c0.022,16.773,0.054,33.545,0.06,50.317
				c0.001,3.426-0.361,3.844-3.474,3.846c-14.39,0.016-28.779-0.043-43.168,0.002c-2.485,0.008-3.437-0.98-3.394-3.442
				c0.098-5.497,0.05-10.998,0.033-16.497c-0.012-3.804-0.341-4.163-4.037-4.169c-12.74-0.021-25.479-0.021-38.219,0.001
				c-3.606,0.006-3.981,0.38-3.988,3.938c-0.015,9.167,0.022,18.331,0.016,27.497c-0.002,4.098-0.249,4.344-4.396,4.346
				c-13.198,0.005-26.396-0.014-39.593-0.021L-843.859,636.835z"/>
		</g>
		<path fill="#AEBA63" d="M-694.417,455.045l17.943-1.26v-10.354c0,0-16.29,1.714-17.999,1.893L-694.417,455.045z"/>
		<path fill="#AEBA63" d="M-694.417,473.044l17.943-1.26V461.43c0,0-16.29,1.713-17.999,1.893L-694.417,473.044z"/>
		<path fill="#AEBA63" d="M-694.417,493.044l17.943-1.26V481.43c0,0-16.29,1.713-17.999,1.893L-694.417,493.044z"/>
		<path fill="#AEBA63" d="M-360.055,455.852l17.943-1.26v-10.353c0,0-16.291,1.713-17.999,1.891L-360.055,455.852z"/>
		<path fill="#AEBA63" d="M-360.055,473.851l17.943-1.26v-10.353c0,0-16.291,1.713-17.999,1.891L-360.055,473.851z"/>
		<path fill="#AEBA63" d="M-168.834,442.658l-17.943-1.26v-10.354c0,0,16.291,1.713,17.999,1.891L-168.834,442.658z"/>
		<path fill="#AEBA63" d="M-168.779,479.667l-17.999-1.277v-10.354c0,0,16.291,1.713,17.999,1.891V479.667L-168.779,479.667z"/>
		<path fill="#AEBA63" d="M-168.779,461.667l-17.999-1.277v-10.354c0,0,16.291,1.713,17.999,1.891V461.667L-168.779,461.667z"/>
		<rect x="120.227" y="426.19" fill="#AEBA63" width="19.622" height="9.466"/>
		<rect x="120.227" y="441.931" fill="#AEBA63" width="19.622" height="9.465"/>
	</g>
</g>
<g id="plocnik">
	<linearGradient id="SVGID_5_" gradientUnits="userSpaceOnUse" x1="597.9995" y1="640.5" x2="597.9995" y2="771.5153">
		<stop  offset="0" style="stop-color:#C9C9C9"/>
		<stop  offset="0.9205" style="stop-color:#A8A8A8"/>
	</linearGradient>
	<rect x="-352" y="636.912" fill="url(#SVGID_5_)" width="1900" height="134.588"/>
	<rect x="-352" y="771.268" fill="#939393" width="1900" height="7.536"/>
	<rect x="-352" y="778.804" fill="#4C4C4C" width="1900" height="21.196"/>
</g>
</svg>
