<?xml version="1.0" encoding="utf-8"?>
<!-- Generator: Adobe Illustrator 16.0.0, SVG Export Plug-In . SVG Version: 6.00 Build 0)  -->
<!DOCTYPE svg PUBLIC "-//W3C//DTD SVG 1.1//EN" "http://www.w3.org/Graphics/SVG/1.1/DTD/svg11.dtd">
<svg version="1.1" xmlns="http://www.w3.org/2000/svg" xmlns:xlink="http://www.w3.org/1999/xlink" x="0px" y="0px" width="500px"
	 height="700px"  xml:space="preserve">

<g id="ita" transform="translate(-400)">
	<polygon fill="#EAB17F" points="755.762,639.419 757.052,585.203 747.687,585.542 750.605,639.419 	"/>
	<polygon fill="#EAB17F" points="723.463,638.604 722.173,584.39 731.538,584.729 728.62,638.604 	"/>
	<polygon fill="#9F040A" points="775.508,671.649 753.405,671.243 753.405,672.159 748.57,672.159 748.57,639.589 761.496,639.589 
		758.29,665.442 	"/>
	<polygon fill="#9F040A" points="703.989,670.393 726.092,669.987 726.092,670.903 730.927,670.903 730.927,638.334 718,638.334 
		721.207,664.185 	"/>
	<path fill="#F8B845" d="M760.075,474.974l1.425-37.223c0,0,1.629-21.51-18.388-21.51c0,0-23.003-1.764-23.003,13.164
		c-0.503,15.674-1.493,45.568-1.493,45.568l0.271,9.666l41.188-4.072V474.974z"/>
	<path fill="#E8B184" d="M755.694,477.354l-10.369-0.408v-9.774c0,0,10.687-1.324,11.806-17.1l0.262-3.665
		c0,0,7.17,1.019,7.373-4.579c0.102-4.377-6.006-4.275-6.21-3.259c-0.203,1.02-3.257-10.075-11.501-9.974
		c-5.496,0.611-22.189-3.053-23.817,9.668c-6.005-1.118-5.089,4.887-5.089,4.887c-0.204,9.161,5.19,4.174,5.19,4.072
		s0.712,18.625,11.208,20.254c0,8.651,0,10.045,0,10.045l-7.173,0.037c0,0,1.45,19.261,14.06,16.795
		C754.042,491.885,756.712,479.593,755.694,477.354"/>
	<path fill="#E7AC83" d="M703.542,525.763c0,0,1.803,15.199,3.024,17.286c-0.61,2.29-1.694,13.385,0.612,13.655
		c0.713,0.152,0.1-5.258,0.1-5.258s0.714,7.022,3.429,6.275l-2.004-7.04c0,0,1.813,6.804,4.854,6.363
		c1.221-0.272-3.479-6.669-3.479-6.669s3.677,6.28,4.972,4.293c0.204-1.425-3.039-4.699-3.039-4.699l-0.05-3.104
		c0,0,1.681,3.613,2.75,3.256c1.695-0.813-0.882-4.207-0.882-4.207s-0.95-1.152-3.257-1.017l-0.342-2.97l-1.221-15.93
		L703.542,525.763z"/>
	<path fill="#E7AC83" d="M777.85,525.056c0,0-1.803,15.201-3.025,17.287c0.611,2.291,1.694,13.385-0.613,13.654
		c-0.712,0.154-0.1-5.258-0.1-5.258s-0.715,7.023-3.428,6.277l2.003-7.039c0,0-1.812,6.801-4.853,6.36
		c-1.222-0.271,3.479-6.666,3.479-6.666s-3.676,6.278-4.972,4.29c-0.204-1.424,3.038-4.697,3.038-4.697l0.051-3.105
		c0,0-1.68,3.613-2.75,3.257c-1.695-0.813,0.883-4.206,0.883-4.206s0.95-1.154,3.257-1.019l0.341-2.968l1.221-15.929L777.85,525.056
		z"/>
	<path fill="#792A12" d="M775.288,541.064c-2.087,0.56-4.091-0.303-4.091-0.303l-0.113,1.132c0,0,1.895,0.492,3.741,0.449
		L775.288,541.064z"/>
	<path id="ovratnik_1_" fill="#FAE9C8" d="M741.021,489.567c0,0-11.636-3.109-13.367-12.01
		C725.389,491.37,739.308,496.637,741.021,489.567z"/>
	<path id="ovratnik" fill="#FAE9C8" d="M741.021,489.567c0,0,12.339-5.752,13.493-12.215
		C755.16,488.493,746.611,496.764,741.021,489.567z"/>
	<path id="vesta_1_" fill="#97A96D" d="M769.045,583.138c0,0-11.535,5.295-51.842,0.611l3.054-32.027l0.339-59.373
		c0,0-9.228,4.207-9.703,12.757s-1.29,21.918-1.29,21.918h-6.853l1.289-26.531c0,0,1.765-17.711,16.964-22.935h6.649
		c0,0-0.882,11.941,6.311,14.112c5.649,1.388,6.11-2.159,7.056-2.103c0.97,0.058,2.171,3.256,6.515,1.969
		c4.342-1.291,7.395-9.976,6.989-14.183h7.125c0,0,13.096,3.937,14.589,24.428s2.171,24.428,2.171,24.428l-6.582-0.067
		l-2.783-23.546c0,0-0.748-9.771-6.31-9.907C761.581,501.306,769.045,583.138,769.045,583.138z"/>
	<polygon fill="#D3E5B5" points="725.363,542.947 726.89,542.947 724.753,563.304 716,563.304 718.646,542.947 721.445,542.947 
		757.221,478.183 760.513,477.979 	"/>
	<polygon fill="#8F9071" points="718.646,542.981 717.934,542.981 715.492,556.212 716.912,556.321 	"/>
	<path fill="#93A07C" d="M725.567,544.499l-6.404,0.128c0,0-0.822,4.147,3.452,4.147
		C725.974,548.494,725.313,546.434,725.567,544.499z"/>
	<circle fill="#D69067" stroke="#000000" stroke-miterlimit="10" cx="750.571" cy="442.539" r="6.921"/>
	<circle fill="#D69067" stroke="#000000" stroke-miterlimit="10" cx="729.944" cy="442.539" r="6.921"/>
	<path fill="none" stroke="#231F20" stroke-miterlimit="10" d="M743.284,442.257c0,0-5.096-0.914-6.418,0.129"/>
	<path opacity="0.3" fill="#D25560" d="M746.789,457.379c-1.495,4.256-8.923,11.331-14.962,0
		C739.528,459.855,739.664,459.753,746.789,457.379z"/>
	<polygon fill="#C9564E" points="740.425,447.933 741.433,455.532 738.787,455.532 739.499,447.729 	"/>
	<circle fill="#900100" cx="759.494" cy="446.237" r="2.002"/>
	<circle fill="#870000" cx="719.799" cy="446.237" r="2.002"/>
	<circle fill="#410B00" cx="749.639" cy="443.776" r="1.425"/>
	<circle fill="#410B00" cx="729.282" cy="443.455" r="1.425"/>
	<path fill="#F8B845" d="M726.84,435.618c-2.901,1.309-3.612,2.232-3.612,2.232l-0.967,0.305l-1.151,0.023l5.428-11.045
		l30.671,1.086l1.831,13.163c0,0-8.106-4.728-9.363-6.241c-1.258-1.517,0.46-3.848-0.475-3.189c-0.935,0.656-4.68-1.168-4.208,0
		c0.473,1.164,0.105,3.277-1.288,4.715s-4.682,3.699-10.585,6.21c-5.903,2.51,6.039-3.859,5.36-5.46
		c-0.678-1.598-4.504-1.268-5.295-1.799c-0.79-0.531-0.714-1.098-1.625-0.816C731.559,434.802,729.233,434.538,726.84,435.618z"/>
</g>
<g id="mirjam" transform="translate(-400)">
	<polygon fill="#EAB17F" points="814.842,661.601 813.918,602.031 821.802,602.313 819.185,661.601 	"/>
	<polygon fill="#EAB17F" points="842.198,664.146 843.282,601.362 835.399,601.644 837.854,664.146 	"/>
	<polygon fill="#563534" points="807.422,588.961 806.296,602.031 847.45,604.271 845.678,587.329 	"/>
	<polygon fill="#378388" points="797.692,673.256 816.302,672.923 816.302,673.678 820.373,673.678 820.373,661.601 
		809.489,661.601 812.189,668.142 	"/>
	<polygon fill="#497F94" points="858.923,673.256 840.31,672.923 840.31,673.678 836.241,673.678 836.241,661.601 847.123,661.601 
		844.425,668.142 	"/>
	<path fill="#3D362C" d="M811.371,511.216l-1.2-30.67c0,0-1.371-17.722,15.483-17.722c0,0,19.367-1.454,19.367,10.847
		c0.424,12.913,1.257,37.545,1.257,37.545l-0.229,7.962l-34.679-3.354V511.216z"/>
	<path fill="#E8B184" d="M815.061,513.175l8.663,0.481l0.067-8.871c0,0-8.999-1.09-9.941-14.088l-0.22-3.02
		c0,0-6.037,0.839-6.208-3.773c-0.084-3.606,5.058-3.521,5.229-2.687c0.17,0.842,2.743-8.3,9.682-8.217
		c4.629,0.505,18.684-2.517,20.054,7.969c5.057-0.924,4.287,4.024,4.287,4.024c0.171,7.547-4.371,3.438-4.371,3.355
		c0-0.085-0.601,15.346-9.437,16.688c0,7.128,0.007,8.572,0.007,8.572l6.032-0.266c0,0-1.222,15.868-11.837,13.836
		C816.451,525.148,814.204,515.02,815.061,513.175"/>
	<path fill="#E7AC83" d="M858.971,553.062c0,0-1.519,12.521-2.547,14.24c0.514,1.888,1.427,11.027-0.516,11.251
		c-0.6,0.128-0.083-4.333-0.083-4.333s-0.601,5.784-2.887,5.172l1.686-5.801c0,0-1.525,5.604-4.084,5.241
		c-1.029-0.224,2.93-5.49,2.93-5.49s-3.098,5.17-4.188,3.536c-0.173-1.176,2.559-3.874,2.559-3.874l0.041-2.559
		c0,0-1.415,2.977-2.313,2.683c-1.43-0.668,0.742-3.465,0.742-3.465s0.8-0.95,2.742-0.839l0.286-2.444l1.028-13.123L858.971,553.062
		z"/>
	<polygon fill="#563534" points="815.544,513.175 839.121,513.344 827.067,545.658 	"/>
	<path fill="#E7AC83" d="M796.405,552.479c0,0,1.519,12.522,2.547,14.242c-0.515,1.886-1.427,11.026,0.519,11.25
		c0.598,0.127,0.083-4.333,0.083-4.333s0.601,5.784,2.886,5.172l-1.687-5.801c0,0,1.525,5.605,4.086,5.24
		c1.028-0.22-2.929-5.489-2.929-5.489s3.094,5.17,4.186,3.532c0.171-1.172-2.558-3.871-2.558-3.871l-0.044-2.558
		c0,0,1.416,2.976,2.315,2.683c1.429-0.669-0.742-3.466-0.742-3.466s-0.8-0.947-2.742-0.839l-0.287-2.444l-1.027-13.123
		L796.405,552.479z"/>
	<path id="vesta_3_" fill="#8FA2A8" d="M805.063,592.864c0,0,8.469-1.587,42.403-5.447l-2.569-12.968l-0.287-48.919
		c0,0,7.771,3.466,8.171,10.512c0.4,7.042,1.086,18.057,1.086,18.057h5.769l-1.085-21.859c0,0-1.485-14.593-14.282-18.896h-5.599
		c0,0,0.741,9.838-5.313,11.627c-4.758,1.142-5.201-0.319-6-0.271c-0.815,0.045-1.769,1.222-5.427,0.159
		c-3.656-1.063-6.228-8.22-5.884-11.685h-5.999c0,0-11.027,3.242-12.284,20.128c-1.256,16.88-1.828,20.126-1.828,20.126l5.544-0.058
		l2.34-19.399c0,0,0.633-8.05,5.313-8.162C810.104,532.91,805.063,592.864,805.063,592.864z"/>
	<path id="ovratnik_5_" fill="#FAE9C8" d="M827.356,524.7c0,0-11.635-6.124-11.311-11.525c-1.02,3.295-2.162,6.033,1.811,7.966
		C815.55,523.913,823.61,527.628,827.356,524.7z"/>
	<path id="ovratnik_4_" fill="#FAE9C8" d="M827.356,524.7c0,0,11.64-5.956,11.313-11.356c1.019,3.296,2.711,5.914-1.259,7.848
		C839.716,523.963,831.104,527.628,827.356,524.7z"/>
	<line fill="#8F9071" x1="846.252" y1="567.247" x2="846.851" y2="567.247"/>
	<line fill="#8F9071" x1="848.908" y1="578.148" x2="847.714" y2="578.236"/>
	<path opacity="0.3" fill="#D25560" d="M822.561,496.719c1.257,3.506,7.512,9.336,12.597,0
		C828.672,498.759,828.558,498.675,822.561,496.719z"/>
	<polygon fill="#C9564E" points="827.917,488.937 827.067,495.197 829.297,495.197 828.695,488.768 	"/>
	<ellipse fill="#410B00" cx="820.16" cy="485.511" rx="1.199" ry="1.177"/>
	<ellipse fill="#410B00" cx="837.299" cy="485.245" rx="1.198" ry="1.176"/>
	<polygon fill="#81434A" points="836.637,657.912 837.637,661.601 842.242,661.601 842.951,657.8 	"/>
	<polygon fill="#81434A" points="813.502,657.912 814.504,661.601 819.185,661.601 819.815,657.8 	"/>
	<g>
		<path fill="#231F20" d="M834.624,483.049c0,0,0.23-0.3,0.665-0.673c0.434-0.362,1.116-0.801,1.946-0.9
			c0.407-0.063,0.848-0.038,1.229,0.091c0.193,0.061,0.349,0.176,0.5,0.274c0.157,0.092,0.262,0.228,0.367,0.339
			c0.209,0.227,0.321,0.453,0.391,0.616c0.073,0.159,0.101,0.256,0.101,0.256l-0.063,0.051c0,0-0.099-0.039-0.247-0.117
			c-0.078-0.035-0.163-0.084-0.254-0.144c-0.086-0.067-0.214-0.098-0.325-0.16c-0.119-0.052-0.229-0.135-0.364-0.175
			c-0.137-0.034-0.25-0.14-0.398-0.16c-0.267-0.109-0.57-0.229-0.902-0.231c-0.329-0.015-0.67,0.041-0.982,0.144
			c-0.314,0.093-0.598,0.23-0.843,0.35c-0.48,0.258-0.765,0.497-0.765,0.497L834.624,483.049z"/>
	</g>
	<g>
		<path fill="#231F20" d="M817.393,483.046c0,0,0.23-0.3,0.665-0.673c0.434-0.362,1.116-0.801,1.946-0.899
			c0.408-0.063,0.849-0.038,1.229,0.091c0.193,0.061,0.349,0.176,0.5,0.274c0.157,0.091,0.262,0.227,0.367,0.338
			c0.209,0.228,0.322,0.454,0.392,0.617c0.073,0.158,0.1,0.255,0.101,0.255l-0.063,0.051c0,0-0.099-0.039-0.247-0.116
			c-0.078-0.036-0.163-0.085-0.254-0.144c-0.086-0.067-0.214-0.098-0.326-0.16c-0.119-0.052-0.229-0.135-0.364-0.175
			c-0.137-0.034-0.25-0.14-0.398-0.16c-0.268-0.109-0.57-0.23-0.902-0.231c-0.328-0.016-0.67,0.041-0.982,0.143
			c-0.314,0.093-0.598,0.23-0.843,0.35c-0.48,0.258-0.765,0.497-0.765,0.497L817.393,483.046z"/>
	</g>
	<path fill="#3D362C" d="M832.486,473.111c0,0-15.142,7.883-15.065,18.871c0,0-1.092-4.636-4.771-10.765
		c3.179-13.038,19.836-9.071,19.836-9.071"/>
	<path fill="#3D362C" d="M832.486,472.961c0,0,3.644,7.757,9.899,8.009s-0.432-7.248-0.432-7.248L832.486,472.961z"/>
</g>
</svg>
