<?xml version="1.0" encoding="utf-8"?>
<!-- Generator: Adobe Illustrator 16.0.0, SVG Export Plug-In . SVG Version: 6.00 Build 0)  -->
<!DOCTYPE svg PUBLIC "-//W3C//DTD SVG 1.1//EN" "http://www.w3.org/Graphics/SVG/1.1/DTD/svg11.dtd">
<svg version="1.1" xmlns="http://www.w3.org/2000/svg" xmlns:xlink="http://www.w3.org/1999/xlink" x="0px" y="0px" width="200px"
	 height="700px"  xml:space="preserve">

<g id="steve" transform="translate(-500)">
	<path fill="#5B5B5B" d="M557.289,664.721h-9.739l-0.04,5.235c0,0-18.875,5.371-19.085,8.771c7.872,0,27.906,0,27.906,0
		L557.289,664.721z"/>
	<path fill="#5B5B5B" d="M576.013,664.918h11.738l-0.959,5.238c-0.001,0,17.876,5.37,18.085,8.771c-7.872,0-27.906,0-27.906,0
		L576.013,664.918z"/>
	<polygon fill="#A0957D" points="547.55,667.078 546.03,565.472 569.172,567.644 557.267,667.078 	"/>
	<polygon fill="#A0957D" points="576.092,667.544 569.172,567.644 591.055,566.335 587.81,667.544 	"/>
	<path fill="#E8B184" d="M585.037,470.35l-12.221-0.485v-11.516c0,0,12.593-1.562,13.915-20.153l0.307-4.321
		c0,0,3.436,2.75,3.675-3.848c0.119-5.158-2.065-6.588-2.306-5.389c-0.138,0.688-6.303-8.168-13.868-9.915
		c-5.641-1.302-12.059,3.968-17.338,6.044c-0.104,0.012-0.196,0.021-0.293,0.031c-4.781,0.477-2.667-1.16-6.104,0.963
		c-0.889,0.551-2.157,1.355-4.017,2.517c-2.993,2.565-2.845,5.749-2.845,5.749c2.01,10.004,2.962,4.93,2.962,4.81
		c0-0.119,0.842,21.951,13.208,23.869c0,10.193,0,11.835,0,11.835l-8.452,0.051c0,0,1.705,22.699,16.565,19.789
		C583.085,487.474,586.235,472.983,585.037,470.35"/>
	<path fill="#E7AC83" d="M523.605,526.568c0,0-0.839,17.913,1.285,20.363c-1.064,2.699-2.948,15.78,1.063,16.095
		c1.781,0.257-0.36-9.405,0.177-6.188c0,0,1.242,8.267,5.968,7.392l-3.486-8.296c0,0,3.158,8.022,8.445,7.503
		c2.126-0.331-6.052-7.865-6.052-7.865s6.4,7.403,8.655,5.063c0.349-1.684-5.294-5.534-5.294-5.534l-0.086-3.658
		c0,0,2.928,4.258,4.788,3.834c2.951-0.956-1.535-4.955-1.535-4.955s-1.653-1.365-5.672-1.208l-0.595-3.489l-2.123-18.773
		L523.605,526.568z"/>
	<path fill="#E7AC83" d="M608.794,526.167c0,0,2.839,17.913,0.715,20.363c1.064,2.699,2.948,15.78-1.063,16.095
		c-1.781,0.257,0.36-9.405-0.177-6.188c0,0-1.242,8.267-5.968,7.392l3.486-8.296c0,0-3.158,8.022-8.445,7.503
		c-2.126-0.331,6.052-7.865,6.052-7.865s-6.4,7.403-8.655,5.063c-0.349-1.684,5.294-5.534,5.294-5.534l0.086-3.658
		c0,0-2.928,4.258-4.788,3.834c-2.951-0.956,1.535-4.955,1.535-4.955s1.653-1.365,5.672-1.208l0.595-3.489l0.123-18.773
		L608.794,526.167z"/>
	<path fill="none" stroke="#605E5B" stroke-miterlimit="10" d="M546.03,578.367c12.524-0.593,10.345-10.492,10.165-9.877"/>
	<path fill="none" stroke="#605E5B" stroke-miterlimit="10" d="M590.959,578.6c-12.524-0.592-10.346-10.491-10.165-9.867"/>
	<path fill="#772424" d="M585.725,567.563l-34.765,0.197l-0.545-96.635c17.337,11.568,34.762-0.195,34.765-0.196L585.725,567.563z"
		/>
	<path id="vesta_4_" fill="#3F4C3E" d="M559.289,570.403c-5.784-0.351-8.938-0.544-16.26-1.396l0.243-12.193l-3.259-67.353
		c0,0-3.758,11.551-4.318,21.626c-0.561,10.075-1.623,34.917-1.623,34.917l-12.628,0.808c0,0,2.668-38.38,2.668-46.782
		s7.646-30.676,24.691-30.663h11.309c-0.001,0-0.663,2.904,1.757,4.267L559.289,570.403z"/>
	<path id="vesta_2_" fill="#3F4C3E" d="M573.085,570.704c5.784-0.351,15.782-1.089,23.103-1.94l-3.333-12.09l-0.494-66.911
		c0,0,3.758,11.551,4.318,21.626c0.561,10.075,1.623,34.917,1.623,34.917l12.628,0.808c0,0-2.668-38.38-2.668-46.782
		s-7.646-30.676-24.691-30.663h-11.309c0.001,0,0.663,2.904-1.757,4.267L573.085,570.704z"/>
	<path opacity="0.3" fill="#D25560" d="M574.539,446.806c-1.759,5.02-10.515,13.357-17.631,0
		C565.982,449.728,566.14,449.602,574.539,446.806z"/>
	<polygon fill="#C9564E" points="567.042,435.674 568.225,444.628 565.108,444.628 565.95,435.433 	"/>
	<path fill="#410B00" d="M576.217,430.775c0,0.928,0.752,1.681,1.682,1.681c0.925,0,1.677-0.753,1.677-1.681
		c0-0.925-0.751-1.68-1.677-1.68C576.969,429.096,576.217,429.851,576.217,430.775z"/>
	<path fill="#410B00" d="M552.227,430.396c0,0.928,0.753,1.681,1.683,1.681c0.925,0,1.676-0.753,1.676-1.681
		c0-0.926-0.751-1.678-1.676-1.678C552.979,428.719,552.227,429.471,552.227,430.396z"/>
	<g>
		<path d="M550.032,427.876c0,0,0.095-0.109,0.261-0.301c0.155-0.199,0.417-0.449,0.758-0.749c0.346-0.283,0.777-0.58,1.285-0.831
			c0.261-0.103,0.525-0.237,0.811-0.321c0.285-0.092,0.577-0.179,0.878-0.229c0.597-0.123,1.221-0.193,1.808-0.125
			c0.583,0.069,1.114,0.291,1.517,0.557c0.205,0.127,0.373,0.279,0.507,0.43c0.144,0.132,0.222,0.311,0.292,0.426
			c0.116,0.267,0.129,0.422,0.129,0.422l-0.091,0.041c0,0-0.03-0.022-0.086-0.066c-0.061-0.037-0.116-0.11-0.221-0.17
			c-0.119-0.049-0.214-0.137-0.375-0.187c-0.144-0.067-0.312-0.122-0.501-0.175c-0.181-0.061-0.397-0.092-0.61-0.143
			c-0.225-0.027-0.452-0.079-0.698-0.103c-0.239-0.06-0.498-0.06-0.759-0.106c-0.263-0.01-0.534-0.036-0.804-0.008
			c-0.272,0.009-0.541,0.053-0.806,0.102c-0.268,0.041-0.518,0.133-0.771,0.193c-0.485,0.176-0.934,0.373-1.301,0.58
			c-0.353,0.216-0.654,0.412-0.843,0.585c-0.196,0.159-0.309,0.251-0.309,0.251L550.032,427.876z"/>
	</g>
	<g>
		<path d="M573.782,427.876c0,0,0.095-0.109,0.261-0.3c0.155-0.2,0.417-0.45,0.758-0.75c0.345-0.283,0.777-0.579,1.285-0.831
			c0.261-0.103,0.525-0.237,0.811-0.321c0.284-0.091,0.576-0.179,0.878-0.229c0.597-0.123,1.221-0.193,1.808-0.125
			c0.583,0.069,1.114,0.291,1.517,0.557c0.205,0.127,0.373,0.279,0.507,0.43c0.144,0.132,0.222,0.311,0.292,0.426
			c0.116,0.267,0.128,0.422,0.128,0.422l-0.091,0.041c0,0-0.03-0.022-0.086-0.066c-0.061-0.037-0.116-0.11-0.221-0.17
			c-0.119-0.049-0.214-0.137-0.375-0.187c-0.144-0.067-0.312-0.122-0.501-0.175c-0.181-0.061-0.397-0.092-0.61-0.143
			c-0.225-0.027-0.452-0.079-0.698-0.103c-0.239-0.06-0.498-0.06-0.759-0.106c-0.262-0.01-0.534-0.035-0.804-0.008
			c-0.272,0.009-0.541,0.053-0.806,0.102c-0.268,0.041-0.518,0.133-0.771,0.193c-0.485,0.176-0.934,0.373-1.301,0.58
			c-0.353,0.216-0.654,0.412-0.843,0.585c-0.196,0.159-0.309,0.251-0.309,0.251L573.782,427.876z"/>
	</g>
	<g id="Layer_6">
		<path fill="#5B4637" d="M547.922,427.911c0.234-3.922,3.93-4.673,5.048-4.673c1.123,0,1.625,0.226,2.242,0.505
			c0.618,0.279,5.654-2.52,8.227-2.463c2.572,0.057,3.472,0.727,3.472,0.727s7.331-5.036,8.614-5.036
			c1.292,0,7.064,1.372,9.322,8.804c2.209,3.712,1.847,12.834,1.847,12.834c1.066-1.909,1.686-4.659,2.521-7.399
			c0.841-2.743,1.927-12.447-2.55-19.108c-3.582-5.373-8.505-3.357-14.442-6.1c0,0-2.351-2.072-0.952-2.128
			c1.401-0.056-1.06-0.895-3.41-0.615c-2.352,0.279-10.415,5.54-10.415,5.54s-2.46,0.393-3.578,0.561
			c-1.123,0.168-7.049,5.877-7.608,7.612c-0.559,1.733-2.181,11.79,0.221,19.585c0.5,2.467,1.515,6.104,1.515,6.104
			S547.684,431.832,547.922,427.911z"/>
	</g>
</g>
</svg>
