<?xml version="1.0" encoding="utf-8"?>
<!-- Generator: Adobe Illustrator 16.0.0, SVG Export Plug-In . SVG Version: 6.00 Build 0)  -->
<!DOCTYPE svg PUBLIC "-//W3C//DTD SVG 1.1//EN" "http://www.w3.org/Graphics/SVG/1.1/DTD/svg11.dtd">
<svg version="1.1" id="act_x5F_printlab_xA0_Image_1_"
	 xmlns="http://www.w3.org/2000/svg" xmlns:xlink="http://www.w3.org/1999/xlink" x="0px" y="0px" width="100px" height="86.604px"
	 viewBox="0 0 100 86.604" enable-background="new 0 0 100 86.604" xml:space="preserve">
<polygon fill-rule="evenodd" clip-rule="evenodd" fill="#406B8E" points="25,86.604 0,43.302 25,0 75,0 100,43.302 75,86.604 "/>
<g>
	<path fill-rule="evenodd" clip-rule="evenodd" fill="#FFFFFF" d="M37.366,50.884c0.403,3.924-1.221,5.789-5.023,5.802
		c-4.687,0.018-9.375-0.017-14.062,0.014c-1.282,0.007-2.438-0.259-3.668-1.101c0.289-0.633,0.519-1.266,0.846-1.838
		c2.521-4.412,5.063-8.813,7.594-13.219c0.812-1.413,1.435-1.619,2.796-0.825c2.607,1.522,5.204,3.063,7.795,4.614
		c1.038,0.622,1.156,1.33,0.505,2.634c-0.708,1.42-1.394,1.834-2.561,1.247c-1.833-0.925-3.587-2.003-5.377-3.014
		c-0.588-0.332-1.181-0.656-1.997-1.108c-0.734,1.326-1.411,2.55-2.19,3.96c2.798,1.635,5.373,3.368,8.146,4.683
		c2.079,0.987,4.309,0.85,6.087-1.011c0.237-0.247,0.495-0.476,0.749-0.706C37.053,50.975,37.13,50.969,37.366,50.884z"/>
	<path fill-rule="evenodd" clip-rule="evenodd" fill="#FFFFFF" d="M12.813,47.851c0-2.109-0.001-4.22,0.001-6.329
		c0.001-1.446-0.137-2.909,0.05-4.33c0.165-1.251,0.546-2.53,1.112-3.656c0.5-0.995,1.494-1.566,2.725-1.563
		c5.779,0.012,11.558-0.019,17.337,0.021c1.511,0.01,3.208,1.361,3.344,2.852c0.184,2.015,0.045,4.059,0.045,6.352
		c-2.198-1.269-4.142-2.387-6.081-3.512c-1.183-0.687-2.359-1.385-3.542-2.073c-3.386-1.971-6.574-1.134-8.587,2.31
		c-1.59,2.723-3.106,5.49-4.671,8.228c-0.367,0.64-0.802,1.242-1.205,1.862C13.166,47.957,12.99,47.904,12.813,47.851z"/>
	<path fill-rule="evenodd" clip-rule="evenodd" fill="#FFFFFF" d="M53.391,37.36c0,1.035,0,1.714,0,2.483
		c-1.648,0.513-3.3,0.164-4.917,0.27c-1.348,0.088-1.551,0.287-1.572,1.596c-0.022,1.339,0.297,1.739,1.666,1.783
		c1.721,0.055,3.446,0.061,5.167-0.003c1.519-0.058,1.888-0.484,1.918-2.054c0.032-1.653,0.037-3.308,0.001-4.961
		c-0.032-1.557-0.363-1.905-1.989-1.949c-1.997-0.055-3.997-0.01-5.995-0.021c-0.541-0.002-1.082-0.05-1.762-0.084
		c0-0.788,0-1.496,0-2.384c3.285,0,6.506-0.062,9.723,0.032c1.193,0.035,2.379,1.52,2.425,2.967
		c0.086,2.615,0.096,5.239-0.002,7.854c-0.065,1.766-1.468,3.044-3.248,3.083c-2.479,0.055-4.962,0.003-7.442,0.015
		c-1.063,0.006-1.819-0.488-2.438-1.308c-1.223-1.618-1.04-3.454-0.438-5.116c0.581-1.604,2.028-2.307,3.826-2.218
		C49.947,37.424,51.59,37.36,53.391,37.36z"/>
	<path fill-rule="evenodd" clip-rule="evenodd" fill="#FFFFFF" d="M72.149,31.977c0,0.958,0,1.618,0,2.354
		c-2.989,0.531-5.975-0.262-9.078,0.559c0,2.512-0.033,4.971,0.014,7.429c0.021,1.015,0.892,1.138,1.649,1.166
		c1.44,0.056,2.888,0.024,4.328,0.027c0.956,0.002,1.912,0,3.029,0c0,0.843,0,1.545,0,2.451c-2.962,0-5.9,0.082-8.835-0.033
		c-1.554-0.061-2.827-1.659-2.902-3.507c-0.095-2.265-0.126-4.54-0.011-6.802c0.127-2.459,1.413-3.613,3.818-3.637
		C66.761,31.957,69.362,31.977,72.149,31.977z"/>
	<path fill-rule="evenodd" clip-rule="evenodd" fill="#FFFFFF" d="M81.778,45.887c-1.101,0-1.885,0-2.897,0
		c0-3.777,0-7.458,0-11.255c-1.488-0.088-2.764-0.164-4.146-0.247c0-0.787,0-1.446,0-2.103c1.501-0.383,8.835-0.456,11.376-0.098
		c0.03,0.292,0.081,0.618,0.088,0.946c0.007,0.339-0.03,0.68-0.058,1.247c-1.406,0.082-2.807,0.162-4.362,0.252
		C81.778,38.389,81.778,42.012,81.778,45.887z"/>
	<path fill-rule="evenodd" clip-rule="evenodd" fill="#FFFFFF" d="M64.236,50.263c0.107,2.077,0.087,4.158-0.018,6.612
		c-0.548-0.3-1.04-0.395-1.191-0.677c-0.777-1.435-1.466-2.919-2.31-4.632c-0.079,1.861-0.146,3.478-0.214,5.093
		c-0.165-0.007-0.33-0.014-0.496-0.023c-0.416-2.104-0.065-4.242-0.204-6.274c0.807-0.473,1.176-0.165,1.452,0.4
		c0.656,1.343,1.314,2.683,2.28,3.996c0-1.505,0-3.011,0-4.517C63.769,50.249,64,50.256,64.236,50.263z"/>
	<path fill-rule="evenodd" clip-rule="evenodd" fill="#FFFFFF" d="M51.396,53.677c-0.164,1.161-0.295,2.094-0.489,3.467
		c-0.84,0-0.791-3.982-0.419-6.977c1.309-0.103,2.678-0.461,3.689,0.839c0.562,0.724,0.325,1.348-0.892,2.698
		c0.459,0.919,0.933,1.875,1.604,3.221c-0.656-0.343-1.056-0.428-1.233-0.673c-0.437-0.605-0.728-1.319-1.166-1.922
		C52.297,54.064,51.888,53.96,51.396,53.677z M51.222,50.981c0.031,0.705,0.056,1.271,0.081,1.819
		c1.604,0.114,2.196-0.142,2.26-0.878C53.627,51.186,53.133,50.956,51.222,50.981z"/>
	<path fill-rule="evenodd" clip-rule="evenodd" fill="#FFFFFF" d="M85.896,52.619c0.114,0.168,0.201,0.377,0.356,0.498
		c0.845,0.664,1.252,1.529,0.787,2.512c-0.457,0.973-1.447,1.142-2.453,1.111c-0.468-0.018-0.936-0.004-1.538-0.004
		c0-2.231,0-4.306,0-6.616c0.808,0,1.602-0.011,2.393,0.004c0.711,0.014,1.205,0.4,1.303,1.075c0.098,0.689,0.034,1.406-0.929,1.494
		c0.444-1.865,0.088-2.171-2.013-1.606c0.044,0.49,0.091,0.997,0.142,1.532C84.684,52.619,85.289,52.619,85.896,52.619z
		 M83.896,55.854c1.946,0,2.491-0.319,2.414-1.292c-0.078-1.003-0.6-1.226-2.414-0.977C83.896,54.286,83.896,55,83.896,55.854z"/>
	<path fill-rule="evenodd" clip-rule="evenodd" fill="#FFFFFF" d="M79.837,55.168c-0.616,0-1.232,0-1.989,0
		c-0.31,0.472-0.663,1.01-1.021,1.552c-0.091-0.03-0.182-0.058-0.269-0.088c0.023-0.336-0.007-0.693,0.084-1.013
		c0.447-1.579,0.902-3.161,1.427-4.717c0.104-0.317,0.479-0.637,0.802-0.756c0.168-0.063,0.652,0.258,0.73,0.494
		c0.646,1.976,1.231,3.972,1.848,6.002C80.086,56.844,80.708,55.498,79.837,55.168z M79.975,54.351
		c-0.391-1.084-0.687-1.906-0.982-2.727c-0.146,0.01-0.29,0.02-0.435,0.028c-0.198,0.862-0.4,1.725-0.63,2.698
		C78.683,54.351,79.144,54.351,79.975,54.351z"/>
	<path fill-rule="evenodd" clip-rule="evenodd" fill="#FFFFFF" d="M45.636,54.088c-0.142,0.895-0.274,1.729-0.438,2.76
		c-1.19,0-0.85-3.501-0.416-6.7c0.761,0,1.568-0.079,2.353,0.021c0.976,0.123,1.713,0.938,1.76,1.748
		c0.045,0.771-0.664,1.677-1.588,1.923C46.792,53.977,46.245,54.004,45.636,54.088z M45.553,53.107
		c0.877-0.058,1.698,0.311,2.122-0.582c0.151-0.316,0.162-0.89-0.03-1.146c-0.513-0.687-1.252-0.646-2.092-0.281
		C45.553,51.673,45.553,52.252,45.553,53.107z"/>
	<path fill-rule="evenodd" clip-rule="evenodd" fill="#FFFFFF" d="M65.539,50.178c1.478,0,2.958,0,4.436,0
		c0.034,0.112,0.067,0.225,0.104,0.339c-0.556,0.198-1.11,0.396-1.713,0.612c-0.495,1.783,0.198,5.988-0.646,5.988
		c-0.798,0-0.138-4.185-0.575-6.073c-0.532-0.135-1.084-0.274-1.637-0.414C65.519,50.479,65.528,50.328,65.539,50.178z"/>
	<path fill-rule="evenodd" clip-rule="evenodd" fill="#FFFFFF" d="M71.486,56.545c-0.091-2.124-0.192-4.229,0.282-6.331
		c0.146,0,0.497,0,0.497,0l-0.115,5.81h2.917c0,0-0.014,0.387-0.021,0.521C73.95,56.545,72.853,56.545,71.486,56.545z"/>
	<path fill-rule="evenodd" clip-rule="evenodd" fill="#FFFFFF" d="M57.675,56.632c-0.494,0-0.94,0-1.449,0
		c0.542-2.134,0.427-4.222,0.115-6.435c0.373,0,0.87,0,1.338,0C57.116,52.354,57.204,54.444,57.675,56.632z"/>
	<path fill-rule="evenodd" clip-rule="evenodd" fill="none" d="M51.222,50.981c1.911-0.025,2.405,0.204,2.341,0.941
		c-0.064,0.736-0.656,0.992-2.26,0.878C51.278,52.252,51.253,51.687,51.222,50.981z"/>
	<path fill-rule="evenodd" clip-rule="evenodd" fill="none" d="M83.896,55.854c0-0.854,0-1.568,0-2.269
		c1.814-0.249,2.336-0.026,2.414,0.977C86.387,55.535,85.842,55.854,83.896,55.854z"/>
	<path fill-rule="evenodd" clip-rule="evenodd" fill="none" d="M85.896,52.619c-0.606,0-1.212,0-1.952,0
		c-0.051-0.535-0.098-1.042-0.142-1.532c2.101-0.564,2.457-0.259,2.013,1.606L85.896,52.619z"/>
	<path fill-rule="evenodd" clip-rule="evenodd" fill="none" d="M79.975,54.351c-0.831,0-1.292,0-2.047,0
		c0.229-0.974,0.432-1.836,0.63-2.698c0.145-0.009,0.289-0.019,0.435-0.028C79.288,52.444,79.584,53.267,79.975,54.351z"/>
	<path fill-rule="evenodd" clip-rule="evenodd" fill="none" d="M45.553,53.107c0-0.855,0-1.435,0-2.009
		c0.839-0.364,1.579-0.405,2.092,0.281c0.192,0.256,0.182,0.829,0.03,1.146C47.251,53.418,46.431,53.05,45.553,53.107z"/>
</g>
</svg>
