<?xml version="1.0" encoding="utf-8"?>
<!-- Generator: Adobe Illustrator 16.0.0, SVG Export Plug-In . SVG Version: 6.00 Build 0)  -->
<!DOCTYPE svg PUBLIC "-//W3C//DTD SVG 1.1//EN" "http://www.w3.org/Graphics/SVG/1.1/DTD/svg11.dtd">
<svg version="1.1" xmlns="http://www.w3.org/2000/svg" xmlns:xlink="http://www.w3.org/1999/xlink" x="0px" y="0px" width="100px"
	 height="86.603px" viewBox="0 0 100 86.603" enable-background="new 0 0 100 86.603" xml:space="preserve">
<g id="Layer_4">
	<polygon fill-rule="evenodd" clip-rule="evenodd" fill="#507F9F" points="25,86.604 0,43.302 25,0 75.002,0 100,43.302 
		75.002,86.604 	"/>
</g>
<g id="ekonomska_xA0_Image_1_">
	<path fill-rule="evenodd" clip-rule="evenodd" fill="#FFFFFF" d="M48.304,51.413c0.192,0.624-0.244,1.023-0.68,1.372
		c-0.612,1.819-1.261,3.528-2.075,5.219c-0.299,0.603-0.87,1.209-0.437,1.963c-0.028,0.738-0.03,1.422-0.033,2.129
		c-0.841-0.038-0.302-0.743-0.502-1.055c-0.039,0.554,0.16,1.153,0.203,1.708c0.067,0.633-0.271,0.701-0.747,0.429l0.032,0.032
		c-1.223-0.939-0.952-2.163-0.715-3.388c0.541-2.901,1.393-5.687,1.792-8.604c0.178-1.49,0.007-3.044,0.68-4.405
		c-0.672,0.407,0.173,1.895-1.281,1.77c-0.885-0.543-1.634-1.364-2.785-1.363c-0.104,0-0.711-0.67-0.536,0.206
		c-0.744,0.003-1.491,0.007-2.21,0.01c-0.771-0.338-1.685,0.057-2.369-0.538c-0.404-0.683,0.448-0.896,0.512-1.436
		c1.796-1.025,3.866-1.636,5.383-3.452c-0.782,0.679-1.451,2.223-2.135,0.127c-0.136-0.405-0.672-0.472-1.017-0.667
		c-0.91-0.821-2.024-0.823-3.143-0.815c-0.379,0.034-0.8,0.132-1.087-0.275c0.541-1.085,0.219-2.472,1.22-3.384
		c0.741-0.138,1.05,0.468,1.493,0.818c0.25,0.191,0.522,0.293,0.811,0.295c0.61,0.004,1.046,0.268,1.254-0.845
		c0.238-1.121,0.945-2.341,1.687-3.388c0.144-0.058,0.31-0.036,0.474,0.037c0.751,0.778,0.916,1.891,1.395,2.811
		c0.405,0.743,0.75,0.809,1.22,0.505c-2.206-0.3-1.595-2.879-2.915-3.966c-0.436-0.979-0.441-1.967-0.335-2.98
		c0.198-1.593,1.314-2.792,2.913-2.869c2.37-0.111,4.734-0.468,7.05-0.724c1.76-0.201,3.185,0.323,3.991,2.033
		c0.337,1.084,0.131,2.132-0.262,3.153c-0.539,1.495-1.765,2.675-1.969,4.336c-0.069,0.411-0.478,0.677-0.957,0.613
		c-0.603-0.067-1.149-0.033-1.631,0.439c0.275-0.105,3.194-2.813,3.393-3.083c0.416-0.612,0.76-1.354,1.705-1.321
		c0.189,0.106,0.33,0.235,0.471,0.34c-0.739,0.944,0.479,1.659,0.273,2.57c-0.065,0.245,0.2,0.033,0.27,0.033
		c3.384-0.373,6.776,0.34,10.16,0.038c0.199-0.038,0.375-0.072,0.543-0.102c1.009,0.099,1.319,0.441,0.478,1.249
		c-0.309,0.309-0.754,0.444-1.159,0.678c-1.431,0.345-2.978,0.113-4.409,0.509c-1.286,0.372-2.575,0.743-3.917,1.114
		c-0.95,0.071-0.62,0.344-1.1,0.889c-0.804,0.879,0.555,2.362-1.007,2.779c-0.13,0.058,0.128,0.13,0.196,0.192
		c2.449,1.836,5.095,2.173,7.94,0.876c1.746-0.802,3.451-1.555,5.417-1.546c0.678,0.003,1.293,0.063,1.69,0.738l-0.003-0.053
		c0.267,0.87,1.491,1.544,0.483,2.635c-0.545-0.133-0.542-0.747-0.823-1.083c-0.978-1.012-2.021-1.428-3.248-0.417l0.005-0.053
		c-1.695,1.01-3.255,2.238-5.16,2.784c-3.171,1.009-5.626-0.544-7.578-1.503c0.675,0.481,0.675,0.481-0.816,2.314l0.006-0.006
		c-1.36-0.142-0.959-1.69-1.77-2.239c1.698,2.786,2.513,6.225,5.411,8.333c0.288,0.339,0.625,0.679,0.962,1.017
		c-0.42,1.421-1.292,1.891-2.649,1.087c-0.127-0.211-0.207-0.47-0.334-0.68c-0.607-0.142-0.944-0.615-1.286-1.082l0.004,0.004
		c-1.151-1.362-2.245-2.783-2.854-4.482c-0.075-0.056-0.199-0.068-0.269-0.139c-0.687-1.206-1.013-2.556-1.568-3.715
		c-0.196,0.138,0.075,0.343,0.153,0.547c0.734,1.283,1.345,2.436-0.821,3.033C48.705,49.667,47.923,50.337,48.304,51.413z
		 M37.122,34.654c-0.41-2.607-0.139-5.214-0.171-7.823c-0.001-0.341,0.064-0.778,0.473-0.85c0.405-0.086,0.608,0.288,0.78,0.594
		c0.237,0.421,0.407,0.861,0.573,1.305c0.612,1.76,1.46,3.383,2.707,4.775c0.271,0.281,0.681,0.202,0.986,0.377l0.004-0.001
		c0.365,0.076,0.507-0.039,0.471-0.409c-0.138-0.88-0.343-1.731-0.412-2.609c-0.195-2.133,1.021-3.388,3.152-3.152
		c1.867,0.203,3.633-0.183,5.448-0.523c1.909-0.354,3.477-0.116,4.615,1.66c0.542,0.163,0.609-0.304,0.808-0.609
		c0.011-0.153,0.015-0.306,0.013-0.458c-0.006-0.236-0.063-0.472-0.075-0.707c-0.063-0.393-0.07-0.801-0.402-1.105
		c-0.535-0.032-1.142,0.559-1.492-0.168c0.542-1.085,1.689-1.87,1.417-3.285c-0.668-1.049-1.746-1.116-2.771-1.122
		c-2.096-0.032-4.134-0.015-6.201-0.015c-1.629,0.254-3.288,0.442-4.642,1.577c-0.577,0.627-1.014,1.321-0.978,2.219
		c-0.007,0.693,0.064,1.356,0.465,2.101c-0.437-0.665-0.473-1.288-0.467-1.917c-0.102-0.986,0.333-1.76,0.98-2.438
		c0.982-1.022,2.406-0.981,3.592-1.475c2.547-0.154,5.08-0.05,7.652-0.051c0.884,0,1.706,0.255,2.436,0.88
		c0.894,0.883,1.772,0.333,2.65-0.114c0.403-0.305,0.881-0.415,1.35-0.612c0.479-0.202,1.018-0.378,1.433-0.675
		c0.404-0.255,0.874-0.525,0.673-1.104c-0.142-0.488-0.609-0.505-1.019-0.529c-3.125-0.215-6.234-0.593-9.417-0.456
		c-1.76,0.072-3.552-0.045-4.644-0.079c0.886,0.135,2.478-0.122,4.039,0.061c0.325,0.034,0.599-0.146,0.525-0.552
		c-0.668,0.03-1.338,0.099-1.957,0.051c-3.722-0.245-7.386-0.358-10.429,2.384c-0.448-0.202-0.713,0.222-1.052,0.375
		c-0.137,0.083-0.276,0.168-0.412,0.253c-0.942,0.646-2.267,0.847-2.536,2.251c-0.308,2.475,0.13,4.995-0.219,7.471
		c-0.155,0.948-0.321,1.898-0.463,2.849c-0.161,0.708-0.304,1.416-0.52,2.094c0.016,0.168,0.083,0.306,0.188,0.438
		c0.949,1.126,0.536,2.783,1.471,3.931c0.356-0.034,0.495-0.135,0.629-0.573c0.27-0.881-0.001-1.894,0.624-2.676
		C37.794,35.749,37.217,35.162,37.122,34.654z M60.153,22.563c0.748,0.115,1.434-0.359,2.232-0.154
		c0.219,0.033,0.484,0.031,0.75-0.05c0.272-0.223,0.672-0.525,0.408,0.185c-0.734,2.034-2.639,2.522-4.338,3.271
		c-0.142,0.047-0.332,0.104-0.47,0.186c-0.892,0.797-2.378,0.873-2.856,2.25l-0.057-0.031c-0.479,1.25-0.331,2.638-0.875,3.859
		c0.737,1.084,0.943-0.27,1.42-0.303l0.122,0.033c0.272-0.539,0.691-0.912,1.095-1.338c2.168-2.391,5.411-3.742,6.98-6.725
		c0.612-0.979,0.262-1.879-0.201-2.775c-0.134-0.762-0.74-0.593-1.224-0.645c-0.212-0.019-0.735,0.13-0.549-0.354
		c0.474-1.526-1.013-1.271-1.416-1.189c-0.817,0.169-1.497-0.205-2.241-0.136c-1.284,0.136-2.568,0.273-3.851-0.033
		c-1.288-0.742-2.655-0.354-4.009-0.332c-1.689,0.501-3.452-0.006-5.523,0.521c5.529,0.304,10.736,0.59,16.103,0.879
		c-0.816,1.032-1.773,1.269-2.647,1.73C58.662,22.526,59.482,22.474,60.153,22.563z M24.771,37.204
		c0.136,0.33,0.341,0.565,0.694,0.663c0.659,0.078,1.32-0.301,2.031,0.034c-0.419-0.034-0.709,0.04-0.912,0.346
		c1.558,0.644,2.949,0.262,4.251-0.68c-0.036-0.134-0.119-0.235-0.236-0.304c-0.225-0.132-0.457-0.267-0.578-0.506
		c-0.15-0.704,0.422-1.124,0.631-1.696c0.047-0.167,0.034-0.307-0.02-0.472c-0.103-0.365-0.016-0.812-0.423-1.051
		c-0.867-0.14-1.458-0.669-1.832-1.448c-0.846-0.484-1.677-0.556-2.507,0.034c0.069,0.194,0.476,0.329,0.357,0.429
		c-0.307,0.271-0.712,0.205-1.068-0.025c-0.56,0.497-1.148,0.945-1.03,1.821C24.568,35.26,24.789,36.212,24.771,37.204z
		 M59.139,56.102c0.144,0.402,0.475,0.602,0.88,0.677c0.746,0.065,1.431,0.278,2.176,0.205c0.669-0.27,1.415-0.407,1.561-1.28
		c-0.178-0.616-0.949-0.821-1.095-1.443c0.751-0.864,2.236-0.116,2.781-1.345c-1.819-1.834-3.932-0.822-5.967-0.617
		c-0.681,0.068-0.944,0.818-0.674,1.504c0.14,0.463,0.686,0.673,0.606,1.219C59.077,55.35,59.008,55.696,59.139,56.102z
		 M65.51,32.825c0.678-0.442,1.423-0.371,2.169-0.27c0.809-0.949,1.831-1.12,2.978-0.983c0.547-0.237,0.812-0.612,0.575-1.221
		c-1.489-1.861-2.978-2.436-4.737-1.591c-1.529,0.716-2.539,1.896-2.2,3.764C64.687,32.794,65.07,32.926,65.51,32.825z
		 M31.121,51.212c-0.218,0.544-0.37,1.092-0.333,1.701c0.045,0.543,0.116,1.148,0.706,1.294c0.714,0.208,0.814-0.474,1.049-0.887
		c0.054-1.489,0.751-2.233,2.29-2.242c0.997-0.053,1.979-0.337,2.897-0.675c1.317-0.474,1.894-0.063,1.925,1.284
		c0.039,0.48-0.134,1.021,0.107,1.496c0.17,0.007,0.474,0.066,0.506,0.138c0.714,2.471,1.657,4.938,1.318,7.586
		c0.712-0.67,0.813-0.674,0.678-1.49c-0.506-2.984-1.085-6.021-1.594-9.007c-0.331-1.771-0.979-1.69-2.331-1.363
		c-2.053,0.419-4,1.432-6.186,1.292C31.561,50.334,31.323,50.743,31.121,51.212z M59.007,54.947
		c-0.882,0.346-1.355,1.76-2.649,1.087c1.756,1.694,4.206,2.095,6.175,3.378c1.012,0.618,1.694,0.519,2.64-0.261
		c1.021-0.818,2.03-1.824,3.457-2.099c0.601-0.105,0.341-0.47,0.061-0.739c-2.1,0.47-4.206,0.13-6.302,0.394
		c-0.804,0.01-1.551-0.469-2.368-0.195c0.407,1.08,1.621,1.011,2.302,1.679c-0.871-0.938-2.51-0.595-2.986-2.027
		c0.006-0.396,0.066-0.745,0.07-1.142C59.273,55.012,59.14,54.956,59.007,54.947z M65.437,35.029
		c0.819-0.036,0.892,1.219,1.827,1.081l0.004-0.002c0.411-0.472,1.019-0.031,1.491-0.302c0.645-0.103,1.23-0.337,1.726-0.813
		c-0.096-0.982-1.045-0.68-1.519-1.038c0.887,0.056,1.861,0.16,2.504-0.792c0.068-0.235,0.137-0.472,0.204-0.705
		c-0.239-0.718-0.814-0.585-1.323-0.448c-1.458,0.441-2.977,0.643-4.509,0.474c-0.532,0.004-1.015,0.034-1.547,0.038
		C64.417,33.5,64.698,34.352,65.437,35.029z M31.004,50.269c-0.83,0.955-0.676,2.166-0.675,3.264c0.149,0.47,0.525,0.747,0.66,1.071
		c-0.206-0.198-0.391-0.597-0.627-0.88c-0.254-1.286,0.184-2.5,0.374-3.719c-0.034-0.197-0.123-0.338-0.273-0.418
		c-1.387,1.905-0.927,5.093,0.962,6.372c0.482,0.337,1.091,0.55,1.171,1.218c0.224,1.964,1.235,3.766,1.153,5.773
		c-0.001,0.262,0.113,0.468,0.623,0.475c-0.132-2.037-0.434-4.012-1.03-5.972l0.021,0.01c-0.375-1.025-1.001-2.041-0.374-3.196
		c0-0.07,0-0.191,0-0.261c-0.098-0.351-0.272-0.686-0.68-0.819c-0.458,0.068-0.234,0.887-0.711,0.808
		c-0.443-0.129-0.421-0.676-0.375-1.081c0.068-0.613,0.225-1.226,0.357-1.836C31.357,50.814,31.547,50.272,31.004,50.269z
		 M69.984,42.075c-1.085-0.066-2.106,0.207-3.12,0.609c-1.694,0.674-3.329,1.425-5.147,1.829c-1.496,0.335-3.865-0.405-4.27-1.501
		c-0.477-1.405-0.2-2.702,0.954-3.721c-1.021-0.408-1.021-0.408-2.51,0.239c2.704,0.513-0.416,2.337,1.214,3.218
		c-1.146-0.06-1.358-0.947-2.304-0.749c2.382,2.383,4.95,3.669,8.265,2.646c1.094-0.342,2.207-0.806,3.319-1.156
		c1.697-0.599,3.392-1.142,5.152-0.271C71.412,42.275,70.73,42.135,69.984,42.075z M66.111,55.97
		c0.69-0.671,1.906-0.212,2.519-1.147c-1.053-0.618-1.977-1.499-3.189-1.907c-0.416,0.408-1.084,0.131-1.495,0.403
		c-0.729,0.475-2.094-0.2-2.157,0.68c-0.034,0.812,1.079,1.424,2.019,1.758C64.496,56.307,65.304,56.169,66.111,55.97z
		 M35.389,19.665c-0.083,0-0.167,0-0.24,0c-2.233,0.713-2.601,1.354-1.79,3.217c0.436,0.354,0.371,1.235,1.15,1.17
		c0.545-0.036,0.407-0.629,0.577-0.982c0.848-0.542,1.894-0.799,2.577-1.594C37.491,20.139,36.541,19.783,35.389,19.665z
		 M33.34,57.454c2.221-0.134,4.35-0.807,6.488-1.347c0.614-0.141,0.846-0.551,0.58-1.013c-0.275-0.48-1.085-1.087-1.427-0.761
		c-1.25,0.964-2.795,1.091-4.181,1.564c-0.967,0.337-1.358,0.678-1.439,1.565L33.34,57.454z M44.028,48.586
		c1.385,1.278,0.811,2.828,0.573,4.266c-0.472,2.912-1.552,5.687-1.626,8.668c-0.033,0.847,0.041,1.558,1.089,1.689
		c-0.474-0.948-0.947-1.889-0.646-3.043c0.682-2.846,1.489-5.687,1.868-8.599c0.304-2.181,1.047-4.403,0.877-6.991
		c-1.047,1.089-0.605,2.245-0.954,3.192c-0.229,0.537-0.332,0.679-0.812,0.465C44.238,48.314,44.032,48.374,44.028,48.586z
		 M31.428,49.658c1.082-1.56,2.673-2.37,4.369-3.048c0.513-0.259,1.1-0.401,1.424-0.943c2.231-1.092,4.677-1.839,5.828-4.396
		c-0.618,0.599-1.26,1.15-1.997,1.818c-0.176-0.957-0.375-1.769-1.495-1.692c-0.201-0.141-0.372-0.137-0.513,0.062
		c1.769,1.295,1.729,1.969-0.298,2.85c-1.352,0.606-2.712,1.153-4.069,1.701c-1.758,0.802-3.386,1.692-4.216,3.578
		c0.019,0.149,0.051,0.348,0.083,0.547C30.917,50.129,31.227,49.933,31.428,49.658z M68.487,44.243
		c1.085-0.672,1.864-0.063,2.37,0.745c0.512,0.884-0.41,1.357-0.938,1.841c-0.312,0.335-0.818,0.472-1.154,0.805
		c-0.755,0.747-1.769,1.415-1.662,2.772c1.384-1.549,3.314-2.226,4.837-3.512c0.079-0.344,0.273-0.689-0.063-1.026
		c-0.538-2.3-2.367-3.041-3.929-1.567C68.147,44.299,68.354,44.314,68.487,44.243z M37.629,51.833
		c-2.071,0.739-2.208,0.742-3.962,0.466c-0.462-0.068-0.847,0.137-0.881,0.615c-0.022,0.475-0.056,0.952,0.217,1.362l-0.016-0.009
		c0.576,0.406,1.12,0.337,1.796,0.134c1.652-0.53,3.319-0.813,4.979-1.217c0.239-0.471,0.406-0.886,0.372-1.423
		C39.284,51.077,38.441,51.56,37.629,51.833z M64.769,35.667c-1.842,0.035-3.728-0.708-5.63-0.204
		c-2.022,0.511-2.714-0.096-2.977-2.263c-0.756,2.195-0.339,2.946,1.684,2.876c1.696-0.067,3.396-0.17,5.094-0.038
		c1.421,0.074,2.846,0.919,4.324,0.07c-0.672-0.273-0.667-1.696-1.827-1.081C65.918,35.977,65.166,35.667,64.769,35.667z
		 M58.055,47.23c1.492,0.675,3.327,0.942,4.979-0.067c-0.094-0.142-0.229-0.266-0.376-0.276c-3.452,0.674-6.227-1.151-9.34-2.584
		c0.681,1.024,1.689,1.295,2.376,2.035c-0.75,0.271-1.233,0.692-1.296,1.504C55.485,46.948,56.496,46.547,58.055,47.23z
		 M31.903,25.846c3.724-0.134,2.372,2.505,2.538,4.337c0.031,0.301,0.033,0.578,0.038,0.879c0.372-2.643,0.604-5.315,0.607-7.993
		c-0.761,1.573-1.156-0.026-1.727-0.188C34.374,24.472,32.477,24.704,31.903,25.846z M33.667,36.041
		c0.741-0.611,0.877-1.317,0.352-2.127c-1.235-0.277-2.251,0.507-3.386,0.676c-0.05,0.164-0.088,0.304-0.136,0.469
		c-0.392,0.654-0.56,1.396-0.679,2.168c0.186,0.076,0.358,0.175,0.543,0.274C31.444,36.961,32.272,35.838,33.667,36.041z
		 M62.388,56.707c2.108,0.415,4.265,0.809,6.302-0.394c0.002-0.28,0.004-0.559,0.006-0.886c-0.822-0.007-1.702-0.266-2.516,0.206
		c-0.807,0.058-1.614,0.065-2.373,0.123C63.345,56.103,62.671,56.162,62.388,56.707z M32.155,50.339
		c1.778-2.163,4.56-1.899,6.855-2.904c-0.775-0.345-1.485-0.955-2.432-0.546c-0.885,0.062-1.693,0.472-2.539,0.679
		c-1.455,0.397-2.509,1.214-2.831,2.769c0,0.282,0.034,0.604,0.371,0.741C31.766,50.815,31.968,50.602,32.155,50.339z M54.735,32.09
		c-0.477,0.939-1.077,1.831-1.426,2.803c-0.402,1.012-0.54,1.93-2.041,1.763c-0.812-0.073-1.617,0.575-1.747,1.962
		c1.205-1.391,2.294-2.165,3.93-0.645c-0.134-2.403,0.669-3.962,2.238-5.113c0.258-0.366,0.468-0.714,0.677-1.085
		c-0.488-0.273-0.691,0.744-1.285,0.337C55,31.955,54.868,31.976,54.735,32.09z M54.404,47.836c-1.157-0.807-1.086-2.51-2.582-3.601
		c1.422,3.262,2.721,6.097,4.61,8.608c0.341,0.474,0.548,1.434,1.612,1.086C56.566,52.033,54.882,50.276,54.404,47.836z
		 M62.256,26.846c0.816-0.731,1.701-1.458,2.108-2.558c0.058,0,0.068-0.035,0.126-0.104c0.009-0.08,0-0.15-0.126-0.232
		c-1.63,1.93-3.668,3.402-5.558,5.089c-0.828,0.803-2.384,1.141-2.317,2.768C58.393,30.152,60.357,28.531,62.256,26.846z
		 M71.231,30.35c-0.036,0.509-0.269,0.891-0.775,1.083c-1.082-0.081-1.972,0.275-2.781,0.997c-0.612-0.352-1.249-1.16-1.834,0.055
		c0.479,0.613,1.217,0.249,1.772,0.407c1.422,0.338,2.645-0.879,4.061-0.433C72.083,31.638,71.502,31.028,71.231,30.35z
		 M51.618,49.655c-0.134-1.544-0.746-2.831-1.696-4.19c-0.272,0.818,0.066,1.289,0.266,1.766c0.15,0.475,0.549,0.883,0.484,1.479
		c-2.373,0.555-2.81,1.082-2.368,2.704C48.84,49.723,49.863,48.992,51.618,49.655z M36.681,58.072
		c-0.439-0.417-0.475,0.528-0.507,0.933c-0.036,0.588,0.199,1.156,0.882,0.894c0.707-0.212,1.753-0.036,1.921-0.947
		C38.813,56.711,37.428,58.868,36.681,58.072z M45.929,57.864c0.705-1.63,1.724-3.181,1.695-5.079
		c-0.92,1.971-1.867,3.934-2.777,5.948c-0.175,0.411-0.246,0.896,0.265,1.233C45.384,59.281,45.653,58.577,45.929,57.864z
		 M71.47,33.164c-1.145,0.609-2.438,0.274-3.793,0.472c0.816,1.088,2.039,0.683,2.808,1.357
		C71.233,34.617,71.398,33.908,71.47,33.164z M67.952,44.247c-1.968,0.47-3.398,2.03-5.294,2.64c0.134,0.076,0.269,0.2,0.376,0.276
		C64.964,46.685,66.594,45.732,67.952,44.247z M54.742,54.276c-0.678-1.692-1.904-2.987-2.854-4.482
		C51.951,51.834,53.313,53.115,54.742,54.276z M30.835,37.567c0.897-0.51,1.742-1.187,2.863-1.119
		c-0.003-0.136-0.019-0.271-0.031-0.408c-1.884-1.287-2.273,0.817-3.307,1.46C30.514,37.531,30.68,37.537,30.835,37.567z
		 M66.858,37.774c0.001-0.07,0.002-0.14,0.005-0.21c-1.556-0.021-3.114-0.102-4.545,0.612C63.815,38.106,65.377,38.62,66.858,37.774
		z M40.34,47.018c0.303,0.135,0.604,0.271,0.881,0.407c1.077,0.073,2.062,0.343,2.807,1.162c0.107-0.134,0.24-0.219,0.371-0.353
		C43.252,47.097,41.927,46.688,40.34,47.018z M36.207,62.813c1.483-0.064,2.877-0.279,4.031-1.36
		c-1.088,0.816-2.407,0.572-3.595,0.844c-0.169,0.04-0.272,0.372-0.408,0.542L36.207,62.813z M24.771,37.204
		c0.533-1.125,0.608-2.141-0.641-2.854C23.925,35.397,24.027,36.382,24.771,37.204z M26.584,38.247
		c0.593-0.036,1.186-0.072,2.001-0.138c-1.172-0.781-2.128-1.045-3.12-0.243C25.72,38.312,26.215,38.108,26.584,38.247z
		 M35.15,19.665l-0.029-0.017c1.216,0.153,2.335,0.439,2.84,1.729c0.243-0.223,0.508-0.442,0.75-0.665
		C37.225,18.714,36.816,18.581,35.15,19.665z M45.245,63.351c0.377-0.397-0.263-0.811-0.166-1.256
		c-0.165-0.475-0.306-0.977-0.471-1.454c-0.785,0.743,0.605,1.902-0.576,2.536C44.401,63.556,44.877,63.692,45.245,63.351z
		 M68.63,54.823c-0.783,0.36-1.9-0.212-2.449,0.811c0.818-0.142,1.765,0.814,2.516-0.206C69.162,55.212,69.04,55.013,68.63,54.823z
		 M25.16,32.528c0.756,1.04,1.002,0.975,1.779-0.451c-0.388,0.004-0.729,0.035-1.068,0.046
		C25.634,32.259,25.396,32.393,25.16,32.528z M36.242,40.655c0.943,0.268,1.86,0.535,2.803,0.803
		c0.171-0.053,0.342-0.058,0.513-0.062C38.675,40.174,37.495,40.213,36.242,40.655z M28.378,32.09
		c0.274,1.579,0.56,1.787,1.832,1.448C29.767,32.857,29.091,32.45,28.378,32.09z M68.759,35.806
		c-0.539-0.032-1.086-0.274-1.491,0.302c0.207,0.002,0.511-0.067,0.674,0.037c0.342,0.273-0.059,0.474-0.202,0.643
		c-0.269,0.273-0.601,0.511-0.877,0.777c-0.003,0.07-0.005,0.14-0.005,0.21C67.78,37.429,68.964,37.295,68.759,35.806z
		 M55.083,18.613c0.059,0.068-0.348,0.135-0.002,0.204c0.063,0.017,0.129,0,0.194-0.001c1.217-0.203,2.446,0.458,3.658-0.17
		C57.649,18.644,56.366,18.621,55.083,18.613z M71.535,43.165c-0.067,0.936,1.217,1.681,0.342,2.702
		c0.005,0.343,0.035,0.685,0.063,1.027C73.027,45.462,72.929,44.517,71.535,43.165z M64.363,20.97
		c0.001,0.997,0.606,1.996,0.001,2.982c-0.002,0.117-0.002,0.232,0,0.336C65.234,23.185,65.645,22.07,64.363,20.97z M36.236,62.838
		c-0.404-0.097-0.774-0.645-1.188-0.093c-0.063,0.07-0.066,0.271-0.032,0.296c0.444,0.246,0.852,0.204,1.191-0.229L36.236,62.838z
		 M56.024,55.354c-0.345-0.466-0.604-1.073-1.286-1.082C54.806,55.048,55.208,55.454,56.024,55.354z M37.222,45.667
		c-2.711,0.752-5.166,1.904-6.678,4.468c-0.2,1.229-0.895,2.506-0.046,3.793h-0.001c0.014-1.28-0.154-2.513,0.711-3.591
		c0.779-1.147,1.624-2.033,3.135-2.427c0.675-0.144,1.865,0.064,2.235-1.021C36.343,46.27,38.134,46.678,37.222,45.667z
		 M40.944,37.569c-0.336-0.202-0.608,0.47-1.014,0.002c1.223-0.882,1.317-2.407,1.962-3.619c-0.131-0.25-0.336-0.413-0.612-0.446
		c-0.16,0.44-0.332,0.877-0.431,1.319c-0.379,1.893-1.595,3.08-3.396,3.382C39.318,38.953,40.166,38.788,40.944,37.569z
		 M43.485,38.347c0.783-1.082,1.796-0.641,2.879-0.914c-0.439-0.3-0.647-0.543-0.813-0.511c-1.725,0.312-2.169-0.844-2.575-2.129
		c-0.136-0.44-0.405-0.84-0.609-1.255c-0.165,0.136-0.306,0.272-0.471,0.408C42.432,35.295,43.351,36.483,43.485,38.347z
		 M52.497,39.057c0.067-0.542-0.343-0.842-0.885-0.843c-0.598,0-0.882,0.472-0.877,0.909c0.003,0.441,0.407,0.816,0.879,0.884
		C52.299,40.009,52.428,39.461,52.497,39.057z M45.586,38.953c0.07-0.542-0.342-0.842-0.878-0.843
		c-0.574-0.001-0.883,0.472-0.88,0.909c0.028,0.442,0.408,0.816,0.882,0.884C45.419,39.906,45.521,39.358,45.586,38.953z
		 M55.822,28.219c-0.208,0.236-0.466,0.471-0.675,0.691c-0.138,1.067-0.274,2.119-0.412,3.18c0.132,0.021,0.215,0.021,0.347,0.022
		C55.691,30.89,55.964,29.604,55.822,28.219z M48.395,48.508c0.173,0.006,0.333,0.014,0.512,0.067
		c0.128-0.749,0.208-1.547,0.336-2.296C48.704,46.964,48.263,47.701,48.395,48.508z M51.484,40.896
		c-0.675-0.349-1.156-0.615-1.636-0.859C49.998,40.853,50.406,41.259,51.484,40.896z M54.193,21.338
		c-3.048-0.369-6.066-0.491-9.083,0.053c0.211,0.424,0.715,0.067,0.988,0.34c2.238,0.018,4.442-0.019,6.672,0.084
		c0.955,0.048,2.245-0.202,2.365,1.405c0.082,0.167,0.213,0.168,0.343,0c0.079-0.323,0.205-0.646,0.283-0.966
		C55.485,21.527,54.798,21.409,54.193,21.338z M53.044,25.611c0.684,0.473,1.218,1.655,2.373,0.591
		c0.005-0.996,0.057-1.983,0.062-2.98c-0.13,0-0.261,0-0.343,0C54.476,24.051,54.406,25.372,53.044,25.611z M60.768,22.122
		c-0.684,0.099-1.559,0.447-1.761-0.71c-0.403,0.012-0.754,0.034-1.017,0.42c1.417,1.591,2.979,0.881,4.531,0.27
		C61.918,21.511,61.371,22.036,60.768,22.122z M41.518,22.815c-0.13,0.388,0.04,0.488,0.381,0.406
		c1.247-0.987,2.773-1.117,4.2-1.489c-0.241-0.356-0.677-0.205-0.988-0.34C43.825,21.646,42.501,21.815,41.518,22.815z
		 M40.477,25.372c-0.14,1.255,0.165,2.337,1.249,3.295c0.372-1.33-0.576-2.194-0.577-3.245
		C40.947,25.151,40.715,25.167,40.477,25.372z M37.663,21.476c0.101-0.017,0.201-0.049,0.298-0.099c-0.097-1.966-1.381-2-2.84-1.729
		C35.999,20.238,37.088,20.48,37.663,21.476z M55.879,28.25c0.894-0.929,2.371-1.085,3.183-2.185
		c-1.346,0.137-2.232,1.337-3.582,1.44C55.613,27.744,55.746,27.997,55.879,28.25z M41.899,23.221
		c-0.135-0.135-0.246-0.27-0.381-0.406c-0.542,0.763-1.012,1.572-1.041,2.556c0.232,0.015,0.44,0.034,0.671,0.05
		C41.084,24.577,41.287,23.831,41.899,23.221z M63.89,23.121c0.192-0.561,0.255-1.168-0.349-1.563
		c-0.133-0.097-0.372-0.147-0.397,0.106c-0.002,0.154,0.132,0.321,0.199,0.472c0.064,1.982-1.631,2.07-2.852,2.49
		c-0.877,0.274-1.294,0.627-1.487,1.458C60.286,26.228,63.604,24.252,63.89,23.121z M27.23,34.01c-0.614,0-0.983,0.543-0.976,1.052
		c0.007,0.676,0.552,1.015,1.211,0.979c0.59-0.064,1-0.368,0.916-1.082C28.446,34.149,27.821,34.01,27.23,34.01z M29.817,37.226
		c0.598-0.607,0.865-1.32,0.679-2.168C29.868,35.637,28.735,36.078,29.817,37.226z M59.335,56.163
		c-0.273,0.016-0.611,0.009-0.816,0.15c-0.264,0.193-0.119,0.464,0.143,0.537c1.625,0.604,3.048,1.687,5.213,2.154
		c-1.15-1.676-2.765-1.683-3.855-2.493C59.811,56.38,59.546,56.268,59.335,56.163z M67.675,32.429
		c1.017-0.112,1.899-0.556,2.781-0.997C69.17,30.789,68.22,31.031,67.675,32.429z M30.498,53.927c0.134,0.889,0.745,1.3,1.658,1.431
		c-0.558-0.478-1.103-0.954-1.66-1.431H30.498z"/>
</g>
<g id="Layer_2">
	<path fill-rule="evenodd" clip-rule="evenodd" fill="none" d="M77.963,28.465c7.412,15.424,0.921,33.955-14.491,41.37
		c-15.425,7.416-33.954,0.924-41.375-14.496c-7.417-15.426-0.924-33.95,14.494-41.37C52.021,6.552,70.538,13.039,77.963,28.465z"/>
	<text transform="matrix(0.197 -0.9804 0.9804 0.197 19.3867 37.0659)"><tspan x="0" y="0" fill="#FFFFFF" font-family="'MyriadPro-Regular'" font-size="5.1661">E</tspan><tspan x="2.478" y="-0.008" fill="#FFFFFF" font-family="'MyriadPro-Regular'" font-size="5.1661" rotate="4.788">K</tspan><tspan x="5.209" y="0.199" fill="#FFFFFF" font-family="'MyriadPro-Regular'" font-size="5.1661" rotate="10.505">O</tspan><tspan x="8.632" y="0.833" fill="#FFFFFF" font-family="'MyriadPro-Regular'" font-size="5.1661" rotate="16.752">N</tspan><tspan x="11.802" y="1.777" fill="#FFFFFF" font-family="'MyriadPro-Regular'" font-size="5.1661" rotate="22.992">O</tspan><tspan x="15.002" y="3.109" fill="#FFFFFF" font-family="'MyriadPro-Regular'" font-size="5.1661" rotate="29.961">M</tspan><tspan x="18.514" y="5.178" fill="#FFFFFF" font-family="'MyriadPro-Regular'" font-size="5.1661" rotate="36.051">S</tspan><tspan x="20.529" y="6.635" fill="#FFFFFF" font-family="'MyriadPro-Regular'" font-size="5.1661" rotate="40.912">K</tspan><tspan x="22.592" y="8.392" fill="#FFFFFF" font-family="'MyriadPro-Regular'" font-size="5.1661" rotate="46.627">O</tspan><tspan x="24.955" y="10.947" fill="#FFFFFF" font-family="'MyriadPro-Regular'" font-size="5.1661" rotate="51.201">-</tspan><tspan x="25.94" y="12.135" fill="#FFFFFF" font-family="'MyriadPro-Regular'" font-size="5.1661" rotate="55.158">B</tspan><tspan x="27.496" y="14.414" fill="#FFFFFF" font-family="'MyriadPro-Regular'" font-size="5.1661" rotate="58.775">I</tspan><tspan x="28.132" y="15.411" fill="#FFFFFF" font-family="'MyriadPro-Regular'" font-size="5.1661" rotate="62.378">R</tspan><tspan x="29.403" y="17.792" fill="#FFFFFF" font-family="'MyriadPro-Regular'" font-size="5.1661" rotate="68.107">O</tspan><tspan x="30.688" y="21.043" fill="#FFFFFF" font-family="'MyriadPro-Regular'" font-size="5.1661" rotate="73.691">T</tspan><tspan x="31.391" y="23.434" fill="#FFFFFF" font-family="'MyriadPro-Regular'" font-size="5.1661" rotate="78.292">E</tspan><tspan x="31.915" y="25.851" fill="#FFFFFF" font-family="'MyriadPro-Regular'" font-size="5.1661" rotate="83.628">H</tspan><tspan x="32.285" y="29.132" fill="#FFFFFF" font-family="'MyriadPro-Regular'" font-size="5.1661" rotate="89.743">N</tspan><tspan x="32.264" y="32.447" fill="#FFFFFF" font-family="'MyriadPro-Regular'" font-size="5.1661" rotate="93.847">I</tspan><tspan x="32.214" y="33.637" fill="#FFFFFF" font-family="'MyriadPro-Regular'" font-size="5.1661" rotate="97.647">Č</tspan><tspan x="31.822" y="36.546" fill="#FFFFFF" font-family="'MyriadPro-Regular'" font-size="5.1661" rotate="102.856">K</tspan><tspan x="31.226" y="39.212" fill="#FFFFFF" font-family="'MyriadPro-Regular'" font-size="5.1661" rotate="108.212">A</tspan><tspan x="30.231" y="42.134" fill="#FFFFFF" font-family="'MyriadPro-Regular'" font-size="5.1661" rotate="112.003"> </tspan><tspan x="29.857" y="43.12" fill="#FFFFFF" font-family="'MyriadPro-Regular'" font-size="5.1661" rotate="115.297">Š</tspan><tspan x="28.802" y="45.371" fill="#FFFFFF" font-family="'MyriadPro-Regular'" font-size="5.1661" rotate="120.146">K</tspan><tspan x="27.45" y="47.743" fill="#FFFFFF" font-family="'MyriadPro-Regular'" font-size="5.1661" rotate="125.928">O</tspan><tspan x="25.386" y="50.553" fill="#FFFFFF" font-family="'MyriadPro-Regular'" font-size="5.1661" rotate="131.373">L</tspan><tspan x="23.838" y="52.339" fill="#FFFFFF" font-family="'MyriadPro-Regular'" font-size="5.1661" rotate="136.414">A</tspan><tspan x="21.569" y="54.461" fill="#FFFFFF" font-family="'MyriadPro-Regular'" font-size="5.1661" rotate="140.668">-</tspan><tspan x="20.405" y="55.437" fill="#FFFFFF" font-family="'MyriadPro-Regular'" font-size="5.1661" rotate="144.33">S</tspan><tspan x="18.381" y="56.898" fill="#FFFFFF" font-family="'MyriadPro-Regular'" font-size="5.1661" rotate="149.088">P</tspan><tspan x="16.074" y="58.276" fill="#FFFFFF" font-family="'MyriadPro-Regular'" font-size="5.1661" rotate="153.775">L</tspan><tspan x="13.928" y="59.314" fill="#FFFFFF" font-family="'MyriadPro-Regular'" font-size="5.1661" rotate="157.09">I</tspan><tspan x="12.834" y="59.8" fill="#FFFFFF" font-family="'MyriadPro-Regular'" font-size="5.1661" rotate="160.561">T</tspan></text>
</g>
<g id="Layer_3">
	<path fill-rule="evenodd" clip-rule="evenodd" fill="none" d="M83.999,42.002c0-18.77-15.251-33.986-33.998-33.986
		C31.22,8.016,16,23.232,16,42.002C16,60.78,31.22,76,50.001,76C68.748,76,83.999,60.78,83.999,42.002z"/>
	<text transform="matrix(0.0727 0.9974 -0.9974 0.0727 15.9893 43.1172)"><tspan x="0" y="0" fill="#FFFFFF" font-family="'MyriadPro-Regular'" font-size="5.6662">Š</tspan><tspan x="3.03" y="-0.004" fill="#FFFFFF" font-family="'MyriadPro-Regular'" font-size="5.6662" rotate="-5.327">K</tspan><tspan x="6.38" y="-0.31" fill="#FFFFFF" font-family="'MyriadPro-Regular'" font-size="5.6662" rotate="-11.727">O</tspan><tspan x="10.467" y="-1.206" fill="#FFFFFF" font-family="'MyriadPro-Regular'" font-size="5.6662" rotate="-17.787">L</tspan><tspan x="13.213" y="-2.095" fill="#FFFFFF" font-family="'MyriadPro-Regular'" font-size="5.6662" rotate="-22.775">S</tspan><tspan x="16.022" y="-3.279" fill="#FFFFFF" font-family="'MyriadPro-Regular'" font-size="5.6662" rotate="-28.149">K</tspan><tspan x="18.974" y="-4.85" fill="#FFFFFF" font-family="'MyriadPro-Regular'" font-size="5.6662" rotate="-34.464">O</tspan><tspan x="22.324" y="-7.225" fill="#FFFFFF" font-family="'MyriadPro-Regular'" font-size="5.6662" rotate="-39.08"> </tspan><tspan x="23.4" y="-8.074" fill="#FFFFFF" font-family="'MyriadPro-Regular'" font-size="5.6662" rotate="-42.708">Š</tspan><tspan x="25.623" y="-10.133" fill="#FFFFFF" font-family="'MyriadPro-Regular'" font-size="5.6662" rotate="-47.971">P</tspan><tspan x="27.835" y="-12.573" fill="#FFFFFF" font-family="'MyriadPro-Regular'" font-size="5.6662" rotate="-54.247">O</tspan><tspan x="30.247" y="-15.99" fill="#FFFFFF" font-family="'MyriadPro-Regular'" font-size="5.6662" rotate="-60.584">R</tspan><tspan x="31.855" y="-18.877" fill="#FFFFFF" font-family="'MyriadPro-Regular'" font-size="5.6662" rotate="-65.988">T</tspan><tspan x="33.083" y="-21.662" fill="#FFFFFF" font-family="'MyriadPro-Regular'" font-size="5.6662" rotate="-71.137">S</tspan><tspan x="34.06" y="-24.538" fill="#FFFFFF" font-family="'MyriadPro-Regular'" font-size="5.6662" rotate="-76.515">K</tspan><tspan x="34.849" y="-27.799" fill="#FFFFFF" font-family="'MyriadPro-Regular'" font-size="5.6662" rotate="-82.84">O</tspan><tspan x="35.298" y="-31.861" fill="#FFFFFF" font-family="'MyriadPro-Regular'" font-size="5.6662" rotate="-87.378"> </tspan><tspan x="35.405" y="-33.255" fill="#FFFFFF" font-family="'MyriadPro-Regular'" font-size="5.6662" rotate="-91.863">D</tspan><tspan x="35.237" y="-37.317" fill="#FFFFFF" font-family="'MyriadPro-Regular'" font-size="5.6662" rotate="-98.125">R</tspan><tspan x="34.771" y="-40.598" fill="#FFFFFF" font-family="'MyriadPro-Regular'" font-size="5.6662" rotate="-104.271">U</tspan><tspan x="33.764" y="-44.406" fill="#FFFFFF" font-family="'MyriadPro-Regular'" font-size="5.6662" rotate="-110.211">Š</tspan><tspan x="32.71" y="-47.243" fill="#FFFFFF" font-family="'MyriadPro-Regular'" font-size="5.6662" rotate="-115.343">T</tspan><tspan x="31.4" y="-50.004" fill="#FFFFFF" font-family="'MyriadPro-Regular'" font-size="5.6662" rotate="-120.775">V</tspan><tspan x="29.629" y="-52.982" fill="#FFFFFF" font-family="'MyriadPro-Regular'" font-size="5.6662" rotate="-127.189">O</tspan><tspan x="27.099" y="-56.214" fill="#FFFFFF" font-family="'MyriadPro-Regular'" font-size="5.6662" rotate="-131.795"> </tspan><tspan x="26.195" y="-57.294" fill="#FFFFFF" font-family="'MyriadPro-Regular'" font-size="5.6662" rotate="-136.407">O</tspan><tspan x="23.132" y="-60.163" fill="#FFFFFF" font-family="'MyriadPro-Regular'" font-size="5.6662" rotate="-142.925">C</tspan><tspan x="20.288" y="-62.283" fill="#FFFFFF" font-family="'MyriadPro-Regular'" font-size="5.6662" rotate="-148.507">T</tspan><tspan x="17.679" y="-63.892" fill="#FFFFFF" font-family="'MyriadPro-Regular'" font-size="5.6662" rotate="-154.417">U</tspan><tspan x="14.098" y="-65.57" fill="#FFFFFF" font-family="'MyriadPro-Regular'" font-size="5.6662" rotate="-160.578">P</tspan><tspan x="11.012" y="-66.661" fill="#FFFFFF" font-family="'MyriadPro-Regular'" font-size="5.6662" rotate="-166.677">U</tspan><tspan x="7.175" y="-67.532" fill="#FFFFFF" font-family="'MyriadPro-Regular'" font-size="5.6662" rotate="-172.561">S</tspan></text>
</g>
</svg>
