<?xml version="1.0" encoding="utf-8"?>
<!-- Generator: Adobe Illustrator 16.0.0, SVG Export Plug-In . SVG Version: 6.00 Build 0)  -->
<!DOCTYPE svg PUBLIC "-//W3C//DTD SVG 1.1//EN" "http://www.w3.org/Graphics/SVG/1.1/DTD/svg11.dtd">
<svg version="1.1" id="euroart93_xA0_Image_1_" xmlns="http://www.w3.org/2000/svg" xmlns:xlink="http://www.w3.org/1999/xlink"
	 x="0px" y="0px" width="100px" height="86.603px" viewBox="0 0 100 86.603" enable-background="new 0 0 100 86.603"
	 xml:space="preserve">
<polygon fill-rule="evenodd" clip-rule="evenodd" fill="#507F9F" points="25.001,86.604 0,43.302 25.001,0 75.003,0 100.001,43.302 
	75.003,86.604 "/>
<g>
	<path fill-rule="evenodd" clip-rule="evenodd" fill="#FFFFFF" d="M24.398,59.684c-0.001-0.427-0.052-0.862,0.007-1.28
		c0.063-0.517-0.336-1.382,0.59-1.366c0.782,0.013,0.486,0.811,0.51,1.295c0.029,0.853-0.028,1.71,0.017,2.579
		c0.034,1.117,0.823,1.579,1.85,1.166c0.431-0.173,0.48-0.54,0.487-0.918c0.014-0.872,0.006-1.734,0.01-2.589
		c0.001-0.327-0.008-0.654,0.018-0.971c0.021-0.357,0.148-0.624,0.58-0.61c0.395,0.016,0.58,0.271,0.578,0.614
		c-0.007,1.404-0.002,2.808-0.074,4.189c-0.06,0.869-0.628,1.366-1.49,1.435c-0.519,0.06-1.073,0.061-1.6-0.005
		c-1.009-0.146-1.391-0.598-1.476-1.604c-0.011-0.099-0.006-0.208-0.006-0.326C24.398,60.765,24.398,60.225,24.398,59.684z"/>
	<path fill-rule="evenodd" clip-rule="evenodd" fill="#FFFFFF" d="M17.093,60.287c-0.209-3.576,0.84-3.351,3.137-3.323
		c0.173,0.002,0.326,0.007,0.489,0.011c0.288,0.018,0.55,0.124,0.575,0.438c0.049,0.374-0.137,0.633-0.51,0.688
		c-0.373,0.06-0.75,0.036-1.125,0.059c-0.318,0.004-0.644-0.005-0.955,0.058c-0.376,0.07-0.488,0.383-0.485,0.728
		c0.003,0.396,0.239,0.593,0.608,0.595c0.642,0.026,1.282,0.005,1.934,0.038c0.275,0.015,0.523,0.139,0.528,0.462
		c0.007,0.312-0.19,0.537-0.464,0.562c-0.596,0.062-1.177,0.063-1.773,0.065c-0.395,0.004-0.807,0.007-0.832,0.523
		c-0.025,0.536,0.18,0.955,0.814,0.962c0.592,0.007,1.185,0.005,1.771,0.021c0.292,0.021,0.497,0.179,0.482,0.514
		c-0.004,0.25-0.162,0.441-0.365,0.478c-1.012,0.185-2.024,0.25-3.014-0.126c-0.561-0.225-0.777-0.737-0.813-1.303
		C17.067,61.158,17.093,60.554,17.093,60.287z"/>
	<path fill-rule="evenodd" clip-rule="evenodd" fill="#FFFFFF" d="M81.022,59.508c-0.26,0.726,0.079,1.467,0.036,2.219
		c-0.036,0.844-0.434,1.359-1.216,1.458c-0.744,0.103-1.505,0.086-2.259,0.081c-0.37-0.002-0.611-0.237-0.59-0.619
		c0.041-0.417,0.357-0.486,0.709-0.487c0.479-0.003,0.965-0.015,1.457-0.006c0.534,0.007,0.801-0.3,0.814-0.801
		c0.009-0.474-0.313-0.629-0.744-0.653c-0.155-0.012-0.318-0.015-0.479-0.039c-0.295-0.063-0.465-0.27-0.463-0.568
		c0.005-0.312,0.197-0.492,0.503-0.519c0.169-0.023,0.321-0.024,0.492-0.032c0.467-0.006,0.661-0.312,0.674-0.735
		c0.012-0.459-0.291-0.673-0.723-0.7c-0.53-0.01-1.072-0.006-1.615-0.016c-0.365-0.018-0.629-0.196-0.63-0.593
		c0-0.409,0.303-0.522,0.668-0.524c0.317-0.007,0.637-0.009,0.961-0.009C80.849,56.962,81.198,57.329,81.022,59.508z"/>
	<path fill-rule="evenodd" clip-rule="evenodd" fill="#FFFFFF" d="M63.67,60.654c0-0.379-0.009-0.759,0.007-1.134
		c0.047-0.726,0.177-1.432-0.914-1.456c-0.289-0.006-0.375-0.366-0.328-0.652c0.052-0.294,0.284-0.438,0.589-0.439
		c0.806,0,1.612-0.011,2.419,0c0.342,0.002,0.657,0.066,0.688,0.502c0.025,0.299-0.135,0.569-0.41,0.604
		c-0.993,0.083-0.852,0.771-0.844,1.409c0.011,0.982,0.01,1.94-0.008,2.922c-0.008,0.384-0.112,0.79-0.582,0.813
		c-0.513,0.009-0.579-0.416-0.599-0.805c-0.025-0.579-0.008-1.185-0.008-1.764C63.677,60.654,63.674,60.654,63.67,60.654z"/>
	<path fill-rule="evenodd" clip-rule="evenodd" fill="#FFFFFF" d="M65.093,33.534c-0.619-0.335-1.178-0.196-1.687-0.198
		c-3.89-0.015-7.779-0.003-11.67-0.003c-0.378,0-0.759,0.009-1.134-0.041c-0.36-0.022-0.585-0.258-0.587-0.633
		c-0.013-1.622-0.009-3.239-0.006-4.855c0.001-0.456,0.228-0.703,0.69-0.709c0.379-0.009,0.757-0.02,1.136-0.02
		c8.514,0.001,17.051-0.001,25.576,0.007c3.152,0.002,3.654,0.506,3.654,3.641c0,6.69-0.004,13.384-0.012,20.078
		c0,0.548,0.028,1.093-0.038,1.613c-0.132,1.06-0.854,1.748-1.914,1.873c-0.375,0.053-0.753,0.023-1.129,0.023
		c-8.807-0.001-17.598-0.005-26.388-0.007c-0.278,0-0.552-0.002-0.809,0.008c-0.555,0.02-0.775-0.271-0.774-0.787
		c0.008-2.55,0.005-5.077-0.003-7.614c-0.003-0.703,0.534-1.015,0.99-1.375c4.296-3.275,8.58-6.553,12.858-9.824
		C64.269,34.39,64.784,34.159,65.093,33.534z M58.053,48.16c5.296,0.001,10.578,0.001,15.861,0c1.411-0.001,1.429-0.025,1.431-1.439
		c0.004-3.888,0.004-7.775-0.008-11.664c-0.002-0.341,0.137-0.756-0.369-1.148c-5.91,4.591-11.838,9.209-17.869,13.914
		C57.531,48.209,57.791,48.16,58.053,48.16z"/>
	<path fill-rule="evenodd" clip-rule="evenodd" fill="#FFFFFF" d="M33.097,47.858c0.975,0.312,1.685,0.194,2.373,0.197
		c3.725,0.019,7.439,0.001,11.178,0.017c1.543,0.007,1.55,0.026,1.564,1.523c0.01,0.959-0.005,1.94-0.009,2.904
		c-0.008,1.793-0.008,1.798-1.731,1.802c-2.063,0.004-4.117,0-6.163,0.001c-6.644,0.002-13.276,0.004-19.91,0.005
		c-0.377,0-0.758,0.028-1.134-0.016c-1.19-0.089-1.873-0.693-2.067-1.881c-0.094-0.536-0.073-1.078-0.074-1.624
		c-0.003-6.855,0.003-13.702,0.007-20.565c0-0.314-0.024-0.644,0.02-0.967c0.132-1.258,0.801-1.956,2.055-2.114
		c0.471-0.064,0.96-0.061,1.45-0.061c8.575-0.006,17.165-0.006,25.754-0.006c0.253,0,0.531,0.016,0.809,0.004
		c0.632-0.029,1.005,0.213,1.005,0.932c-0.013,2.477-0.022,4.962,0,7.453c0,0.779-0.557,1.134-1.059,1.51
		c-2.336,1.813-4.692,3.623-7.061,5.428c-2.086,1.602-4.192,3.208-6.272,4.823C33.625,47.384,33.446,47.559,33.097,47.858z
		 M40.031,33.234c-5.354-0.002-10.689-0.008-16.044,0.011c-1.2,0.005-1.207,0.038-1.208,1.322c-0.004,4.094,0,8.213,0.005,12.306
		c0,0.236-0.117,0.539,0.375,0.781c5.933-4.619,11.91-9.256,18.035-14.021C40.659,33.22,40.346,33.234,40.031,33.234z"/>
	<path fill-rule="evenodd" clip-rule="evenodd" fill="#FFFFFF" d="M35.001,60.978c0.523,0.567,0.908,1.004,1.307,1.438
		c0.197,0.219,0.35,0.446,0.103,0.7c-0.199,0.234-0.499,0.168-0.751,0.073c-0.436-0.149-0.658-0.526-0.948-0.839
		c-0.364-0.372-0.543-0.955-1.176-1.009c-0.333,0.381-0.125,0.823-0.19,1.24c-0.061,0.336-0.188,0.641-0.58,0.64
		c-0.398,0-0.566-0.275-0.573-0.637c-0.019-0.98-0.034-1.939-0.021-2.919c0.061-3.086-0.576-2.691,2.736-2.692
		c1.688,0,2.438,1.311,1.752,2.875C36.355,60.537,35.69,60.612,35.001,60.978z M33.875,58.173c-0.405,0.052-0.527,0.307-0.519,0.677
		c0.012,0.361,0.113,0.659,0.521,0.687c0.424,0.014,0.855,0.011,1.281-0.022c0.377-0.039,0.529-0.314,0.539-0.678
		c0.01-0.375-0.139-0.615-0.539-0.665c-0.205-0.01-0.432-0.011-0.633-0.024C34.301,58.16,34.095,58.161,33.875,58.173z"/>
	<path fill-rule="evenodd" clip-rule="evenodd" fill="#FFFFFF" d="M73.564,60.162c-0.007,3.031-0.125,3.146-3.186,3.123
		c-0.05,0-0.101,0.002-0.155,0c-0.497-0.063-1.253,0.228-1.254-0.581c-0.001-0.849,0.763-0.489,1.246-0.542
		c0.573-0.062,1.176-0.029,1.759-0.078c0.227-0.028,0.352-0.238,0.354-0.481c0.003-0.227-0.117-0.437-0.355-0.444
		c-0.486-0.059-0.968-0.027-1.44-0.069c-1.215-0.118-1.688-0.741-1.678-2.114c0.027-1.326,0.547-1.929,1.758-2.01
		c2.468-0.189,2.956,0.26,2.952,2.712C73.565,59.848,73.565,60.003,73.564,60.162z M72.366,59.037
		c0.007-0.771-0.141-0.883-1.134-0.88c-0.927,0.002-1.182,0.19-1.171,0.88c0.011,0.701,0.272,0.903,1.169,0.9
		C72.215,59.935,72.358,59.811,72.366,59.037z"/>
	<path fill-rule="evenodd" clip-rule="evenodd" fill="#FFFFFF" d="M58.036,60.975c0.498,0.552,0.875,0.994,1.278,1.428
		c0.196,0.199,0.348,0.445,0.141,0.697c-0.199,0.236-0.481,0.188-0.748,0.1c-0.382-0.127-0.608-0.417-0.858-0.72
		c-0.375-0.442-0.771-0.875-1.264-1.433c-0.299,0.586-0.174,1.055-0.216,1.496c-0.021,0.367-0.133,0.659-0.543,0.652
		c-0.313-0.005-0.54-0.224-0.54-0.51c-0.018-1.717-0.024-3.458,0-5.175c0-0.389,0.313-0.536,0.682-0.536
		c0.756-0.003,1.506-0.007,2.256-0.008c0.791-0.001,1.373,0.318,1.604,1.09c0.269,0.888,0.012,1.916-0.623,2.355
		C58.909,60.627,58.536,60.738,58.036,60.975z M58.623,58.782c-0.024-0.81-0.712-0.601-1.212-0.621
		c-0.544-0.044-1.063-0.054-1.031,0.769c0.031,0.767,0.546,0.61,0.933,0.618C57.967,59.538,58.661,59.662,58.623,58.782z"/>
	<path fill-rule="evenodd" clip-rule="evenodd" fill="#FFFFFF" d="M44.403,60.12c0,0.427,0.006,0.857-0.004,1.292
		c-0.053,1.278-0.473,1.731-1.74,1.825c-0.48,0.048-0.973,0-1.438-0.08c-0.836-0.18-1.313-0.703-1.321-1.58
		c-0.021-1.029-0.021-2.041-0.01-3.062c0.006-0.509,0.163-0.933,0.634-1.229c0.697-0.447,2.561-0.458,3.26-0.001
		c0.385,0.251,0.594,0.609,0.604,1.063c0.016,0.592,0.004,1.187,0.004,1.771C44.396,60.12,44.399,60.12,44.403,60.12z
		 M50.554,57.484c-0.117-0.313-0.387-0.52-0.743-0.526c-0.526-0.009-0.757,0.341-0.901,0.768c-0.562,1.525-1.123,3.058-1.682,4.563
		c-0.113,0.313-0.256,0.683,0.098,0.872c0.396,0.22,0.771-0.024,0.896-0.409c0.234-0.654,0.704-0.715,1.284-0.717
		c0.829-0.017,1.623-0.087,1.959,0.943c0.069,0.22,0.438,0.313,0.71,0.194c0.234-0.082,0.298-0.283,0.234-0.697
		C51.848,60.915,51.217,59.206,50.554,57.484z M40.972,60.091c0,0.319-0.011,0.634,0,0.946c0.068,0.982,0.223,1.086,1.163,1.122
		c0.704,0.006,1.135-0.187,1.13-0.979c-0.005-0.744,0.02-1.488,0.029-2.231c0.006-0.341-0.069-0.619-0.441-0.757
		c-1.105-0.404-1.846,0.094-1.881,1.254C40.971,59.661,40.972,59.867,40.972,60.091L40.972,60.091z M49.223,60.182
		c-0.07,0.231-0.188,0.543,0.182,0.641c0.238,0.059,0.52,0.066,0.755-0.02c0.329-0.108,0.205-0.425,0.153-0.661
		c-0.09-0.411-0.215-0.794-0.55-1.092C49.45,59.375,49.354,59.788,49.223,60.182z"/>
</g>
</svg>
