<?xml version="1.0" encoding="utf-8"?>
<!-- Generator: Adobe Illustrator 16.0.0, SVG Export Plug-In . SVG Version: 6.00 Build 0)  -->
<!DOCTYPE svg PUBLIC "-//W3C//DTD SVG 1.1//EN" "http://www.w3.org/Graphics/SVG/1.1/DTD/svg11.dtd">
<svg version="1.1" id="Layer_1" xmlns="http://www.w3.org/2000/svg" xmlns:xlink="http://www.w3.org/1999/xlink" x="0px" y="0px"
	 width="100px" height="86.603px" viewBox="0 0 100 86.603" enable-background="new 0 0 100 86.603" xml:space="preserve">
<polygon fill-rule="evenodd" clip-rule="evenodd" fill="#507F9F" points="25,86.604 0,43.302 25,0 75.003,0 100.001,43.302 
	75.003,86.604 "/>
<g>
	<path fill-rule="evenodd" clip-rule="evenodd" fill="#FFFFFF" d="M82.472,42.011c1.173,2.774,2.298,5.525,3.512,8.236
		c0.262,0.584,0.777,1.103,1.282,1.52c1.255,1.034,2.399,0.836,3.255-0.531c0.373-0.596,0.739-1.333,1.469-0.711
		c0.217,0.187-0.038,1.292-0.393,1.712c-1.282,1.52-3.524,1-5.883-0.047c-3.239-1.439-3.784-4.287-4.788-7.015
		c-0.254-0.688-0.479-1.387-0.72-2.079c-0.121,0.003-0.244,0.004-0.365,0.008c-0.479,1.817-0.959,3.634-1.479,5.6
		c0.826,0.041,1.472,0.071,2.116,0.104c0.009,0.141,0.019,0.283,0.027,0.424c-2.129,0.112-4.258,0.227-6.386,0.341
		c-0.058-0.112-0.115-0.225-0.172-0.334c0.244-0.229,0.45-0.576,0.738-0.667c1.079-0.342,1.529-1.118,1.771-2.147
		c0.733-3.114,1.512-6.218,2.242-9.332c0.058-0.251-0.122-0.558-0.215-0.941c1.013-0.16,1.961-0.31,3.059-0.484
		c-0.4,1.742-0.774,3.373-1.168,5.081c1.329,0.49,2.404,0.1,3.325-0.748c0.92-0.848,1.069-1.929,0.643-3.078
		c-0.803-2.161-2.005-2.843-4.235-2.264c-2.793,0.726-5.175,2.004-6.056,5.055c-0.351,1.217-0.144,2.265,0.755,3.206
		c0.336,0.351,0.521,0.859,0.704,1.322c0.018,0.044-0.563,0.469-0.685,0.399c-0.537-0.309-1.271-0.635-1.452-1.13
		c-0.743-2.021-0.769-4.173,0.599-5.874c1.052-1.307,2.491-2.427,3.973-3.231c2.049-1.112,4.359-1.22,6.652-0.652
		c2.9,0.718,3.813,3.272,1.969,5.636c-0.481,0.618-1.142,1.128-1.805,1.559C84.141,41.353,83.407,41.587,82.472,42.011z"/>
	<path fill-rule="evenodd" clip-rule="evenodd" fill="#FFFFFF" d="M44.812,42.492c-0.524,1.906-1.05,3.814-1.612,5.86
		c0.758,0.203,1.383,0.371,2.007,0.54c0.014,0.104,0.027,0.206,0.04,0.309c-2.054,0.136-4.108,0.27-6.16,0.403
		c-0.077-0.12-0.155-0.241-0.232-0.36c2.636-0.944,2.523-3.377,3.105-5.378c0.772-2.652,1.336-5.365,2.005-8.047
		c0.083-0.331,0.272-0.635,0.454-1.043c-1.573-0.118-2.947,0.359-4.025,1.387c-0.412,0.392-0.48,1.215-0.565,1.86
		c-0.07,0.53,0.293,1.383,0.059,1.563c-0.39,0.298-1.105,0.171-1.687,0.223c-0.254-4.19,3.411-6.549,8.975-5.971
		c-0.573,2.049-1.145,4.092-1.735,6.202c1.755-0.342,4.233-2.192,7.021-5.174c-0.475-0.151-0.915-0.291-1.354-0.43
		c0.002-0.093,0.003-0.187,0.004-0.279c1.578,0,3.155,0,4.502,0c-1.229,0.93-2.635,1.992-4.037,3.055
		c-1.383,1.047-2.766,2.095-4.03,3.053c1.015,2.782,1.927,5.521,3.023,8.186c0.479,1.166,1.194,2.31,2.06,3.222
		c1.136,1.201,2.296,0.913,3.205-0.459c0.262-0.394,0.697-0.683,1.098-0.96c0.048-0.033,0.542,0.348,0.516,0.467
		c-0.107,0.497-0.225,1.061-0.538,1.431c-1.313,1.542-3.553,1.156-5.756,0.169c-2.689-1.204-3.143-3.531-4.045-5.749
		c-0.563-1.384-1.145-2.759-1.718-4.138C45.196,42.451,45.005,42.471,44.812,42.492z"/>
	<path fill-rule="evenodd" clip-rule="evenodd" fill="#FFFFFF" d="M28.496,49.938c-0.977,0-1.983,0.15-2.925-0.03
		c-1.821-0.354-2.787-1.714-3.225-3.404c-1.19-4.589,2.708-11.866,8.151-12.439c4.268-0.449,7.361,2.322,6.989,6.624
		c-0.231,2.675-1.294,4.985-3.13,6.938C32.771,49.311,30.825,50.155,28.496,49.938z M24.784,42.585
		c0.374,1.505,0.505,2.825,1.023,3.969c1.379,3.042,5,3.402,7.083,0.795c2.262-2.831,2.093-8.235-0.31-10.937
		c-0.587-0.66-0.905-1.715-2.091-1.367c-0.884,0.258-1.807,0.516-2.578,0.992c-0.613,0.379-1.214,1.008-1.483,1.665
		C25.765,39.325,25.294,41.028,24.784,42.585z"/>
	<path fill-rule="evenodd" clip-rule="evenodd" fill="#FFFFFF" d="M67.823,43.127c-0.903-1.459-3.089-2.152-4.328-1.614
		c-0.241,0.105-0.463,0.417-0.555,0.682c-0.664,1.934-1.295,3.88-1.867,5.61c2.179,0.29,4.356,0.561,6.527,0.873
		c1.372,0.197,1.289-0.997,1.615-1.71c0.255-0.557,0.232-1.45,1.078-1.079c0.369,0.162,0.627,1.105,0.556,1.645
		c-0.164,1.235-1.654,2.198-3.301,2.226c-1.114,0.02-2.228-0.144-3.342-0.155c-2.485-0.025-4.969-0.009-7.903-0.009
		c0.489-0.512,0.656-0.846,0.896-0.911c1.213-0.332,1.679-1.257,1.958-2.336c0.897-3.456,1.779-6.917,2.678-10.374
		c0.096-0.366,0.257-0.716,0.389-1.078c-3.836-0.1-6.413,3.551-4.997,6.998c0.174,0.423,0.201,1.304,0.016,1.396
		c-0.462,0.225-1.139,0.259-1.622,0.08c-0.249-0.092-0.355-0.796-0.375-1.231c-0.023-0.526,0.109-1.062,0.177-1.592
		c0.488-3.792,3.137-6.356,6.954-6.571c2.897-0.164,5.802-0.176,8.702-0.25c0.082-0.002,0.165,0.054,0.355,0.119
		c-0.197,0.911-0.395,1.832-0.589,2.737c-0.214-0.015-0.375-0.015-0.375-0.028c-0.157-1.814-1.505-1.732-2.782-1.752
		c-2.971-0.048-2.973-0.047-3.666,2.801c-0.219,0.902-0.423,1.809-0.679,2.907c1.825,0.078,3.559,0.558,5.214-0.909
		C68.337,40.663,68.116,41.724,67.823,43.127z"/>
	<path fill-rule="evenodd" clip-rule="evenodd" fill="#FFFFFF" d="M19.425,34.613c-1.78-0.076-3.281,0.342-4.34,1.614
		c-0.41,0.491-0.462,1.333-0.546,2.029c-0.063,0.522,0.268,1.451,0.1,1.533c-0.528,0.257-1.209,0.198-1.854,0.265
		c0.28-4.872,3.15-6.722,9.347-6.243c-0.954,3.148-1.905,6.294-2.859,9.439c-0.505,1.664-0.919,3.363-1.544,4.981
		c-1.39,3.605-3.835,5.082-7.612,4.667c-0.394-0.045-1.063-0.536-1.046-0.782c0.041-0.612,0.35-1.237,0.69-1.771
		c0.058-0.091,0.888,0.146,1.208,0.415c2.045,1.708,3.051,1.496,3.835-1.055c1.434-4.65,2.761-9.332,4.143-13.998
		C19.044,35.379,19.221,35.073,19.425,34.613z"/>
</g>
</svg>
