<?xml version="1.0" encoding="utf-8"?>
<!-- Generator: Adobe Illustrator 16.0.0, SVG Export Plug-In . SVG Version: 6.00 Build 0)  -->
<!DOCTYPE svg PUBLIC "-//W3C//DTD SVG 1.1//EN" "http://www.w3.org/Graphics/SVG/1.1/DTD/svg11.dtd">
<svg version="1.1" id="Layer_1" xmlns="http://www.w3.org/2000/svg" xmlns:xlink="http://www.w3.org/1999/xlink" x="0px" y="0px"
	 width="100px" height="86.603px" viewBox="0 0 100 86.603" enable-background="new 0 0 100 86.603" xml:space="preserve">
<polygon fill-rule="evenodd" clip-rule="evenodd" fill="#507F9F" points="25,86.603 0,43.302 25,0 75.002,0 100,43.302 
	75.002,86.603 "/>
<g>
	<path fill-rule="evenodd" clip-rule="evenodd" fill="#FFFFFF" d="M28.049,34.702c0,1.099,0.004,2.198-0.001,3.296
		c-0.004,0.787-0.402,1.189-1.179,1.19c-2.182,0.003-4.365,0.003-6.547,0c-0.743-0.001-1.19-0.4-1.196-1.141
		c-0.018-2.213-0.017-4.426-0.002-6.639c0.005-0.757,0.425-1.164,1.173-1.167c2.198-0.01,4.396-0.011,6.593,0
		c0.782,0.004,1.155,0.409,1.159,1.209C28.053,32.535,28.049,33.618,28.049,34.702z"/>
	<path fill-rule="evenodd" clip-rule="evenodd" fill="#FFFFFF" d="M19.001,43.765c0,1.114,0.005,2.229-0.002,3.343
		c-0.005,0.704-0.388,1.122-1.097,1.127c-2.228,0.016-4.457,0.016-6.685,0c-0.715-0.005-1.156-0.48-1.159-1.202
		c-0.008-2.183-0.007-4.365,0-6.548c0.002-0.726,0.44-1.181,1.167-1.185c2.228-0.012,4.457-0.012,6.685,0.002
		c0.719,0.004,1.085,0.4,1.089,1.121C19.006,41.536,19.001,42.65,19.001,43.765z"/>
	<path fill-rule="evenodd" clip-rule="evenodd" fill="#FFFFFF" d="M23.633,48.357c1.083,0,2.166-0.005,3.248,0.002
		c0.803,0.005,1.165,0.372,1.167,1.182c0.004,2.181,0.004,4.362-0.001,6.542c-0.002,0.8-0.373,1.176-1.179,1.179
		c-2.181,0.008-4.362,0.008-6.542,0c-0.821-0.003-1.203-0.386-1.207-1.216c-0.009-2.149-0.009-4.3,0-6.45
		c0.003-0.879,0.377-1.234,1.266-1.238C21.468,48.354,22.551,48.357,23.633,48.357z"/>
	<path fill-rule="evenodd" clip-rule="evenodd" fill="#FFFFFF" d="M60.512,39.321c1.315-0.112,2.561-0.23,3.802,0.01
		c1.704,0.33,2.422,2.05,1.391,3.361c-0.242,0.308-0.617,0.51-0.946,0.774c0.162,0.066,0.343,0.125,0.511,0.21
		c0.973,0.49,1.402,1.406,1.233,2.615c-0.146,1.045-0.841,1.847-1.947,1.941c-1.253,0.106-2.522,0.034-3.784,0.012
		c-0.089-0.002-0.244-0.238-0.248-0.369c-0.024-0.747-0.012-1.494-0.012-2.241c0-1.921,0-3.842,0-5.764
		C60.512,39.705,60.512,39.54,60.512,39.321z M62.251,43.982c0,0.843,0,1.676,0,2.51c0,1.058,0.004,1.081,1.069,0.919
		c0.386-0.058,0.868-0.151,1.105-0.411c0.892-0.98,0.227-2.795-1.069-3.009C63.018,43.935,62.663,43.982,62.251,43.982z
		 M62.288,40.117c0,1.005,0,1.956,0,2.9c0.848,0.113,1.632-0.067,1.868-0.417c0.27-0.4,0.296-1.544,0.001-1.936
		C63.689,40.042,63.005,40.09,62.288,40.117z"/>
	<path fill-rule="evenodd" clip-rule="evenodd" fill="#FFFFFF" d="M50.213,39.372c0.091-0.054,0.103-0.066,0.117-0.068
		c0.852-0.135,0.883-0.109,0.883,0.725c0,2.563,0,5.125,0,7.688c0,0.179,0,0.358,0,0.531c-0.482,0.118-0.817,0.053-1.149-0.301
		c-1.75-1.87-3.528-3.712-5.298-5.563c-0.1-0.104-0.215-0.195-0.372-0.336c0,2.109,0,4.14,0,6.2c-0.311,0-0.607,0-0.938,0
		c0-3.001,0-5.982,0-8.988c0.398-0.113,0.722-0.085,1.048,0.26c1.79,1.894,3.604,3.766,5.412,5.644
		c0.071,0.075,0.154,0.138,0.296,0.264C50.213,43.355,50.213,41.358,50.213,39.372z"/>
	<path fill-rule="evenodd" clip-rule="evenodd" fill="#FFFFFF" d="M93.673,47.67c0.151,0.445-0.007,0.588-0.397,0.65
		c-1.335,0.211-2.429-0.123-3.133-1.339c-0.556-0.96-1.074-1.942-1.624-2.941c-0.361,0.346-0.713,0.666-0.682,1.276
		c0.05,0.958,0.014,1.919,0.014,2.919c-0.562,0-1.102,0-1.686,0c0-2.966,0-5.945,0-8.959c0.533,0,1.073,0,1.681,0
		c0,1.349,0,2.706,0,4.063c0.033,0.009,0.067,0.018,0.102,0.027c0.655-0.813,1.307-1.63,1.968-2.438
		c0.261-0.318,0.545-0.617,0.816-0.926c0.523-0.597,1.195-0.808,1.969-0.768c0.484,0.025,0.484,0.02,0.447,0.591
		c-0.829,0.002-1.383,0.53-1.906,1.089c-0.458,0.49-0.9,0.996-1.327,1.512c-0.087,0.104-0.15,0.326-0.098,0.432
		c0.681,1.396,1.34,2.811,2.376,3.994C92.58,47.293,93.036,47.65,93.673,47.67z"/>
	<path fill-rule="evenodd" clip-rule="evenodd" fill="#FFFFFF" d="M83.097,39.331c0.979-0.171,0.999-0.156,0.999,0.733
		c0,2.547,0,5.095,0,7.643c0,0.179,0,0.358,0,0.544c-0.468,0.098-0.806,0.073-1.146-0.291c-1.761-1.881-3.555-3.731-5.333-5.595
		c-0.092-0.097-0.15-0.227-0.224-0.342c-0.043,0.029-0.085,0.059-0.128,0.088c0,2.029,0,4.058,0,6.086
		c-0.054,0.028-0.091,0.063-0.131,0.067c-0.853,0.069-0.853,0.068-0.853-0.786c0-2.547-0.003-5.095,0.006-7.642
		c0.001-0.207,0.04-0.556,0.146-0.593c0.287-0.101,0.596-0.089,0.866,0.196c1.763,1.859,3.544,3.7,5.317,5.547
		c0.134,0.139,0.254,0.29,0.38,0.436c0.033-0.021,0.066-0.041,0.099-0.062C83.097,43.358,83.097,41.357,83.097,39.331z"/>
	<path fill-rule="evenodd" clip-rule="evenodd" fill="#FFFFFF" d="M30.597,44.015c-0.456,0.401-0.775,0.776-0.733,1.417
		c0.06,0.923,0.015,1.853,0.015,2.768c-1.155,0.258-1.761-0.214-1.763-1.335c-0.003-2.044-0.002-4.088-0.001-6.132
		c0.001-1.177,0.515-1.617,1.753-1.445c0,1.336,0,2.683,0,4.029c0.036,0.015,0.071,0.029,0.106,0.044
		c0.192-0.223,0.385-0.445,0.575-0.67c0.727-0.863,1.446-1.732,2.179-2.589c0.552-0.646,1.262-0.932,2.113-0.873
		c0.483,0.033,0.496,0.042,0.447,0.589c-0.889,0.033-1.484,0.598-2.05,1.207c-0.312,0.335-0.618,0.675-0.92,1.018
		c-0.552,0.625-0.576,0.641-0.173,1.343c0.606,1.056,1.22,2.109,1.894,3.122c0.38,0.572,0.895,1.041,1.635,1.161
		c0.083,0.014,0.206,0.189,0.196,0.276c-0.014,0.116-0.126,0.298-0.22,0.314c-1.552,0.264-2.442,0.123-3.243-1.053
		c-0.58-0.852-1.035-1.791-1.543-2.691C30.776,44.358,30.695,44.2,30.597,44.015z"/>
	<path fill-rule="evenodd" clip-rule="evenodd" fill="#FFFFFF" d="M75.198,48.274c-0.537,0-1.04,0.021-1.54-0.014
		c-0.128-0.009-0.309-0.17-0.356-0.301c-0.286-0.787-0.548-1.583-0.802-2.38c-0.073-0.23-0.158-0.363-0.435-0.354
		c-0.823,0.026-1.646,0.036-2.47,0.03c-0.336-0.002-0.52,0.104-0.621,0.446c-0.199,0.671-0.488,1.316-0.665,1.992
		c-0.124,0.476-0.346,0.67-0.824,0.584c-0.118-0.021-0.241-0.013-0.427-0.022c0.042-0.164,0.063-0.305,0.113-0.437
		c1.035-2.734,2.07-5.469,3.121-8.197c0.053-0.138,0.22-0.288,0.363-0.327c1.368-0.373,1.384-0.372,1.846,0.959
		c0.903,2.604,1.79,5.213,2.683,7.821C75.198,48.116,75.191,48.164,75.198,48.274z M72.092,44.357
		c-0.428-1.285-0.834-2.506-1.24-3.727c-0.037-0.001-0.074-0.002-0.111-0.003c-0.422,1.226-0.844,2.452-1.284,3.73
		C70.356,44.357,71.185,44.357,72.092,44.357z"/>
	<path fill-rule="evenodd" clip-rule="evenodd" fill="#FFFFFF" d="M41.968,47.414c-0.023,0.293-0.045,0.558-0.068,0.84
		c-1.715,0-3.388,0-5.099,0c0-2.99,0-5.969,0-8.98c1.618,0,3.239,0,4.904,0c-0.028,0.289-0.054,0.555-0.086,0.895
		c-1.042,0-2.056,0-3.134,0c0,0.983-0.007,1.891,0.015,2.798c0.002,0.068,0.213,0.184,0.33,0.188
		c0.655,0.022,1.311,0.016,1.966,0.023c0.196,0.002,0.392,0.02,0.581,0.03c0.096,0.769,0.071,0.808-0.659,0.832
		c-0.625,0.021-1.25,0.029-1.875,0.021c-0.28-0.003-0.373,0.099-0.369,0.374c0.012,0.823,0.019,1.647-0.003,2.47
		c-0.009,0.339,0.096,0.45,0.439,0.447c0.869-0.008,1.737,0.02,2.606,0.036C41.65,47.388,41.783,47.402,41.968,47.414z"/>
	<path fill-rule="evenodd" clip-rule="evenodd" fill="#FFFFFF" d="M59.378,39.239c-0.03,0.32-0.054,0.584-0.08,0.861
		c-0.856,0.039-1.675,0.076-2.556,0.116c0,2.688,0,5.348,0,8.032c-0.603,0-1.143,0-1.729,0c0-2.674,0-5.321,0-8.058
		c-0.887,0-1.73,0-2.532,0c-0.054-0.115-0.078-0.142-0.077-0.168c0.019-0.783,0.02-0.783,0.797-0.783c1.876,0,3.752,0,5.628,0
		C58.994,39.239,59.158,39.239,59.378,39.239z"/>
</g>
</svg>
