<?xml version="1.0" encoding="utf-8"?>
<!-- Generator: Adobe Illustrator 16.0.0, SVG Export Plug-In . SVG Version: 6.00 Build 0)  -->
<!DOCTYPE svg PUBLIC "-//W3C//DTD SVG 1.1//EN" "http://www.w3.org/Graphics/SVG/1.1/DTD/svg11.dtd">
<svg version="1.1" id="supernova_xA0_Image_1_" xmlns="http://www.w3.org/2000/svg" xmlns:xlink="http://www.w3.org/1999/xlink"
	 x="0px" y="0px" width="100px" height="86.603px" viewBox="0 0 100 86.603" enable-background="new 0 0 100 86.603"
	 xml:space="preserve">
<polygon fill-rule="evenodd" clip-rule="evenodd" fill="#507F9F" points="25,86.604 0,43.302 25,0 75.002,0 100,43.302 
	75.002,86.604 "/>
<path fill-rule="evenodd" clip-rule="evenodd" fill="#FFFFFF" d="M35.132,50.444c0.37,0.057,1.376-0.114,1.714-0.498
	c1.218-1.717,1.2-2.684-0.072-3.663c-1.11-0.858-2.531-0.678-3.426,0.433c-0.984,1.226-0.739,2.778,1.234,3.643L35.132,50.444z
	 M36.739,48.932c0.312-0.879,0.198-1.63-0.652-2.181c-0.711-0.458-1.338-0.257-1.847,0.267c-0.676,0.692-0.671,1.483-0.077,2.257
	c0.139,0.179,0.294,0.345,0.442,0.519c0.626,0.123,1.209-0.02,1.773-0.281C36.502,49.319,36.664,49.143,36.739,48.932z"/>
<path fill-rule="evenodd" clip-rule="evenodd" fill="#FFFFFF" d="M84.504,45.251c-2.92,0.055-5.293-2.192-5.371-5.083
	c-0.075-2.892,2.184-5.322,5.053-5.436c2.946-0.115,5.502,2.302,5.516,5.219C89.715,42.816,87.378,45.2,84.504,45.251z
	 M51.051,37.978c0.021-0.226,0.076-0.455,0.059-0.681c-0.043-0.587,0.554-1.429-0.611-1.594c-1.033-0.143-1.462,0.295-1.687,1.327
	c-0.23,1.044-0.008,2.287-1.019,3.083c-0.642-0.966-0.91-2.104-1.114-3.186c-0.252-1.339-1.093-1.185-2.013-1.258
	c-1.057-0.08-1.505,0.398-1.692,1.374c-0.369,1.942-0.813,3.871-1.199,5.81c-0.108,0.541-0.53,1.27,0.464,1.428
	c0.771,0.121,1.513,0.145,1.682-0.967c0.169-1.125,0.477-2.229,0.743-3.337c0.051-0.213,0.184-0.408,0.278-0.612
	c0.113,0.179,0.269,0.343,0.333,0.538c0.33,1.011,0.681,2.019,0.94,3.046c0.263,1.05,0.831,1.429,1.938,1.423
	c1.173-0.006,1.638-0.469,1.748-1.573c0.065-0.676,0.3-1.334,0.46-1.999 M51.097,41.663c0.487,1.913,1.813,2.675,3.689,2.739
	c3.211,0.11,5.769-2.094,5.016-6.43c-0.225-1.285-1.177-2.071-2.519-2.305c-2.383-0.417-4.359,0.142-5.698,2.3
	C51.033,39.451,51.071,40.25,51.097,41.663z M74.97,37.482c-0.122-0.707,0.039-1.688-1.036-1.748
	c-1.009-0.054-2.117-0.396-2.823,0.873c-1.22,2.199-2.58,4.322-3.831,6.506c-0.587,1.03-0.386,1.248,0.824,1.217
	c0.663-0.018,1.088-0.25,1.518-0.797c1.24-1.575,2.954-1.493,4.004,0.22c0.448,0.73,1.007,0.555,1.57,0.535
	c0.763-0.026,0.741-0.613,0.705-1.167C75.591,41.24,75.298,39.358,74.97,37.482z M61.651,42.589c0.111,0.682-0.173,1.645,1.01,1.715
	c1.067,0.065,2.081,0.165,2.708-1.087c1.02-2.039,2.188-4.002,3.272-6.011c0.23-0.425,0.872-0.91,0.366-1.348
	c-0.316-0.278-1.013-0.126-1.54-0.155c-0.687-0.035-0.859,0.53-1.099,0.989c-0.568,1.077-1.087,2.18-1.682,3.237
	c-0.239,0.425-0.255,1.246-0.93,1.096c-0.382-0.082-0.183-0.801-0.239-1.235c-0.138-1.055-0.282-2.114-0.355-3.176
	c-0.074-1.046-0.8-0.904-1.48-0.914c-0.919-0.014-0.901,0.601-0.861,1.243C61.095,38.824,61.354,40.708,61.651,42.589z
	 M35.219,44.255c0.542,0.111,1.093,0.11,1.271-0.593c0.185-0.738,0.348-1.48,0.524-2.219c0.101-0.421,0.367-0.645,0.805-0.645
	c0.36,0,0.57,0.239,0.657,0.53c0.201,0.652,0.366,1.316,0.515,1.982c0.183,0.831,0.682,1.178,1.49,0.958
	c0.822-0.222,0.413-0.815,0.316-1.3c-0.105-0.521-0.158-1.062-0.333-1.558c-0.272-0.784-0.286-1.268,0.515-1.914
	c1.274-1.025,1.229-2.505,0.204-3.326c-0.79-0.634-4.3-0.716-4.784-0.097c-0.135,0.171-0.213,0.407-0.259,0.624
	c-0.453,2.158-0.894,4.315-1.438,6.973C34.708,43.62,34.573,44.123,35.219,44.255z M29.873,38.003
	c-0.367,1.552-0.696,3.112-1.077,4.661c-0.272,1.111-0.084,1.806,1.266,1.687c0.453-0.041,0.92,0.044,1.367-0.022
	c0.746-0.116,2.03,0.438,2.03-0.749c0-1.037-1.222-0.39-1.88-0.567c-0.453-0.122-1.123,0.257-1.261-0.565
	c-0.181-1.087,0.547-2,1.687-2.095c0.379-0.032,0.762-0.01,1.142-0.036c0.409-0.026,0.8-0.188,0.778-0.641
	c-0.016-0.348-0.417-0.351-0.705-0.375c-0.304-0.022-0.611-0.048-0.913-0.022c-1.399,0.115-1.207-0.639-0.942-1.569
	c0.266-0.936,0.967-0.78,1.633-0.848c0.707-0.07,1.915,0.271,1.894-0.668c-0.026-1.032-1.226-0.305-1.868-0.511
	c-0.07-0.023-0.152-0.002-0.228-0.002C30.427,35.674,30.422,35.674,29.873,38.003z M27.076,35.778
	c-1.052-0.11-2.675-0.701-3.1,0.495c-0.83,2.34-1.157,4.861-1.658,7.315c-0.053,0.252,0.029,0.622,0.453,0.658
	c0.348,0.032,0.601-0.137,0.725-0.422c0.121-0.275,0.161-0.586,0.215-0.883c0.253-1.38,0.711-2.27,2.479-2.225
	c1.763,0.045,2.751-1.194,2.745-3.088C28.961,36.711,28.238,35.901,27.076,35.778z M21.056,42.003
	c0.538-1.737,0.841-3.546,1.231-5.326c0.065-0.295,0.066-0.735-0.214-0.808c-0.453-0.12-0.615,0.281-0.7,0.685
	c-0.329,1.561-0.619,3.134-1.023,4.677c-0.435,1.661-1.62,2.499-2.955,2.224c-1.22-0.251-1.602-1.232-1.238-3.157
	c0.241-1.269,0.482-2.537,0.703-3.812c0.047-0.278,0.12-0.648-0.342-0.671c-0.239-0.012-0.446,0.146-0.492,0.384
	c-0.352,1.865-1.061,3.674-1.055,5.589c0.005,1.583,1.213,2.6,2.864,2.619C19.347,44.424,20.542,43.66,21.056,42.003z M8.706,43.653
	c-0.07,0.609,0.711,0.67,1.219,0.723c0.831,0.084,1.643,0.052,2.432-0.363c1.898-0.998,2.138-2.83,0.486-4.204
	c-0.464-0.384-1.042-0.643-1.468-1.061c-0.896-0.879-0.614-1.851,0.606-2.187c0.357-0.101,0.751-0.063,1.126-0.117
	c0.457-0.065,1.227,0.494,1.302-0.297c0.071-0.723-0.792-0.475-1.249-0.587c-0.35-0.084-0.749-0.002-1.121,0.042
	c-1.062,0.135-1.864,0.605-2.138,1.727c-0.253,1.037,0.22,1.757,1.012,2.334c0.427,0.313,0.886,0.593,1.281,0.944
	c0.466,0.413,0.796,0.913,0.604,1.597c-0.212,0.755-0.786,1.104-1.483,1.233c-0.439,0.083-0.906,0.015-1.554,0.015
	C9.535,43.578,8.814,42.717,8.706,43.653z M87.182,50.417c1.536,0.013,2.484-0.888,2.462-2.339
	c-0.021-1.414-1.037-2.368-2.505-2.356c-1.336,0.009-1.572,0.367-1.564,2.366C85.583,50.087,85.803,50.406,87.182,50.417z
	 M72.025,49.511c0.05,0.259,0.429,0.713,0.541,0.37c0.229-0.729-0.086-1.868,0.107-1.833c0.29,0.051,1.075,1.582,1.372,1.842
	c0.147,0.128,0.436,0.242,0.587,0.185c0.272-0.104,0.189-0.413,0.053-0.58c-0.389-0.483-1.072-0.964-0.831-1.424
	c0.086-0.167,0.746-0.141,0.945-0.375c0.419-0.493-0.011-1.767-1.099-1.939c-1.361-0.219-1.768,0.336-1.765,2.689
	C71.947,48.607,71.943,49.067,72.025,49.511z M52.512,48.39c0.009,0.378,0.01,0.762,0.064,1.136
	c0.062,0.421,0.384,0.845,0.699,0.373c0.642-0.968,0.954-0.129,1.404,0.112c0.185,0.099,0.498,0.237,0.602,0.159
	c0.358-0.275,0.066-0.571-0.138-0.746c-1.136-0.971-1.444-1.912-0.013-2.892c0.171-0.119,0.286-0.379,0.088-0.583
	c-0.08-0.083-1.577,0.605-1.727,1.242C52.831,44.542,52.468,46.125,52.512,48.39z M80.151,50.365
	c0.37,0.056,1.376-0.115,1.715-0.498c1.218-1.717,1.198-2.684-0.073-3.663c-1.11-0.858-2.531-0.678-3.425,0.433
	c-0.984,1.227-0.739,2.779,1.232,3.643L80.151,50.365z M66.379,45.882c-0.022,1.06-0.056,2.112-0.07,3.169
	c-0.009,0.768,0.226,1.348,1.137,1.331c0.841-0.016,1.677-0.343,1.561-1.239c-0.066-0.492-0.487-0.981-0.531-1.497
	c-0.057-0.659,0.752-1.229,0.163-1.738C68.034,45.405,67.001,44.8,66.379,45.882z M40.493,48.228c0,0.377-0.012,0.756,0.005,1.135
	c0.007,0.215,0.075,0.473,0.325,0.475c0.287,0,0.333-0.288,0.33-0.503c-0.039-1.861,0.629-1.195,1.392-0.417
	c0.353,0.36,0.662,1.039,1.225,0.835c0.713-0.258,0.396-1.041,0.447-1.607c0.035-0.375-0.001-0.757-0.026-1.134
	c-0.019-0.299-0.023-0.681-0.38-0.73c-0.428-0.056-0.399,0.354-0.405,0.626c-0.03,1.214-0.311,1.697-1.264,0.478
	c-0.185-0.237-0.412-0.439-0.623-0.656c-0.6-0.614-0.911-0.373-1.009,0.364c-0.051,0.373-0.043,0.753-0.061,1.132
	C40.464,48.226,40.479,48.226,40.493,48.228z M22.316,49.538c0.086,0.123,0.185,0.256,0.31,0.33
	c0.409,0.241,0.615-0.075,0.488-0.351c-0.529-1.156-0.699-2.91-1.813-3.228c-0.961-0.274-1.075,1.513-1.599,2.359
	c-0.243,0.39-0.78,1.021-0.222,1.397c0.403,0.271,0.61-0.542,0.998-0.735c0.263-0.132,0.558-0.196,0.629-0.221
	C21.737,49.073,22.075,49.194,22.316,49.538z M29.308,46.19c-0.339,0.034-0.414,0.392-0.565,0.65
	c-0.813,1.387-0.819,1.385-1.619,0.053c-0.116-0.195-0.195-0.415-0.323-0.602c-0.136-0.199-0.351-0.296-0.552-0.123
	c-0.089,0.075-0.149,0.303-0.1,0.4c0.579,1.125,0.625,2.546,1.758,3.342c0.29,0.206,1.674-2.393,1.696-3.249
	C29.598,46.443,29.572,46.164,29.308,46.19z M47.227,47.333c0.231,0.448,0.686,0.779,1.031,1.171
	c0.195,0.225,0.453,0.47,0.296,0.791c-0.169,0.343-0.47,0.269-0.766,0.121c-0.267-0.132-0.599-0.255-0.615,0.217
	c-0.006,0.18,0.177,0.423,0.343,0.542c0.572,0.409,1.125,0.292,1.636-0.154c0.486-0.42,0.483-0.948,0.214-1.435
	c-0.249-0.454-0.64-0.829-0.955-1.248c-0.178-0.235-0.366-0.495,0.046-0.701c0.245-0.123,0.935,0.147,0.514-0.558
	c-0.162-0.268-0.461-0.37-0.787-0.346C47.315,45.803,46.819,46.555,47.227,47.333z M15.831,50.391
	c0.337-0.067,0.648-0.427,0.344-0.542c-1.597-0.596-1.09-1.943-1.238-3.071c-0.034-0.258-0.018-0.691-0.477-0.573
	c-0.148,0.037-0.307,0.314-0.334,0.5c-0.065,0.447-0.057,0.906-0.063,1.042C14.054,50.122,14.467,50.662,15.831,50.391z
	 M58.747,46.372c-0.583-0.003-0.324,1.153-0.332,1.799c-0.007,0.567-0.21,1.596,0.327,1.585c0.589-0.012,0.271-1.017,0.379-1.589
	C58.998,47.53,59.336,46.374,58.747,46.372z M56.046,37.404c-1.352-0.106-2.535,1.409-2.512,3.189
	c0.017,1.275,0.651,2.02,1.669,1.96c1.225-0.074,2.275-1.555,2.288-3.418C57.442,38.366,57.243,37.498,56.046,37.404z
	 M72.591,38.593c-0.71,0.13-0.872,0.981-1.088,1.601c-0.193,0.552,0.332,0.523,0.683,0.555c0.805,0.074,1.097-0.32,0.966-1.003
	C73.085,39.222,73.08,38.503,72.591,38.593z M38.564,37.065c-1.049,0.08-0.79,0.994-0.887,1.574
	c-0.104,0.606,0.448,0.726,0.929,0.599c0.67-0.178,1.321-0.433,1.362-1.397C39.737,37.255,39.231,37.015,38.564,37.065z
	 M26.22,36.912c-1.409-0.189-1.27,1.017-1.546,1.792c-0.159,0.444-0.075,0.907,0.563,0.997c0.999,0.141,2.153-0.624,2.227-1.491
	C27.539,37.31,26.968,37.013,26.22,36.912z M87.244,49.546c0.831-0.062,1.425-0.527,1.428-1.462
	c0.005-0.806-0.391-1.314-1.225-1.323c-1.016-0.009-0.935,0.782-0.991,1.608C86.665,48.704,86.228,49.621,87.244,49.546z
	 M74.175,47.049c-0.023-0.417-0.327-0.654-0.734-0.674c-0.326-0.018-0.565,0.17-0.575,0.521c-0.012,0.457,0.256,0.647,0.696,0.639
	C73.859,47.486,74.199,47.429,74.175,47.049z M81.757,48.853c0.311-0.879,0.196-1.631-0.654-2.181
	c-0.709-0.458-1.337-0.258-1.846,0.265c-0.676,0.694-0.671,1.485-0.076,2.259c0.137,0.179,0.294,0.345,0.442,0.519
	c0.625,0.123,1.208-0.02,1.773-0.281C81.521,49.24,81.681,49.064,81.757,48.853z M68.404,48.835
	c-0.021-0.331-0.425-0.855-0.763-0.87c-0.457-0.013-0.655,0.589-0.65,1.037c0.005,0.341,0.23,0.535,0.606,0.583
	C67.981,49.53,68.437,49.313,68.404,48.835z M67.439,47.451c0.241-0.001,0.702-0.284,0.711-0.525
	c0.014-0.338-0.514-0.881-0.856-0.822c-0.23,0.038-0.278,0.71-0.288,0.947C67.039,47.305,67.197,47.454,67.439,47.451z
	 M21.499,47.253c-0.079-0.044-0.604,0.201-0.644,0.272c-0.109,0.205-0.046,0.417,0.202,0.466c0.084,0.013,0.478,0.055,0.58-0.022
	C21.583,47.854,21.589,47.306,21.499,47.253z"/>
<path fill-rule="evenodd" clip-rule="evenodd" fill="#FFFFFF" d="M9.337,47.356c0.232,0.447,0.687,0.776,1.032,1.169
	c0.196,0.222,0.453,0.468,0.296,0.791c-0.169,0.343-0.47,0.268-0.766,0.12c-0.267-0.132-0.599-0.255-0.615,0.216
	c-0.006,0.182,0.177,0.424,0.343,0.544c0.573,0.408,1.125,0.291,1.636-0.155c0.486-0.419,0.483-0.948,0.214-1.435
	c-0.25-0.453-0.64-0.828-0.955-1.248c-0.177-0.234-0.366-0.494,0.046-0.701c0.245-0.123,0.935,0.147,0.515-0.557
	c-0.162-0.271-0.463-0.37-0.787-0.345C9.428,45.826,8.932,46.577,9.337,47.356z"/>
</svg>
