<?xml version="1.0" encoding="utf-8"?>
<!-- Generator: Adobe Illustrator 16.0.0, SVG Export Plug-In . SVG Version: 6.00 Build 0)  -->
<!DOCTYPE svg PUBLIC "-//W3C//DTD SVG 1.1//EN" "http://www.w3.org/Graphics/SVG/1.1/DTD/svg11.dtd">
<svg version="1.1" id="guides1" xmlns="http://www.w3.org/2000/svg" xmlns:xlink="http://www.w3.org/1999/xlink" x="0px" y="0px"
	 width="506.893px" height="102px" viewBox="0 0 506.893 102" enable-background="new 0 0 506.893 102" xml:space="preserve">
<rect x="375.393" y="25" opacity="0.1" fill="#656565" stroke="#656565" stroke-miterlimit="10" width="69" height="52"/>
<path fill="#FFFFFF" stroke="#DCDAD4" stroke-miterlimit="10" d="M424.893-6"/>
<path fill="#FFFFFF" stroke="#DCDAD4" stroke-miterlimit="10" d="M-9.107-6"/>
<path fill="#FFFFFF" stroke="#DCDAD4" stroke-miterlimit="10" d="M503.203-4.046L503.203-4.046c0,0-19.234,6.823-30.451,32.023
	C451.238,85.977,434.091,93,413.81,93H249.85H86.181c-20.281,0-37.501-7.023-59.014-65.023C15.949,2.777-3.357-4.034-3.357-4.034
	l0,0 M432.393,34h-47v9h47V34z M432.393,48h-47v8h47V48z M432.393,60h-47v8h47V60z"/>
<text transform="matrix(1 0 0 1 71.3936 65.9546)" fill="#656565" stroke="#656565" stroke-miterlimit="10" font-family="'SegoeUI'" font-size="47">Moj Prvi Dom</text>
</svg>
