<?xml version="1.0" encoding="utf-8"?>
<!-- Generator: Adobe Illustrator 16.0.0, SVG Export Plug-In . SVG Version: 6.00 Build 0)  -->
<!DOCTYPE svg PUBLIC "-//W3C//DTD SVG 1.1//EN" "http://www.w3.org/Graphics/SVG/1.1/DTD/svg11.dtd">
<svg version="1.1" id="Layer_2" xmlns="http://www.w3.org/2000/svg" xmlns:xlink="http://www.w3.org/1999/xlink" x="0px" y="0px"
	 width="64.75px" height="123.907px" viewBox="64.75 0 64.75 123.907" enable-background="new 64.75 0 64.75 123.907"
	 xml:space="preserve">
<path fill="#2C2C2C" d="M92.577,51.476c-1.142,0.209-2.063,1.132-2.214,2.34c-1.229,9.698-0.04,17.569,3.188,21.06
	c0.035,0.043,0.074,0.082,0.113,0.127c-0.078,0.178-0.142,0.358-0.19,0.543l-4.359,14.883c-0.104,0.334-0.154,0.67-0.189,1.004
	c-0.152,0.367-0.24,0.773-0.24,1.189l-0.293,24.073c-0.012,1.785,1.406,3.238,3.188,3.265c0.015,0,0.022,0,0.039,0
	c1.771,0,3.194-1.422,3.223-3.187l0.218-18.19c0.149,0.033,0.315,0.059,0.479,0.076l-0.179,22.75
	c-0.014,1.78,1.414,3.237,3.197,3.248c0.017,0,0.017,0,0.025,0c1.771,0,3.213-1.429,3.225-3.197l0.189-25.176
	c0.4-0.521,0.721-1.125,0.91-1.81l2.1-7.164c-0.025,3.119-0.492,6.879-1.529,11.172c-0.352,1.461,0.56,2.938,2.013,3.289
	c0.215,0.058,0.43,0.084,0.646,0.084c1.237,0,2.352-0.842,2.655-2.097c3.035-12.594,1.847-22.588-3.086-26.213
	c3.211,0.197,6.233-1.817,7.183-5.03c1.088-3.726-1.052-7.625-4.769-8.719c-3.729-1.088-7.625,1.042-8.728,4.768
	c-0.947,3.235,0.545,6.604,3.39,8.149l-1.188-0.821l-1.178-0.67c-0.811-0.039-1.631,0.051-2.428,0.258
	c-0.148-0.004-0.354-0.207-0.43-0.297c-1.646-1.789-2.91-7.771-1.785-16.686c0.178-1.441-0.795-2.762-2.213-3.022"/>
<path fill="#2C2C2C" d="M106.029,9.342c0.316,2.516-0.481,4.913-2.01,6.697l0.017-0.002l-8.134,10.487
	c-0.813,1.049-1.627,2.098-2.557,2.214c-0.932,0.117-1.979-0.699-3.025-1.514L79.85,19.07l0.014-0.002
	c-1.92-1.352-3.284-3.478-3.6-5.994c-0.594-4.731,2.754-9.047,7.478-9.64c2.51-0.314,4.903,0.486,6.684,2.016
	c1.349-1.922,3.472-3.29,5.979-3.604C101.127,1.255,105.436,4.611,106.029,9.342z"/>
<line fill="#2C2C2C" stroke="#000000" stroke-miterlimit="10" x1="93.458" y1="27.583" x2="93.458" y2="53.917"/>
</svg>
