<?xml version="1.0" encoding="utf-8"?>
<!-- Generator: Adobe Illustrator 16.0.0, SVG Export Plug-In . SVG Version: 6.00 Build 0)  -->
<!DOCTYPE svg PUBLIC "-//W3C//DTD SVG 1.1//EN" "http://www.w3.org/Graphics/SVG/1.1/DTD/svg11.dtd">
<svg version="1.1" id="Layer_2" xmlns="http://www.w3.org/2000/svg" xmlns:xlink="http://www.w3.org/1999/xlink" x="0px" y="0px"
	 width="64.75px" height="123.907px" viewBox="32.917 0.75 64.75 123.907" enable-background="new 32.917 0.75 64.75 123.907"
	 xml:space="preserve">
<path d="M60.202,51.476c-1.141,0.209-2.063,1.132-2.213,2.34c-1.229,9.698-0.041,17.569,3.188,21.059
	c0.035,0.044,0.074,0.083,0.113,0.127c-0.078,0.178-0.141,0.359-0.19,0.543l-4.36,14.883c-0.103,0.334-0.154,0.67-0.189,1.004
	c-0.153,0.367-0.241,0.773-0.241,1.189l-0.292,24.074c-0.012,1.785,1.406,3.238,3.188,3.264c0.014,0,0.023,0,0.039,0
	c1.77,0,3.195-1.422,3.223-3.186l0.218-18.19c0.149,0.033,0.315,0.058,0.479,0.076l-0.179,22.749
	c-0.013,1.781,1.415,3.238,3.198,3.249c0.016,0,0.016,0,0.025,0c1.771,0,3.213-1.429,3.225-3.198l0.189-25.175
	c0.401-0.521,0.721-1.126,0.91-1.81l2.1-7.164c-0.025,3.119-0.492,6.879-1.529,11.172c-0.352,1.461,0.559,2.938,2.012,3.289
	c0.215,0.058,0.43,0.084,0.645,0.084c1.238,0,2.353-0.842,2.656-2.097c3.035-12.593,1.847-22.588-3.086-26.212
	c3.211,0.197,6.234-1.818,7.183-5.031c1.088-3.725-1.052-7.625-4.769-8.719c-3.729-1.088-7.625,1.042-8.727,4.768
	c-0.947,3.236,0.545,6.605,3.389,8.149l-1.188-0.821l-1.178-0.67c-0.81-0.039-1.631,0.051-2.427,0.258
	c-0.149-0.004-0.354-0.207-0.43-0.297c-1.646-1.789-2.91-7.771-1.785-16.686c0.177-1.441-0.796-2.762-2.214-3.022"/>
<path d="M73.654,9.342c0.316,2.516-0.481,4.913-2.01,6.697l0.017-0.002l-8.134,10.487c-0.813,1.049-1.627,2.098-2.557,2.214
	c-0.931,0.117-1.978-0.699-3.024-1.514L47.475,19.07l0.014-0.002c-1.92-1.352-3.285-3.478-3.601-5.994
	c-0.593-4.731,2.754-9.047,7.478-9.64c2.51-0.314,4.903,0.486,6.684,2.016c1.349-1.922,3.471-3.29,5.98-3.604
	C68.752,1.255,73.061,4.611,73.654,9.342z"/>
<line fill="none" stroke="#000000" stroke-miterlimit="10" x1="61.083" y1="27.583" x2="61.083" y2="53.917"/>
</svg>
