<?xml version="1.0" encoding="utf-8"?>
<!-- Generator: Adobe Illustrator 16.0.0, SVG Export Plug-In . SVG Version: 6.00 Build 0)  -->
<!DOCTYPE svg PUBLIC "-//W3C//DTD SVG 1.1//EN" "http://www.w3.org/Graphics/SVG/1.1/DTD/svg11.dtd">
<svg version="1.1" id="Layer_1" xmlns="http://www.w3.org/2000/svg" xmlns:xlink="http://www.w3.org/1999/xlink" x="0px" y="0px"
	 width="248.988px" height="328.483px" viewBox="0 0 248.988 328.483" enable-background="new 0 0 248.988 328.483"
	 xml:space="preserve">
<g>
	<path fill-rule="evenodd" clip-rule="evenodd" d="M204.401,281.126c-0.389,0.508-1.158,0.709-2.694,1.046
		c-6.604,1.449-13.236,2.771-19.864,4.112c-6.916,1.398-13.836,2.791-20.758,4.173c-2.672,0.533-5.344,1.064-8.018,1.594
		c-3.811,0.754-7.641,1.403-11.451,2.156c-0.508,0.1-0.949,0.535-1.42,0.814c-1.119,0-2.236,0-3.355,0l36.743-32.818"/>
	<path fill-rule="evenodd" clip-rule="evenodd" d="M177.5,259.689l30.693-27.414c0.222,0.319,0.352,0.751,0.429,1.332
		c0.028,0.211,0.05,0.442,0.066,0.695c0.095,1.448,0.028,2.906,0.028,4.36c0,12.354,0.011,24.708-0.007,37.063
		c-0.002,1.565-0.006,2.379-0.394,2.887L177.5,259.689z"/>
	<path fill-rule="evenodd" clip-rule="evenodd" d="M131.168,249.921c0.953-3.297-0.664-6.65-0.014-9.885
		c0.129-0.642,0.107-1.11-0.03-1.459l39.496,20.778L133.737,292.3c-0.337,0-0.674,0-2.011,0L131.168,249.921z"/>
	<path fill-rule="evenodd" clip-rule="evenodd" d="M133.937,235.598c-0.229-0.581-0.78-0.825-1.484-0.968
		c-1.55-0.314-3.206-0.116-4.745-0.458c-9.284-2.061-18.543-4.231-27.82-6.322c-2.385-0.537-4.791-1.013-7.211-1.356
		c-4.032-0.571-7.772,0.713-11.366,2.275c-2.972,1.291-5.932,2.02-9.21,2.156c-4.44,0.185-8.856,0.979-13.283,1.512
		c-0.288,0.035-0.575,0.098-0.864,0.111c-6.503,0.303-13.004,0.725-19.51,0.839c-2.566,0.045-5.151-0.553-7.711-0.97
		c-0.47-0.075-1.127-0.646-1.191-1.066c-0.057-0.364,0.532-0.941,0.962-1.246c1.396-0.992,2.851-1.902,4.092-3.37
		c-3.285,0.628-6.571,1.251-9.854,1.892c-0.423,0.083-0.819,0.315-1.243,0.375c-1.234,0.174-2.599,0.001-2.829-1.321
		c-0.124-0.71,0.698-1.938,1.427-2.366c1.404-0.827,3.045-1.253,4.487-2.41c-1.542,0.181-3.085,0.355-4.626,0.544
		c-3.43,0.419-6.853,0.899-10.29,1.225c-0.77,0.073-1.59-0.389-2.387-0.604c0.516-0.802,0.854-2.038,1.576-2.333
		c4.276-1.747,8.604-3.39,12.984-4.856c10.971-3.672,22.012-7.134,32.959-10.874c6.156-2.104,12.162-4.646,18.272-6.891
		c6.591-2.422,12.553-5.938,18.236-10.005c1.949-1.396,4.065-2.557,5.913-4.201c-2.341,0.496-4.746,0.795-7.008,1.532
		c-4.004,1.306-8.075,0.515-12.109,0.736c-0.432,0.023-0.884-0.007-1.3-0.115c-1.537-0.401-2.037-1.824-0.839-2.903
		c1.928-1.734,4.019-3.298,6.108-4.842c1.742-1.288,3.581-2.444,5.637-3.834c-0.833-0.396-1.567-0.621-2.154-1.048
		c-1.79-1.306-2.008-2.194-0.8-4.003c0.87-1.303,1.979-2.445,3.229-3.96c-1.024-0.098-1.724-0.301-2.377-0.202
		c-3.268,0.488-6.51,1.179-9.788,1.562c-3.362,0.394-6.576-0.546-9.698-1.71c-1.204-0.449-1.509-1.437-0.671-2.413
		c0.917-1.069,1.915-2.169,3.101-2.886c2.212-1.335,4.586-2.402,7.299-3.789c-3.333-0.488-6.188-0.721-8.944-1.374
		c-1.767-0.418-3.548-1.226-5.032-2.272c-1.728-1.215-1.729-2.002-0.324-3.616c1.007-1.155,2.314-2.048,3.612-3.166
		c-2.329-0.47-4.426-0.853-6.501-1.331c-0.817-0.188-1.684-0.452-2.357-0.924c-1.458-1.024-1.514-2.001-0.223-3.191
		c0.832-0.766,1.81-1.374,3.374-2.54c-1.79-0.142-2.983-0.11-4.117-0.354c-1.952-0.42-3.979-0.769-5.764-1.602
		c-1.725-0.806-1.844-2.117-0.392-3.434c2.652-2.405,5.484-4.611,8.182-6.85c-2.419-0.352-5.256-0.826-8.109-1.16
		c-1.803-0.21-3.976-0.563-4.336-2.278c-0.432-2.05,1.734-3.052,3.361-3.977c1.128-0.641,2.294-1.216,4.145-2.189
		c-2.204-0.494-3.774-0.849-5.347-1.197c-0.423-0.093-0.86-0.129-1.274-0.25c-2.113-0.618-4.815-1.315-5.036-3.534
		c-0.2-2.013,2.367-2.979,4.21-3.829c0.392-0.181,0.854-0.205,1.243-0.389c0.229-0.107,0.57-0.481,0.526-0.57
		c-0.167-0.337-0.423-0.793-0.729-0.871c-1.536-0.387-3.097-0.671-4.651-0.981c-0.284-0.056-0.593-0.013-0.865-0.096
		c-1.979-0.598-4.159-1.299-4.544-3.543c-0.397-2.316,1.848-2.986,3.452-3.916c0.368-0.214,0.721-0.454,1.594-1.007
		c-1.638-0.439-2.837-0.735-4.021-1.085c-1.795-0.53-3.658-0.923-5.348-1.691c-2.378-1.08-2.532-2.464-0.704-4.342
		c0.399-0.409,0.951-0.664,1.395-1.035c0.763-0.64,0.71-1.182-0.261-1.545c-1.753-0.656-3.603-1.129-5.235-2.007
		c-2.021-1.088-2.065-2.942-0.085-4.013c2.026-1.094,4.206-1.971,6.407-2.66c2.042-0.64,4.2-0.905,6.445-1.363
		c-2.369-0.853-4.646-1.563-6.826-2.5c-1.173-0.505-2.286-1.279-3.24-2.137c-2.039-1.834-1.937-2.542,0.342-3.854
		c3.202-1.844,6.618-2.902,10.61-3.202c-1.312-0.621-2.654-1.187-3.93-1.875c-1.639-0.886-3.343-1.718-4.807-2.847
		c-2.356-1.817-2.094-3.05,0.771-4.155c3.352-1.294,6.789-1.236,10.258-0.49c0.938,0.202,1.909,0.251,3.808,0.488
		c-4.11-2.349-7.415-4.117-10.585-6.102c-1.448-0.908-2.745-2.138-3.898-3.414c-1.145-1.265-0.842-2.56,0.834-2.978
		c1.923-0.479,3.979-0.459,5.983-0.551c0.54-0.024,1.085,0.407,1.649,0.499c1.955,0.317,3.92,0.577,5.881,0.858
		c-0.879-1.911-3.007-2.32-4.36-3.62c-3.016-2.896-6.452-5.419-8.248-9.442c-0.565-1.268-0.432-2.188,0.18-3.236
		c2.619,0,5.238,0,7.857,0c0.323,0.268,0.605,0.676,0.975,0.781c10.306,2.939,19.196,8.7,28.306,14.053
		c8.118,4.772,15.515,10.548,23.004,16.199c1.381,1.041,2.455,2.478,3.776,3.61c4.933,4.226,9.922,8.386,14.864,12.6
		c3.079,2.626,6.123,5.293,9.16,7.969c1.07,0.943,2.071,1.964,3.86,3.67c-0.5-1.735-0.82-2.491-0.924-3.275
		c-0.346-2.622-0.132-5.012,2.996-5.875c1.182-0.326,1.111-0.97,0.729-1.958c-0.772-1.998-1.576-4.015-2.02-6.097
		c-0.421-1.987,0.12-3.786,2.4-4.484c1.475-0.453,1.563-1.234,0.953-2.607c-0.747-1.68-1.453-3.5-1.592-5.304
		c-0.262-3.4,0.514-4.239,4.057-4.815c1.551-0.253,1.949-0.617,1.407-2.208c-0.677-1.983-1.87-3.965-0.479-6.232
		c0.75-1.222,1.496-2.027,3.006-2.079c2.074-0.071,4.006,0.16,5.828,1.31c5.582,3.523,10.234,8.013,13.979,13.412
		c5.553,8.004,10.214,16.486,13.16,25.821c2.953,9.357,5.891,18.72,8.758,28.104c1.807,5.915,4.406,11.273,9.285,15.349
		c2.72,2.272,3.665,5.496,3.783,8.931c0.098,2.876,0.02,5.758,0.02,9.277c5.111-2.98,9.896-5.183,13.183-9.702
		c1.689-2.322,3.733-4.492,5.975-6.284c3.671-2.935,7.991-2.881,12.408-1.908c6.255,1.376,11.015,4.873,14.696,9.994
		c0,2.619,0,5.238,0,7.857c-2.287,3.982-4.533,7.989-6.893,11.928c-0.477,0.793-1.337,1.809-2.105,1.887
		c-1.84,0.187-2.893,1.027-3.656,2.602c-0.304,0.625-0.891,1.159-1.451,1.606c-8.029,6.394-13.502,14.972-19.364,23.146
		c-2.843,3.962-4.509,8.762-6.775,13.146c-4.51,8.727-10.347,16.363-18.325,22.252c-2.438,1.8-4.756,3.767-7.089,5.705
		c-0.214,0.178-0.218,0.733-0.146,1.077c0.035,0.168,0.518,0.408,0.714,0.348c0.768-0.237,1.814-0.372,2.189-0.928
		c0.976-1.447,2.276-1.618,3.787-1.592c2.034,0.037,4.077-0.09,6.103,0.051c0.939,0.066,2.326,0.329,2.68,0.965
		c1.029,1.848,2.598,1.593,4.166,1.606c2.762,0.021,5.526-0.062,8.283,0.042c1.305,0.05,2.031,0.256,2.441,0.846l-30.552,27.288
		L133.937,235.598z"/>
	<path fill-rule="evenodd" clip-rule="evenodd" d="M216.067,144.079c0.211,0.768,0.785,1.774,1.662,0.367
		c0.513-0.822,1.078-1.014,2.135-0.851c1.395,0.214,3.039-1.825,2.414-2.897c-0.412-0.706-1.529-1-1.83-1.182
		C217.022,139.594,215.374,141.551,216.067,144.079z"/>
	<path fill-rule="evenodd" clip-rule="evenodd" fill="none" d="M-16.743,191.516c3.425,0.078,5.074,2.035,4.381,4.563
		c-0.211,0.768-0.786,1.774-1.663,0.367c-0.513-0.822-1.079-1.014-2.135-0.851c-1.395,0.214-3.04-1.825-2.414-2.897
		C-18.162,191.992-17.045,191.697-16.743,191.516z"/>
</g>
</svg>
