<?xml version="1.0" encoding="utf-8"?>
<!-- Generator: Adobe Illustrator 16.0.0, SVG Export Plug-In . SVG Version: 6.00 Build 0)  -->
<!DOCTYPE svg PUBLIC "-//W3C//DTD SVG 1.1//EN" "http://www.w3.org/Graphics/SVG/1.1/DTD/svg11.dtd">
<svg version="1.1" id="Layer_1" xmlns="http://www.w3.org/2000/svg" xmlns:xlink="http://www.w3.org/1999/xlink" x="0px" y="0px"
	 width="126px" height="126px" viewBox="0 0 126 126" enable-background="new 0 0 126 126" xml:space="preserve">
<g>
	<circle fill="#0E0F0F" cx="42.467" cy="47.7" r="10.657"/>
	<path fill="#0E0F0F" d="M61.205,57.717c-1.346-0.933-3.192-0.598-4.126,0.748l-5.438,7.847l-7.971-5.928
		c-0.113-0.083-0.236-0.167-0.359-0.241c-0.05-0.031-0.103-0.055-0.153-0.083c-1.843-1.209-4.102-1.807-6.463-1.539
		c-5.36,0.611-9.213,5.453-8.602,10.814l2.343,20.568c0.081,0.71,0.243,1.389,0.464,2.039l-1.391,4.424l-14.387,3.691
		c-1.544,0.395-2.591,1.884-2.39,3.506c0.219,1.76,1.823,3.01,3.583,2.792l17.395-2.158c1.246-0.164,2.41-0.944,2.983-2.167
		l0.24-0.513l1.456-3.108c0.567,0.104,1.149,0.16,1.741,0.16c0.262,0,0.527-0.024,0.792-0.045l1.699,4.056l-19.734,5.221
		c-1.605,0.429-2.645,2.034-2.331,3.694c0.327,1.741,2.004,2.886,3.744,2.559l24.853-4.676c0.105-0.021,0.218-0.046,0.323-0.076
		c2.117-0.584,3.36-2.775,2.775-4.893l-0.111-0.401l-3.095-11.207c0.699-1.55,1.013-3.298,0.806-5.109l-1.596-14.011l2.129,1.287
		l0.378,0.229c0.066,0.04,0.134,0.077,0.204,0.113c1.773,0.915,3.954,0.219,4.868-1.555l6.315-12.243
		C62.825,60.209,62.443,58.576,61.205,57.717z"/>
	<circle fill="#0E0F0F" cx="97.133" cy="22.548" r="10.657"/>
	<path fill="#0E0F0F" d="M103.81,32.842c-4.007-0.133-7.514,2.184-9.122,5.592l-7.423,5.605l-16.991,2.538
		c-1.484,0.227-2.598,1.548-2.521,3.08c0.083,1.633,1.475,2.891,3.108,2.808l18.324-0.932c0.501-0.027,1.016-0.176,1.475-0.458
		l0.315-0.194l2.571-1.583l-0.397,13.426c-0.114,3.87,2.043,7.271,5.26,8.948l-0.286,37.88c-0.009,1.893,1.428,3.529,3.35,3.713
		c2.034,0.194,3.842-1.298,4.036-3.333l3.774-39.521c2.006-1.729,3.314-4.253,3.399-7.108l0.604-20.406
		C113.447,37.504,109.204,33.002,103.81,32.842z"/>
	<path fill="#0E0F0F" d="M61.23,44.715l0.86-0.066l0.236,0.927l5.461-0.422c0.101,0.297,0.354,0.819,0.904,1.212l6.069-1.395
		l-0.144-0.451c0.174-0.127,0.218-0.325,0.203-0.577l0.015-0.001c0.092-0.007,0.16-0.088,0.151-0.179l-0.202-2.624
		c-0.006-0.092-0.086-0.161-0.18-0.154l-0.898,0.071c-0.185-0.122-0.39-0.212-0.607-0.268l0.032-0.087
		c0.028-0.087-0.018-0.182-0.103-0.213l-0.158-0.055c-0.086-0.03-0.182,0.015-0.213,0.103l-0.066,0.19
		c-0.048,0.002-0.1,0.003-0.148,0.006l-9.669,0.749l-0.007-0.096c-0.006-0.092-0.086-0.162-0.181-0.155l-0.786,0.062
		c-0.092,0.007-0.159,0.087-0.153,0.178l0.009,0.099l-0.348,0.025L61.49,42.3l-0.443,0.036c-0.092,0.007-0.159,0.087-0.153,0.179
		l0.159,2.048C61.059,44.654,61.14,44.723,61.23,44.715z M70.562,44.938l0.166,0.502c-0.263,0.039-0.505,0.101-0.737,0.18
		c0.122-0.205,0.215-0.444,0.272-0.659L70.562,44.938z M69.995,44.983c-0.101,0.333-0.262,0.686-0.48,0.789
		c-0.032,0.016-0.057,0.043-0.065,0.075c-0.148,0.078-0.29,0.163-0.422,0.256c-0.469-0.293-0.7-0.712-0.808-0.983L69.995,44.983z"/>
</g>
</svg>
