<?xml version="1.0" encoding="utf-8"?>
<!-- Generator: Adobe Illustrator 16.0.0, SVG Export Plug-In . SVG Version: 6.00 Build 0)  -->
<!DOCTYPE svg PUBLIC "-//W3C//DTD SVG 1.1//EN" "http://www.w3.org/Graphics/SVG/1.1/DTD/svg11.dtd">
<svg version="1.1" id="Capa_1" xmlns="http://www.w3.org/2000/svg" xmlns:xlink="http://www.w3.org/1999/xlink" x="0px" y="0px"
	 width="50.183px" height="64px" viewBox="8.234 0 50.183 64" enable-background="new 8.234 0 50.183 64" xml:space="preserve">
<g>
	<path fill="#0E0F0F" d="M31.978,17.604c-0.763,1.943-2.656,3.319-4.87,3.319c-2.888,0-5.23-2.341-5.23-5.23
		c0-2.888,2.342-5.23,5.23-5.23c2.889,0,5.23,2.342,5.23,5.23L31.978,17.604z"/>
	<path fill="#0E0F0F" d="M56.021,48.605c-2.709-4.752-6.771-7.994-11.758-10.037c-0.309-6.186-3.315-12.007-8.141-15.937
		c-2.45-1.996-5.831-2.375-8.219,0.044c-0.147,0.148-0.282,0.309-0.41,0.475c-4.922-2.804-10.342-4.904-15.346-6.602
		c-3.796-1.288-5.412,4.701-1.648,5.978c5.665,1.921,11.892,4.411,17.076,8.021c0.118,0.12,0.239,0.238,0.372,0.347
		c2.971,2.417,4.815,5.292,4.714,9.184c-0.018,0.635,0.056,1.211,0.193,1.737c-0.322,2.009-0.792,3.994-1.383,5.941
		c-1.833-1.894-3.54-3.896-4.959-6.148c-2.658-4.213-9.365-0.326-6.691,3.91c2.849,4.52,6.565,8.264,10.473,11.86
		c1.642,1.513,5.064,1.63,6.085-0.784c1.532-3.627,2.754-7.281,3.578-11.049c0.25-0.063,0.495-0.145,0.735-0.234
		c0.263,0.179,0.552,0.332,0.875,0.457c2.498,0.955,4.568,2.482,6.199,4.477c-1.785,1.861-3.742,3.521-6.092,4.716
		c-4.453,2.269-0.531,8.952,3.911,6.688c3.878-1.973,7.054-5.045,9.824-8.354C56.557,51.938,56.941,50.223,56.021,48.605z"/>
	<path fill="#0E0F0F" d="M23.847,9.669c0.73-0.27,1.516-0.811,2.339-0.811c1.853,0,3.531,0.748,4.755,1.955
		c-0.797-2.208-1.572-4.425-2.297-6.659c-1.227-3.787-7.213-2.166-5.978,1.648C23.044,6.967,23.448,8.511,23.847,9.669z"/>
</g>
</svg>
