<?xml version="1.0" encoding="utf-8"?>
<!-- Generator: Adobe Illustrator 16.0.0, SVG Export Plug-In . SVG Version: 6.00 Build 0)  -->
<!DOCTYPE svg PUBLIC "-//W3C//DTD SVG 1.1//EN" "http://www.w3.org/Graphics/SVG/1.1/DTD/svg11.dtd">
<svg version="1.1" id="Layer_1" xmlns="http://www.w3.org/2000/svg" xmlns:xlink="http://www.w3.org/1999/xlink" x="0px" y="0px"
	 width="287px" height="517px" viewBox="141.992 108.23 287 517" enable-background="new 141.992 108.23 287 517"
	 xml:space="preserve">
<g>
	<path d="M412.163,596.841l6.817-133.924c0.535-10.547-7.593-19.066-18.149-19.029l-77.472,0.498
		c-1.157-14.229,1.138-29.596,3.403-41.395c1.357-7.058,3.396-14.01,5.785-20.838c29.376,4.236,59.145-5.059,62.567-32.551
		c2.161-17.346-14.793-30.676-31.05-27.473c-21.793,4.293-34.636,18.848-43.271,37.743c-22.645-4.695-40.488-17.806-26.146-42.983
		c10.366-0.373,21.048-1.454,32.007-3.414l1.291-0.947c62.854-86.885,44.562-185.713-13.865-196.404
		c-58.427-10.701-72.79,60.77-72.79,60.77c-0.307,0.191-70.925-17.892-86.656,39.388c-13.024,47.439,41.138,95.883,120.077,100.416
		c-9.688,29.5,11.829,51.274,39.369,60.913c-6.389,19.66-11.438,44.409-9.84,66.853l-70.757,0.076
		c-10.566,0.037-17.748,8.529-16.056,18.953l21.745,133.578c1.692,10.414,11.638,18.867,22.195,18.867H392.06
		C402.629,615.939,411.627,607.388,412.163,596.841z M375.991,349.603c0.438,7.497-15.415,12.211-33.669,12.336
		C352.343,349.191,374.72,327.724,375.991,349.603z"/>
</g>
</svg>
