<?xml version="1.0" encoding="utf-8"?>
<!-- Generator: Adobe Illustrator 16.0.0, SVG Export Plug-In . SVG Version: 6.00 Build 0)  -->
<!DOCTYPE svg PUBLIC "-//W3C//DTD SVG 1.1//EN" "http://www.w3.org/Graphics/SVG/1.1/DTD/svg11.dtd">
<svg version="1.1" id="Layer_1" xmlns="http://www.w3.org/2000/svg" xmlns:xlink="http://www.w3.org/1999/xlink" x="0px" y="0px"
	 width="296.985px" height="799.46px" viewBox="142.099 1.11 296.985 799.46" enable-background="new 142.099 1.11 296.985 799.46"
	 xml:space="preserve">
<g>
	<path d="M412.163,596.841l6.817-133.923c0.536-10.547-7.592-19.067-18.149-19.029l-77.472,0.498
		c-1.157-14.229,1.138-29.596,3.404-41.396c1.357-7.057,3.395-14.009,5.785-20.837c29.376,4.236,59.144-5.059,62.567-32.551
		c2.161-17.346-14.793-30.676-31.05-27.473c-21.793,4.293-34.635,18.848-43.27,37.743c-22.645-4.695-40.488-17.806-26.145-42.983
		c10.366-0.373,21.047-1.454,32.006-3.414l1.291-0.947c62.854-86.885,44.562-185.713-13.865-196.404
		c-58.427-10.701-72.79,60.77-72.79,60.77c-0.306,0.191-70.925-17.892-86.656,39.388c-13.024,47.439,41.138,95.883,120.077,100.416
		c-9.687,29.5,11.829,51.274,39.369,60.913c-6.389,19.66-11.437,44.408-9.84,66.852l-70.756,0.076
		c-10.567,0.038-17.748,8.53-16.056,18.953l21.745,133.578c1.692,10.414,11.638,18.867,22.195,18.867h130.69
		C402.629,615.938,411.627,607.389,412.163,596.841z M375.991,349.603c0.439,7.497-15.415,12.211-33.669,12.336
		C352.343,349.191,374.72,327.724,375.991,349.603z"/>
</g>
</svg>
