<?xml version="1.0" encoding="utf-8"?>
<!-- Generator: Adobe Illustrator 16.0.0, SVG Export Plug-In . SVG Version: 6.00 Build 0)  -->
<!DOCTYPE svg PUBLIC "-//W3C//DTD SVG 1.1//EN" "http://www.w3.org/Graphics/SVG/1.1/DTD/svg11.dtd">
<svg version="1.1" id="Layer_1" xmlns="http://www.w3.org/2000/svg" xmlns:xlink="http://www.w3.org/1999/xlink" x="0px" y="0px"
	 width="75.667px" height="132.667px" viewBox="22.125 -20.375 75.667 132.667"
	 enable-background="new 22.125 -20.375 75.667 132.667" xml:space="preserve">
<g>
	<circle cx="40.531" cy="19.673" r="10.657"/>
	<path d="M24.378,40.022l0.604,20.406c0.084,2.855,1.393,5.379,3.398,7.108l3.774,39.521c0.194,2.035,2.002,3.527,4.036,3.334
		c1.922-0.185,3.359-1.82,3.35-3.714l-0.286-37.88c3.219-1.677,5.374-5.078,5.262-8.948l-0.397-13.426l2.571,1.583l0.313,0.194
		c0.459,0.282,0.976,0.431,1.476,0.458l18.323,0.932c1.634,0.083,3.025-1.175,3.108-2.808c0.076-1.532-1.037-2.853-2.521-3.08
		l-16.992-2.538l-7.422-5.605c-1.607-3.408-5.115-5.725-9.123-5.592C28.46,30.127,24.217,34.629,24.378,40.022z"/>
</g>
<path d="M38.54,68.25c-5.135-9.003-1.04-0.625,0.835-2.125S43,102,42.625,102.875s1.125,4.625-2.375,3.875
	C40.375,103.25,40.531,76,38.54,68.25z"/>
<path d="M76.479,44.8l-7.595-4.345v-1.688h9.347c0.607,0.429,1.104,1.009,1.433,1.688H72.26l4.219,2.402l3.375-1.923v1.939
	L76.479,44.8z"/>
<polygon points="79.854,47.205 70.57,47.205 70.57,42.39 68.884,41.425 68.884,48.893 79.854,48.893 "/>
<path d="M84.07,30.33v5.063c-3.098,0-6.526,0-8.438,0c-1.711,0-3.299,0.635-4.541,1.688h4.541c2.28,0,4.338,1.481,5.063,3.63v9.87
	h-5.063H70.57h-1.688v1.688h11.813v45.567h5.063V52.268h10.125V40.455c-0.879-3.001-3.626-5.063-6.75-5.063
	c-0.475,0-1.049,0-1.688,0v6.75h-1.688v-8.438h5.063V30.33"/>
</svg>
