<?xml version="1.0" encoding="utf-8"?>
<!-- Generator: Adobe Illustrator 16.0.0, SVG Export Plug-In . SVG Version: 6.00 Build 0)  -->
<!DOCTYPE svg PUBLIC "-//W3C//DTD SVG 1.1//EN" "http://www.w3.org/Graphics/SVG/1.1/DTD/svg11.dtd">
<svg version="1.1" id="Layer_1" xmlns="http://www.w3.org/2000/svg" xmlns:xlink="http://www.w3.org/1999/xlink" x="0px" y="0px"
	 width="75.667px" height="132.667px" viewBox="22 -20 75.667 132.667" enable-background="new 22 -20 75.667 132.667"
	 xml:space="preserve">
<g>
	<circle fill="#2C2C2C" cx="40.531" cy="19.673" r="10.657"/>
	<path fill="#2C2C2C" d="M24.378,40.022l0.604,20.406c0.084,2.855,1.393,5.379,3.398,7.109l3.774,39.521
		c0.194,2.034,2.002,3.526,4.036,3.334c1.922-0.185,3.358-1.82,3.351-3.714l-0.287-37.881c3.22-1.676,5.375-5.078,5.263-8.947
		l-0.397-13.426l2.571,1.583l0.313,0.194c0.459,0.282,0.976,0.431,1.476,0.458l18.323,0.932c1.634,0.083,3.025-1.175,3.107-2.808
		c0.076-1.532-1.037-2.853-2.521-3.08l-16.992-2.538l-7.422-5.605c-1.606-3.408-5.115-5.725-9.123-5.592
		C28.46,30.127,24.217,34.629,24.378,40.022z"/>
</g>
<path fill="#2C2C2C" d="M38.541,68.25c-5.136-9.002-1.041-0.625,0.834-2.125c1.875-1.5,3.625,35.875,3.25,36.75
	s1.125,4.625-2.375,3.875C40.375,103.25,40.531,76,38.541,68.25z"/>
<path fill="#2C2C2C" d="M76.479,44.8l-7.595-4.345v-1.688h9.347c0.606,0.429,1.104,1.009,1.433,1.688h-7.404l4.22,2.402l3.375-1.923
	v1.939L76.479,44.8z"/>
<polygon fill="#2C2C2C" points="79.854,47.205 70.57,47.205 70.57,42.39 68.884,41.425 68.884,48.893 79.854,48.893 "/>
<path fill="#2C2C2C" d="M84.07,30.33v5.063c-3.098,0-6.525,0-8.438,0c-1.711,0-3.299,0.635-4.541,1.688h4.541
	c2.279,0,4.338,1.481,5.063,3.63v9.87h-5.063H70.57h-1.688v1.688h11.813v45.566h5.063V52.268h10.125V40.455
	c-0.879-3.001-3.625-5.063-6.75-5.063c-0.475,0-1.049,0-1.688,0v6.75h-1.688v-8.438h5.063V30.33"/>
</svg>
