<?xml version="1.0" encoding="utf-8"?>
<!-- Generator: Adobe Illustrator 16.0.0, SVG Export Plug-In . SVG Version: 6.00 Build 0)  -->
<!DOCTYPE svg PUBLIC "-//W3C//DTD SVG 1.1//EN" "http://www.w3.org/Graphics/SVG/1.1/DTD/svg11.dtd">
<svg version="1.1" id="Layer_1" xmlns="http://www.w3.org/2000/svg" xmlns:xlink="http://www.w3.org/1999/xlink" x="0px" y="0px"
	 width="141px" height="218.784px" viewBox="0 0 141 218.784" enable-background="new 0 0 141 218.784" xml:space="preserve">
<g>
	<path fill-rule="evenodd" clip-rule="evenodd" fill="none" d="M69.724,85.247c1,0,2.001-0.049,2.998,0.008
		c9.609,0.54,18.474-7.24,20.428-17.199c1.859-9.475-0.391-17.98-8.321-24.71c-6.48-5.499-20.563-5.811-26.43-1.819
		c-0.274,0.188-0.588,0.331-0.827,0.556c-6.292,5.92-10.506,12.521-9.789,21.85C48.767,76.729,57.12,85.249,69.724,85.247z
		 M107.907,6.811c-1.463,0.084-2.305,0.053-3.115,0.194c-1.883,0.328-2.156,1.878-2.318,3.38c-0.186,1.721,1.193,1.628,2.318,1.877
		c1.774,0.393,3.592,0.717,5.275,1.37c4.686,1.818,5.463,6.454,1.719,9.86c-0.606,0.551-1.337,0.979-2.048,1.399
		c-2.163,1.282-1.997,3.303-1.541,5.275c0.153,0.661,1.019,1.643,1.53,1.625c0.806-0.027,2.194-0.682,2.279-1.232
		c0.472-3.093,2.807-4.278,5.066-5.71c1.093-0.691,2.078-1.695,2.832-2.757c3.617-5.103,1.527-11.762-4.373-13.645
		C112.875,7.601,110.056,7.258,107.907,6.811z M114.5,45.151c0.035-3.335-1.676-5.301-4.537-5.212
		c-2.848,0.088-5.477,2.926-5.516,5.955c-0.038,2.876,2.131,5.251,4.776,5.232C112.198,51.106,114.463,48.54,114.5,45.151z"/>
	<path fill-rule="evenodd" clip-rule="evenodd" d="M50.985,131.081c0.079-4.626,0.014-9.255,0.008-13.883
		c-0.002-2.228,0.055-4.458-0.023-6.685c-0.14-3.98-0.806-4.394-3.977-2.312c-3.925,2.575-7.768,5.284-11.647,7.933
		c-0.97,0.662-1.918,1.366-2.926,1.961c-4.559,2.688-8.979,1.503-11.294-3.265c-2.675-5.51-5.174-11.115-7.626-16.735
		c-1.42-3.256-3.188-5.98-6.796-6.94c-0.774-0.207-1.5-0.75-2.152-1.268c-1.496-1.188-2.803-2.583-2.293-4.751
		c0.504-2.143,1.788-4.021,3.939-4.148c4.459-0.267,8.965-0.319,13.413,0.046c2.383,0.196,4.087,2.139,5.114,4.473
		c1.439,3.269,2.901,6.529,4.349,9.795c1.825,4.115,2.223,4.309,5.731,1.954c3.755-2.521,7.496-5.082,11.084-7.844
		c2.303-1.772,4.375-2.375,7.329-1.486c3.127,0.94,6.563,1.197,9.847,1.108c9.097-0.245,18.279,1.206,27.293-1.57
		c1.334-0.412,3.402,0.932,4.867,1.89c4.203,2.75,8.311,5.661,12.373,8.629c1.892,1.381,3.056,0.807,3.916-1.095
		c1.611-3.566,3.193-7.146,4.746-10.739c1.589-3.678,4.332-5.548,8.213-5.591c2.994-0.033,5.998-0.099,8.981,0.113
		c3.103,0.219,5.023,1.837,5.597,4.249c0.506,2.138-0.426,4.596-3.369,5.586c-5.498,1.848-7.379,6.363-9.361,11.155
		c-1.889,4.563-4.029,9.025-6.244,13.434c-2.217,4.413-6.73,5.717-10.969,3.096c-3.986-2.467-7.791-5.246-11.674-7.892
		c-1.108-0.757-2.178-1.579-3.32-2.277c-2.904-1.774-3.68-1.365-3.733,2.276c-0.099,6.683,0.013,13.369-0.063,20.053L50.985,131.081
		z"/>
	<path fill-rule="evenodd" clip-rule="evenodd" d="M70.522,133.197c0-0.004,0-0.008,0-0.011"/>
	<path fill-rule="evenodd" clip-rule="evenodd" d="M69.724,85.248c-12.604,0.001-20.957-8.52-21.941-21.316
		c-0.717-9.328,3.496-15.93,9.789-21.85c0.239-0.225,0.552-0.368,0.827-0.556c5.867-3.991,19.949-3.68,26.43,1.819
		c7.931,6.729,10.181,15.235,8.321,24.71c-1.954,9.959-10.818,17.739-20.428,17.199C71.725,85.198,70.723,85.247,69.724,85.248z"/>
	<path fill-rule="evenodd" clip-rule="evenodd" d="M107.907,6.811c2.149,0.447,4.968,0.79,7.625,1.638
		c5.9,1.883,7.99,8.542,4.373,13.645c-0.754,1.062-1.739,2.065-2.832,2.757c-2.26,1.432-4.595,2.617-5.066,5.71
		c-0.085,0.551-1.474,1.205-2.279,1.232c-0.512,0.018-1.377-0.964-1.53-1.625c-0.456-1.973-0.622-3.993,1.541-5.275
		c0.711-0.421,1.441-0.849,2.048-1.399c3.744-3.406,2.967-8.042-1.719-9.86c-1.684-0.653-3.501-0.978-5.275-1.37
		c-1.125-0.249-2.504-0.156-2.318-1.877c0.162-1.502,0.436-3.052,2.318-3.38C105.602,6.863,106.444,6.895,107.907,6.811z"/>
	<path fill-rule="evenodd" clip-rule="evenodd" d="M114.5,45.151c-0.037,3.389-2.303,5.955-5.276,5.976
		c-2.646,0.019-4.814-2.356-4.776-5.232c0.039-3.029,2.668-5.867,5.516-5.955C112.825,39.851,114.536,41.816,114.5,45.151z"/>
</g>
<g>
	<path fill-rule="evenodd" clip-rule="evenodd" fill="none" d="M51.189,208.481c0.001,3.918,2.478,7.183,5.967,8.031
		c3.768,0.916,8.149-0.517,9.76-3.795c1.035-2.105,1.453-4.632,1.467-6.973c0.105-17.466,0.038-34.932,0.03-52.396
		c0-0.902-0.151-1.861,0.131-2.689c0.2-0.587,1.1-1.456,1.532-1.386c0.731,0.118,1.681,0.77,1.92,1.396
		c0.343,0.9,0.151,1.98,0.151,2.983c0.007,18.067-0.001,36.135,0.021,54.203c0.004,4.606,2.418,7.747,6.499,8.627
		c6.091,1.314,10.698-2.439,10.724-8.943c0.06-15.558,0.019-31.117,0.019-46.675"/>
	<path fill-rule="evenodd" clip-rule="evenodd" d="M90.278,159.585c0,15.566,0.042,31.134-0.02,46.7
		c-0.026,6.508-4.741,10.263-10.975,8.948c-4.176-0.881-6.646-4.022-6.651-8.632c-0.022-18.078-0.013-36.155-0.021-54.231
		c0-1.004,0.196-2.084-0.155-2.986c-0.245-0.626-1.216-1.278-1.965-1.396c-0.442-0.07-1.362,0.799-1.568,1.387
		c-0.288,0.829-0.133,1.788-0.133,2.69c0.008,17.475,0.077,34.949-0.031,52.425c-0.015,2.343-0.442,4.87-1.502,6.977
		c-1.648,3.28-6.132,4.714-9.989,3.797c-3.57-0.849-6.105-4.115-6.106-8.035v-78.896h39.13"/>
</g>
</svg>
