<?xml version="1.0" encoding="utf-8"?>
<!-- Generator: Adobe Illustrator 16.0.0, SVG Export Plug-In . SVG Version: 6.00 Build 0)  -->
<!DOCTYPE svg PUBLIC "-//W3C//DTD SVG 1.1//EN" "http://www.w3.org/Graphics/SVG/1.1/DTD/svg11.dtd">
<svg version="1.1" id="Layer_1" xmlns="http://www.w3.org/2000/svg" xmlns:xlink="http://www.w3.org/1999/xlink" x="0px" y="0px"
	 width="146.834px" height="218.785px" viewBox="0 0 146.834 218.785" enable-background="new 0 0 146.834 218.785"
	 xml:space="preserve">
<g>
	<path fill="#2D2D2D" d="M69.724,85.247c1,0,2-0.049,2.999,0.008c9.608,0.54,18.473-7.24,20.428-17.199
		c1.857-9.475-0.393-17.98-8.321-24.71c-6.479-5.499-20.563-5.811-26.43-1.819c-0.274,0.188-0.588,0.331-0.827,0.556
		c-6.292,5.92-10.506,12.521-9.789,21.85C48.767,76.729,57.12,85.249,69.724,85.247z M107.907,6.811
		c-1.465,0.084-2.307,0.053-3.115,0.194c-1.883,0.328-2.154,1.878-2.316,3.38c-0.188,1.721,1.191,1.628,2.316,1.877
		c1.773,0.393,3.592,0.717,5.273,1.37c4.688,1.818,5.463,6.454,1.721,9.86c-0.605,0.551-1.337,0.979-2.049,1.399
		c-2.162,1.282-1.996,3.303-1.541,5.275c0.152,0.661,1.02,1.643,1.529,1.625c0.808-0.027,2.194-0.682,2.279-1.232
		c0.473-3.093,2.807-4.278,5.066-5.71c1.093-0.691,2.078-1.695,2.832-2.757c3.617-5.103,1.527-11.762-4.373-13.645
		C112.875,7.601,110.058,7.258,107.907,6.811z M114.5,45.151c0.035-3.335-1.676-5.301-4.537-5.212
		c-2.848,0.088-5.478,2.926-5.517,5.955c-0.037,2.876,2.132,5.251,4.775,5.232C112.198,51.106,114.463,48.54,114.5,45.151z"/>
	<path fill="#2D2D2D" d="M50.985,131.082c0.079-4.627,0.014-9.256,0.008-13.883c-0.002-2.229,0.055-4.459-0.023-6.686
		c-0.14-3.98-0.806-4.395-3.977-2.313c-3.925,2.574-7.768,5.283-11.647,7.933c-0.97,0.662-1.918,1.365-2.926,1.961
		c-4.559,2.688-8.979,1.503-11.294-3.266c-2.675-5.51-5.174-11.115-7.626-16.735c-1.42-3.256-3.188-5.979-6.796-6.94
		c-0.774-0.207-1.5-0.75-2.152-1.268c-1.496-1.188-2.803-2.583-2.293-4.751c0.504-2.143,1.788-4.021,3.939-4.148
		c4.459-0.267,8.965-0.319,13.413,0.046c2.383,0.196,4.087,2.139,5.114,4.473c1.439,3.269,2.901,6.529,4.349,9.795
		c1.825,4.115,2.223,4.309,5.731,1.954c3.755-2.521,7.496-5.082,11.084-7.844c2.303-1.772,4.375-2.375,7.329-1.486
		c3.127,0.94,6.563,1.197,9.847,1.108c9.097-0.245,18.28,1.206,27.292-1.57c1.334-0.412,3.402,0.932,4.867,1.89
		c4.203,2.75,8.313,5.661,12.373,8.629c1.894,1.381,3.057,0.807,3.916-1.095c1.611-3.566,3.193-7.146,4.746-10.739
		c1.59-3.678,4.332-5.548,8.213-5.591c2.994-0.033,5.998-0.099,8.981,0.113c3.103,0.219,5.022,1.837,5.597,4.249
		c0.506,2.138-0.426,4.596-3.369,5.586c-5.498,1.848-7.379,6.363-9.361,11.155c-1.889,4.563-4.027,9.025-6.242,13.434
		c-2.219,4.412-6.729,5.717-10.971,3.096c-3.984-2.467-7.791-5.246-11.674-7.893c-1.106-0.756-2.178-1.579-3.32-2.276
		c-2.902-1.774-3.68-1.365-3.731,2.276c-0.099,6.684,0.015,13.369-0.063,20.053L50.985,131.082z"/>
	<path fill="#2D2D2D" d="M70.522,133.197c0-0.004,0-0.008,0-0.012"/>
	<path fill="#2D2D2D" d="M69.724,85.248c-12.604,0.001-20.957-8.52-21.941-21.316c-0.717-9.328,3.496-15.93,9.789-21.85
		c0.239-0.225,0.552-0.368,0.827-0.556c5.867-3.991,19.95-3.68,26.43,1.819c7.931,6.729,10.181,15.235,8.32,24.71
		c-1.955,9.959-10.817,17.739-20.427,17.199C71.725,85.198,70.723,85.247,69.724,85.248z"/>
	<path fill="#2D2D2D" d="M107.907,6.811c2.148,0.447,4.968,0.79,7.625,1.638c5.898,1.883,7.988,8.542,4.371,13.645
		c-0.754,1.063-1.737,2.065-2.83,2.757c-2.262,1.432-4.596,2.617-5.066,5.71c-0.085,0.551-1.474,1.205-2.277,1.232
		c-0.514,0.018-1.377-0.964-1.53-1.625c-0.456-1.973-0.622-3.993,1.54-5.275c0.712-0.421,1.441-0.849,2.049-1.399
		c3.744-3.406,2.967-8.042-1.719-9.86c-1.686-0.653-3.502-0.978-5.275-1.37c-1.125-0.249-2.504-0.156-2.318-1.877
		c0.162-1.502,0.438-3.052,2.318-3.38C105.603,6.863,106.442,6.895,107.907,6.811z"/>
	<path fill="#2D2D2D" d="M114.5,45.151c-0.037,3.389-2.304,5.955-5.274,5.976c-2.646,0.019-4.814-2.356-4.776-5.232
		c0.038-3.029,2.668-5.867,5.516-5.955C112.825,39.851,114.536,41.816,114.5,45.151z"/>
</g>
<g>
	<path fill="#2D2D2D" d="M90.276,159.585c0,15.565,0.043,31.133-0.02,46.699c-0.025,6.508-4.74,10.264-10.975,8.948
		c-4.176-0.881-6.646-4.022-6.651-8.633c-0.022-18.078-0.013-36.154-0.021-54.229c0-1.004,0.195-2.084-0.155-2.986
		c-0.245-0.627-1.216-1.278-1.965-1.396c-0.442-0.07-1.362,0.799-1.568,1.387c-0.288,0.83-0.133,1.789-0.133,2.689
		c0.008,17.477,0.077,34.949-0.031,52.426c-0.015,2.344-0.442,4.869-1.502,6.977c-1.648,3.281-6.132,4.715-9.989,3.799
		c-3.57-0.85-6.105-4.115-6.106-8.035v-78.896h39.13"/>
</g>
</svg>
