<?xml version="1.0" encoding="UTF-8" ?>
<!DOCTYPE svg PUBLIC "-//W3C//DTD SVG 1.1//EN" "http://www.w3.org/Graphics/SVG/1.1/DTD/svg11.dtd">
<svg width="180pt" height="159pt" viewBox="0 0 180 159" version="1.1" xmlns="http://www.w3.org/2000/svg">
<path fill="#ffffff" d=" M 0.00 0.00 L 180.00 0.00 L 180.00 159.00 L 53.43 159.00 C 55.12 157.03 56.36 154.75 57.83 152.64 C 59.64 150.53 61.92 148.87 63.77 146.79 C 62.81 147.51 60.89 148.96 59.93 149.68 C 60.34 147.29 61.00 144.96 61.90 142.71 C 62.68 140.70 63.67 138.78 64.73 136.91 C 67.99 135.60 71.38 134.64 74.87 134.22 C 72.87 138.85 69.30 142.41 64.92 144.84 C 65.42 145.38 66.41 146.44 66.91 146.97 C 65.80 149.34 64.70 151.73 63.97 154.25 C 67.04 153.41 67.33 149.88 68.57 147.46 C 74.75 147.84 82.30 145.82 84.49 139.29 C 86.58 135.98 83.88 131.43 80.23 130.81 C 75.73 129.97 70.89 130.51 66.79 132.63 C 65.18 133.58 63.14 134.44 62.62 136.43 C 61.72 140.87 56.10 140.71 54.02 144.34 C 55.08 144.18 57.20 143.85 58.27 143.69 L 58.75 144.03 C 60.79 146.00 58.72 148.51 57.46 150.26 C 55.25 152.91 53.41 155.84 52.02 159.00 L 0.00 159.00 L 0.00 0.00 Z" />
<path fill="#ffcc67" d=" M 89.68 1.68 C 91.18 0.57 92.80 2.06 94.06 2.82 C 105.29 10.87 116.64 18.76 127.67 27.09 C 127.82 21.97 127.52 16.82 127.85 11.71 C 129.23 9.61 131.12 7.16 133.88 7.14 C 136.50 7.57 138.14 9.95 139.15 12.20 C 139.76 20.16 139.07 28.22 139.60 36.17 C 148.72 43.77 158.16 51.02 167.03 58.94 C 171.03 62.60 175.47 65.81 178.91 70.04 C 172.76 66.86 166.49 63.86 160.58 60.25 C 159.49 62.69 159.77 65.41 159.74 68.01 C 159.72 88.67 159.75 109.33 159.72 129.99 C 159.75 133.36 160.40 136.73 159.76 140.08 C 160.24 140.39 161.19 141.01 161.67 141.33 C 161.71 142.04 161.73 142.76 161.73 143.48 C 161.48 143.19 160.98 142.61 160.73 142.32 C 158.52 141.08 157.37 144.73 155.86 145.74 L 154.93 146.80 L 154.98 145.02 C 155.65 143.50 156.32 141.97 156.95 140.43 C 153.28 140.15 151.22 143.73 148.67 145.72 C 148.59 145.34 148.43 144.58 148.35 144.20 C 148.95 143.42 149.59 142.68 150.23 141.95 C 149.75 141.61 148.78 140.92 148.30 140.58 L 147.69 140.15 C 147.82 111.20 147.74 82.25 147.74 53.30 C 131.37 43.77 115.34 33.67 99.54 23.23 C 96.81 21.14 94.04 19.08 91.02 17.43 C 75.05 27.71 59.20 38.20 42.72 47.66 C 39.13 50.07 35.04 51.72 31.62 54.37 C 31.39 79.58 31.63 104.82 31.52 130.04 C 31.43 130.95 31.81 131.64 32.65 132.12 C 30.13 133.69 28.04 135.83 26.10 138.05 C 26.44 135.45 28.17 132.24 25.77 130.13 C 23.67 129.65 21.65 130.61 19.83 131.52 C 19.38 107.99 19.82 84.46 19.57 60.93 C 13.20 63.58 7.36 67.32 1.03 70.05 C 7.01 63.98 13.85 58.86 20.12 53.12 C 21.73 51.60 24.37 50.76 24.62 48.26 C 25.35 48.47 26.09 48.65 26.83 48.81 C 26.74 47.18 26.70 45.54 26.69 43.90 L 26.68 43.31 C 27.38 44.42 28.07 45.54 28.76 46.66 C 29.48 45.74 30.25 44.85 31.06 44.01 C 34.30 41.57 37.24 38.75 40.54 36.40 C 42.65 35.29 44.71 34.05 46.47 32.42 C 44.69 32.48 42.92 32.53 41.15 32.57 C 41.76 30.35 43.74 29.41 45.80 29.04 C 46.49 29.80 47.18 30.56 47.88 31.32 C 61.57 21.10 75.57 11.31 89.68 1.68 Z" />
<path fill="#ffbb00" d=" M 28.24 20.38 C 28.74 20.40 29.72 20.42 30.22 20.43 C 30.25 21.85 30.29 23.27 30.33 24.68 C 29.84 24.65 28.86 24.58 28.37 24.54 C 28.33 23.16 28.28 21.77 28.24 20.38 Z" />
<path fill="#f3c209" d=" M 35.63 20.45 C 36.09 20.48 37.01 20.53 37.47 20.56 C 37.32 22.17 36.95 23.75 36.24 25.22 C 35.81 25.33 34.97 25.57 34.55 25.69 C 34.49 23.87 34.92 22.11 35.63 20.45 Z" />
<path fill="#f3c209" d=" M 21.95 23.01 C 24.33 23.46 26.59 25.28 25.50 27.92 C 23.84 26.66 22.13 25.25 21.95 23.01 Z" />
<path fill="#f3c209" d=" M 39.56 25.61 C 40.90 24.78 42.26 23.97 43.65 23.23 C 44.39 25.19 42.59 26.30 41.41 27.48 C 40.95 27.49 40.04 27.50 39.58 27.50 C 39.57 27.03 39.56 26.08 39.56 25.61 Z" />
<path fill="#ffcc00" d=" M 28.74 27.61 C 30.87 27.14 33.21 26.98 35.30 27.68 C 38.56 29.33 40.12 32.93 40.54 36.40 C 37.24 38.75 34.30 41.57 31.06 44.01 C 26.76 43.12 24.86 39.09 21.85 36.42 C 20.43 37.32 18.77 37.25 17.17 37.30 C 17.23 36.64 17.36 35.32 17.42 34.66 C 19.59 34.78 21.75 35.05 23.89 35.44 C 23.30 32.04 26.33 29.46 28.74 27.61 Z" />
<path fill="#f3c209" d=" M 17.85 28.44 C 20.46 27.70 22.40 29.31 22.95 31.79 C 20.71 31.72 18.82 30.44 17.85 28.44 Z" />
<path fill="#f3c209" d=" M 18.51 41.70 C 19.89 41.11 21.29 40.58 22.72 40.12 C 22.69 40.68 22.64 41.81 22.62 42.37 C 21.18 42.93 19.73 43.47 18.27 43.97 C 18.33 43.40 18.45 42.27 18.51 41.70 Z" />
<path fill="#f7ca26" d=" M 23.28 47.38 C 24.42 46.22 25.56 45.07 26.69 43.90 C 26.70 45.54 26.74 47.18 26.83 48.81 C 26.09 48.65 25.35 48.47 24.62 48.26 L 23.28 47.38 Z" />
<path fill="#ff984b" d=" M 71.05 66.22 C 74.52 66.14 76.96 68.74 79.65 70.50 C 83.40 72.95 87.04 75.83 91.59 76.55 C 90.57 79.75 88.70 82.52 86.70 85.18 C 85.52 82.54 84.38 79.79 82.20 77.79 C 78.58 73.83 72.70 71.76 71.05 66.22 Z" />
<path fill="#ff9644" d=" M 87.32 69.84 C 87.12 68.00 88.62 66.76 89.66 65.48 C 90.62 65.51 92.54 65.56 93.51 65.58 C 96.03 66.96 95.56 69.81 95.46 72.23 C 93.92 73.01 92.39 73.79 90.86 74.60 C 89.39 73.31 87.31 72.04 87.32 69.84 Z" />
<path fill="#ff993c" d=" M 91.59 76.55 C 99.53 75.47 104.52 68.36 111.49 65.25 C 112.43 69.30 108.34 71.52 105.57 73.49 C 101.66 75.67 98.78 79.25 96.63 83.10 C 95.78 86.98 97.64 90.71 97.80 94.54 C 97.32 96.95 96.04 99.46 96.97 101.93 C 97.70 104.44 98.86 106.79 99.84 109.21 C 100.96 113.31 101.20 117.73 100.69 121.95 C 100.21 121.83 99.23 121.58 98.74 121.46 C 96.93 115.97 97.17 110.03 95.24 104.58 C 93.83 102.15 92.58 99.64 91.61 97.00 C 90.68 98.10 89.77 99.21 88.85 100.32 C 87.81 97.93 86.58 95.62 84.89 93.63 L 84.52 93.15 C 85.78 90.65 86.19 87.89 86.70 85.18 C 88.70 82.52 90.57 79.75 91.59 76.55 Z" />
<path fill="#f5efe1" d=" M 50.27 87.26 C 51.71 85.72 54.32 83.57 56.03 86.00 C 57.97 87.33 57.45 89.64 57.30 91.64 C 58.61 91.10 59.93 90.58 61.26 90.08 C 59.33 91.49 57.45 93.37 54.93 93.57 C 52.76 93.79 50.85 92.55 49.04 91.55 C 50.73 90.71 49.96 88.74 50.27 87.26 Z" />
<path fill="#ff6000" d=" M 125.29 86.27 C 126.89 85.71 128.38 86.73 128.62 88.37 C 129.56 90.82 125.56 92.97 124.12 90.76 C 122.45 89.43 123.34 86.77 125.29 86.27 Z" />
<path fill="#ff6400" d=" M 41.52 86.90 C 44.64 87.27 46.68 89.77 49.04 91.55 C 50.85 92.55 52.76 93.79 54.93 93.57 C 57.45 93.37 59.33 91.49 61.26 90.08 C 63.20 88.67 65.39 86.80 67.97 87.58 C 64.91 90.87 61.69 94.00 58.40 97.06 C 58.22 100.40 57.97 103.82 59.06 107.05 C 60.35 112.35 61.30 117.90 60.33 123.34 C 59.07 122.59 58.40 121.30 57.65 120.12 C 57.50 115.87 57.14 111.06 53.95 107.89 C 51.10 112.24 51.20 117.57 50.14 122.48 C 49.25 122.54 48.37 122.59 47.48 122.64 C 46.89 116.39 48.73 110.30 50.35 104.33 C 51.09 101.50 50.98 98.21 49.26 95.75 C 46.54 92.94 42.77 90.84 41.52 86.90 Z" />
<path fill="#ff6100" d=" M 51.91 87.09 C 54.18 84.27 58.63 88.59 55.76 90.67 C 53.51 93.35 49.61 89.36 51.91 87.09 Z" />
<path fill="#ff6200" d=" M 113.15 87.49 C 114.19 87.45 115.42 86.94 116.31 87.74 C 119.09 89.86 121.86 92.01 125.01 93.59 C 131.15 94.57 134.00 86.86 139.96 87.34 C 136.86 91.50 132.30 94.39 129.61 98.83 C 130.83 106.79 133.47 114.62 132.73 122.78 C 132.25 122.71 131.28 122.58 130.80 122.51 C 130.54 121.88 130.03 120.63 129.78 120.00 C 129.80 115.92 128.59 111.99 127.13 108.22 C 124.61 108.35 124.24 111.08 123.79 113.00 C 123.30 116.12 122.99 119.29 121.91 122.27 C 121.32 122.40 120.15 122.66 119.57 122.79 C 119.50 119.87 119.53 116.95 119.84 114.05 C 120.87 108.23 124.54 102.04 121.67 96.22 C 118.96 93.21 115.60 90.77 113.15 87.49 Z" />
<path fill="#ff9936" d=" M 84.89 93.63 C 86.58 95.62 87.81 97.93 88.85 100.32 C 89.77 99.21 90.68 98.10 91.61 97.00 C 92.58 99.64 93.83 102.15 95.24 104.58 C 93.01 104.48 90.79 104.44 88.57 104.40 C 88.22 105.62 87.88 106.85 87.55 108.07 C 87.08 106.12 86.29 104.19 84.81 102.79 C 84.16 102.65 82.87 102.38 82.22 102.24 C 83.01 99.35 83.11 96.16 84.89 93.63 Z" />
<path fill="#fe934b" d=" M 97.80 94.54 L 98.07 93.55 C 98.93 96.37 99.80 99.20 100.78 101.99 C 100.38 102.42 99.59 103.30 99.19 103.73 C 99.43 105.55 99.65 107.38 99.84 109.21 C 98.86 106.79 97.70 104.44 96.97 101.93 C 96.04 99.46 97.32 96.95 97.80 94.54 Z" />
<path fill="#fb924a" d=" M 84.81 102.79 C 86.29 104.19 87.08 106.12 87.55 108.07 C 86.73 112.96 86.66 118.10 84.41 122.63 C 83.93 122.67 82.97 122.75 82.49 122.79 C 81.85 116.01 83.71 109.41 84.81 102.79 Z" />
<path fill="#fc984e" d=" M 19.83 131.52 C 21.65 130.61 23.67 129.65 25.77 130.13 C 28.17 132.24 26.44 135.45 26.10 138.05 C 28.04 135.83 30.13 133.69 32.65 132.12 C 33.67 131.65 34.71 131.26 35.78 130.92 C 36.25 134.81 33.45 137.75 31.92 141.03 C 34.14 140.74 35.46 138.77 37.09 137.46 L 36.67 138.67 C 33.52 143.44 29.11 147.46 25.65 152.09 C 25.31 151.12 24.85 150.20 24.36 149.31 C 24.88 147.95 25.39 146.58 25.89 145.22 C 22.08 144.83 20.53 148.28 18.78 150.88 C 16.90 151.46 16.83 149.42 17.25 148.14 C 17.91 146.48 18.86 144.97 19.79 143.46 C 21.91 140.30 23.98 137.07 25.39 133.51 C 23.45 134.18 21.52 134.87 19.64 135.70 C 17.74 136.59 15.98 137.76 14.18 138.83 C 14.29 137.07 14.67 135.34 15.30 133.69 C 17.01 133.43 18.47 132.54 19.83 131.52 Z" />
<path fill="#fc925b" d=" M 66.79 132.63 C 70.89 130.51 75.73 129.97 80.23 130.81 C 83.88 131.43 86.58 135.98 84.49 139.29 C 82.30 145.82 74.75 147.84 68.57 147.46 C 67.33 149.88 67.04 153.41 63.97 154.25 C 64.70 151.73 65.80 149.34 66.91 146.97 C 66.41 146.44 65.42 145.38 64.92 144.84 C 69.30 142.41 72.87 138.85 74.87 134.22 C 71.38 134.64 67.99 135.60 64.73 136.91 C 63.67 138.78 62.68 140.70 61.90 142.71 C 60.69 143.03 59.47 143.33 58.27 143.69 C 57.20 143.85 55.08 144.18 54.02 144.34 C 56.10 140.71 61.72 140.87 62.62 136.43 C 63.14 134.44 65.18 133.58 66.79 132.63 Z" />
<path fill="#fd9055" d=" M 116.10 132.12 C 120.83 130.40 127.11 128.76 131.26 132.59 C 132.48 134.62 134.08 137.07 133.19 139.52 C 131.27 146.26 124.70 150.81 118.01 152.00 C 116.35 152.59 114.73 151.91 113.16 151.44 C 114.04 145.35 118.54 140.88 120.93 135.47 C 121.42 136.02 121.91 136.59 122.40 137.16 C 119.05 139.98 117.73 144.48 115.48 148.14 C 116.84 150.54 119.65 148.92 121.72 148.66 C 126.45 147.28 131.98 143.52 131.71 138.02 C 131.00 134.06 126.08 134.27 123.08 133.45 C 123.07 134.01 123.04 135.13 123.03 135.69 C 119.90 132.67 115.75 136.40 113.14 138.46 C 112.35 138.45 110.76 138.42 109.97 138.41 C 111.60 135.98 113.04 132.99 116.10 132.12 Z" />
<path fill="#f18f55" d=" M 37.09 137.46 C 38.83 134.80 41.79 133.15 44.17 131.08 C 44.47 131.80 45.09 133.23 45.39 133.95 C 41.68 138.68 36.42 143.32 36.36 149.79 C 39.63 150.05 42.69 147.99 43.98 145.02 C 45.18 142.32 47.84 139.97 50.90 140.12 C 54.08 141.59 51.74 145.76 52.58 148.40 C 50.46 149.65 48.25 150.73 46.03 151.78 C 45.03 150.56 44.05 149.34 43.06 148.12 C 40.51 149.94 37.51 153.94 34.04 152.07 C 31.50 146.73 36.85 141.98 39.80 138.13 L 36.67 138.67 L 37.09 137.46 Z" />
<path fill="#ffd06b" d=" M 19.64 135.70 C 21.52 134.87 23.45 134.18 25.39 133.51 C 23.98 137.07 21.91 140.30 19.79 143.46 C 19.71 140.87 19.67 138.28 19.64 135.70 Z" />
<path fill="#ffffff" d=" M 76.28 134.37 C 79.30 133.75 82.96 134.69 83.81 138.05 C 82.21 139.71 80.83 141.71 78.74 142.80 C 76.26 143.71 73.60 143.92 71.04 144.45 C 72.55 140.98 74.30 137.60 76.28 134.37 Z" />
<path fill="#f49059" d=" M 84.67 146.76 C 84.28 144.22 84.77 141.80 86.82 140.12 C 88.80 140.51 90.82 140.55 92.84 140.49 C 93.26 143.78 88.75 145.70 89.91 148.95 C 94.75 148.27 94.61 141.03 99.59 140.82 C 99.37 143.89 96.00 145.30 95.40 148.09 C 95.40 150.05 98.12 148.68 98.81 147.90 C 100.52 145.32 101.26 141.88 104.40 140.55 C 104.75 142.76 103.38 144.51 102.08 146.11 C 102.51 146.68 103.38 147.84 103.82 148.41 C 103.04 148.48 101.48 148.60 100.70 148.66 C 99.42 149.80 98.15 150.95 96.89 152.11 C 95.28 151.07 94.05 149.61 92.95 148.07 C 92.05 149.18 91.15 150.29 90.25 151.40 C 89.38 151.36 88.51 151.32 87.64 151.29 C 87.37 148.51 88.32 145.86 89.12 143.25 C 87.33 144.00 85.89 145.28 84.67 146.76 Z" />
<path fill="#f08f53" d=" M 104.12 147.04 C 106.01 144.46 107.32 140.73 110.89 140.14 C 110.44 143.11 108.37 145.31 106.31 147.33 C 107.90 149.99 110.57 148.17 112.62 147.22 C 111.28 149.18 109.73 151.44 107.16 151.71 C 105.34 150.92 105.05 148.59 104.12 147.04 Z" />
<path fill="#f99658" d=" M 134.93 150.14 C 131.73 145.48 137.38 140.08 141.99 139.61 C 142.53 140.76 143.08 141.90 143.65 143.03 C 143.25 144.39 142.82 145.75 142.39 147.10 C 145.70 146.65 146.39 142.78 148.30 140.58 C 148.78 140.92 149.75 141.61 150.23 141.95 C 149.59 142.68 148.95 143.42 148.35 144.20 C 147.87 144.89 146.91 146.27 146.43 146.96 C 147.50 146.68 149.65 146.11 150.73 145.82 C 149.26 147.44 147.90 149.15 146.40 150.73 C 144.91 151.34 144.90 148.99 144.14 148.27 C 140.67 147.89 137.94 153.89 134.93 150.14 Z" />
<path fill="#eb9e39" d=" M 148.67 145.72 C 151.22 143.73 153.28 140.15 156.95 140.43 C 156.32 141.97 155.65 143.50 154.98 145.02 C 154.78 145.27 154.38 145.75 154.18 146.00 C 152.38 145.50 150.51 145.41 148.67 145.72 Z" />
<path fill="#e0993b" d=" M 155.86 145.74 C 157.37 144.73 158.52 141.08 160.73 142.32 C 160.98 142.61 161.48 143.19 161.73 143.48 C 160.74 146.03 158.06 145.68 155.86 145.74 Z" />
<path fill="#fffdfb" d=" M 45.54 149.69 C 44.57 146.57 46.94 143.59 49.85 142.74 C 49.67 144.57 49.50 146.40 49.32 148.24 C 48.05 148.68 46.79 149.16 45.54 149.69 Z" />
<path fill="#f08f53" d=" M 58.27 143.69 C 59.47 143.33 60.69 143.03 61.90 142.71 C 61.00 144.96 60.34 147.29 59.93 149.68 C 60.89 148.96 62.81 147.51 63.77 146.79 C 61.92 148.87 59.64 150.53 57.83 152.64 C 56.36 154.75 55.12 157.03 53.43 159.00 L 52.02 159.00 C 53.41 155.84 55.25 152.91 57.46 150.26 C 58.72 148.51 60.79 146.00 58.75 144.03 L 58.27 143.69 Z" />
<path fill="#ffffff" d=" M 136.12 148.00 C 135.67 145.19 138.46 142.85 141.15 143.03 C 140.67 143.96 140.17 144.89 139.67 145.81 C 139.69 146.58 139.73 148.12 139.75 148.89 C 138.56 148.87 135.93 150.25 136.12 148.00 Z" />
<path fill="#f08f53" d=" M 155.77 146.56 C 157.01 146.46 158.25 146.36 159.49 146.27 C 159.47 146.93 159.43 148.24 159.41 148.89 C 160.84 148.43 162.24 147.86 163.59 147.20 C 161.24 148.91 159.41 151.93 156.17 151.75 C 156.50 150.23 156.99 148.76 157.60 147.33 C 157.14 147.13 156.23 146.75 155.77 146.56 Z" />
<path fill="#f08f53" d=" M 150.06 150.86 C 150.82 148.51 151.71 145.43 154.94 146.09 C 154.95 148.71 152.85 151.36 150.06 150.86 Z" />
</svg>
