<?xml version="1.0" encoding="utf-8"?>
<!-- Generator: Adobe Illustrator 16.0.0, SVG Export Plug-In . SVG Version: 6.00 Build 0)  -->
<!DOCTYPE svg PUBLIC "-//W3C//DTD SVG 1.1//EN" "http://www.w3.org/Graphics/SVG/1.1/DTD/svg11.dtd">
<svg version="1.1" xmlns="http://www.w3.org/2000/svg" xmlns:xlink="http://www.w3.org/1999/xlink" x="0px" y="0px" width="312px"
	 height="148.1px" viewBox="0 0 312 148.1" style="enable-background:new 0 0 312 148.1;" xml:space="preserve">
<g id="Layer_1" style="display:none;">
	
		<image style="display:inline;overflow:visible;" width="300" height="228" xlink:href="C:\Users\Scqr\Desktop\slikaPost.jpg"  transform="matrix(1 0 0 1 10.5 -41.2505)">
	</image>
</g>
<g id="strelice">
	<g>
		<path style="fill:#BD6C01;" d="M151.1,88.9l-26.2-1.1l-2.3,25.5l7.7-6.1c0,0,11.4,13,38.8,13c22.9,0,33.7-11,36.5-14.7l0.4-1.9
			l-12-12c0,0-13.7,10.7-26.3,10.9c-12.6,0.2-22.9-6.3-22.9-6.3l6.3-5.6V88.9z"/>
		<path style="fill:#FEAB5D;" d="M151.2,90.6l-26.4-1.1l-2.9,25.3l8.1-6c0,0,11.4,14.1,38.8,14.1c27.3,0,36.9-17.8,36.9-17.8
			l-11.7-11.6c0,0-13.4,10.5-26,10.7c-12.6,0.2-23.4-6.4-23.4-6.4L151.2,90.6z"/>
	</g>
	<g>
		<path style="fill:#B74421;" d="M153.4,41.1l14.3-22L146.8,4.2l1.4,9.7c0,0-17,3.2-30.9,26.8c-11.6,19.7-7.6,34.6-5.8,38.9l1.4,1.3
			l16.4-4.2c0,0-2.3-17.2,3.9-28.1c6.2-10.9,17-16.5,17-16.5l1.6,8.3L153.4,41.1z"/>
		<path style="fill:#DB4104;" d="M151.8,40.3l14.3-22.2L145.8,2.7l1.1,10c0,0-18.3,3.2-32.1,26.8c-13.9,23.6-3.1,40.3-3.1,40.3
			l15.9-4.3c0,0-2.2-16.9,4-27.8c6.2-10.9,17.4-16.9,17.4-16.9L151.8,40.3z"/>
		<path style="fill:#FFFFFF;" d="M145.1,29.7"/>
	</g>
	<g>
		<path style="fill:#9B6B00;" d="M193.8,66.5L205.4,90l23.5-10.2l-9.1-3.8c0,0,5.9-16.3-7.2-40.2c-11-20.1-25.8-24.3-30.5-24.9
			l-1.8,0.6l-4.8,16.3c0,0,16,6.8,22.2,17.8s5.5,23.1,5.5,23.1l-8-2.9L193.8,66.5z"/>
		<path style="fill:#DFA800;" d="M195.3,65.6L207,89.3l23.6-9.6l-9.1-4.2c0,0,7.3-16.3-5.9-40.2c-13.1-24-33.7-24.4-33.7-24.4
			l-4.5,15.9c0,0,15.7,6.7,21.8,17.7c6.2,11,5.6,23.6,5.6,23.6L195.3,65.6z"/>
	</g>
</g>
<g id="text">
	<g>
		<text transform="matrix(1 0 0 1 227.625 53.9995)" style="fill:#DFA800; font-family:'CenturyGothic'; font-size:12;">Siromaštvo</text>
	</g>
	<g>
		<text transform="matrix(1 0 0 1 112.875 141.3745)" style="fill:#FEAB5D; font-family:'CenturyGothic'; font-size:12;">Socijalna izolacija</text>
	</g>
	<g>
		<text transform="matrix(1 0 0 1 6 54.3745)" style="fill:#DB4104; font-family:'CenturyGothic'; font-size:12;">Nezaposlenost</text>
	</g>
</g>
</svg>
