<?xml version="1.0" encoding="utf-8"?>
<!-- Generator: Adobe Illustrator 16.0.0, SVG Export Plug-In . SVG Version: 6.00 Build 0)  -->
<!DOCTYPE svg PUBLIC "-//W3C//DTD SVG 1.1//EN" "http://www.w3.org/Graphics/SVG/1.1/DTD/svg11.dtd">
<svg version="1.1" id="dental_xA0_Image_1_" xmlns="http://www.w3.org/2000/svg" xmlns:xlink="http://www.w3.org/1999/xlink"
	 x="0px" y="0px" width="100px" height="86.604px" viewBox="0 0 100 86.604" enable-background="new 0 0 100 86.604"
	 xml:space="preserve">
<g>
	<polygon fill-rule="evenodd" clip-rule="evenodd" fill="#507F9F" points="25,86.604 0,43.303 25,0 75.001,0 100,43.303 
		75.001,86.604 	"/>
</g>
<path fill-rule="evenodd" clip-rule="evenodd" fill="none" stroke="#FFFFFF" stroke-width="2" stroke-miterlimit="10" d="M89,48.939
	c0,1.758-1.431,3.2-3.2,3.2h-71.6c-1.77,0-3.2-1.442-3.2-3.2V38.664c0-1.758,1.43-3.2,3.2-3.2h71.6c1.77,0,3.2,1.442,3.2,3.2V48.939
	z"/>
<path fill-rule="evenodd" clip-rule="evenodd" fill="#FFFFFF" d="M87.133,48.05c0,1.427-1.371,2.58-3.049,2.58H15.782
	c-1.683,0-3.05-1.153-3.05-2.58v-8.274c0-1.422,1.368-2.58,3.05-2.58h68.302c1.678,0,3.049,1.158,3.049,2.58V48.05z M16.367,45.983
	c0.326,0.042,0.716,0.065,1.179,0.065c0.977,0,1.755-0.254,2.228-0.728c0.467-0.463,0.724-1.134,0.724-1.951
	c0-0.822-0.262-1.401-0.713-1.815c-0.438-0.404-1.105-0.618-2.035-0.618c-0.519,0-0.985,0.039-1.383,0.097V45.983z M17.017,41.514
	c0.172-0.035,0.426-0.065,0.762-0.065c1.374,0,2.044,0.753,2.038,1.935c0,1.369-0.755,2.137-2.141,2.137
	c-0.258,0-0.493-0.004-0.659-0.032V41.514z M24.251,44.312c0.009-0.066,0.021-0.167,0.021-0.307c0-0.661-0.311-1.695-1.49-1.695
	c-1.057,0-1.698,0.851-1.698,1.944s0.667,1.82,1.778,1.82c0.573,0,0.97-0.113,1.203-0.224l-0.112-0.472
	c-0.249,0.108-0.529,0.192-1.002,0.192c-0.659,0-1.226-0.363-1.237-1.26H24.251z M21.72,43.84c0.052-0.457,0.344-1.066,1.008-1.066
	c0.742,0,0.919,0.652,0.911,1.066H21.72z M25.087,46.001h0.658v-2.168c0-0.117,0.012-0.224,0.046-0.306
	c0.112-0.373,0.447-0.678,0.88-0.678c0.618,0,0.838,0.485,0.838,1.066v2.085h0.653V43.84c0-1.231-0.773-1.53-1.274-1.53
	c-0.598,0-1.016,0.329-1.197,0.68H25.68l-0.038-0.597h-0.583c0.02,0.298,0.028,0.604,0.028,0.978V46.001z M29.351,41.522v0.87
	h-0.559v0.495h0.559v1.971c0,0.429,0.065,0.744,0.254,0.945c0.155,0.171,0.404,0.271,0.71,0.271c0.252,0,0.455-0.031,0.583-0.091
	l-0.033-0.487c-0.082,0.02-0.207,0.04-0.381,0.04c-0.364,0-0.493-0.249-0.493-0.704v-1.944h0.943v-0.495h-0.943v-1.045
	L29.351,41.522z M34.27,46.001c-0.044-0.25-0.062-0.556-0.062-0.866v-1.354c0-0.719-0.263-1.472-1.374-1.472
	c-0.453,0-0.885,0.124-1.183,0.312l0.149,0.441c0.255-0.166,0.604-0.274,0.944-0.274c0.735,0,0.819,0.538,0.819,0.836v0.074
	c-1.4-0.009-2.176,0.473-2.176,1.352c0,0.521,0.372,1.033,1.107,1.033c0.513,0,0.902-0.257,1.1-0.538h0.025l0.049,0.456H34.27z
	 M33.583,44.783c0,0.066-0.018,0.141-0.043,0.207c-0.107,0.306-0.407,0.604-0.869,0.604c-0.34,0-0.622-0.197-0.622-0.618
	c0-0.704,0.813-0.831,1.534-0.822V44.783z M35.268,46.001h0.664v-5.297h-0.664V46.001z M42.026,45.321
	c-0.267,0.124-0.672,0.207-1.061,0.207c-1.225,0-1.938-0.785-1.938-2.019c0-1.326,0.787-2.079,1.961-2.079
	c0.424,0,0.771,0.092,1.02,0.207l0.156-0.531c-0.174-0.085-0.572-0.222-1.191-0.222c-1.564,0-2.633,1.067-2.633,2.65
	c0,1.646,1.068,2.539,2.482,2.539c0.612,0,1.094-0.113,1.334-0.239L42.026,45.321z M45.772,44.312c0-0.066,0.018-0.167,0.018-0.307
	c0-0.661-0.314-1.695-1.488-1.695c-1.051,0-1.697,0.851-1.697,1.944s0.661,1.82,1.78,1.82c0.569,0,0.968-0.113,1.2-0.224
	l-0.117-0.472c-0.238,0.108-0.53,0.192-0.991,0.192c-0.665,0-1.226-0.363-1.243-1.26H45.772z M43.242,43.84
	c0.049-0.457,0.338-1.066,1.007-1.066c0.74,0,0.914,0.652,0.914,1.066H43.242z M46.61,46.001h0.654v-2.168
	c0-0.117,0.018-0.224,0.041-0.306c0.117-0.373,0.447-0.678,0.887-0.678c0.621,0,0.836,0.485,0.836,1.066v2.085h0.653V43.84
	c0-1.231-0.779-1.53-1.274-1.53c-0.596,0-1.02,0.329-1.191,0.68h-0.017l-0.044-0.597h-0.577c0.025,0.298,0.032,0.604,0.032,0.978
	V46.001z M50.875,41.522v0.87H50.31v0.495h0.565v1.971c0,0.429,0.065,0.744,0.245,0.945c0.157,0.171,0.407,0.271,0.713,0.271
	c0.258,0,0.456-0.031,0.578-0.091l-0.021-0.487c-0.084,0.02-0.218,0.04-0.381,0.04c-0.372,0-0.499-0.249-0.499-0.704v-1.944h0.945
	v-0.495H51.51v-1.045L50.875,41.522z M55.792,46.001c-0.041-0.25-0.058-0.556-0.058-0.866v-1.354c0-0.719-0.275-1.472-1.375-1.472
	c-0.454,0-0.894,0.124-1.194,0.312l0.148,0.441c0.259-0.166,0.609-0.274,0.946-0.274c0.735,0,0.818,0.538,0.818,0.836v0.074
	c-1.388-0.009-2.167,0.473-2.167,1.352c0,0.521,0.372,1.033,1.1,1.033c0.521,0,0.902-0.257,1.11-0.538h0.021l0.055,0.456H55.792z
	 M55.094,44.783c0,0.066-0.017,0.141-0.031,0.207c-0.108,0.306-0.405,0.604-0.879,0.604c-0.338,0-0.621-0.197-0.621-0.618
	c0-0.704,0.816-0.831,1.531-0.822V44.783z M56.792,46.001h0.645V44.07c0-0.106,0.018-0.215,0.035-0.307
	c0.091-0.486,0.411-0.838,0.875-0.838c0.093,0,0.157,0.003,0.224,0.02v-0.621c-0.058-0.008-0.106-0.015-0.18-0.015
	c-0.438,0-0.837,0.308-1.003,0.784h-0.034l-0.015-0.701h-0.581c0.025,0.329,0.034,0.693,0.034,1.126V46.001z M65.202,46.001h0.638
	l-0.314-5.034h-0.828L63.804,43.4c-0.224,0.639-0.406,1.194-0.529,1.697h-0.026c-0.122-0.521-0.297-1.076-0.503-1.697l-0.862-2.434
	h-0.827l-0.354,5.034h0.617l0.145-2.161c0.039-0.754,0.076-1.6,0.088-2.217h0.018c0.14,0.596,0.349,1.239,0.58,1.953l0.82,2.396
	h0.486l0.896-2.438c0.246-0.696,0.464-1.325,0.627-1.912h0.026c-0.009,0.617,0.039,1.463,0.074,2.167L65.202,46.001z M69.461,46.001
	c-0.046-0.25-0.063-0.556-0.063-0.866v-1.354c0-0.719-0.263-1.472-1.373-1.472c-0.456,0-0.886,0.124-1.183,0.312l0.148,0.441
	c0.258-0.166,0.604-0.274,0.944-0.274c0.736,0,0.819,0.538,0.819,0.836v0.074c-1.4-0.009-2.179,0.473-2.179,1.352
	c0,0.521,0.372,1.033,1.11,1.033c0.513,0,0.902-0.257,1.099-0.538h0.026l0.049,0.456H69.461z M68.772,44.783
	c0,0.066-0.018,0.141-0.043,0.207c-0.105,0.306-0.407,0.604-0.867,0.604c-0.342,0-0.622-0.197-0.622-0.618
	c0-0.704,0.81-0.831,1.532-0.822V44.783z M70.458,46.001h0.654V44.07c0-0.106,0.018-0.215,0.024-0.307
	c0.091-0.486,0.423-0.838,0.886-0.838c0.093,0,0.159,0.003,0.225,0.02v-0.621c-0.057-0.008-0.117-0.015-0.192-0.015
	c-0.438,0-0.835,0.308-0.994,0.784h-0.03l-0.026-0.701h-0.569c0.017,0.329,0.023,0.693,0.023,1.126V46.001z M75.932,42.393h-0.665
	v2.209c0,0.124-0.017,0.239-0.056,0.339c-0.115,0.29-0.422,0.596-0.871,0.596c-0.596,0-0.801-0.463-0.801-1.15v-1.993h-0.653v2.111
	c0,1.265,0.678,1.579,1.239,1.579c0.647,0,1.028-0.381,1.201-0.669h0.007l0.043,0.587h0.579c-0.02-0.281-0.023-0.613-0.023-0.985
	V42.393z M76.768,45.826c0.246,0.148,0.615,0.248,1.008,0.248c0.861,0,1.359-0.445,1.359-1.084c0-0.539-0.322-0.846-0.952-1.082
	c-0.474-0.184-0.688-0.316-0.688-0.613c0-0.275,0.215-0.498,0.604-0.498c0.342,0,0.596,0.126,0.735,0.205L79,42.533
	c-0.196-0.126-0.521-0.224-0.884-0.224c-0.779,0-1.251,0.47-1.251,1.061c0,0.429,0.306,0.783,0.962,1.016
	c0.478,0.183,0.67,0.357,0.67,0.673c0,0.298-0.224,0.533-0.704,0.533c-0.332,0-0.671-0.138-0.867-0.262L76.768,45.826z
	 M78.223,41.895l0.704-1.067h-0.486l-0.448,0.712h-0.008l-0.449-0.712h-0.504l0.722,1.067H78.223z M80.301,40.958
	c-0.24,0-0.404,0.184-0.404,0.416c0,0.223,0.155,0.406,0.387,0.406c0.267,0,0.434-0.184,0.425-0.406
	C80.708,41.142,80.55,40.958,80.301,40.958z M80.633,46.001v-3.608h-0.66v3.608H80.633z M84.183,45.37
	c-0.18,0.084-0.43,0.184-0.802,0.184c-0.722,0-1.26-0.512-1.26-1.349c0-0.753,0.447-1.366,1.279-1.366
	c0.361,0,0.609,0.084,0.762,0.163l0.152-0.503c-0.181-0.092-0.53-0.183-0.914-0.183c-1.178,0-1.939,0.804-1.939,1.912
	c0,1.11,0.712,1.846,1.794,1.846c0.489,0,0.87-0.113,1.045-0.206L84.183,45.37z M83.43,40.827l-0.653,1.067h0.472l0.912-1.067H83.43
	z"/>
</svg>
