<?xml version="1.0" encoding="utf-8"?>
<!-- Generator: Adobe Illustrator 16.0.0, SVG Export Plug-In . SVG Version: 6.00 Build 0)  -->
<!DOCTYPE svg PUBLIC "-//W3C//DTD SVG 1.1//EN" "http://www.w3.org/Graphics/SVG/1.1/DTD/svg11.dtd">
<svg version="1.1" id="Layer_1" xmlns="http://www.w3.org/2000/svg" xmlns:xlink="http://www.w3.org/1999/xlink" x="0px" y="0px"
	 width="100px" height="86.603px" viewBox="0 0 100 86.603" enable-background="new 0 0 100 86.603" xml:space="preserve">
<polygon fill-rule="evenodd" clip-rule="evenodd" fill="#507F9F" points="25.001,86.604 0,43.302 25.001,0 75.003,0 100.001,43.302 
	75.003,86.604 "/>
<g>
	<path fill-rule="evenodd" clip-rule="evenodd" fill="#FFFFFF" d="M58.153,35.463c0,0.891,0,1.783,0,2.732
		c-1.659,0-3.181-0.006-4.701,0.005c-0.646,0.007-1.301,0.002-1.931,0.107c-1.918,0.315-2.924,1.68-2.756,3.759
		c3.067,0,6.146,0,9.277,0c0,0.933,0,1.772,0,2.662c-3.11,0-6.174,0-9.296,0c0,2.171,0,4.292,0,6.412c-1.085,0-2.173,0-3.261,0
		c0.01-3.024-0.016-6.044,0.045-9.068c0.016-0.926,0.198-1.868,0.43-2.765c0.553-2.157,2.108-3.2,4.208-3.568
		c0.569-0.098,1.141-0.182,1.711-0.275C53.97,35.463,56.061,35.463,58.153,35.463z"/>
	<path fill-rule="evenodd" clip-rule="evenodd" fill="#FFFFFF" d="M80.593,51.14c-0.086-0.043-0.178-0.104-0.279-0.126
		c-1.729-0.421-2.558-1.497-2.517-3.287c0.032-1.897,0.894-3.017,2.643-3.326c0.774-0.138,1.579-0.139,2.371-0.162
		c0.809-0.029,1.63,0.018,2.438-0.02c0.374-0.014,0.905-0.04,1.081-0.273c0.277-0.364-0.19-1.378-0.723-1.57
		c-0.589-0.215-1.237-0.351-1.867-0.371c-1.458-0.055-2.92-0.02-4.383-0.02c-0.231,0-0.455,0-0.725,0c0-0.786,0-1.502,0-2.251
		c0.148-0.023,0.287-0.069,0.425-0.067c2.231,0.023,4.466-0.002,6.701,0.087c1.951,0.077,3.239,1.277,3.608,3.2
		c0.021,0.139,0.092,0.275,0.134,0.409c0,2.592,0,5.186,0,7.778C86.529,51.14,83.565,51.14,80.593,51.14z M86.373,46.487
		c-1.494,0-2.93-0.003-4.369,0.011c-0.19,0.003-0.408,0.102-0.578,0.207c-0.522,0.29-0.57,0.786-0.521,1.308
		c0.057,0.486,0.37,0.756,0.833,0.792c0.704,0.059,1.407,0.071,2.117,0.085c0.824,0.015,1.66,0.003,2.518,0.003
		C86.373,48.053,86.373,47.306,86.373,46.487z"/>
	<path fill-rule="evenodd" clip-rule="evenodd" fill="#FFFFFF" d="M65.423,51.14c0.01-3.548,0.021-7.096,0.027-10.644
		c0-0.249,0-0.493,0-0.712c0.071-0.042,0.086-0.06,0.107-0.059c2.555,0.052,5.127-0.007,7.671,0.21
		c1.529,0.133,2.474,1.335,2.575,2.884c0.104,1.748,0.079,3.506,0.111,5.254c0.021,1.024,0.031,2.042,0.047,3.067
		c-1.005,0-2.006,0-3.011,0c0-2.131,0.006-4.263,0-6.392c0-0.54-0.039-1.08-0.099-1.62c-0.07-0.617-0.444-1.002-1.063-1.041
		c-0.999-0.062-2.001-0.084-3.005-0.077c-0.127,0.001-0.357,0.313-0.358,0.484c-0.014,2.88-0.002,5.764,0.006,8.645
		C67.43,51.14,66.426,51.14,65.423,51.14z"/>
	<path fill-rule="evenodd" clip-rule="evenodd" fill="#FFFFFF" d="M38.716,51.14c0-2.979,0-5.957,0-8.985c1.546,0,3.037,0,4.636,0
		c0,2.998,0,5.989,0,8.985C41.806,51.14,40.26,51.14,38.716,51.14z"/>
	<path fill-rule="evenodd" clip-rule="evenodd" fill="#FFFFFF" d="M60.159,51.14c0.005-3.527,0.016-7.049,0.027-10.576
		c0.001-0.269,0.001-0.537,0.001-0.889c0.977,0,1.907-0.02,2.838,0.027c0.115,0.007,0.3,0.399,0.302,0.611
		c0.018,2.63,0.015,5.259,0.007,7.889c-0.002,0.981-0.027,1.958-0.044,2.938C62.247,51.14,61.204,51.14,60.159,51.14z"/>
	<path fill-rule="evenodd" clip-rule="evenodd" fill="#FFFFFF" d="M33.32,51.14c-0.001-2.798,0.014-5.59-0.009-8.388
		c-0.006-0.525,0.159-0.689,0.671-0.663c0.728,0.039,1.46,0.039,2.189,0c0.516-0.026,0.681,0.138,0.675,0.663
		c-0.023,2.798-0.014,5.59-0.015,8.388C35.665,51.14,34.492,51.14,33.32,51.14z"/>
	<path fill-rule="evenodd" clip-rule="evenodd" fill="#FFFFFF" d="M28.684,51.14c0-2.978,0-5.955,0-8.983c0.923,0,1.78,0,2.756,0
		c0,2.999,0,5.988,0,8.983C30.522,51.14,29.603,51.14,28.684,51.14z"/>
	<path fill-rule="evenodd" clip-rule="evenodd" fill="#FFFFFF" d="M24.793,51.14c0-2.98,0-5.96,0-9.029
		c0.617,0,1.177-0.032,1.725,0.024c0.117,0.014,0.281,0.36,0.281,0.555c0.02,2.002,0.012,4.005,0.01,6.007
		c0,0.815-0.006,1.629-0.01,2.443C26.134,51.14,25.464,51.14,24.793,51.14z"/>
	<path fill-rule="evenodd" clip-rule="evenodd" fill="#FFFFFF" d="M21.282,51.14c0.013-2.735,0.025-5.47,0.039-8.205
		c0-0.248,0-0.496,0-0.787c0.526,0,0.998,0,1.593,0c0,2.995,0,5.994,0,8.991C22.37,51.14,21.826,51.14,21.282,51.14z"/>
	<path fill-rule="evenodd" clip-rule="evenodd" fill="#FFFFFF" d="M18.272,51.14c0-2.982,0-5.963,0-8.976
		c0.196-0.025,0.338-0.04,0.475-0.063c0.505-0.076,0.693,0.108,0.684,0.645c-0.029,1.774-0.004,3.549-0.008,5.324
		c-0.002,1.025-0.014,2.045-0.02,3.071C19.027,51.14,18.653,51.14,18.272,51.14z"/>
	<path fill-rule="evenodd" clip-rule="evenodd" fill="#FFFFFF" d="M63.29,35.463c0.015,0.813,0.041,1.625,0.03,2.438
		c-0.002,0.134-0.184,0.367-0.294,0.371c-0.932,0.034-1.861,0.02-2.867,0.02c0-0.997,0-1.913,0-2.828
		C61.204,35.463,62.247,35.463,63.29,35.463z"/>
	<path fill-rule="evenodd" clip-rule="evenodd" fill="#FFFFFF" d="M15.516,51.14c0-2.979,0-5.959,0-8.984c0.288,0,0.523,0,0.876,0
		c0,2.992,0,5.987,0,8.984C16.102,51.14,15.807,51.14,15.516,51.14z"/>
	<path fill-rule="evenodd" clip-rule="evenodd" fill="#FFFFFF" d="M12.881,51.14c0.019-1.252,0.04-2.499,0.047-3.75
		c0.01-1.586,0.014-3.173-0.005-4.758c-0.005-0.451,0.141-0.625,0.713-0.433c0,2.952,0,5.944,0,8.941
		C13.383,51.14,13.135,51.14,12.881,51.14z"/>
	<path fill-rule="evenodd" clip-rule="evenodd" fill="#FFFFFF" d="M10.5,42.111c0.289-0.024,0.549-0.023,0.546,0.39
		c-0.021,2.877-0.029,5.758-0.044,8.639c-0.169,0-0.333,0-0.501,0C10.5,48.13,10.5,45.12,10.5,42.111z"/>
</g>
</svg>
