<?xml version="1.0" encoding="utf-8"?>
<!-- Generator: Adobe Illustrator 16.0.0, SVG Export Plug-In . SVG Version: 6.00 Build 0)  -->
<!DOCTYPE svg PUBLIC "-//W3C//DTD SVG 1.1//EN" "http://www.w3.org/Graphics/SVG/1.1/DTD/svg11.dtd">
<svg version="1.1" id="Layer_1" xmlns="http://www.w3.org/2000/svg" xmlns:xlink="http://www.w3.org/1999/xlink" x="0px" y="0px"
	 width="55.395px" height="66.009px" viewBox="0 0 55.395 66.009" enable-background="new 0 0 55.395 66.009" xml:space="preserve">
<g>
	<g>
		<path fill-rule="evenodd" clip-rule="evenodd" fill="none" d="M55.395,66.009c-18.156,0-36.381,0-54.625,0
			c0-21.706,0-43.411,0-65.188c18.157,0,36.333,0,54.625,0C55.395,22.502,55.395,44.256,55.395,66.009z M18.937,62.14
			c-0.148-1.311,0.008-2.262-0.371-2.894c-1.984-3.313-1.806-6.709-0.374-10.048c3.523-8.217,9.369-14.558,16.253-20.127
			c5.376-4.35,11.112-8.5,15.534-13.716c4.925-5.809,2.076-10.938-5.634-11.694C34.688,2.713,27.32,6.332,22.778,14.379
			c-2.795-2.366-5.242-5.029-8.221-6.793c-2.986-1.768-6.619-1.879-9.591,0.309c-3.105,2.285-3.13,5.798-2.493,9.23
			c0.317,1.701,0.825,3.44,1.623,4.966c3.468,6.633,7.064,13.198,10.645,19.771c0.327,0.6,0.871,1.079,1.313,1.614
			c0.042-1.069-0.331-1.845-0.711-2.615c-3.479-7.05-7.108-14.03-10.386-21.173c-1.975-4.304-1.057-8.509,1.631-10.222
			c2.97-1.893,8.03-1.213,11.041,1.877c1.834,1.883,3.174,4.249,4.819,6.513c0.604-1.124,1.196-2.335,1.884-3.491
			c4.106-6.897,13.474-10.657,21.126-8.504c4.358,1.225,5.293,3.553,2.471,7.094c-1.77,2.219-4.024,4.071-6.172,5.962
			c-5.323,4.69-11.064,8.965-15.979,14.042c-5.753,5.943-10.771,12.578-10.796,21.542C14.974,57.502,15.748,60.097,18.937,62.14z"/>
		<path fill-rule="evenodd" clip-rule="evenodd" d="M18.937,62.14c-3.189-2.043-3.963-4.638-3.955-7.637
			c0.025-8.965,5.043-15.6,10.796-21.542c4.915-5.078,10.656-9.353,15.979-14.042c2.147-1.891,4.402-3.744,6.172-5.962
			c2.822-3.541,1.888-5.869-2.471-7.094c-7.652-2.153-17.02,1.607-21.126,8.504c-0.688,1.155-1.28,2.367-1.884,3.491
			c-1.646-2.265-2.985-4.63-4.819-6.513c-3.011-3.09-8.071-3.77-11.041-1.877c-2.688,1.713-3.606,5.918-1.631,10.222
			c3.277,7.143,6.906,14.124,10.386,21.173c0.38,0.771,0.753,1.546,0.711,2.615c-0.443-0.535-0.987-1.015-1.313-1.614
			C11.16,35.289,7.563,28.724,4.096,22.091c-0.798-1.525-1.306-3.265-1.623-4.966c-0.637-3.432-0.613-6.945,2.493-9.23
			c2.972-2.188,6.605-2.076,9.591-0.309c2.979,1.764,5.426,4.427,8.221,6.793C27.32,6.332,34.688,2.713,44.347,3.661
			c7.71,0.756,10.559,5.885,5.634,11.694c-4.422,5.217-10.158,9.367-15.534,13.716c-6.885,5.57-12.73,11.911-16.253,20.127
			c-1.432,3.339-1.61,6.734,0.374,10.048C18.945,59.878,18.789,60.829,18.937,62.14z"/>
	</g>
</g>
</svg>
