<?xml version="1.0" encoding="utf-8"?>
<!-- Generator: Adobe Illustrator 16.0.0, SVG Export Plug-In . SVG Version: 6.00 Build 0)  -->
<!DOCTYPE svg PUBLIC "-//W3C//DTD SVG 1.1//EN" "http://www.w3.org/Graphics/SVG/1.1/DTD/svg11.dtd">
<svg version="1.1" id="obrtnicka_xA0_Image_1_" xmlns="http://www.w3.org/2000/svg" xmlns:xlink="http://www.w3.org/1999/xlink"
	 x="0px" y="0px" width="100px" height="86.604px" viewBox="0 0 100 86.604" enable-background="new 0 0 100 86.604"
	 xml:space="preserve">
<polygon fill-rule="evenodd" clip-rule="evenodd" fill="#507F9F" points="25.001,86.604 0,43.302 25.001,0 75.002,0 100,43.302 
	75.002,86.604 "/>
<g>
	<path fill-rule="evenodd" clip-rule="evenodd" fill="#FFFFFF" d="M17.516,52.148c-2.079-0.577-3.769-1.778-5.244-3.307
		c-0.5-0.519-1.014-1.038-1.307-1.719c-0.217-0.317-0.279-0.732-0.612-0.978c-0.167-0.183-0.297-0.382-0.321-0.636
		c-0.131-0.191-0.106-0.458-0.295-0.622c-0.041-0.033-0.052-0.075-0.035-0.125c-0.113-0.268-0.027-0.607-0.298-0.817
		c-1.329-4-0.742-7.739,1.532-11.247c0.092-0.142,0.21-0.267,0.316-0.399c0.165-0.134,0.264-0.335,0.451-0.444
		c0.266-0.298,0.685-0.456,0.815-0.88c0-0.162,0.069-0.292,0.189-0.396c1.14-0.146,1.152-0.131,1.02,1.112
		c-0.122,0.646-0.703,0.907-1.102,1.321c-0.256,0.172-0.346,0.437-0.397,0.723c-0.872,1.573-1.523,3.224-1.771,5.018
		c-0.01,0.073-0.081,0.129-0.143,0.174c-0.189,0.609-0.08,2.284,0.199,2.995c0.383,1.284,0.869,2.531,1.352,3.778
		c0.079,0.282,0.214,0.523,0.483,0.67c1.042,1.211,2.08,2.415,3.515,3.206c0.829,0.457,1.735,0.738,2.554,1.209
		c0.277,0.265,0.638,0.168,0.965,0.219c0.124,0.017,0.242,0.051,0.355,0.103c0.693,0.337,1.43,0.117,2.145,0.17
		c0.387,0.027,0.777,0.003,1.165,0.007c0.277,0.009,0.555,0.018,0.787-0.179c0.072-0.04,0.148-0.068,0.227-0.088
		c0.563-0.078,1.13-0.045,1.694-0.044c0.112-0.021,0.235,0.099,0.333-0.01c0.018-0.02-0.081-0.119-0.095-0.2
		c0.187-0.57,0.734-0.477,1.144-0.576c0.264-0.064,0.31,0.218,0.213,0.433c-0.128,0.282-0.184,0.586-0.295,0.873
		c-0.043,0.119-0.117,0.22-0.2,0.313l-0.037,0.038l-0.051-0.011c-0.245,0.064-0.51,0.077-0.698,0.281l-0.049,0.037l-0.061-0.009
		c-0.276,0.1-0.61,0.026-0.834,0.28c-0.084,0.012-0.169,0.024-0.253,0.037c-0.477,0.174-1.018,0.02-1.477,0.286
		c-0.081,0.01-0.162,0.019-0.243,0.028c-0.939,0.095-1.878,0.094-2.817,0c-0.684,0.04-1.333-0.112-1.968-0.347
		C18.12,52.222,17.799,52.242,17.516,52.148z"/>
	<path fill-rule="evenodd" clip-rule="evenodd" fill="#FFFFFF" d="M27.831,28.522c2.922,1.5,4.917,3.828,6.087,6.874
		c0.354,0.923,0.662,1.869,0.662,2.879c-0.034,0.014-0.067,0.027-0.101,0.042c-0.562-0.344-0.373-1.033-0.682-1.496
		c-0.104-0.154-0.025-0.436-0.325-0.444c-0.395,0.154,0.134,0.561-0.201,0.729c-0.182,0.101-0.368,0.098-0.557,0.027
		c-0.285-0.146-0.37-0.428-0.463-0.698c-0.899-2.625-2.543-4.648-4.911-6.09c-0.22-0.134-0.472-0.238-0.581-0.503
		c-0.03-0.113-0.022-0.223,0.033-0.327c0.137-0.14,0.718-0.035,0.269-0.5c-0.133-0.137-0.192-0.313-0.081-0.502
		c0.087-0.066,0.184-0.084,0.289-0.064c0.127,0.043,0.248,0.184,0.393,0.031C27.725,28.474,27.78,28.488,27.831,28.522z"/>
	<path fill-rule="evenodd" clip-rule="evenodd" fill="#FFFFFF" d="M27.015,28.532c-0.003,0.234,0.123,0.411,0.304,0.52
		c0.251,0.151,0.207,0.273,0.068,0.491c-0.254,0.399-0.364,0.017-0.53-0.065c-0.145,0.149-0.321,0.169-0.513,0.126
		c-0.071-0.02-0.137-0.051-0.2-0.089c-0.201-0.169-0.463-0.189-0.696-0.28c-2.917-0.968-5.798-0.895-8.64,0.299
		c-0.103,0.117-0.198,0.24-0.309,0.35c-0.289,0.239-0.603,0.418-0.995,0.406c-0.454-0.005-0.502-0.313-0.55-0.674
		c-0.048-0.367-0.031-0.667,0.347-0.836c0.143-0.064,0.276-0.134,0.366-0.268l0.001,0.001c0.201-0.09,0.404-0.161,0.622-0.105
		c0.047,0.008,0.082,0.04,0.097,0.091c0.044-0.029,0.045-0.068,0.004-0.121c0.06-0.31,0.422-0.252,0.557-0.467
		c1.598-0.731,3.278-1.022,5.029-0.932c0.736,0.275,1.527,0.099,2.275,0.276c0.765,0.03,1.468,0.276,2.145,0.616
		C26.562,28.13,26.97,28.163,27.015,28.532z"/>
	<path fill-rule="evenodd" clip-rule="evenodd" fill="#FFFFFF" d="M26.857,51.498c0.089-0.394,0.18-0.787,0.363-1.184
		c-0.313,0.359-0.945-0.015-1.149,0.554c-0.092,0.085-0.109,0.207-0.157,0.314c-0.683-0.005-1.366-0.011-2.049-0.017
		c0.058-0.393,0.412-0.351,0.66-0.418c2.846-0.773,5.034-2.425,6.614-4.902c0.126-0.197,0.244-0.403,0.463-0.518
		c0.407,0.09,0.534-0.248,0.731-0.48c0.068-0.041,0.141-0.064,0.219-0.074c0.783,0.306,0.351,0.814,0.214,1.273
		c-0.075,0.148-0.226,0.175-0.377,0.223c0.15,0.025,0.232-0.063,0.317-0.146c0.104-0.073,0.208-0.064,0.313,0
		c0.037,0.072,0.034,0.142-0.015,0.208c-0.144,0.405-0.389,0.747-0.668,1.068c-0.294,0.188-0.471,0.485-0.69,0.744
		c-0.233,0.277-0.73,0.345-0.676,0.851l-0.004,0.003c-0.314,0.104-0.489,0.35-0.639,0.622l0.004-0.003
		c-0.286,0.176-0.589,0.328-0.802,0.602c-0.604,0.54-1.235,1.036-2.023,1.285C27.287,51.602,27.071,51.653,26.857,51.498z"/>
	<path fill-rule="evenodd" clip-rule="evenodd" fill="#FFFFFF" d="M77.496,51.256c0.367-0.242,0.639-0.509,0.518-1.023
		c-0.119-0.503-0.479-0.649-0.902-0.745c-0.331-0.074-0.671-0.116-0.995-0.215c-0.597-0.18-1.009-0.525-1.026-1.218
		c-0.017-0.69,0.2-1.228,0.86-1.534c0.955-0.443,2.051-0.165,2.455,0.657c0.101,0.205,0.402,0.484,0.077,0.675
		c-0.259,0.151-0.526,0.023-0.681-0.313c-0.246-0.539-0.757-0.621-1.271-0.551c-0.398,0.054-0.732,0.225-0.766,0.736
		c-0.031,0.488,0.205,0.744,0.618,0.867c0.449,0.134,0.919,0.202,1.367,0.338c0.645,0.195,1.026,0.643,1.017,1.326
		c-0.011,0.658-0.236,1.229-0.9,1.521c-1.043,0.459-2.156,0.187-2.641-0.66c-0.096-0.166-0.281-0.389-0.039-0.534
		c0.155-0.094,0.438-0.124,0.554,0.116c0.149,0.31,0.444,0.433,0.687,0.625C76.793,51.457,77.157,51.55,77.496,51.256z"/>
	<path fill-rule="evenodd" clip-rule="evenodd" fill="#FFFFFF" d="M32.681,37.026c0.208,0,0.417,0,0.625,0
		c0.086,0.095,0.099,0.206,0.072,0.325c-0.19,0.309-0.188,0.581,0.137,0.81c0.244,0.172,0.327,0.442,0.215,0.694
		c-0.401,0.901-0.14,1.67,0.449,2.422c0.241-0.56,0.198-1.119,0.108-1.687c-0.073-0.464-0.174-0.938,0.264-1.301l0.028-0.017
		c0.363,2.178,0.137,4.283-0.784,6.302c-0.062,0.055-0.132,0.071-0.211,0.052c-0.274-0.166-0.515-0.354-0.49-0.724
		c0.77-0.575,0.194-1.341,0.262-1.688c0.139,0.829-0.438,1.748-0.994,2.675c-0.211,0.124-0.29,0.617-0.681,0.245
		c-0.034-0.33,0.115-0.615,0.234-0.903c0.827-1.987,1.066-4.036,0.688-6.159C32.543,37.728,32.381,37.355,32.681,37.026z"/>
	<path fill-rule="evenodd" clip-rule="evenodd" fill="#FFFFFF" d="M55.661,41.548c0.392,0.234,0.428,0.75,0.862,1.063
		c0.156-0.591,0.01-1.155,0.09-1.695c0.048-0.316-0.298-0.896,0.399-0.874c0.687,0.021,0.325,0.595,0.347,0.901
		c0.056,0.805,0.029,1.615,0.015,2.423c-0.004,0.234,0.138,0.56-0.229,0.658c-0.363,0.097-0.575-0.105-0.74-0.416
		c-0.304-0.57-0.633-1.127-0.952-1.689C55.485,41.773,55.5,41.62,55.661,41.548z"/>
	<path fill-rule="evenodd" clip-rule="evenodd" fill="#FFFFFF" d="M60.358,42.688c0.203,0.266,0.325,0.599,0.643,0.768
		c0.256,0.151,0.508,0.18,0.754-0.021c0.061-0.033,0.12-0.065,0.181-0.098c0.129,0.093,0.301,0.137,0.355,0.314
		c-0.986,0.812-2.222,0.397-2.575-0.863c-0.325-1.16,0.069-2.248,0.95-2.618c0.482-0.12,0.965-0.11,1.448-0.006
		c0.249,0.231,0.66,0.281,0.762,0.679c0.048,0.515-0.296,0.317-0.542,0.298c-0.082-0.11-0.165-0.221-0.248-0.331
		c-0.365-0.444-0.82-0.229-1.255-0.173c-0.299,0.183-0.444,0.458-0.484,0.797C60.243,41.854,60.226,42.271,60.358,42.688z"/>
	<path fill-rule="evenodd" clip-rule="evenodd" fill="#FFFFFF" d="M66.7,40.358c-0.029,0.041-0.053,0.091-0.091,0.123
		c-1.273,1.086-1.273,1.085-0.308,2.351c0.156,0.206,0.308,0.417,0.451,0.632c0.117,0.174,0.404,0.351,0.089,0.568
		c-0.271,0.187-0.508,0.001-0.663-0.201c-0.282-0.366-0.524-0.765-0.783-1.149c-0.138-0.241-0.178-0.691-0.619-0.294v-0.001
		c-0.401,0.171-0.615-0.114-0.851-0.349c0.026-0.629-0.106-1.262,0.049-1.888c0.466,0.044,0.532,0.363,0.562,0.751
		c0.021,0.278-0.16,0.604,0.147,0.834c0.49-0.529,0.98-1.058,1.47-1.587C66.379,40.104,66.638,39.975,66.7,40.358z"/>
	<path fill-rule="evenodd" clip-rule="evenodd" fill="#FFFFFF" d="M83.791,43.973c-0.928-0.014-1.197-0.707-1.383-1.414
		c-0.229-0.871,0.129-1.93,0.777-2.293c0.725-0.407,1.477-0.449,2.178,0.103c-0.009,0.237,0.029,0.491-0.222,0.646
		c-0.078,0.006-0.155,0.002-0.229-0.02c-0.503-0.147-1.032-0.324-1.406,0.212c-0.387,0.554-0.396,1.154-0.043,1.744
		c0.079,0.133,0.183,0.249,0.261,0.384c0.037,0.065,0.065,0.134,0.09,0.205C83.851,43.687,83.896,43.834,83.791,43.973z"/>
	<path fill-rule="evenodd" clip-rule="evenodd" fill="#FFFFFF" d="M85.847,51.797c-0.515-0.043-1.062,0.239-1.541-0.155
		c0.1-1.465,0.009-2.932,0.051-4.397c0.008-0.246-0.177-0.662,0.281-0.678c0.539-0.018,0.312,0.447,0.327,0.708
		c0.072,1.248-0.101,2.504,0.099,3.75c0.26,0.362,0.641,0.001,0.935,0.156c0.313,0.171,0.653,0.046,0.979,0.084
		c0.155,0.018,0.324,0.019,0.33,0.228c0.007,0.213-0.162,0.223-0.318,0.237C86.609,51.765,86.221,51.658,85.847,51.797z"/>
	<path fill-rule="evenodd" clip-rule="evenodd" fill="#FFFFFF" d="M89.137,51.773c-0.205,0.073-0.409,0.069-0.614,0
		c-0.152-1.57-0.107-3.142-0.023-4.714c-0.406-0.889,0.233-0.595,0.64-0.565C89.275,48.254,89.277,50.014,89.137,51.773z"/>
	<path fill-rule="evenodd" clip-rule="evenodd" fill="#FFFFFF" d="M49.951,43.786c-0.016,0.43-0.313,0.219-0.501,0.205
		c-0.232-0.017-0.255-0.204-0.269-0.396c-0.024-0.351,0.088-0.723-0.153-1.042c-0.1-0.18-0.18-0.363-0.162-0.575
		c0.006-0.077,0.022-0.152,0.043-0.228c0.245-0.763,0.192-0.852-0.559-0.908c-0.229-0.018-0.459-0.007-0.684-0.067
		c-0.282-0.104-0.599-0.162-0.683-0.523c-0.008-0.037-0.017-0.074-0.025-0.111c0.724-0.224,1.468-0.152,2.19-0.054
		c0.517,0.07,0.778,0.507,0.843,1.029c-0.242,0.193-0.1,0.555-0.33,0.753c-0.589,0.404,0.142,0.509,0.176,0.771
		C49.984,43.012,49.814,43.413,49.951,43.786z"/>
	<path fill-rule="evenodd" clip-rule="evenodd" fill="#FFFFFF" d="M15.668,28.51c-0.289,0.393-0.717,0.682-0.511,1.329
		c0.102,0.32,0.26,0.23,0.422,0.289c-0.38,0.836-1.024,1.35-1.915,1.56c-0.049-0.056-0.153-0.139-0.14-0.165
		c0.472-0.964-0.338-0.809-0.816-0.943c0.412-0.437,0.881-0.8,1.41-1.086c0.103,0.052,0.186,0.146,0.312,0.152
		c-0.026-0.116-0.11-0.207-0.137-0.323C14.688,28.944,15.145,28.67,15.668,28.51z"/>
	<path fill-rule="evenodd" clip-rule="evenodd" fill="#FFFFFF" d="M58.16,41.987c-0.001-0.522,0.003-1.046-0.003-1.568
		c-0.002-0.24,0.048-0.399,0.342-0.397c0.285,0.001,0.44,0.08,0.438,0.397c-0.009,1.072-0.009,2.145-0.001,3.216
		c0.003,0.31-0.142,0.419-0.431,0.405c-0.267-0.012-0.354-0.151-0.349-0.405C58.167,43.086,58.16,42.536,58.16,41.987z"/>
	<path fill-rule="evenodd" clip-rule="evenodd" fill="#FFFFFF" d="M83.791,43.973c-0.046-0.121-0.093-0.243-0.139-0.365
		c0.243-0.302,0.67,0.013,0.918-0.273c0.745-0.632,0.543-1.516,0.62-2.324c0.016-0.225-0.131-0.494,0.173-0.642
		c0.826,0.475,0.963,1.958,0.521,2.735C85.441,43.884,84.748,44.209,83.791,43.973z"/>
	<path fill-rule="evenodd" clip-rule="evenodd" fill="#FFFFFF" d="M54.353,43.955c-0.346-0.904-0.106-1.842-0.123-2.761
		c-0.007-0.372-0.355-0.976,0.256-1.137c0.67-0.177,0.721,0.508,0.948,0.911c-0.067,0.177-0.137,0.352-0.273,0.49
		c-0.412,0.341-0.122,0.801-0.197,1.2c-0.078,0.414,0.125,0.855-0.108,1.26c-0.166-0.711-0.031-1.43-0.081-2.144
		c0.001,0.591,0.005,1.183-0.002,1.774C54.769,43.815,54.79,44.127,54.353,43.955z"/>
	<path fill-rule="evenodd" clip-rule="evenodd" fill="#FFFFFF" d="M79.553,42.381c-0.28,0.355-0.28,0.772-0.256,1.192
		c0.018,0.288-0.074,0.43-0.395,0.425c-0.31-0.004-0.323-0.179-0.323-0.406c0.004-1.045,0.001-2.091,0.003-3.137
		c0.001-0.21-0.016-0.421,0.304-0.429c0.307-0.008,0.43,0.116,0.412,0.416c-0.021,0.364-0.029,0.729-0.044,1.095
		C79.279,41.845,79.613,42.043,79.553,42.381z"/>
	<path fill-rule="evenodd" clip-rule="evenodd" fill="#FFFFFF" d="M52.55,40.656c-0.023,0.048-0.048,0.097-0.072,0.145
		c-0.152,0.819-0.002,1.646-0.071,2.467c-0.026,0.317,0.071,0.791-0.533,0.682l-0.011-0.006c-0.155-0.909-0.056-1.825-0.063-2.737
		c-0.002-0.438-0.06-0.716-0.589-0.65c-0.185,0.022-0.483,0.082-0.486-0.225c-0.002-0.311,0.294-0.228,0.484-0.23
		c0.603-0.011,1.206-0.008,1.809-0.002c0.2,0.002,0.439-0.051,0.493,0.249C53.31,40.82,52.813,40.373,52.55,40.656z"/>
	<path fill-rule="evenodd" clip-rule="evenodd" fill="#FFFFFF" d="M75.721,43.966c-0.445-0.004-0.777-0.169-0.896-0.635
		c-0.129-0.495,0.149-0.425,0.451-0.324c0.051,0.282,0.336,0.327,0.503,0.492c0.365,0.044,0.737,0.181,1.077-0.088
		c0.459-0.349,0.267-0.685-0.021-1.019c0.065-0.175,0.191-0.292,0.354-0.376c0.07-0.018,0.138-0.008,0.202,0.024
		c0.514,0.222,0.498,0.671,0.404,1.09c-0.115,0.519-0.448,0.848-1.027,0.835C76.419,44.058,76.07,44.056,75.721,43.966z"/>
	<path fill-rule="evenodd" clip-rule="evenodd" fill="#FFFFFF" d="M91.492,51.494c-0.025-0.051-0.024-0.101,0.003-0.15
		c0.169-1.208,0.135-2.416,0-3.625c-0.056-0.19-0.11-0.381-0.166-0.57c-0.049-0.063-0.068-0.135-0.064-0.213
		c0.037-0.155,0.111-0.285,0.254-0.366c0.187-0.038,0.374-0.024,0.562-0.015c0.158,0.058,0.228,0.188,0.273,0.336
		c0.011,0.078-0.011,0.146-0.063,0.204c-0.05,0.052-0.101,0.103-0.15,0.154c-0.211,1.166-0.027,2.341-0.087,3.511
		c-0.009,0.184,0.007,0.367-0.003,0.551C92.022,51.842,91.813,51.843,91.492,51.494z"/>
	<path fill-rule="evenodd" clip-rule="evenodd" fill="#FFFFFF" d="M87.994,43.963c-0.294-0.034-0.592,0.235-0.885-0.01
		c-0.188-1.158-0.04-2.324-0.081-3.486c-0.006-0.158,0.016-0.335,0.228-0.332c0.236,0.004,0.284,0.204,0.296,0.384
		c0.043,0.623,0.013,1.247,0.021,1.867c0.104,0.397-0.264,0.953,0.392,1.17c0.54,0.053,1.093-0.146,1.621,0.089
		c-0.048,0.329-0.248,0.4-0.54,0.321C88.695,44.054,88.344,44.061,87.994,43.963z"/>
	<path fill-rule="evenodd" clip-rule="evenodd" fill="#FFFFFF" d="M47.459,43.953c-0.25,0.084-0.597,0.206-0.59-0.193
		c0.022-1.206-0.156-2.419,0.09-3.619c0.019,0.022,0.037,0.046,0.054,0.07c0.126,1.023,0.001,2.053,0.069,3.078
		c0,0.105,0.175-0.01,0.072,0.01c-0.017,0.004-0.026-0.006-0.029-0.027c-0.091-0.69-0.043-1.384-0.05-2.075
		c-0.002-0.172-0.048-0.398,0.205-0.437c0.232-0.034,0.351,0.16,0.345,0.337c-0.014,0.437,0.302,0.829,0.152,1.276
		c-0.027,0.043-0.066,0.061-0.116,0.054C47.353,42.904,47.697,43.467,47.459,43.953z"/>
	<path fill-rule="evenodd" clip-rule="evenodd" fill="#FFFFFF" d="M85.064,51.024c-0.326-0.363-0.141-0.803-0.157-1.204
		c-0.031-0.785,0.012-1.573-0.021-2.357c-0.011-0.27,0.207-0.76-0.245-0.762c-0.371-0.001-0.202,0.469-0.206,0.726
		c-0.021,1.152-0.004,2.307-0.013,3.46c-0.002,0.254,0.081,0.528-0.116,0.755c-0.013-1.587-0.024-3.174-0.042-4.761
		c-0.003-0.263,0.031-0.443,0.369-0.449c0.343-0.006,0.455,0.119,0.451,0.453C85.068,48.265,85.07,49.645,85.064,51.024z"/>
	<path fill-rule="evenodd" clip-rule="evenodd" fill="#FFFFFF" d="M47.777,42.373c-0.396-0.411-0.284-0.983-0.446-1.482
		c-0.377,0.841,0.018,1.743-0.318,2.568c0-1.083,0-2.166,0-3.249c0.207,0.157,0.415,0.313,0.622,0.47
		c0.23,0.234,0.145,0.558,0.24,0.829c0.287,0.428,0.835,0.087,1.159,0.396c-0.002,0.216-0.004,0.433-0.007,0.648
		C48.644,42.267,48.192,42.446,47.777,42.373z"/>
	<path fill-rule="evenodd" clip-rule="evenodd" fill="#FFFFFF" d="M53.435,40.474c-0.023-0.179-0.118-0.285-0.305-0.285
		c-0.751-0.002-1.502-0.001-2.262-0.001c0.017,0.122,0.025,0.211,0.028,0.211c0.953-0.052,1.045,0.518,0.988,1.278
		c-0.057,0.752-0.019,1.511-0.022,2.267c-0.321-0.825-0.091-1.683-0.123-2.522c-0.02-0.517-0.037-0.888-0.7-0.78
		c-0.239,0.039-0.492,0.024-0.473-0.336c0.017-0.315,0.25-0.277,0.456-0.277c0.733-0.003,1.467,0,2.2-0.005
		c0.344-0.002,0.599,0.057,0.403,0.491C53.55,40.558,53.487,40.545,53.435,40.474z"/>
	<path fill-rule="evenodd" clip-rule="evenodd" fill="#FFFFFF" d="M77.181,42.071c0,0.232-0.153,0.298-0.347,0.321l-0.064,0.003
		l-0.053-0.036c-0.354-0.25-0.781-0.191-1.175-0.277c-0.821-0.219-1.033-0.655-0.694-1.432c0.407-0.088,0.322,0.278,0.431,0.467
		c0.036,0.124,0.009,0.282,0.18,0.335c0.222,0.25,0.555,0.174,0.825,0.28c0.145,0.015,0.289,0.029,0.434,0.044
		C76.845,41.916,77.059,41.922,77.181,42.071z"/>
	<path fill-rule="evenodd" clip-rule="evenodd" fill="#FFFFFF" d="M63.983,42.06c0.35-0.099,0.491,0.309,0.793,0.327
		c-0.243,0.331-0.257,0.712-0.226,1.099c0.023,0.277,0.011,0.525-0.353,0.545c-0.437,0.024-0.438-0.241-0.364-0.555
		C64.078,43.024,63.734,42.511,63.983,42.06z"/>
	<path fill-rule="evenodd" clip-rule="evenodd" fill="#FFFFFF" d="M75.279,41.117c-0.169-0.133-0.196-0.396-0.431-0.467
		c0.23-0.119,0.224-0.515,0.575-0.493c0.5-0.098,1-0.096,1.5-0.001c0.2,0.151,0.399,0.302,0.6,0.453
		c-0.077,0.531-0.39,0.285-0.654,0.197C75.951,40.378,75.614,40.443,75.279,41.117z"/>
	<path fill-rule="evenodd" clip-rule="evenodd" fill="#FFFFFF" d="M87.418,42.688c0-0.8,0-1.601,0-2.401
		c-0.104-0.003-0.206-0.007-0.31-0.01c0,1.226,0,2.451,0,3.677c-0.279-0.048-0.187-0.275-0.188-0.433
		c-0.009-0.987,0.005-1.974-0.004-2.961c-0.005-0.545,0.181-0.717,0.67-0.392c0.131,0.761,0.033,1.528,0.055,2.292
		C87.646,42.605,87.585,42.703,87.418,42.688z"/>
	<path fill-rule="evenodd" clip-rule="evenodd" fill="#FFFFFF" d="M81.429,40.317c-0.283,0.604-1.186,0.843-1.017,1.715
		c-0.37,0.073-0.37,0.073-0.584-0.646c0.31-0.458,0.652-0.887,1.09-1.231C81.111,40.14,81.364,39.934,81.429,40.317z"/>
	<path fill-rule="evenodd" clip-rule="evenodd" fill="#FFFFFF" d="M92.133,46.621c-0.21,0-0.42,0-0.629,0
		c-0.15,0.168-0.352,0.155-0.569,0.154c0.166,0.018,0.315,0.023,0.411,0.161c-0.006,0.07-0.012,0.141-0.018,0.212
		c-0.31-0.009-0.619-0.017-0.93-0.024c-0.228-0.006-0.473,0.041-0.482-0.324c-0.009-0.343,0.19-0.369,0.447-0.364
		c1.057,0.021,2.114,0.037,3.172,0.055C93.118,47.067,92.626,46.856,92.133,46.621z"/>
	<path fill-rule="evenodd" clip-rule="evenodd" fill="#FFFFFF" d="M89.137,51.773c0.001-1.76,0.001-3.52,0.002-5.279
		c0.258,1.301,0.066,2.615,0.103,3.923C89.254,50.865,89.389,51.34,89.137,51.773z"/>
	<path fill-rule="evenodd" clip-rule="evenodd" fill="#FFFFFF" d="M91.492,51.494c0.412,0.224,0.492,0.018,0.487-0.355
		c-0.014-1.126,0-2.253-0.029-3.378c-0.006-0.224-0.071-0.412,0.19-0.512c0.011,1.354,0.024,2.71,0.027,4.065
		c0.001,0.187,0.087,0.456-0.224,0.494C91.722,51.836,91.436,51.892,91.492,51.494z"/>
	<path fill-rule="evenodd" clip-rule="evenodd" fill="#FFFFFF" d="M88.5,47.06c0.008,1.571,0.016,3.143,0.023,4.714
		C88.315,50.203,88.365,48.632,88.5,47.06z"/>
	<path fill-rule="evenodd" clip-rule="evenodd" fill="#FFFFFF" d="M87.418,42.688c0.346-0.82,0.04-1.685,0.169-2.52
		c0.216,0.811,0.038,1.636,0.102,2.452c0.022,0.29-0.112,0.639,0.251,0.829c-0.034,0.1-0.142,0.114-0.208,0.177
		c-0.06,0.08-0.172,0.195-0.206,0.039C87.455,43.348,87.45,43.015,87.418,42.688z"/>
	<path fill-rule="evenodd" clip-rule="evenodd" fill="#FFFFFF" d="M51.874,43.949c0.432-0.106,0.47-0.455,0.458-0.801
		c-0.025-0.677,0.1-1.36-0.076-2.03c-0.055-0.21,0.04-0.287,0.223-0.317c0.008,0.899,0.007,1.8,0.025,2.699
		C52.514,43.983,52.359,44.186,51.874,43.949z"/>
	<path fill-rule="evenodd" clip-rule="evenodd" fill="#FFFFFF" d="M62.291,43.651c-0.197-0.017-0.343-0.09-0.355-0.314
		c0.059-0.048,0.127-0.089,0.176-0.146c0.172-0.199,0.213-0.552,0.595-0.5c0.204,0.027,0.242,0.192,0.218,0.341
		C62.864,43.38,62.727,43.676,62.291,43.651z"/>
	<path fill-rule="evenodd" clip-rule="evenodd" fill="#FFFFFF" d="M63.983,42.06c0.02,0.374-0.064,0.754,0.079,1.122
		c0.077,0.198-0.06,0.268-0.229,0.294c-0.011-1-0.027-2-0.025-3c0-0.146-0.107-0.385,0.19-0.409
		c0.046,0.026,0.061,0.054,0.045,0.079c-0.016,0.026-0.03,0.04-0.046,0.04C63.993,40.811,63.988,41.435,63.983,42.06z"/>
	<path fill-rule="evenodd" clip-rule="evenodd" fill="#FFFFFF" d="M80.926,42.691c0.175,0.262,0.351,0.522,0.525,0.783
		c-0.119,0.181-0.192,0.433-0.5,0.322c-0.183-0.229-0.407-0.431-0.481-0.732C80.34,42.596,80.529,42.516,80.926,42.691z"/>
	<path fill-rule="evenodd" clip-rule="evenodd" fill="#FFFFFF" d="M91.495,47.719c0.353,0.827,0.111,1.693,0.15,2.54
		c0.017,0.354,0.296,0.782-0.15,1.085C91.495,50.136,91.495,48.928,91.495,47.719z"/>
	<path fill-rule="evenodd" clip-rule="evenodd" fill="#FFFFFF" d="M79.829,41.387c0.222,0.054,0.381,0.152,0.315,0.424
		c-0.062,0.252,0.112,0.229,0.269,0.222c0.082,0.11,0.164,0.221,0.246,0.331c-0.024,0.417-0.322,0.139-0.489,0.192
		c-0.102-0.071-0.203-0.142-0.305-0.213c-0.661-0.29-0.235-0.625-0.039-0.951L79.829,41.387z"/>
	<path fill-rule="evenodd" clip-rule="evenodd" fill="#FFFFFF" d="M85.847,51.797c0.383-0.34,0.913,0.039,1.352-0.281
		c-0.345-0.392-0.896,0.045-1.2-0.335c0.361-0.009,0.723-0.016,1.085-0.029c0.266-0.011,0.366,0.112,0.356,0.374
		c-0.009,0.245-0.146,0.303-0.353,0.298C86.674,51.814,86.26,51.806,85.847,51.797z"/>
	<path fill-rule="evenodd" clip-rule="evenodd" fill="#FFFFFF" d="M92.133,46.621c0.466-0.063,0.956,0.14,1.402-0.131
		c0.215,0.095,0.17,0.274,0.146,0.447c-0.464,0.117-0.927,0.121-1.391-0.001C92.165,46.868,92.136,46.751,92.133,46.621z"/>
	<path fill-rule="evenodd" clip-rule="evenodd" fill="#FFFFFF" d="M54.353,43.955c0.378-0.04,0.345-0.323,0.345-0.585
		c0.001-0.594,0.001-1.188,0.157-1.779c0,0.775,0,1.552,0,2.328C54.702,44.117,54.529,44.063,54.353,43.955z"/>
	<path fill-rule="evenodd" clip-rule="evenodd" fill="#FFFFFF" d="M27.015,28.532c-0.229-0.198-0.608-0.258-0.616-0.663
		c0.532,0.097,1.01,0.314,1.432,0.652c-0.061,0.008-0.122,0.016-0.183,0.024c-0.109,0.086-0.215,0.079-0.318-0.012
		C27.225,28.534,27.12,28.533,27.015,28.532z"/>
	<path fill-rule="evenodd" clip-rule="evenodd" fill="#FFFFFF" d="M24.254,27.253c-0.576,0.006-1.152,0.015-1.728,0.018
		c-0.233,0.001-0.492,0.039-0.547-0.294c0.107,0.004,0.214,0.008,0.322,0.012c0.257,0.093,0.519,0.058,0.78,0.021
		C23.479,27.057,23.887,27.057,24.254,27.253z"/>
	<path fill-rule="evenodd" clip-rule="evenodd" fill="#FFFFFF" d="M30.968,48.995c-0.388-0.695,0.2-0.77,0.609-0.958
		c0.068,0.032,0.117,0.084,0.146,0.153C31.529,48.513,31.292,48.795,30.968,48.995z"/>
	<path fill-rule="evenodd" clip-rule="evenodd" fill="#FFFFFF" d="M63.998,40.186c-0.011-0.04-0.011-0.08,0.001-0.119
		c0.412-0.124,0.562,0.035,0.563,0.457c0.003,0.404-0.136,0.831,0.122,1.212c-0.255-0.085-0.253-0.305-0.228-0.502
		C64.512,40.785,64.342,40.451,63.998,40.186z"/>
	<path fill-rule="evenodd" clip-rule="evenodd" fill="#FFFFFF" d="M20.335,52.774c0.939,0,1.878,0,2.817,0
		C22.213,52.987,21.274,52.999,20.335,52.774z"/>
	<path fill-rule="evenodd" clip-rule="evenodd" fill="#FFFFFF" d="M33.62,44.574c0.059,0.001,0.117,0.002,0.176,0.002
		c-0.095,0.662-0.425,1.218-0.793,1.756c-0.006-0.062-0.013-0.122-0.019-0.184c-0.294-0.376-0.024-0.657,0.158-0.954
		C33.306,44.992,33.382,44.72,33.62,44.574z"/>
	<path fill-rule="evenodd" clip-rule="evenodd" fill="#FFFFFF" d="M12.519,30.975c0.26,0.725-0.524,0.667-0.764,1.018
		c-0.094-0.112-0.09-0.224,0.001-0.335C11.955,31.368,12.091,31.009,12.519,30.975z"/>
	<path fill-rule="evenodd" clip-rule="evenodd" fill="#FFFFFF" d="M16.477,28.533c-0.269-0.007-0.538-0.015-0.807-0.022
		c0.367-0.327,0.805-0.504,1.279-0.602C16.99,28.268,16.431,28.171,16.477,28.533L16.477,28.533z"/>
	<path fill-rule="evenodd" clip-rule="evenodd" fill="#FFFFFF" d="M23.395,52.746c0.394-0.601,0.985-0.189,1.477-0.286
		C24.409,52.705,23.915,52.795,23.395,52.746z"/>
	<path fill-rule="evenodd" clip-rule="evenodd" fill="#FFFFFF" d="M79.826,41.392c-0.107,0.322-0.243,0.646,0.039,0.951
		c-0.104,0.013-0.207,0.025-0.312,0.038c-0.179-0.254-0.51-0.453-0.299-0.844C79.517,41.773,79.638,41.45,79.826,41.392z"/>
	<path fill-rule="evenodd" clip-rule="evenodd" fill="#FFFFFF" d="M80.952,43.797c0.167-0.107,0.334-0.215,0.5-0.322
		c0.101,0.175,0.532,0.246,0.338,0.458C81.561,44.185,81.193,44.1,80.952,43.797z"/>
	<path fill-rule="evenodd" clip-rule="evenodd" fill="#FFFFFF" d="M87.732,43.626c0.069-0.06,0.139-0.118,0.208-0.177
		c0.553,0.026,1.147-0.298,1.645,0.194C88.967,43.638,88.349,43.632,87.732,43.626z"/>
	<path fill-rule="evenodd" clip-rule="evenodd" fill="#FFFFFF" d="M55.161,41.459c-0.171-0.31,0.089-0.379,0.273-0.49
		c0.034,0.209,0.276,0.337,0.227,0.579c-0.019,0.151-0.054,0.295-0.209,0.37C55.355,41.765,55.257,41.611,55.161,41.459z"/>
	<path fill-rule="evenodd" clip-rule="evenodd" fill="#FFFFFF" d="M14.293,29.322c0.207,0.126,0.495,0.192,0.428,0.531
		c-0.012,0.059-0.104,0.157-0.124,0.149c-0.233-0.096-0.436-0.231-0.48-0.509C14.176,29.436,14.235,29.379,14.293,29.322z"/>
	<path fill-rule="evenodd" clip-rule="evenodd" fill="#FFFFFF" d="M80.169,42.556c0.074-0.289,0.381,0.01,0.489-0.192
		c0.162,0.05,0.208,0.194,0.268,0.328c-0.27-0.02-0.442,0.079-0.456,0.373C80.265,42.956,80.168,42.785,80.169,42.556z"/>
	<path fill-rule="evenodd" clip-rule="evenodd" fill="#FFFFFF" d="M76.869,40.807c0.229-0.026,0.496,0.067,0.654-0.197
		c0.155,0.162,0.276,0.39,0.029,0.502C77.28,41.235,76.99,41.149,76.869,40.807z"/>
	<path fill-rule="evenodd" clip-rule="evenodd" fill="#FFFFFF" d="M47.459,43.953c0.107-0.504-0.207-1.063,0.202-1.526
		C47.516,42.926,47.828,43.484,47.459,43.953z"/>
	<path fill-rule="evenodd" clip-rule="evenodd" fill="#FFFFFF" d="M29.527,50.219c0.057-0.48,0.418-0.556,0.802-0.602
		C30.118,49.894,29.887,50.143,29.527,50.219z"/>
	<path fill-rule="evenodd" clip-rule="evenodd" fill="#FFFFFF" d="M62.114,40.164c-0.483,0.002-0.965,0.004-1.448,0.006
		C61.147,39.897,61.629,39.892,62.114,40.164z"/>
	<path fill-rule="evenodd" clip-rule="evenodd" fill="#FFFFFF" d="M31.722,48.19c-0.048-0.051-0.097-0.103-0.146-0.153
		c0.258-0.206,0.341-0.619,0.757-0.637C32.189,47.71,31.975,47.965,31.722,48.19z"/>
	<path fill-rule="evenodd" clip-rule="evenodd" fill="#FFFFFF" d="M92.291,46.937c0.464,0,0.928,0.001,1.391,0.001
		c-0.426,0.386-0.926,0.117-1.391,0.157C92.291,47.042,92.291,46.989,92.291,46.937z"/>
	<path fill-rule="evenodd" clip-rule="evenodd" fill="#FFFFFF" d="M64.776,42.388c0.009-0.17,0.056-0.329,0.263-0.299
		c0.344,0.05,0.354,0.324,0.356,0.593C65.203,42.555,65.097,42.242,64.776,42.388z"/>
	<path fill-rule="evenodd" clip-rule="evenodd" fill="#FFFFFF" d="M60.831,40.637c0.453-0.191,0.907-0.396,1.255,0.173
		C61.704,40.485,61.255,40.651,60.831,40.637z"/>
	<path fill-rule="evenodd" clip-rule="evenodd" fill="#FFFFFF" d="M75.542,42.082c0.409,0.017,0.875-0.206,1.175,0.277
		C76.307,42.345,75.912,42.271,75.542,42.082z"/>
	<path fill-rule="evenodd" clip-rule="evenodd" fill="#FFFFFF" d="M76.923,40.156c-0.5,0.001-1,0.001-1.5,0.001
		C75.922,39.894,76.423,39.918,76.923,40.156z"/>
	<path fill-rule="evenodd" clip-rule="evenodd" fill="#FFFFFF" d="M10.353,46.146c0.471,0.159,0.521,0.581,0.612,0.978
		C10.66,46.86,10.482,46.518,10.353,46.146z"/>
	<path fill-rule="evenodd" clip-rule="evenodd" fill="#FFFFFF" d="M60.358,42.688c-0.243-0.416-0.229-0.834-0.012-1.255
		C60.35,41.853,60.354,42.271,60.358,42.688z"/>
	<path fill-rule="evenodd" clip-rule="evenodd" fill="#FFFFFF" d="M30.325,49.62c0.047-0.378,0.154-0.694,0.639-0.622
		C30.813,49.271,30.593,49.47,30.325,49.62z"/>
	<path fill-rule="evenodd" clip-rule="evenodd" fill="#FFFFFF" d="M76.657,39.217c-0.256,0.44-0.544,0.504-0.914,0.06
		C76.072,39.134,76.394,39.501,76.657,39.217z"/>
	<path fill-rule="evenodd" clip-rule="evenodd" fill="#FFFFFF" d="M77.496,51.256c-0.293,0.446-0.714,0.195-1.087,0.196
		c-0.008,0-0.022-0.042-0.02-0.063c0.004-0.022,0.024-0.044,0.038-0.065C76.783,51.302,77.139,51.278,77.496,51.256z"/>
	<path fill-rule="evenodd" clip-rule="evenodd" fill="#FFFFFF" d="M17.516,52.148c0.303,0.034,0.702-0.223,0.851,0.279
		C18.044,52.453,17.769,52.335,17.516,52.148z"/>
	<path fill-rule="evenodd" clip-rule="evenodd" fill="#FFFFFF" d="M49.664,41.869c0.089-0.261-0.118-0.65,0.33-0.753
		C50.011,41.423,50.021,41.727,49.664,41.869z"/>
	<path fill-rule="evenodd" clip-rule="evenodd" fill="#FFFFFF" d="M49.951,43.786c-0.251-0.361-0.091-0.763-0.111-1.146
		C50.061,43.004,49.923,43.403,49.951,43.786z"/>
	<path fill-rule="evenodd" clip-rule="evenodd" fill="#FFFFFF" d="M76.856,43.411c-0.329,0.395-0.701,0.265-1.077,0.088
		C76.138,43.47,76.498,43.44,76.856,43.411z"/>
	<path fill-rule="evenodd" clip-rule="evenodd" fill="#FFFFFF" d="M9.404,43.945c0.503,0.125,0.249,0.526,0.298,0.817
		C9.523,44.52,9.408,44.252,9.404,43.945z"/>
	<path fill-rule="evenodd" clip-rule="evenodd" fill="#FFFFFF" d="M76.284,41.732c-0.295-0.036-0.684,0.206-0.825-0.28
		C75.734,41.546,76.008,41.639,76.284,41.732z"/>
	<path fill-rule="evenodd" clip-rule="evenodd" fill="#FFFFFF" d="M53.435,40.474c0.063,0.013,0.127,0.026,0.19,0.04
		c-0.325,0.297-0.721,0.066-1.075,0.143C52.794,40.35,53.148,40.569,53.435,40.474z"/>
	<path fill-rule="evenodd" clip-rule="evenodd" fill="#FFFFFF" d="M25.125,52.423c0.143-0.495,0.539-0.239,0.834-0.28
		C25.71,52.323,25.437,52.428,25.125,52.423z"/>
	<path fill-rule="evenodd" clip-rule="evenodd" fill="#FFFFFF" d="M77.181,42.071c-0.208-0.014-0.439,0.008-0.464-0.295
		c0.271-0.029,0.491,0.071,0.674,0.265C77.321,42.052,77.251,42.062,77.181,42.071z"/>
	<path fill-rule="evenodd" clip-rule="evenodd" fill="#FFFFFF" d="M87.994,43.963c0.351,0.001,0.701,0.002,1.051,0.003
		C88.694,44.104,88.344,44.101,87.994,43.963z"/>
	<path fill-rule="evenodd" clip-rule="evenodd" fill="#FFFFFF" d="M9.736,44.888c0.393,0.067,0.27,0.38,0.295,0.622
		C9.875,45.33,9.757,45.132,9.736,44.888z"/>
	<path fill-rule="evenodd" clip-rule="evenodd" fill="#FFFFFF" d="M75.276,43.007c-0.234-0.009-0.438,0.025-0.451,0.324
		c-0.136-0.13-0.244-0.309-0.048-0.422C74.911,42.832,75.155,42.748,75.276,43.007z"/>
	<path fill-rule="evenodd" clip-rule="evenodd" fill="#FFFFFF" d="M75.721,43.966c0.349,0,0.698,0,1.047,0
		C76.419,44.147,76.071,44.152,75.721,43.966z"/>
	<path fill-rule="evenodd" clip-rule="evenodd" fill="#FFFFFF" d="M62.333,41.141c0.212-0.042,0.49,0.035,0.542-0.298
		c0.153,0.104,0.218,0.3,0.087,0.388C62.767,41.361,62.514,41.373,62.333,41.141z"/>
	<path fill-rule="evenodd" clip-rule="evenodd" fill="#FFFFFF" d="M81.429,40.317c-0.131-0.179-0.334-0.127-0.511-0.162
		c0.155-0.211,0.407-0.177,0.573-0.114C81.833,40.169,81.602,40.255,81.429,40.317z"/>
	<path fill-rule="evenodd" clip-rule="evenodd" fill="#FFFFFF" d="M26.857,51.498c0.215,0.002,0.431,0.004,0.646,0.006
		c-0.177,0.183-0.383,0.305-0.647,0.302C26.856,51.703,26.857,51.601,26.857,51.498z"/>
	<path fill-rule="evenodd" clip-rule="evenodd" fill="#FFFFFF" d="M26.07,52.114c0.093-0.439,0.431-0.273,0.698-0.281
		C26.566,52.005,26.35,52.14,26.07,52.114z"/>
	<path fill-rule="evenodd" clip-rule="evenodd" fill="#FFFFFF" d="M66.7,40.358c-0.127-0.214-0.353-0.171-0.547-0.21
		c0.225-0.223,0.495-0.203,0.721-0.054C66.96,40.153,66.808,40.297,66.7,40.358z"/>
	<path fill-rule="evenodd" clip-rule="evenodd" fill="#FFFFFF" d="M11.757,31.657c0,0.112-0.001,0.224-0.001,0.335
		c-0.167,0.102-0.335,0.205-0.503,0.307C11.346,32.027,11.526,31.822,11.757,31.657z"/>
	<path fill-rule="evenodd" clip-rule="evenodd" fill="#FFFFFF" d="M61.754,43.435c-0.243,0.302-0.495,0.272-0.754,0.021
		C61.251,43.448,61.503,43.441,61.754,43.435z"/>
	<path fill-rule="evenodd" clip-rule="evenodd" fill="#FFFFFF" d="M23.081,27.011c-0.265,0.147-0.525,0.178-0.78-0.021
		C22.56,26.996,22.82,27.003,23.081,27.011z"/>
	<path fill-rule="evenodd" clip-rule="evenodd" fill="#FFFFFF" d="M19.621,51.198c1.257,0.108,2.515,0.179,3.774,0.015
		c0.076,0.164-0.077,0.204-0.156,0.284c-0.934,0.001-1.867,0.003-2.8,0.002C20.13,51.499,19.801,51.549,19.621,51.198z"/>
	<path fill-rule="evenodd" clip-rule="evenodd" fill="#FFFFFF" d="M10.209,38.968c0.051,1.029,0.101,2.059,0.152,3.087
		c-0.59-1.042-0.255-2.176-0.297-3.27C10.063,38.759,10.179,38.885,10.209,38.968z"/>
	<path fill-rule="evenodd" clip-rule="evenodd" fill="#FFFFFF" d="M25.914,51.183c-0.08-0.171-0.12-0.322,0.157-0.314
		c0.182,0.04,0.416-0.094,0.55,0.168C26.423,51.292,26.146,51.137,25.914,51.183z"/>
	<path fill-rule="evenodd" clip-rule="evenodd" fill="#FFFFFF" d="M18.36,50.889c0.356,0.003,0.683,0.114,0.995,0.276
		C19.015,51.103,18.567,51.427,18.36,50.889z"/>
	<path fill-rule="evenodd" clip-rule="evenodd" fill="#FFFFFF" d="M12.515,32.936c0.011,0.323-0.215,0.501-0.422,0.691
		C12.102,33.316,12.143,33.025,12.515,32.936z"/>
	<path fill-rule="evenodd" clip-rule="evenodd" fill="#FFFFFF" d="M23.239,51.497c0.052-0.095,0.104-0.189,0.156-0.284
		c0.155-0.015,0.309-0.029,0.464-0.044C23.828,51.61,23.486,51.465,23.239,51.497z"/>
	<path fill-rule="evenodd" clip-rule="evenodd" fill="#FFFFFF" d="M11.756,45.836c0.284,0.115,0.348,0.394,0.47,0.63
		C11.854,46.417,11.815,46.118,11.756,45.836z"/>
	<path fill-rule="evenodd" clip-rule="evenodd" fill="#FFFFFF" d="M12.333,32.549c-0.118,0.019-0.198,0.056-0.251,0.032
		c-0.043-0.02-0.055-0.111-0.08-0.17c0.045-0.015,0.104-0.056,0.133-0.04C12.196,32.403,12.242,32.464,12.333,32.549z"/>
	<path fill-rule="evenodd" clip-rule="evenodd" fill="#FFFFFF" d="M34.552,38.291c-0.133,0.482-0.144,0.943-0.029,1.453
		c0.154,0.689,0.082,1.402-0.39,2.064c-0.386-0.965-1.281-1.783-0.577-2.965c0.15-0.252,0.034-0.426-0.277-0.589
		c-0.476-0.249-0.455-0.622,0.028-0.914c0.407-0.316-0.066-0.758,0.157-1.101c0.331-0.28,0.383-0.085,0.481,0.226
		C34.139,37.076,34.179,37.74,34.552,38.291z"/>
	<path fill-rule="evenodd" clip-rule="evenodd" fill="#FFFFFF" d="M33.463,36.24c0.225,0.375,0.228,0.807,0.121,1.184
		c-0.093,0.329-0.229,0.12-0.278-0.083c0-0.105,0-0.209,0-0.314c0.021-0.238-0.254-0.318-0.286-0.521
		C32.952,36.069,33.175,36.095,33.463,36.24z"/>
	<path fill-rule="evenodd" clip-rule="evenodd" fill="#FFFFFF" d="M31.722,32.569c0.002,0.13-0.005,0.247-0.122,0.272
		c-0.148,0.032-0.153-0.103-0.165-0.2c-0.013-0.104,0.004-0.22,0.121-0.247C31.709,32.361,31.688,32.509,31.722,32.569z"/>
	<path fill-rule="evenodd" clip-rule="evenodd" fill="#FFFFFF" d="M26.854,29.803c-0.258-0.013-0.465-0.133-0.646-0.308
		c0.216-0.006,0.433-0.012,0.649-0.018C26.855,29.586,26.854,29.694,26.854,29.803z"/>
	<path fill-rule="evenodd" clip-rule="evenodd" fill="#FFFFFF" d="M27.33,28.534c0.106,0.004,0.212,0.008,0.318,0.012
		c0.021,0.104,0.142,0.252-0.064,0.28C27.389,28.853,27.345,28.692,27.33,28.534z"/>
	<path fill-rule="evenodd" clip-rule="evenodd" fill="#FFFFFF" d="M25.405,29.177c-1.167-0.237-2.313-0.537-3.525-0.56
		c-1.693-0.033-3.292,0.333-4.867,0.884c-0.131,0.047-0.262,0.087-0.381-0.027c0.106-0.551,0.61-0.247,0.908-0.404
		c0.675-0.356,1.402-0.651,2.195-0.531c0.622,0.094,1.227-0.521,1.847-0.022c0.668-0.985,1.279,0.254,1.993,0.056
		c0.69-0.192,1.385,0.243,2.026,0.574C25.547,29.229,25.482,29.239,25.405,29.177z"/>
	<path fill-rule="evenodd" clip-rule="evenodd" fill="#FFFFFF" d="M25.405,29.177c0.065-0.01,0.131-0.02,0.196-0.03
		c0.241,0.054,0.6-0.097,0.611,0.354C25.91,29.476,25.638,29.376,25.405,29.177z"/>
	<path fill-rule="evenodd" clip-rule="evenodd" fill="#FFFFFF" d="M17.449,28.221c0.084,0.042,0.181,0.058,0.199,0.105
		c0.043,0.116-0.042,0.185-0.149,0.179c-0.056-0.003-0.136-0.063-0.153-0.114C17.334,28.353,17.406,28.288,17.449,28.221z"/>
	<path fill-rule="evenodd" clip-rule="evenodd" fill="#FFFFFF" d="M16.632,29.474c0.127,0.009,0.253,0.018,0.381,0.027
		c-0.146,0.158-0.317,0.267-0.541,0.274C16.479,29.65,16.512,29.539,16.632,29.474z"/>
	<path fill-rule="evenodd" clip-rule="evenodd" fill="#FFFFFF" d="M16.476,28.533c0.14,0.024,0.317-0.056,0.393,0.135
		c0.011,0.026-0.032,0.104-0.06,0.11C16.616,28.816,16.552,28.664,16.476,28.533L16.476,28.533z"/>
	<path fill-rule="evenodd" clip-rule="evenodd" fill="#FFFFFF" d="M33.307,45.206c-0.087,0.321-0.428,0.556-0.323,0.942
		c-0.103,0.001-0.205,0.001-0.307,0.001c-0.01-0.258,0.036-0.502,0.117-0.752c0.119-0.364-0.062-0.528-0.431-0.506
		c0.129-0.678,0.355-1.329,0.756-1.884c0.15-0.207,0.099-0.313,0.03-0.471c-0.084-0.192-0.202-0.382-0.135-0.597
		c0.068-0.216,0.104-0.546,0.364-0.538c0.323,0.009,0.225,0.345,0.241,0.562c0.039,0.531-0.105,1.079,0.271,1.573
		c0.113,0.147,0.045,0.469-0.302,0.221c-0.248-0.178-0.283,0.148-0.438,0.189C33.008,44.392,33.512,44.754,33.307,45.206z"/>
	<path fill-rule="evenodd" clip-rule="evenodd" fill="#FFFFFF" d="M27.753,50.615c0.163,0.023,0.196,0.137,0.189,0.274
		c-0.008,0.184-0.11,0.273-0.29,0.28c-0.138,0.006-0.282-0.03-0.256-0.191C27.425,50.793,27.577,50.681,27.753,50.615z"/>
	<path fill-rule="evenodd" clip-rule="evenodd" fill="#FFFFFF" d="M31.928,45.785c0.333,0.2,0.563,0.293,0.721,0.456
		c0.06,0.062-0.113,0.212-0.26,0.21C32.05,46.444,31.971,46.225,31.928,45.785z"/>
	<path fill-rule="evenodd" clip-rule="evenodd" fill="#FFFFFF" d="M31.718,45.33c-0.014-0.053,0.002-0.094,0.048-0.124
		c0.199-0.104,0.398-0.21,0.597-0.314C32.121,45.676,32.113,45.681,31.718,45.33z"/>
	<path fill-rule="evenodd" clip-rule="evenodd" fill="#FFFFFF" d="M31.29,47.096c0.084,0.042,0.182,0.059,0.199,0.105
		c0.043,0.115-0.042,0.184-0.149,0.178c-0.056-0.003-0.136-0.063-0.152-0.113C31.175,47.228,31.247,47.162,31.29,47.096z"/>
	<path fill-rule="evenodd" clip-rule="evenodd" fill="#FFFFFF" d="M81.484,46.577c0.938,0.018,1.32,0.327,1.489,1.207
		c0.188,0.983-0.157,1.671-1.031,2.052c-0.574-0.081-1.147-0.13-1.709,0.075l0.023-0.028c-0.251,0.483-0.073,0.998-0.104,1.497
		c-0.025,0.425-0.168,0.57-0.57,0.384c0-0.993,0.001-1.986,0.002-2.98c0.148-0.371,0.149-0.741-0.001-1.112
		c-0.027-0.049-0.026-0.098,0.001-0.146c0.006-0.791,0.435-0.998,1.154-0.879C80.976,46.685,81.249,46.728,81.484,46.577z
		 M80.427,49.064c0.438,0.258,0.926,0.164,1.366,0.09c0.665-0.111,0.691-0.684,0.661-1.226c-0.033-0.581-0.436-0.75-0.919-0.707
		c-0.431,0.037-1.13-0.343-1.113,0.581C80.299,48.224,80.293,48.645,80.427,49.064z"/>
	<path fill-rule="evenodd" clip-rule="evenodd" fill="#FFFFFF" d="M33.307,45.206c-0.166-0.405-0.563-0.781-0.157-1.259
		c0.157,0.209,0.314,0.418,0.471,0.627C33.595,44.824,33.512,45.046,33.307,45.206z"/>
	<path fill-rule="evenodd" clip-rule="evenodd" fill="#FFFFFF" d="M34.002,42.883c-0.115-0.266-0.064-0.494,0.005-0.766
		C34.221,42.46,34.221,42.46,34.002,42.883z"/>
	<path fill-rule="evenodd" clip-rule="evenodd" fill="#FFFFFF" d="M44.777,40.177c0.168-0.043,0.325-0.055,0.398,0.152
		c0.081,0.093,0.096,0.192,0.033,0.301c-0.114,0.145-0.224,0.298-0.444,0.182c-0.314-0.139-0.634-0.166-0.959-0.038
		c-0.045,0.046-0.089,0.092-0.126,0.145c0.023,0.722,0.311,0.84,1.151,0.471c0.164-0.251,0.17-0.586,0.427-0.784
		c0.527,0.121,0.492,0.492,0.397,0.89c-0.286,0.365,0.03,0.642,0.14,0.947c0.122,0.29,0.12,0.579,0.001,0.868
		c-0.07,0.113-0.14,0.228-0.209,0.342c-0.184,0.113-0.397,0.171-0.574,0.297c-0.617,0.106-1.238,0.047-1.857,0.05
		c-0.266,0.001-0.403-0.056-0.324-0.348c0.189-0.993,0.006-1.993,0.06-2.99c-0.016-0.31,0.013-0.573,0.433-0.543
		C43.806,40.151,44.296,40.061,44.777,40.177z M43.727,43.484c0.366,0.043,0.736,0.168,1.092-0.043
		c0.224-0.251,0.56-0.454,0.338-0.882c-0.168-0.326-0.465-0.329-0.768-0.335c-0.255-0.005-0.511-0.013-0.766-0.02
		C43.405,42.651,43.375,43.083,43.727,43.484z"/>
	<path fill-rule="evenodd" clip-rule="evenodd" fill="#FFFFFF" d="M40.999,40.617c0.066,0.096,0.132,0.192,0.198,0.288
		c0.138,0.202,0.188,0.445,0.307,0.656c0.096,1.292,0.001,2.258-1.335,2.535c-0.302,0.073-0.605,0.101-0.906-0.005
		c-1.052-0.377-1.415-0.975-1.348-2.222c0.081-0.273,0.192-0.538,0.271-0.813c0.229-0.331,0.374-0.761,0.881-0.775
		c0.463-0.085,0.927-0.095,1.39,0.001c0.043-0.022,0.076-0.013,0.1,0.028C40.678,40.451,40.862,40.5,40.999,40.617z M39.135,40.775
		c-0.879,0.893-0.871,1.734,0.029,2.828c0.298,0.135,0.6,0.104,0.903,0.02c0.372-0.163,0.612-0.46,0.809-0.801
		c0.109-0.418,0.094-0.838,0.011-1.258c-0.164-0.229-0.329-0.459-0.493-0.688C39.995,40.592,39.565,40.676,39.135,40.775z"/>
	<path fill-rule="evenodd" clip-rule="evenodd" fill="#FFFFFF" d="M93.125,42.645c-0.015,0.278,0.174,0.463,0.288,0.688
		c0.093,0.182,0.203,0.487-0.074,0.608c-0.255,0.111-0.478,0.028-0.559-0.324c-0.038-0.169-0.042-0.419-0.274-0.51
		c-0.462-0.083-0.925-0.168-1.377,0.05c-0.061,0.111-0.156,0.217-0.177,0.335c-0.067,0.396-0.324,0.566-0.66,0.431
		c-0.391-0.159-0.06-0.442,0.007-0.642c0.281-0.853,0.596-1.693,0.898-2.539c0.154-0.046,0.144-0.197,0.187-0.309
		c0.105-0.271,0.269-0.414,0.584-0.385c0.361,0.034,0.295,0.291,0.307,0.513c0.005,0.087,0.05,0.139,0.109,0.188
		c0.328,0.255,0.136,0.738,0.44,1.004C92.943,42.043,92.977,42.363,93.125,42.645z M92.177,42.299
		c0.258-0.032,0.201-0.305,0.121-0.508c-0.081-0.143-0.231-0.259-0.176-0.453c-0.134-0.187-0.063-0.561-0.463-0.503
		c-0.146,0.417-0.391,0.809-0.359,1.276C91.505,42.556,91.892,42.334,92.177,42.299z"/>
	<path fill-rule="evenodd" clip-rule="evenodd" fill="#FFFFFF" d="M68.641,43.282c-0.064,0.141-0.153,0.275-0.189,0.424
		c-0.091,0.379-0.382,0.457-0.653,0.332c-0.324-0.148-0.046-0.409,0.019-0.599c0.325-0.971,0.674-1.934,1.015-2.899
		c0.488-0.535,0.62-0.533,1.137,0.021c0.197,0.896,0.479,1.763,0.855,2.6c0.047,0.294,0.211,0.593-0.031,0.878
		c-0.11,0.023-0.22,0.041-0.304-0.064c-0.143-0.227-0.045-0.575-0.363-0.712l0.009,0.021C69.637,43.067,69.139,43.068,68.641,43.282
		z M69.777,41.902c-0.104-0.234-0.209-0.469-0.314-0.702c-0.141-0.312-0.369-0.332-0.484-0.037
		c-0.151,0.392-0.315,0.848-0.243,1.231c0.043,0.225,0.566,0.064,0.872,0.102c0.025,0.003,0.052,0.01,0.077,0.015
		C69.954,42.344,69.823,42.117,69.777,41.902z"/>
	<path fill-rule="evenodd" clip-rule="evenodd" fill="#FFFFFF" d="M57.006,40.738c-0.025-0.047-0.072-0.102-0.084-0.164
		c-0.014-0.076,0.026-0.155,0.117-0.117c0.054,0.022,0.105,0.098,0.12,0.158C57.18,40.701,57.119,40.744,57.006,40.738z"/>
	<path fill-rule="evenodd" clip-rule="evenodd" fill="#FFFFFF" d="M83.663,43.469c0.298-0.002,0.596-0.003,0.894-0.005
		c-0.252,0.357-0.604,0.086-0.904,0.145C83.65,43.561,83.654,43.515,83.663,43.469z"/>
	<path fill-rule="evenodd" clip-rule="evenodd" fill="#FFFFFF" d="M47.625,41.743c0.471,0.011,0.941,0.021,1.412,0.032
		c0,0.043-0.001,0.087-0.002,0.13C48.552,41.96,48.068,42.023,47.625,41.743z"/>
	<path fill-rule="evenodd" clip-rule="evenodd" fill="#FFFFFF" d="M91.346,46.937c-0.388,0-0.775,0-1.163,0
		c0.001-0.084,0.002-0.167,0.002-0.25c0.427-0.132,0.881-0.036,1.319-0.065C91.501,46.751,91.473,46.868,91.346,46.937z"/>
	<path fill-rule="evenodd" clip-rule="evenodd" fill="#FFFFFF" d="M25.755,47.72c1.81-1.05,3.155-2.525,4.045-4.417
		c0.269-0.26,0.241-0.627,0.346-0.946l-0.006,0.011c0.365-0.495,0.309-1.069,0.309-1.633c-0.152-0.556-0.001-0.837,0.634-0.779
		c0.504,0.047,1.123-0.174,0.979,0.758c-0.138,0.891-0.213,1.789-0.618,2.613c-0.407,0.563-0.463,1.341-1.079,1.777
		c-0.203,0.029-0.41,0.045-0.615,0.236c0.216,0.059,0.46-0.008,0.593,0.189c-0.478,0.869-1.123,1.594-1.911,2.192
		c-0.217,0.038-0.397,0.124-0.464,0.358c-2.526,2.284-7.486,2.885-10.413,1.261c0.027-0.231,0.036-0.393-0.3-0.263
		c-0.202,0.079-0.463-0.092-0.531-0.25c-0.328-0.771-1.366-0.609-1.701-1.336c-0.127-0.276-0.019-0.514,0.207-0.687
		c0.275-0.212,0.571-0.261,0.844,0.002c0.413,0.399,0.852,0.751,1.425,0.892c2.191,1.028,4.46,1.229,6.803,0.637
		c0.269-0.114,0.59-0.076,0.827-0.284c0.038-0.024,0.08-0.033,0.125-0.027C25.425,47.931,25.64,47.906,25.755,47.72z"/>
	<path fill-rule="evenodd" clip-rule="evenodd" fill="#FFFFFF" d="M11.914,39.843c-0.104-0.001-0.208-0.001-0.313-0.001
		c-0.215-1.106,0.03-2.168,0.337-3.217c0.085-0.292,0.167-0.592,0.282-0.877c1.225-2.846,3.289-4.759,6.274-5.65
		c0.4-0.171,0.883-0.028,1.25-0.325c0.215-0.125,0.478,0.016,0.69-0.124c0.571-0.007,0.823,0.507,1.236,0.758
		c0.517,0.312,0.529,0.337,0.369,0.714c-0.756,0.058-1.537-0.132-2.264,0.223c-0.09,0.012-0.181,0.024-0.271,0.036
		c-0.273,0.103-0.606,0.029-0.83,0.279c-0.833,0.346-1.607,0.799-2.371,1.274c-0.39-0.107-0.49,0.466-0.867,0.375
		c-0.003,0.002-0.005-0.021-0.019-0.005c0.14,0.367-0.323,0.456-0.336,0.75c-1.172,1.424-1.876,3.061-2.205,4.867
		C12.71,39.387,12.277,39.579,11.914,39.843z"/>
	<path fill-rule="evenodd" clip-rule="evenodd" fill="#FFFFFF" d="M21.884,29.548l1.311,0.083c1.121,0.2,2.225,0.444,3.199,1.077
		c0.109,0.306,0.419,0.232,0.635,0.337c0.886,0.498,1.643,1.146,2.34,1.885c0.27,0.285,0.461,0.594,0.644,0.924
		c0.052,0.287,0.213,0.498,0.452,0.657c0.056,0.096,0.112,0.191,0.167,0.288c0.175,0.391,0.625,0.788-0.114,1.113
		c-0.639,0.281-1.16,0.047-1.292-0.789c-0.062-0.387-0.243-0.034-0.298-0.146c-1.356-1.855-3.155-3.056-5.375-3.632
		c-0.432-0.284-0.965-0.112-1.414-0.318c-0.156-0.208-1.786-1.172-1.942-1.379L21.884,29.548z"/>
	<path fill-rule="evenodd" clip-rule="evenodd" fill="#FFFFFF" d="M17.499,47.699c-0.594,0.118-0.96-0.276-1.338-0.614
		c-0.247-0.221-0.47-0.436-0.805-0.184c-0.169,0.127-0.349,0.283-0.199,0.518c0.194,0.303,0.437,0.663,0.839,0.519
		c0.488-0.176,0.573-0.052,0.573,0.419c0,0.42,0.432,0.623,0.718,0.563c0.634-0.132,0.207,0.273,0.269,0.422
		c-2.363-0.907-3.985-2.609-5.153-4.799c-0.058-0.107-0.179-0.26-0.035-0.349c0.309-0.189,0.637-0.352,0.969-0.499
		c0.538-0.24,0.536,0.287,0.661,0.532C14.789,45.771,16.106,46.771,17.499,47.699z"/>
	<path fill-rule="evenodd" clip-rule="evenodd" fill="#FFFFFF" d="M12.221,35.748c0.135,0.528-0.186,0.98-0.338,1.423
		c-0.306,0.888,0.084,1.815-0.281,2.671c-0.426,0.077-0.315-0.242-0.302-0.443C11.377,38.125,11.609,36.888,12.221,35.748z"/>
	<path fill-rule="evenodd" clip-rule="evenodd" fill="#FFFFFF" d="M28.928,34.978c0.329-0.119,0.223-0.493,0.398-0.701
		c0.246,0.032,0.249,0.255,0.177,0.345c-0.455,0.579,0.135,0.861,0.331,1.25c0.098,0.195,0.238,0.155,0.365,0.017
		c0.172-0.188,0.634-0.046,0.576-0.491c-0.027-0.202-0.094-0.399-0.143-0.599c0.304,0.246,0.642,0.645,0.407,0.928
		c-0.269,0.323-0.79,0.45-1.22,0.617c-0.176,0.068-0.224-0.159-0.295-0.289C29.327,35.695,29.127,35.337,28.928,34.978z"/>
	<path fill-rule="evenodd" clip-rule="evenodd" fill="#FFFFFF" d="M22.119,30.871c0.466,0.127,1.061-0.07,1.434,0.475
		c-1.259-0.184-2.517-0.192-3.776-0.003c0.07-0.369,0.364-0.289,0.605-0.293C20.967,31.036,21.533,30.877,22.119,30.871z"/>
	<path fill-rule="evenodd" clip-rule="evenodd" fill="#FFFFFF" d="M30.344,45.529c-0.335-0.108-0.712,0.227-1.159-0.216
		c0.528,0.151,0.535-0.828,1.133-0.265c0.14,0.058,0.242,0.134,0.154,0.306C30.476,45.447,30.449,45.517,30.344,45.529z"/>
	<path fill-rule="evenodd" clip-rule="evenodd" fill="#FFFFFF" d="M11.914,39.843c0.125-0.514,0.666-0.592,0.965-0.923
		C12.887,40.039,13.007,39.887,11.914,39.843z"/>
	<path fill-rule="evenodd" clip-rule="evenodd" fill="#FFFFFF" d="M30.472,45.354c-0.051-0.102-0.103-0.204-0.154-0.306
		c0.546-0.462,0.528-1.294,1.126-1.723C31.286,44.082,30.921,44.738,30.472,45.354z"/>
	<path fill-rule="evenodd" clip-rule="evenodd" fill="#FFFFFF" d="M15.084,34.053c-0.217-0.381,0.414-0.454,0.292-0.801l0,0
		c0.095-0.027,0.244-0.024,0.276-0.084c0.249-0.461,0.242-0.465,0.654-0.235C15.898,33.306,15.491,33.679,15.084,34.053z"/>
	<path fill-rule="evenodd" clip-rule="evenodd" fill="#FFFFFF" d="M30.45,40.734c0.184,0.599,0.29,1.183-0.309,1.633
		C30.244,41.822,30.347,41.278,30.45,40.734z"/>
	<path fill-rule="evenodd" clip-rule="evenodd" fill="#FFFFFF" d="M19.783,29.828c-0.351,0.467-0.85,0.224-1.288,0.269
		c0.33-0.243,0.709-0.318,1.109-0.325C19.69,29.707,19.75,29.725,19.783,29.828z"/>
	<path fill-rule="evenodd" clip-rule="evenodd" fill="#FFFFFF" d="M30.465,34.512c-0.418-0.035-0.849-0.062-0.452-0.657
		C30.27,34.001,30.484,34.176,30.465,34.512z"/>
	<path fill-rule="evenodd" clip-rule="evenodd" fill="#FFFFFF" d="M27.029,31.045c-0.372,0.19-0.762,0.414-0.635-0.337
		C26.65,30.736,26.868,30.837,27.029,31.045z"/>
	<path fill-rule="evenodd" clip-rule="evenodd" fill="#FFFFFF" d="M25.129,48.052c-0.138,0.495-0.533,0.242-0.827,0.284
		C24.55,48.159,24.806,48.009,25.129,48.052z"/>
	<path fill-rule="evenodd" clip-rule="evenodd" fill="#FFFFFF" d="M30.147,42.356c0.021,0.365,0.044,0.731-0.346,0.946
		C29.842,42.96,29.958,42.645,30.147,42.356z"/>
	<path fill-rule="evenodd" clip-rule="evenodd" fill="#FFFFFF" d="M18.676,31.658c0.144-0.488,0.535-0.241,0.83-0.279
		C19.256,31.553,18.979,31.642,18.676,31.658z"/>
	<path fill-rule="evenodd" clip-rule="evenodd" fill="#FFFFFF" d="M25.755,47.72c0.144,0.613-0.335,0.202-0.502,0.305
		C25.348,47.803,25.523,47.714,25.755,47.72z"/>
	<path fill-rule="evenodd" clip-rule="evenodd" fill="#FFFFFF" d="M19.783,29.828c-0.06-0.019-0.12-0.037-0.179-0.056
		c0.257-0.175,0.536-0.205,0.831-0.124C20.254,29.838,19.998,29.76,19.783,29.828z"/>
	<path fill-rule="evenodd" clip-rule="evenodd" fill="#FFFFFF" d="M27.969,48.08c0.028-0.283,0.105-0.503,0.464-0.358
		C28.278,47.841,28.124,47.961,27.969,48.08z"/>
	<path fill-rule="evenodd" clip-rule="evenodd" fill="#FFFFFF" d="M31.091,42.919c-0.014,0.162-0.022,0.317-0.137,0.285
		c-0.249-0.067-0.438-0.232-0.465-0.516c-0.009-0.1,0.015-0.253,0.127-0.226C30.873,42.525,31.008,42.736,31.091,42.919z"/>
	<path fill-rule="evenodd" clip-rule="evenodd" fill="#FFFFFF" d="M30.884,40.384c0.272,0.444,0.246,0.694,0.114,1.007
		C30.669,41.129,30.809,40.854,30.884,40.384z"/>
	<path fill-rule="evenodd" clip-rule="evenodd" fill="#FFFFFF" d="M12.23,37.656c0.037-0.283-0.088-0.596,0.157-0.921
		c0.244,0.325,0.12,0.638,0.157,0.921C12.439,37.749,12.334,37.749,12.23,37.656z"/>
	<path fill-rule="evenodd" clip-rule="evenodd" fill="#FFFFFF" d="M15.375,33.251c-0.195-0.003-0.398,0.016-0.559-0.238
		C15.118,32.919,15.324,32.894,15.375,33.251L15.375,33.251z"/>
	<path fill-rule="evenodd" clip-rule="evenodd" fill="#FFFFFF" d="M12.23,37.656c0.104,0,0.209,0,0.313,0
		c-0.027,0.169,0.074,0.473-0.09,0.482C12.169,38.154,12.255,37.847,12.23,37.656z"/>
	<path fill-rule="evenodd" clip-rule="evenodd" fill="#FFFFFF" d="M22.154,30.26c0.243-0.001,0.471,0.027,0.488,0.338
		c0.002,0.039-0.092,0.113-0.147,0.119c-0.337,0.038-0.354-0.202-0.363-0.442L22.154,30.26z"/>
</g>
<path fill-rule="evenodd" clip-rule="evenodd" fill="#FFFFFF" d="M61.698,38.92c-0.256,0.44-0.544,0.504-0.914,0.06
	C61.113,38.837,61.435,39.204,61.698,38.92z"/>
</svg>
