<?xml version="1.0" encoding="utf-8"?>
<!-- Generator: Adobe Illustrator 16.0.0, SVG Export Plug-In . SVG Version: 6.00 Build 0)  -->
<!DOCTYPE svg PUBLIC "-//W3C//DTD SVG 1.1//EN" "http://www.w3.org/Graphics/SVG/1.1/DTD/svg11.dtd">
<svg version="1.1" id="Layer_1" xmlns="http://www.w3.org/2000/svg" xmlns:xlink="http://www.w3.org/1999/xlink" x="0px" y="0px"
	 width="1077.334px" height="744.666px" viewBox="0 0 1077.334 744.666" enable-background="new 0 0 1077.334 744.666"
	 xml:space="preserve">
<g>
	<path fill-rule="evenodd" clip-rule="evenodd" fill="none" d="M1093.956,758.956c-368.682,0-737.318,0-1105.912,0
		c0-256.682,0-513.318,0-769.912c368.682,0,737.318,0,1105.912,0C1093.956,245.726,1093.956,502.362,1093.956,758.956z
		 M1074.523,358.225c-0.453-0.005-0.906-0.01-1.358-0.016c0-41.317,0.258-82.638-0.081-123.953
		c-0.277-33.804-0.712-67.624-2.082-101.396c-1.6-39.423-4.354-78.798-6.416-118.203c-0.229-4.38-1.928-6.403-6.084-6.69
		c-13.607-0.938-27.206-2.474-40.823-2.667c-24.813-0.354-49.643-0.108-74.459,0.263c-21.644,0.324-43.288,0.959-64.918,1.827
		c-29.604,1.187-59.184,3.439-88.796,3.932c-37.813,0.629-75.647,0.046-113.472-0.178c-37.481-0.221-74.963-0.595-112.444-1
		c-14.984-0.162-29.97-0.481-44.949-0.919c-20.137-0.587-40.269-1.915-60.403-1.912c-27.136,0.003-54.273,0.873-81.406,1.55
		c-29.962,0.746-59.934,1.349-89.874,2.649c-31.926,1.387-63.802,4.452-95.732,5.061c-31.939,0.607-63.944-0.338-95.874-1.693
		c-24.759-1.052-49.471-3.524-74.153-5.892C10.991,8.009,10.625,7.696,9.163,18.015c-0.117,0.823-0.17,1.659-0.204,2.49
		c-1.268,31.27-3.209,62.53-3.625,93.812c-0.56,42.146-0.007,84.307,0.201,126.46c0.077,15.654,0.236,31.319,0.879,46.958
		c0.949,23.102,3.034,46.173,3.415,69.277c0.507,30.81-0.001,61.64-0.356,92.458c-0.527,45.804-1.33,91.603-1.958,137.405
		c-0.286,20.821-0.681,41.646-0.585,62.469c0.117,25.313,0.595,50.628,1.14,75.938c0.186,8.62,2.307,10.88,10.852,11.883
		c5.765,0.677,11.652,1.02,17.436,0.676c14.451-0.859,28.863-2.993,43.309-3.178c32.15-0.41,64.312-0.006,96.468,0.185
		c46.148,0.273,92.3,0.388,138.443,1.056c52.11,0.755,104.212,2.156,156.321,3.072c43.799,0.771,87.602,1.457,131.405,1.796
		c38.491,0.298,76.986,0.147,115.479,0.04c46.817-0.13,93.636-0.252,140.451-0.691c48.632-0.457,97.265-1.112,145.89-2.049
		c17.63-0.34,35.239-1.764,52.86-2.646c4.763-0.238,7.301-2.85,8.045-7.334c1.061-6.395,2.618-12.789,2.86-19.225
		c1.384-36.769,2.977-73.543,3.461-110.329c0.5-37.981-0.712-75.985-0.209-113.967
		C1071.698,442.447,1073.349,400.339,1074.523,358.225z"/>
	<path fill-rule="evenodd" clip-rule="evenodd" d="M1071.142,484.569c-0.503,37.981,0.709,75.985,0.209,113.967
		c-0.484,36.786-2.077,73.561-3.461,110.329c-0.242,6.436-1.8,12.83-2.86,19.225c-0.744,4.484-3.282,7.096-8.045,7.334
		c-17.621,0.883-35.23,2.307-52.86,2.646c-48.625,0.937-97.258,1.592-145.89,2.049c-46.815,0.439-93.634,0.562-140.451,0.691
		c-38.493,0.107-76.988,0.258-115.479-0.04c-43.804-0.339-87.606-1.024-131.405-1.796c-52.109-0.916-104.211-2.317-156.321-3.072
		c-46.143-0.668-92.294-0.782-138.443-1.056c-32.156-0.19-64.318-0.595-96.468-0.185c-14.446,0.185-28.858,2.318-43.309,3.178
		c-5.783,0.344-11.671,0.001-17.436-0.676c-8.545-1.003-10.667-3.263-10.852-11.883c-0.545-25.31-1.023-50.624-1.14-75.938
		c-0.096-20.822,0.299-41.647,0.585-62.469c0.628-45.803,1.431-91.602,1.958-137.405c0.354-30.818,0.863-61.648,0.356-92.458
		c-0.38-23.104-2.465-46.176-3.415-69.277c-0.643-15.639-0.802-31.304-0.879-46.958c-0.208-42.153-0.761-84.314-0.201-126.46
		C5.75,83.035,7.691,51.774,8.959,20.505c0.034-0.831,0.087-1.667,0.204-2.49c1.463-10.318,1.829-10.006,12.036-9.027
		c24.682,2.367,49.394,4.84,74.153,5.892c31.93,1.355,63.934,2.301,95.874,1.693c31.931-0.608,63.807-3.674,95.732-5.061
		c29.94-1.301,59.912-1.903,89.874-2.649c27.133-0.677,54.271-1.547,81.406-1.55c20.135-0.003,40.267,1.325,60.403,1.912
		c14.979,0.438,29.965,0.757,44.949,0.919c37.481,0.405,74.963,0.779,112.444,1c37.824,0.224,75.659,0.807,113.472,0.178
		c29.612-0.492,59.191-2.745,88.796-3.932c21.63-0.868,43.274-1.503,64.918-1.827c24.816-0.371,49.646-0.616,74.459-0.263
		c13.617,0.193,27.216,1.729,40.823,2.667c4.156,0.287,5.855,2.311,6.084,6.69c2.063,39.405,4.816,78.78,6.416,118.203
		c1.37,33.771,1.805,67.592,2.082,101.396c0.339,41.315,0.081,82.636,0.081,123.953 M15.027,14.193
		c-0.666,6.117-1.749,12.19-1.922,18.289c-1.092,38.453-2.371,76.907-2.819,115.37c-0.369,31.647,0.27,63.308,0.574,94.961
		c0.143,14.822,0.305,29.651,0.893,44.459c0.949,23.938,2.572,47.851,3.308,71.792c0.537,17.472,0.269,34.975,0.07,52.461
		c-0.446,39.309-1.155,78.614-1.606,117.923c-0.585,50.977-1.13,101.954-1.452,152.933c-0.087,13.813,0.583,27.634,1.122,41.442
		c0.278,7.138,0.782,7.646,7.721,8.257c5.288,0.465,10.644,0.746,15.935,0.462c18.113-0.971,36.207-3.118,54.316-3.206
		c52.317-0.254,104.639,0.208,156.958,0.528c29.651,0.181,59.304,0.419,88.949,1.016c52.272,1.052,104.534,2.589,156.808,3.553
		c36.644,0.675,73.297,0.921,109.947,1.025c57.157,0.163,114.314,0.064,171.472,0.028c13.494-0.009,26.988-0.171,40.481-0.323
		c62.633-0.71,125.267-1.302,187.896-2.255c16.964-0.258,33.908-1.682,50.867-2.446c3.659-0.165,5.432-1.822,5.812-5.356
		c1.188-11.079,3.21-22.133,3.497-33.233c1.076-41.625,1.821-83.262,2.239-124.898c0.308-30.657-0.492-61.328-0.069-91.982
		c0.575-41.794,2.256-83.573,2.689-125.367c0.377-36.313-0.243-72.639-0.57-108.957c-0.24-26.651-0.175-53.321-1.22-79.944
		c-1.593-40.591-4-81.149-6.13-121.718c-0.45-8.572-1.199-17.129-1.815-25.773c-3.989-0.477-7.281-1.148-10.586-1.22
		c-26.295-0.569-52.597-1.596-78.888-1.373c-34.461,0.29-68.92,1.388-103.367,2.525c-28.112,0.928-56.2,3.273-84.31,3.486
		c-53.482,0.405-106.974-0.163-160.46-0.526c-30.314-0.206-60.633-0.559-90.939-1.29c-46.104-1.114-92.18-2.945-138.327-1.109
		c-47.918,1.905-95.869,2.951-143.804,4.427c-33.097,1.019-66.027,5.806-99.257,4.064c-29.428-1.543-58.89-2.429-88.314-4.032
		C45.791,17.37,30.909,15.612,15.027,14.193z"/>
	<path fill-rule="evenodd" clip-rule="evenodd" fill="none" d="M15.027,14.193c15.882,1.419,30.764,3.177,45.696,3.99
		c29.424,1.604,58.886,2.489,88.314,4.032c33.23,1.741,66.16-3.046,99.257-4.064c47.935-1.476,95.886-2.521,143.804-4.427
		c46.147-1.836,92.223-0.005,138.327,1.109c30.307,0.731,60.625,1.084,90.939,1.29c53.486,0.363,106.978,0.932,160.46,0.526
		c28.109-0.213,56.197-2.559,84.31-3.486c34.447-1.138,68.906-2.235,103.367-2.525c26.291-0.223,52.593,0.804,78.888,1.373
		c3.305,0.071,6.597,0.743,10.586,1.22c0.616,8.645,1.365,17.201,1.815,25.773c2.13,40.568,4.537,81.127,6.13,121.718
		c1.045,26.623,0.979,53.293,1.22,79.944c0.327,36.318,0.947,72.644,0.57,108.957c-0.434,41.794-2.114,83.573-2.689,125.367
		c-0.423,30.654,0.377,61.325,0.069,91.982c-0.418,41.637-1.163,83.273-2.239,124.898c-0.287,11.101-2.309,22.154-3.497,33.233
		c-0.38,3.534-2.152,5.191-5.812,5.356c-16.959,0.765-33.903,2.188-50.867,2.446c-62.629,0.953-125.263,1.545-187.896,2.255
		c-13.493,0.152-26.987,0.314-40.481,0.323c-57.157,0.036-114.314,0.135-171.472-0.028c-36.65-0.104-73.304-0.351-109.947-1.025
		c-52.273-0.964-104.535-2.501-156.808-3.553c-29.645-0.597-59.298-0.835-88.949-1.016c-52.319-0.32-104.641-0.782-156.958-0.528
		c-18.109,0.088-36.203,2.235-54.316,3.206c-5.291,0.284-10.647,0.003-15.935-0.462c-6.939-0.61-7.443-1.119-7.721-8.257
		c-0.538-13.809-1.209-27.63-1.122-41.442c0.322-50.979,0.867-101.956,1.452-152.933c0.451-39.309,1.16-78.614,1.606-117.923
		c0.199-17.486,0.466-34.989-0.07-52.461c-0.736-23.941-2.359-47.854-3.308-71.792c-0.587-14.808-0.75-29.637-0.893-44.459
		c-0.304-31.653-0.943-63.313-0.574-94.961c0.448-38.463,1.727-76.917,2.819-115.37C13.278,26.384,14.361,20.311,15.027,14.193z"/>
</g>
</svg>
