<?xml version="1.0" encoding="utf-8"?>
<!-- Generator: Adobe Illustrator 16.0.0, SVG Export Plug-In . SVG Version: 6.00 Build 0)  -->
<!DOCTYPE svg PUBLIC "-//W3C//DTD SVG 1.1//EN" "http://www.w3.org/Graphics/SVG/1.1/DTD/svg11.dtd">
<svg version="1.1" id="Layer_1" xmlns="http://www.w3.org/2000/svg" xmlns:xlink="http://www.w3.org/1999/xlink" x="0px" y="0px"
	 width="75.011px" height="75.011px" viewBox="0 0 75.011 75.011" enable-background="new 0 0 75.011 75.011" xml:space="preserve">
<g>
	<path fill-rule="evenodd" clip-rule="evenodd" fill="none" d="M0,0c25.004,0,50.007,0,75.011,0c0,25.003,0,50.008,0,75.011
		c-25.004,0-50.007,0-75.011,0C0,50.008,0,25.003,0,0z M31.536,57.027l-0.073-0.071c-0.162,2.14,1.509,2.071,2.746,1.978
		c4.458-0.335,9.023-0.361,13.325-1.417c8.396-2.06,13.054-7.79,14.025-16.412c0.194-1.729,0.298-3.479,0.292-5.22
		c-0.021-6.436-3.084-11.115-8.473-14.42c-3.38-2.073-7.085-2.962-11.003-3.17C27.181,17.488,15.602,30.258,18.52,44.619
		C20.01,51.954,23.979,55.736,31.536,57.027z M16.414,29.787c0.253-3.747-4.783-9.847-8.265-10.339
		C10.384,23.493,12.865,27.039,16.414,29.787z M72.25,60.67c-2.447-4.074-8.112-6.42-12.582-5.113
		C64.269,56.948,66.913,61.166,72.25,60.67z M62.705,5.015c-0.309-0.151-0.618-0.301-0.927-0.452
		c-4.052,2.735-6.622,8.511-4.664,11.561C59.062,12.256,60.883,8.635,62.705,5.015z M3.068,53.555
		c0.109,0.485,0.219,0.97,0.329,1.455c2.171-0.642,4.504-0.975,6.466-2.013c1.88-0.992,4.668-0.312,6.196-3.42
		C10.761,49.295,7.021,51.759,3.068,53.555z M30.713,15.56c1.089-2.783-0.436-9.319-2.564-10.995
		C27.302,9.002,28.346,13.476,30.713,15.56z M30.04,72.836c1.924-1.873,2.234-7.914,0.655-10.197
		C28.415,66.067,29.072,69.401,30.04,72.836z M73.494,23.831c-3.495-1.271-7.094-0.424-9.28,2.183
		C67.942,26.629,71.581,25.772,73.494,23.831z"/>
	<path fill-rule="evenodd" clip-rule="evenodd" d="M31.463,56.956c0.021-0.284-0.276,1.388,0.848,1.826
		c0.216,0.084-1.507-0.788-1.562-0.798c-7.293-1.355-10.767-6.163-12.23-13.365c-2.918-14.361,8.661-27.131,23.856-26.325
		c3.918,0.208,7.623,1.098,11.003,3.17c5.389,3.305,8.451,7.984,8.473,14.42c0.006,1.741-0.098,3.491-0.292,5.22
		c-0.972,8.622-5.63,14.353-14.025,16.412c-4.302,1.056-8.867,1.082-13.325,1.417C32.973,59.027,31.301,59.096,31.463,56.956
		c3.486-0.001,6.984,0.184,10.455-0.04c9.232-0.595,16.108-6.206,17.859-14.346c1.931-8.973-0.747-16.168-7.772-20.058
		c-9.604-5.316-20.237-3.025-27.593,4.78c-8.438,8.953-6.143,21.516,4.665,27.584C30.006,55.398,30.649,56.229,31.463,56.956z"/>
	<path fill-rule="evenodd" clip-rule="evenodd" d="M16.414,29.787c-3.549-2.748-6.03-6.294-8.265-10.339
		C11.63,19.94,16.667,26.04,16.414,29.787z"/>
	<path fill-rule="evenodd" clip-rule="evenodd" d="M72.25,60.67c-5.337,0.496-7.981-3.722-12.582-5.113
		C64.138,54.25,69.803,56.596,72.25,60.67z"/>
	<path fill-rule="evenodd" clip-rule="evenodd" d="M62.705,5.015c-1.822,3.62-3.644,7.241-5.591,11.109
		c-1.958-3.05,0.612-8.826,4.664-11.561C62.087,4.714,62.396,4.864,62.705,5.015z"/>
	<path fill-rule="evenodd" clip-rule="evenodd" d="M3.068,53.555c3.953-1.796,7.693-4.26,12.991-3.978
		c-1.527,3.108-4.316,2.428-6.196,3.42c-1.962,1.038-4.295,1.371-6.466,2.013C3.287,54.524,3.178,54.04,3.068,53.555z"/>
	<path fill-rule="evenodd" clip-rule="evenodd" d="M30.713,15.56c-2.367-2.084-3.411-6.558-2.564-10.995
		C30.277,6.24,31.802,12.777,30.713,15.56z"/>
	<path fill-rule="evenodd" clip-rule="evenodd" d="M30.04,72.836c-0.968-3.435-1.625-6.769,0.655-10.197
		C32.274,64.922,31.964,70.963,30.04,72.836z"/>
	<path fill-rule="evenodd" clip-rule="evenodd" d="M73.494,23.831c-1.913,1.941-5.552,2.798-9.28,2.183
		C66.4,23.407,69.999,22.561,73.494,23.831z"/>
	<path fill-rule="evenodd" clip-rule="evenodd" fill="none" d="M31.536,57.027c-0.814-0.727-1.53-1.629-2.459-2.15
		c-10.808-6.068-13.104-18.631-4.665-27.584c7.356-7.805,17.99-10.096,27.593-4.78c7.025,3.89,9.703,11.085,7.772,20.058
		c-1.751,8.14-8.627,13.751-17.859,14.346c-3.471,0.224-6.969,0.039-10.455,0.04L31.536,57.027z M32.653,44.928
		c-1.258,3.025-0.664,4.803,1.935,6.208c3.227,1.744,7.834,0.644,10.045-2.4c1.218-1.678,1.162-2.281-0.491-3.904
		c-1.306,2.257-2.497,4.435-5.587,4.839C34.785,50.163,34.466,46.739,32.653,44.928z"/>
	<path fill-rule="evenodd" clip-rule="evenodd" d="M32.653,44.928c1.813,1.812,2.132,5.235,5.901,4.742
		c3.09-0.404,4.281-2.582,5.587-4.839c1.653,1.623,1.709,2.227,0.491,3.904c-2.211,3.044-6.818,4.145-10.045,2.4
		C31.989,49.73,31.396,47.953,32.653,44.928z"/>
</g>
<path fill-rule="evenodd" clip-rule="evenodd" fill="none" d="M25.855,41.236c0.287-0.211,0.572-0.42,0.859-0.631
	c0.25-1.734-0.604-2.832-2.404-2.67c-1.92,0.172-2.77,1.449-2.639,3.975c1.256-1.166,2.002-1.859,3.285-3.049
	C25.322,39.826,25.59,40.531,25.855,41.236z"/>
<path fill-rule="evenodd" clip-rule="evenodd" stroke="#000000" d="M33.527,28.625c-1.324-0.125-3.706,0.589-3.706,0.589
	s1.467-1.698,3.706-1.706s3.164,3.194,3.164,3.194S34.852,28.75,33.527,28.625z"/>
<path fill-rule="evenodd" clip-rule="evenodd" stroke="#000000" d="M48.652,29.375c-1.324-0.125-3.705,0.589-3.705,0.589
	s1.467-1.698,3.705-1.706s3.164,3.194,3.164,3.194S49.977,29.5,48.652,29.375z"/>
</svg>
