<?xml version="1.0" encoding="utf-8"?>
<!-- Generator: Adobe Illustrator 16.0.0, SVG Export Plug-In . SVG Version: 6.00 Build 0)  -->
<!DOCTYPE svg PUBLIC "-//W3C//DTD SVG 1.1//EN" "http://www.w3.org/Graphics/SVG/1.1/DTD/svg11.dtd">
<svg version="1.1" id="Layer_1" xmlns="http://www.w3.org/2000/svg" xmlns:xlink="http://www.w3.org/1999/xlink" x="0px" y="0px"
	 width="148.561px" height="279.271px" viewBox="0 0 148.561 279.271" enable-background="new 0 0 148.561 279.271"
	 xml:space="preserve">
<g>
	<path fill-rule="evenodd" clip-rule="evenodd" fill="none" d="M-5.56,304.271c-0.006-99.967-0.006-199.936-0.006-300
		c50.244,0,100.501,0,150.896,0c0,99.936,0,199.969,0,300C95.09,304.271,44.769,304.271-5.56,304.271z M27.422,197.211
		c2.295,1.004,4.831,3.216,6.847,2.815c15.014-2.983,27.708-9.967,35.984-23.359c0.819-1.325-0.121-3.739-0.244-5.647
		c-1.806,0.344-4.09,0.109-5.331,1.136c-4.564,3.776-8.242,8.925-13.266,11.765c-6.381,3.605-13.75,5.466-20.693,8.079
		c1.681-0.782,3.361-1.563,5.062-2.354c-4.228-3.923-11.719-2.947-14.776,2.494c-6.368,11.334-9.936,23.595-9.503,36.683
		c0.271,8.229,6.746,12.77,14.475,10.845c6.089-1.513,12.153-3.188,18.317-4.303c1.538-0.279,4.034,0.839,5.03,2.131
		c4.945,6.416,9.526,13.109,14.254,19.69c2.25,3.135,5.028,4.425,8.524,1.985c3.292-2.296,3.899-6.001,1.524-9.613
		c-4.459-6.777-9.731-13.126-13.376-20.308c-4.283-8.438-10.062-10.584-18.506-7.46c-0.198,0.074-0.547-0.267-1.096-0.558
		c4.11-5.407,0.988-11.223,0.886-16.904c-0.051-2.83-0.817-4.382-4.64-3.518C33.565,201.564,28.593,203.479,27.422,197.211z
		 M6.893,269.828c-0.639-0.349-1.278-0.698-1.917-1.048c3.05-1.399,6.023-3.028,9.188-4.084c1.292-0.432,4.217,0.177,4.3,0.667
		c0.32,1.895-0.288,3.928-0.395,5.919c-0.117,2.192-0.374,4.47,0.141,6.534c0.124,0.498,3.656,1.025,4.556,0.269
		c1.897-1.593,2.757-3.727,0.813-6.538c-1.054-1.524-0.665-4.28-0.292-6.369c0.078-0.441,2.944-0.633,4.488-0.499
		c1.794,0.157,3.717,0.479,5.281,1.305c2.587,1.365,6.503,2.368,2.627,6.759c-0.733,0.831,0.483,4.011,1.58,5.55
		c0.502,0.706,3.598,0.679,4.27-0.098c1.142-1.317,2.346-4.232,1.681-5.173c-2.877-4.069-4.248-9.854-10.686-10.469
		c-2.917-0.277-5.776-1.166-9.067-1.862c0-1.066-0.002-2.194,0.002-3.324c0.021-6.292,0.24-6.488,6.477-6.348
		c2.665,0.06,5.333-0.035,7.996,0.048c4.167,0.132,3.732-2.681,3.706-5.436c-0.029-2.92-1.408-3.563-4.119-3.349
		c-5.964,0.472-11.949,0.82-17.929,0.893c-11.682,0.142-11.844,0.043-11.33-11.851c0.294-6.798,1.16-13.573,1.866-20.35
		c0.361-3.475-1.627-3.833-4.299-3.621c-2.516,0.201-5.644-0.838-5.597,3.561c0.131,12.328,0.076,24.657,0.365,36.981
		c0.025,1.07,1.963,2.857,3.165,2.998c3.616,0.419,7.33-0.038,10.956,0.336c1.186,0.121,2.88,1.567,3.179,2.713
		c0.593,2.27,0.376,4.75,0.492,7.104c-12.918,1.131-16.109,5.12-18.298,12.778c-0.403,1.411,0.576,4.009,1.766,4.83
		c0.949,0.655,4.412-0.226,4.629-1.014C7.166,275.188,6.833,272.454,6.893,269.828z M38.252,161.207
		c-6.938,0.031-12.824,5.436-12.845,11.79c-0.021,6.589,6.083,12.105,13.219,11.947c7.133-0.158,12.65-5.505,12.509-12.118
		C50.993,166.167,45.457,161.175,38.252,161.207z M108.952,35.591c4.703,5.028,8.437,9.021,13.026,13.931c0-8.924,0-16.006,0-23.088
		c-2.513,2.052-3.665,5.706-5.754,6.356c-2.548,0.793-5.88-0.938-8.961-1.596c-0.416,0.843-1.243,1.712-1.183,2.512
		c0.77,9.921,1.582,19.841,2.666,29.73c0.112,1.032,1.994,2.599,3.127,2.664c5.119,0.288,10.267,0.126,15.935,0.126
		c1.026-11.225,2.021-22.091,3.013-32.956c-0.666-0.124-1.332-0.249-1.999-0.372c-0.398,1.316-1.072,2.616-1.15,3.95
		c-0.448,7.63-0.632,15.278-1.229,22.894c-0.099,1.235-1.855,3.366-2.787,3.334c-4.375-0.149-8.73-0.904-13.086-1.49
		c-0.064-0.009-0.048-0.623-0.068-0.955C110.01,52.692,109.519,44.753,108.952,35.591z"/>
	<path fill-rule="evenodd" clip-rule="evenodd" d="M27.422,197.211c1.171,6.269,6.143,4.354,9.473,3.6
		c3.823-0.864,4.589,0.688,4.64,3.518c0.091,5.085,2.112,10.836,0.38,15.411c-0.22,0.581-3.106,1.755-3.799,2.011
		c0.549,0.291,3.43,0.114,3.628,0.04c8.444-3.124,14.223-0.978,18.506,7.46c3.645,7.182,8.917,13.53,13.376,20.308
		c2.375,3.612,1.768,7.317-1.524,9.613c-3.496,2.439-6.274,1.149-8.524-1.985c-4.728-6.581-9.309-13.274-14.254-19.69
		c-0.996-1.292-3.492-2.41-5.03-2.131c-6.164,1.115-12.228,2.79-18.317,4.303c-7.729,1.925-14.204-2.616-14.475-10.845
		c-0.433-13.088,3.135-25.349,9.503-36.683c3.057-5.441,10.548-6.417,14.776-2.494c-1.701,0.79-3.381,1.571-5.06,2.354
		C29.622,193.736,28.522,195.475,27.422,197.211z M37.669,209.362c-0.298-0.069-0.596-0.14-0.893-0.208
		c-1.015,4.684-2.03,9.37-3.045,14.054c0.563,0.339,1.125,0.675,1.688,1.014c1.011-1.013,2.855-2,2.884-3.04"/>
	<path fill-rule="evenodd" clip-rule="evenodd" d="M6.893,269.828c-0.06,2.626,0.273,5.36-0.406,7.813
		c-0.217,0.788-3.68,1.669-4.629,1.014c-1.189-0.821-2.168-3.419-1.766-4.83c2.188-7.658,5.379-11.647,18.298-12.778
		c-0.116-2.354,0.101-4.835-0.492-7.104c-0.299-1.146-1.994-2.592-3.179-2.713c-3.626-0.374-7.34,0.083-10.956-0.336
		c-1.202-0.141-3.14-1.928-3.165-2.998c-0.29-12.324-0.234-24.653-0.365-36.981c-0.047-4.398,3.081-3.359,5.597-3.561
		c2.672-0.212,4.66,0.146,4.299,3.621c-0.707,6.776-1.572,13.552-1.866,20.35c-0.515,11.894-0.353,11.992,11.33,11.851
		c5.979-0.072,11.965-0.421,17.929-0.893c2.711-0.214,4.09,0.429,4.119,3.349c0.026,2.755,0.46,5.567-3.706,5.436
		c-2.664-0.083-5.332,0.012-7.996-0.048c-6.236-0.141-6.456,0.056-6.477,6.348c-0.004,1.13-0.002,2.258-0.002,3.324
		c3.292,0.696,6.151,1.585,9.067,1.862c6.438,0.615,7.809,6.399,10.686,10.469c0.666,0.94-0.539,3.855-1.681,5.173
		c-0.672,0.776-3.768,0.804-4.27,0.098c-1.097-1.539-2.313-4.719-1.58-5.55c3.876-4.391-0.04-5.394-2.627-6.759
		c-1.564-0.825-3.486-1.147-5.281-1.305c-1.544-0.134-4.41,0.058-4.488,0.499c-0.373,2.089-0.762,4.845,0.292,6.369
		c1.944,2.812,1.083,4.945-0.813,6.538c-0.9,0.757-4.432,0.229-4.556-0.269c-0.515-2.064-0.258-4.342-0.141-6.534
		c0.107-1.991,0.715-4.024,0.395-5.919c-0.083-0.49-3.008-1.099-4.3-0.667c-3.165,1.056-6.138,2.685-9.188,4.084
		C5.615,269.13,6.253,269.479,6.893,269.828z"/>
	<path fill-rule="evenodd" clip-rule="evenodd" d="M38.252,161.207c7.205-0.032,12.74,4.96,12.883,11.619
		c0.141,6.613-5.375,11.96-12.509,12.118c-7.137,0.158-13.24-5.358-13.219-11.947C25.428,166.643,31.315,161.238,38.252,161.207z"/>
	<path fill-rule="evenodd" clip-rule="evenodd" d="M27.647,197.286c1.1-1.736,2.2-3.475,3.299-5.212
		c6.941-2.613,14.31-4.474,20.691-8.079c5.024-2.84,8.703-7.989,13.267-11.765c1.241-1.026,3.524-0.792,5.33-1.136
		c0.123,1.908,1.064,4.322,0.245,5.647c-8.277,13.393-23.244,21.545-38.257,24.528C30.205,201.672,28.788,200.167,27.647,197.286z"
		/>
	<path fill-rule="evenodd" clip-rule="evenodd" d="M128.822,32.898c0.667,0.124,1.333,0.249,1.999,0.372
		c-0.992,10.865-1.359,30.844-3.224,32.525c-3.699,0.575-10.604,0.593-15.724,0.305c-1.133-0.065-3.015-1.632-3.127-2.664
		c-1.084-9.889-1.896-19.809-2.666-29.73c-0.061-0.8,0.767-1.669,1.183-2.512c3.081,0.658,6.413,2.389,8.961,1.596
		c2.089-0.65,3.241-4.304,5.754-6.356c0,7.082,0,14.164,0,23.088c-4.59-4.91-8.323-8.903-13.026-13.931
		c0.567,9.163,1.059,17.102,1.549,25.041c0.021,0.333,0.532,2.305,0.597,2.314c4.356,0.586,9.774,0.052,14.15,0.2
		c0.932,0.032,1.096-2.168,1.194-3.403"/>
	<path fill-rule="evenodd" clip-rule="evenodd" fill="none" d="M35.418,224.222c-0.563-0.339-1.125-0.675-1.688-1.014
		c1.016-4.684,2.03-9.37,3.045-14.054c0.297,0.068,0.595,0.139,0.893,0.208"/>
</g>
<g>
	<g>
		<g>
			<g>
				<g>
					<g>
						<path fill="none" d="M89.121,165.915c0,0-0.012-1.715-0.029-4.286c-0.042-1.359-0.09-2.945-0.142-4.645
							c-0.062-0.905-0.125-1.841-0.19-2.792c-0.035-0.476-0.07-0.956-0.105-1.438l-0.184-1.529
							c-0.133-1.024-0.239-2.032-0.404-3.052c-0.199-1.036-0.396-2.054-0.585-3.041c-0.172-0.986-0.44-1.933-0.685-2.83
							c-0.249-0.896-0.484-1.744-0.701-2.525c-0.503-1.517-0.965-2.753-1.277-3.628c-0.159-0.436-0.285-0.778-0.37-1.011
							c-0.094-0.219-0.145-0.336-0.145-0.336l-27.798,11.27c0,0,0.031,0.069,0.088,0.198c0.042,0.125,0.105,0.307,0.186,0.539
							c0.165,0.461,0.4,1.12,0.684,1.91c0.104,0.39,0.217,0.813,0.336,1.261c0.124,0.446,0.276,0.908,0.349,1.425
							c0.1,0.506,0.203,1.029,0.307,1.56c0.089,0.554,0.141,1.162,0.222,1.744l0.115,0.88c0.021,0.324,0.043,0.646,0.064,0.967
							c0.045,0.641,0.089,1.271,0.132,1.883c0.04,1.338,0.078,2.588,0.11,3.658c0.016,2.292,0.026,3.819,0.026,3.819H89.121z"/>
					</g>
					<path fill-rule="evenodd" clip-rule="evenodd" fill="#231F20" d="M71.458,147.085l2.912-0.721c0,0-0.332-1.211-0.664-2.422
						c-0.149-0.612-0.404-1.185-0.549-1.632c-0.158-0.442-0.264-0.736-0.264-0.736l-2.821,1.02c0,0,0.1,0.277,0.248,0.693
						c0.136,0.419,0.379,0.96,0.517,1.533C71.147,145.952,71.458,147.085,71.458,147.085z"/>
					<path fill-rule="evenodd" clip-rule="evenodd" fill="#231F20" d="M72.75,155.436l2.99-0.237c0,0-0.062-1.229-0.241-2.467
						c-0.077-0.618-0.154-1.236-0.212-1.699c-0.05-0.464-0.111-0.771-0.111-0.771l-2.961,0.479c-0.001,0,0.058,0.289,0.104,0.729
						c0.055,0.439,0.127,1.025,0.2,1.611C72.69,154.246,72.749,155.436,72.75,155.436z"/>
					<path fill-rule="evenodd" clip-rule="evenodd" fill="#231F20" d="M73.048,163.958l3-0.022c0,0-0.01-1.213-0.021-2.427
						c-0.036-1.222-0.073-2.442-0.073-2.442l-2.998,0.109c0,0,0.036,1.192,0.072,2.386C73.039,162.76,73.048,163.958,73.048,163.958
						z"/>
				</g>
			</g>
			<g>
				<g>
					<g>
						<path fill="none" d="M84.303,134.802c0,0-0.202-0.466-0.558-1.281c-0.361-0.801-0.857-2.006-1.506-3.336
							c-1.291-2.61-3.143-6.078-5.094-9.142c-0.974-1.598-1.919-3.005-2.813-4.375c-0.852-1.278-1.647-2.47-2.328-3.492
							c-0.634-0.958-1.162-1.757-1.531-2.317c-0.346-0.54-0.543-0.849-0.543-0.849l-25.25,16.192c0,0,0.24,0.374,0.659,1.029
							c0.413,0.624,1.001,1.516,1.708,2.586c0.667,1.001,1.446,2.168,2.281,3.42c0.766,1.175,1.628,2.46,2.337,3.634
							c1.536,2.408,2.715,4.679,3.593,6.42c0.748,1.668,1.247,2.78,1.247,2.78L84.303,134.802z"/>
					</g>
					<polygon fill-rule="evenodd" clip-rule="evenodd" fill="#231F20" points="60.13,124.312 62.627,122.648 59.97,118.651 
						57.461,120.296 					"/>
					<path fill-rule="evenodd" clip-rule="evenodd" fill="#231F20" d="M64.741,131.542l2.583-1.526c0,0-0.146-0.272-0.388-0.662
						c-0.242-0.39-0.565-0.91-0.888-1.429c-0.323-0.52-0.646-1.04-0.889-1.429c-0.25-0.381-0.416-0.635-0.416-0.635l-2.52,1.628
						c0,0,0.164,0.25,0.41,0.626c0.236,0.38,0.551,0.887,0.866,1.393c0.314,0.506,0.629,1.013,0.865,1.393
						S64.741,131.542,64.741,131.542z"/>
					<path fill-rule="evenodd" clip-rule="evenodd" fill="#231F20" d="M68.643,139.069l2.741-1.219c0,0-0.126-0.285-0.313-0.711
						c-0.186-0.428-0.434-0.999-0.727-1.541c-0.562-1.099-1.123-2.199-1.123-2.199l-2.649,1.408c0,0,0.54,1.057,1.08,2.113
						c0.283,0.523,0.518,1.065,0.693,1.472C68.524,138.799,68.643,139.069,68.643,139.069z"/>
				</g>
			</g>
			<g>
				<g>
					<g>
						<path fill="none" d="M69.93,110.01c0,0-0.192-0.305-0.529-0.838c-0.338-0.533-0.838-1.301-1.337-2.181
							c-0.523-0.887-1.143-1.913-1.747-3.078c-0.305-0.575-0.642-1.166-0.947-1.771c-0.297-0.605-0.599-1.22-0.901-1.835
							c-0.628-1.227-1.107-2.465-1.644-3.616c-0.438-1.158-0.896-2.233-1.217-3.157c-0.313-0.922-0.575-1.69-0.758-2.228
							c-0.17-0.537-0.246-0.844-0.246-0.844l-28.744,8.575c0,0,0.126,0.479,0.384,1.294c0.273,0.806,0.663,1.956,1.131,3.336
							c0.483,1.371,1.12,2.915,1.775,4.593c0.729,1.612,1.451,3.39,2.291,5.055c0.414,0.84,0.827,1.679,1.234,2.505
							c0.415,0.819,0.85,1.596,1.258,2.363c0.801,1.532,1.64,2.939,2.353,4.146c0.709,1.23,1.313,2.162,1.733,2.828
							c0.421,0.665,0.662,1.045,0.662,1.045L69.93,110.01z"/>
					</g>
					<path fill-rule="evenodd" clip-rule="evenodd" fill="#231F20" d="M47.461,101.492l2.789-1.107c0,0-0.425-1.095-0.85-2.19
						c-0.376-1.11-0.753-2.221-0.753-2.221l-2.851,0.933c0,0,0.392,1.156,0.785,2.312C47.021,100.355,47.461,101.492,47.461,101.492
						z"/>
					<path fill-rule="evenodd" clip-rule="evenodd" fill="#231F20" d="M51.068,109.444l2.67-1.367c0,0-0.521-1.059-1.042-2.117
						c-0.262-0.528-0.523-1.057-0.694-1.464c-0.179-0.403-0.298-0.673-0.298-0.673l-2.736,1.23c0,0,0.123,0.278,0.308,0.696
						c0.177,0.421,0.446,0.967,0.717,1.512C50.531,108.353,51.068,109.444,51.068,109.444z"/>
					<path fill-rule="evenodd" clip-rule="evenodd" fill="#231F20" d="M55.354,117.005l2.549-1.583c0,0-0.159-0.251-0.397-0.627
						c-0.224-0.381-0.524-0.89-0.823-1.398c-0.299-0.508-0.598-1.017-0.823-1.398c-0.229-0.378-0.364-0.642-0.364-0.642
						l-2.619,1.463c0,0,0.14,0.27,0.375,0.661c0.231,0.393,0.54,0.917,0.848,1.442c0.309,0.524,0.618,1.048,0.849,1.441
						C55.191,116.749,55.354,117.005,55.354,117.005z"/>
				</g>
			</g>
			<g>
				<g>
					<g>
						<path fill="none" d="M60.603,90.462c0,0-0.087-0.306-0.239-0.842c-0.156-0.536-0.389-1.301-0.572-2.213
							c-0.105-0.457-0.219-0.951-0.34-1.473c-0.11-0.522-0.18-1.068-0.283-1.635c-0.235-1.136-0.313-2.331-0.462-3.527
							c-0.161-2.382-0.201-4.738-0.015-6.478c0.077-0.872,0.106-1.603,0.213-2.104c0.078-0.504,0.123-0.792,0.123-0.792
							l-29.646-4.566c0,0-0.077,0.513-0.211,1.411c-0.16,0.896-0.256,2.188-0.385,3.74c-0.296,3.102-0.278,7.249,0.034,11.33
							c0.218,2.024,0.406,4.065,0.761,5.915c0.164,0.929,0.301,1.838,0.477,2.68c0.189,0.835,0.368,1.625,0.533,2.354
							c0.314,1.469,0.66,2.646,0.897,3.474c0.237,0.828,0.372,1.301,0.372,1.301L60.603,90.462z"/>
					</g>
					<path fill-rule="evenodd" clip-rule="evenodd" fill="#231F20" d="M42.536,75.782l2.999,0.083c0,0-0.013-1.163,0.116-2.316
						c0.097-1.156,0.194-2.312,0.194-2.312l-2.979-0.35c0,0-0.103,1.223-0.207,2.446C42.524,74.554,42.536,75.782,42.536,75.782z"/>
					<path fill-rule="evenodd" clip-rule="evenodd" fill="#231F20" d="M42.971,84.558l2.976-0.377c0,0-0.126-1.157-0.253-2.313
						c-0.07-0.578-0.066-1.16-0.096-1.595c-0.021-0.436-0.034-0.726-0.034-0.726l-2.998,0.126c0,0,0.015,0.306,0.037,0.766
						c0.031,0.458,0.029,1.074,0.102,1.682C42.838,83.34,42.971,84.558,42.971,84.558z"/>
					<path fill-rule="evenodd" clip-rule="evenodd" fill="#231F20" d="M44.668,93.134l2.897-0.776c0,0-0.08-0.281-0.199-0.704
						c-0.097-0.427-0.227-0.996-0.356-1.565c-0.13-0.569-0.26-1.139-0.358-1.565c-0.098-0.427-0.134-0.716-0.134-0.716l-2.947,0.562
						c0,0,0.039,0.305,0.141,0.751c0.102,0.447,0.238,1.043,0.374,1.64c0.136,0.596,0.272,1.192,0.375,1.64
						C44.585,92.84,44.668,93.134,44.668,93.134z"/>
				</g>
			</g>
			<g>
				<g>
					<g>
						<path fill="none" d="M59.027,71.398c0,0,0.129-1.159,0.552-2.87c0.354-1.724,1.107-3.975,1.963-6.243
							c1.096-2.621,2.246-5.236,3.22-7.146c0.461-0.967,0.874-1.758,1.169-2.308c0.291-0.553,0.457-0.869,0.457-0.869L39.917,37.855
							c0,0-0.211,0.401-0.581,1.104c-0.375,0.701-0.898,1.707-1.487,2.933c-1.229,2.427-2.704,5.745-4.1,9.109
							c-1.477,3.781-2.736,7.708-3.39,10.746c-0.323,1.519-0.646,2.771-0.761,3.674c-0.138,0.897-0.217,1.411-0.217,1.411
							L59.027,71.398z"/>
					</g>
					<path fill-rule="evenodd" clip-rule="evenodd" fill="#231F20" d="M49.183,50.48l2.719,1.268c0,0,0.124-0.269,0.31-0.673
						c0.195-0.399,0.456-0.931,0.717-1.463c0.261-0.532,0.521-1.064,0.717-1.463c0.205-0.395,0.341-0.657,0.341-0.657l-2.669-1.371
						c0,0-0.14,0.27-0.349,0.674c-0.2,0.409-0.467,0.954-0.734,1.499s-0.534,1.09-0.734,1.499
						C49.31,50.205,49.183,50.48,49.183,50.48z"/>
					<path fill-rule="evenodd" clip-rule="evenodd" fill="#231F20" d="M45.818,58.534l2.823,1.014c0,0,0.402-1.092,0.805-2.184
						c0.461-1.091,0.921-2.183,0.921-2.183l-2.757-1.183c0,0-0.472,1.119-0.944,2.237C46.243,57.384,45.818,58.534,45.818,58.534z"
						/>
					<path fill-rule="evenodd" clip-rule="evenodd" fill="#231F20" d="M43.477,66.976l2.946,0.565c0,0,0.251-1.133,0.502-2.266
						c0.116-0.569,0.252-1.133,0.389-1.547c0.123-0.418,0.205-0.696,0.205-0.696l-2.885-0.822c0,0-0.086,0.294-0.216,0.735
						c-0.143,0.438-0.287,1.034-0.411,1.635C43.742,65.778,43.477,66.976,43.477,66.976z"/>
				</g>
			</g>
			<g>
				<g>
					<g>
						<path fill="none" d="M66.388,51.963c0,0,0.166-0.315,0.456-0.868c0.306-0.543,0.743-1.318,1.267-2.248
							c0.521-0.933,1.186-1.977,1.863-3.122c0.722-1.106,1.463-2.315,2.266-3.461c0.794-1.155,1.592-2.304,2.384-3.33
							c0.765-1.06,1.528-1.98,2.173-2.782c0.634-0.817,1.203-1.435,1.59-1.885c0.389-0.447,0.61-0.702,0.61-0.702L56.61,13.6
							c0,0-0.31,0.356-0.854,0.979c-0.54,0.625-1.334,1.506-2.198,2.606c-0.881,1.092-1.92,2.362-2.94,3.764
							c-1.061,1.385-2.117,2.896-3.159,4.413c-1.053,1.513-2.016,3.064-2.948,4.507c-0.878,1.466-1.728,2.822-2.396,4.011
							c-0.669,1.188-1.227,2.179-1.617,2.872c-0.371,0.702-0.583,1.104-0.583,1.104L66.388,51.963z"/>
					</g>
					<path fill-rule="evenodd" clip-rule="evenodd" fill="#231F20" d="M62.664,28.11l2.375,1.833c0,0,0.176-0.237,0.457-0.579
						c0.277-0.345,0.647-0.804,1.017-1.264c0.727-0.93,1.506-1.813,1.506-1.813l-2.281-1.949c0,0-0.805,0.914-1.555,1.873
						c-0.381,0.474-0.763,0.948-1.049,1.303C62.845,27.866,62.665,28.11,62.664,28.11z"/>
					<path fill-rule="evenodd" clip-rule="evenodd" fill="#231F20" d="M57.634,35.229l2.514,1.638c0,0,0.161-0.249,0.401-0.621
						c0.236-0.376,0.566-0.867,0.908-1.349c0.674-0.971,1.349-1.942,1.349-1.942l-2.441-1.745c0,0-0.693,0.998-1.386,1.996
						c-0.351,0.496-0.69,1-0.933,1.386C57.799,34.974,57.634,35.229,57.634,35.229z"/>
					<path fill-rule="evenodd" clip-rule="evenodd" fill="#231F20" d="M53.161,42.668l2.625,1.453c0,0,0.582-1.032,1.163-2.064
						c0.607-1.017,1.215-2.033,1.215-2.033l-2.565-1.555c0,0-0.623,1.042-1.246,2.084C53.757,41.61,53.161,42.668,53.161,42.668z"/>
				</g>
			</g>
			<g>
				<g>
					<g>
						<path fill="none" d="M78.997,33.564c0,0,0.215-0.267,0.616-0.691c0.4-0.423,0.973-1.027,1.66-1.753
							c0.696-0.703,1.525-1.488,2.407-2.333c0.913-0.768,1.85-1.682,2.845-2.415c0.492-0.377,0.973-0.795,1.463-1.142
							c0.489-0.343,0.971-0.681,1.438-1.007c0.424-0.318,1.006-0.681,1.509-1.009c0.523-0.347,0.964-0.608,1.385-0.871
							c0.43-0.273,0.788-0.479,1.099-0.654c0.309-0.174,0.601-0.357,0.801-0.457c0.406-0.213,0.64-0.335,0.64-0.335L81.164-5.79
							c0,0-0.485,0.256-1.334,0.703c-0.43,0.226-0.873,0.494-1.423,0.807c-0.548,0.313-1.153,0.667-1.752,1.043
							c-0.611,0.378-1.3,0.796-1.939,1.218c-0.663,0.433-1.329,0.847-2.135,1.422C71.803-0.049,71,0.516,70.184,1.09
							c-0.808,0.582-1.567,1.213-2.356,1.826c-1.6,1.216-3.014,2.544-4.409,3.752c-1.322,1.248-2.547,2.421-3.56,3.446
							c-0.985,1.04-1.806,1.907-2.381,2.514c-0.57,0.609-0.868,0.971-0.868,0.971L78.997,33.564z"/>
					</g>
					<path fill-rule="evenodd" clip-rule="evenodd" fill="#231F20" d="M81.646,10.098l1.638,2.514c0,0,0.99-0.661,1.991-1.265
						c0.995-0.633,2.007-1.193,2.007-1.193l-1.479-2.61c0,0-1.075,0.597-2.103,1.25C82.654,9.426,81.646,10.098,81.646,10.098z"/>
					<path fill-rule="evenodd" clip-rule="evenodd" fill="#231F20" d="M74.637,15.363l1.952,2.278c0,0,0.22-0.193,0.55-0.483
						c0.33-0.289,0.799-0.638,1.254-1.003c0.458-0.362,0.916-0.724,1.26-0.996c0.339-0.278,0.583-0.437,0.583-0.437l-1.78-2.414
						c0,0-0.257,0.168-0.612,0.458c-0.36,0.284-0.84,0.663-1.32,1.042c-0.477,0.383-0.967,0.75-1.312,1.051
						C74.867,15.162,74.637,15.363,74.637,15.363z"/>
					<path fill-rule="evenodd" clip-rule="evenodd" fill="#231F20" d="M68.355,21.41l2.193,2.047c0,0,0.809-0.854,1.616-1.708
						c0.844-0.816,1.688-1.631,1.688-1.631l-2.067-2.174c0,0-0.877,0.849-1.753,1.697C69.193,20.525,68.355,21.41,68.355,21.41z"/>
				</g>
			</g>
			<g>
				<g>
					<g>
						<path fill="none" d="M94.858,20.898c-0.01,0.011,0.258-0.155,0.596-0.295c0.174-0.083,0.386-0.182,0.629-0.297
							c0.203-0.07,0.428-0.156,0.67-0.263c0.192-0.046,0.406-0.126,0.577-0.175c0.131-0.001,0.31-0.094,0.362-0.063
							c0.188-0.05,0.146-0.005,0.253-0.002c0.026,0.014,0.053,0.01,0.088,0c0.054,0.035,0.109,0.058,0.169,0.07l0.093,0.012
							l0.135,0.072c0.092,0.044,0.185,0.079,0.279,0.107c0.081,0.026,0.278,0.161,0.311,0.168l-0.093-0.063l-0.001-0.001
							l25.344-18.071c0,0-0.536-0.567-1.56-1.503c-1.026-0.928-2.516-2.262-4.501-3.645c-1.008-0.671-2.101-1.398-3.256-2.167
							c-0.632-0.368-1.289-0.735-1.969-1.094c-0.62-0.319-1.067-0.572-1.683-0.849c-0.609-0.257-1.229-0.519-1.856-0.783
							c-0.316-0.126-0.635-0.254-0.954-0.382l-1.046-0.338c-0.704-0.221-1.418-0.433-2.136-0.633
							c-0.756-0.17-1.526-0.323-2.295-0.465c-3.084-0.536-6.406-0.59-9.225-0.174c-1.466,0.159-2.706,0.474-3.938,0.755
							c-1.174,0.308-2.21,0.651-3.176,0.972c-0.887,0.348-1.698,0.667-2.419,0.95c-0.653,0.3-1.223,0.562-1.691,0.777
							c-0.47,0.219-0.836,0.393-1.053,0.511c-0.228,0.119-0.349,0.182-0.349,0.182L94.858,20.898z"/>
					</g>
					<path fill-rule="evenodd" clip-rule="evenodd" fill="#231F20" d="M106.835,6.201l-1.466,2.617c0,0,0.228,0.121,0.57,0.301
						c0.332,0.211,0.773,0.492,1.216,0.773c0.888,0.558,1.708,1.213,1.708,1.213l2.268-2.068c0,0-1-0.812-2.09-1.5
						c-0.542-0.347-1.085-0.694-1.491-0.954C107.121,6.354,106.835,6.201,106.835,6.201z"/>
					<path fill-rule="evenodd" clip-rule="evenodd" fill="#231F20" d="M98.116,3.724l-0.05,3c0,0,0.065-0.001,0.181-0.004
						c0.115,0.01,0.279,0.025,0.476,0.042c0.393,0.047,0.921,0.04,1.438,0.171c0.518,0.109,1.043,0.175,1.423,0.32
						c0.385,0.117,0.641,0.196,0.641,0.196l0.925-2.854c0,0-0.306-0.093-0.764-0.232c-0.449-0.165-1.088-0.257-1.716-0.385
						c-0.625-0.15-1.273-0.156-1.752-0.208c-0.241-0.02-0.441-0.036-0.581-0.047C98.196,3.723,98.116,3.724,98.116,3.724z"/>
					<path fill-rule="evenodd" clip-rule="evenodd" fill="#231F20" d="M89.35,5.733l1.219,2.741c0,0,0.254-0.135,0.646-0.278
						c0.39-0.144,0.905-0.375,1.429-0.543c0.524-0.154,1.046-0.344,1.441-0.434c0.395-0.087,0.658-0.146,0.658-0.146L94.114,4.14
						c0,0-0.311,0.069-0.775,0.173c-0.465,0.107-1.059,0.318-1.663,0.5c-0.599,0.195-1.17,0.448-1.61,0.612
						C89.624,5.588,89.349,5.732,89.35,5.733z"/>
				</g>
			</g>
			<g>
				<g>
					<g>
						<path fill="none" d="M98.925,20.167l-0.268,0.818c-0.543,1.733-0.788,3.575-0.799,5.202c-0.017,1.645,0.187,3.106,0.456,4.326
							c0.14,0.676,0.29,1.178,0.454,1.71l0.258,0.791l0.256,0.675c0.171,0.428,0.363,0.898,0.541,1.281l0.536,1.085
							c0.37,0.72,0.698,1.25,1.064,1.867c0.33,0.509,0.681,1.051,1.013,1.519c0.319,0.44,0.655,0.907,0.975,1.318l0.942,1.178
							l23.074-19.166l-0.283-0.354l-0.192-0.26c-0.046-0.065-0.044-0.078-0.079-0.112c0.044,0.048,0.016,0.028,0.094,0.162
							c0.038,0.066,0.071,0.136,0.099,0.207c0.038,0.087,0.118,0.249,0.162,0.375l0.188,0.542c0.067,0.219,0.111,0.411,0.199,0.763
							c0.124,0.583,0.247,1.39,0.238,2.382c-0.004,0.508-0.05,1.002-0.127,1.588c-0.089,0.556-0.212,1.119-0.382,1.682l-0.14,0.414
							c0.003,0.023-0.059,0.092-0.003,0.079l0.134-0.017l0.267-0.034l1.067-0.136c0.076-0.016,0.206-0.012,0.238-0.045l0.077-0.108
							l0.155-0.216c0.101-0.144,0.214-0.289,0.304-0.432c0.372-0.573,0.729-1.145,1-1.677c0.568-1.084,0.949-2.044,1.234-2.966
							c0.294-0.924,0.493-1.813,0.635-2.819c0.084-0.498,0.122-1.035,0.12-1.599l0.036-1.745c-0.36-6.18-3.496-11.657-8.201-16.348
							L98.925,20.167z"/>
					</g>
					<path fill-rule="evenodd" clip-rule="evenodd" fill="#231F20" d="M113.913,26.44l-2.999,0.085c0,0,0.007,0.11,0.022,0.302
						c0.016,0.193,0.04,0.47,0.109,0.769c0.113,0.626,0.379,1.349,0.687,2.006c0.627,1.301,1.407,2.355,1.407,2.355l2.448-1.734
						c0,0-0.678-0.933-1.143-1.901c-0.225-0.483-0.401-0.968-0.458-1.315c-0.044-0.177-0.052-0.316-0.06-0.414
						C113.918,26.496,113.913,26.44,113.913,26.44z"/>
					<path fill-rule="evenodd" clip-rule="evenodd" fill="#231F20" d="M118.542,19.514l-3.459,0.115c0,0-0.011,0.266-0.145,0.637
						c-0.133,0.373-0.448,0.804-0.821,1.171c-0.372,0.37-0.783,0.695-1.084,0.948c-0.299,0.256-0.497,0.426-0.497,0.426l3.185,0.619
						c0,0,0.225-0.214,0.563-0.534c0.337-0.316,0.794-0.722,1.203-1.178c0.41-0.452,0.759-0.978,0.899-1.431
						C118.531,19.836,118.542,19.514,118.542,19.514z"/>
					<path fill-rule="evenodd" clip-rule="evenodd" fill="#231F20" d="M114.227,11.775l-2.811,1.542c0,0,0.758,0.725,1.436,1.526
						c0.69,0.792,1.234,1.691,1.234,1.691l3.303-0.792c0,0-0.631-1.102-1.448-2.08C115.14,12.672,114.227,11.775,114.227,11.775z"/>
				</g>
			</g>
		</g>
	</g>
</g>
<path fill-rule="evenodd" clip-rule="evenodd" d="M38.316,220.414"/>
</svg>
