<?xml version="1.0" encoding="utf-8"?>
<!-- Generator: Adobe Illustrator 16.0.0, SVG Export Plug-In . SVG Version: 6.00 Build 0)  -->
<!DOCTYPE svg PUBLIC "-//W3C//DTD SVG 1.1//EN" "http://www.w3.org/Graphics/SVG/1.1/DTD/svg11.dtd">
<svg version="1.1" id="Layer_1" xmlns="http://www.w3.org/2000/svg" xmlns:xlink="http://www.w3.org/1999/xlink" x="0px" y="0px"
	 width="109.874px" height="227.333px" viewBox="0 0 109.874 227.333" enable-background="new 0 0 109.874 227.333"
	 xml:space="preserve">
<g>
	<path fill-rule="evenodd" clip-rule="evenodd" fill="none" d="M91.154,253.864c-41.946,0-83.892,0-125.808,0
		c0-82.216,0.014-164.37-0.09-246.585c-0.002-2.841,0.571-3.42,3.414-3.415C9.479,3.983,50.347,3.956,91.154,3.956
		C91.154,87.278,91.154,170.571,91.154,253.864z M31.875,86.71c0.288-1.736,1.274-3.716,0.766-5.173
		c-1.348-3.916-6.301-5.869-10.272-4.634c-4.225,1.353-6.611,4.909-6.201,9.496c0.355,4.674,3.327,7.261,9.333,8.01
		c-1.211,1.568-2.425,3.197-3.638,4.827c0.278-0.983,0.557-2.026,0.939-3.158c-4.03,0.627-6.015,3.164-7.302,6.373
		c-2.944,7.214-3.387,14.871-2.368,22.468c0.342,2.173,2.438,4.105,3.797,6.104c0.933,1.411,2.314,2.644,2.738,4.148
		c2.688,10.104,1.475,20.319,0.057,30.511c-0.491,3.528,0.674,5.833,3.654,6.24c3.286,0.557,4.747-1.148,5.398-4.243
		c2.928-12.747,3.262-25.56-0.397-38.121c-1.388-4.682-1.816-9.198-0.903-13.888c0.566-3.136,1.294-6.264,1.665-9.359
		c0.088-1.146-0.748-2.37-1.187-3.559c0.824-1.246,1.652-2.535,2.603-3.729c6.237-7.948,12.554-15.82,18.882-23.683
		c1.486-1.884,2.773-3.842,0.266-5.671c-2.388-1.741-3.694,0.215-5.085,1.855C40.41,76.624,36.105,81.691,31.875,86.71z
		 M68.254,180.69c-1.203-0.828-2.487-1.565-3.591-2.56c-2.996-2.853-5.867-5.839-8.909-8.579c-0.623-0.577-1.917-0.238-2.897-0.363
		c0.093,0.962-0.018,2.105,0.446,2.856c0.588,1.019,1.724,1.748,2.544,2.671c3.187,3.398,6.355,6.81,9.533,10.215
		c-0.127,0.841-0.625,1.814-0.459,2.57c1.822,6.132,1.326,12.117,0.187,18.433c-0.835,4.924,0.634,10.317,1.389,15.458
		c0.306,2.196,2.249,3.473,4.353,2.262c0.872-0.523,1.128-2.552,1.275-3.97c0.063-1.016-0.768-2.13-0.86-3.178
		c-0.155-5.063-3.044-10.805,3.844-14.061c0.78-0.339,1.423-1.77,1.525-2.771c0.734-5.433,0.378-10.819-2.298-15.721
		C73.132,181.758,71.499,179.407,68.254,180.69z M44.299,59.074c-0.627,0.321-1.257,0.973-1.748,0.856
		c-2.6-0.571-5.104-1.381-7.681-2.111c-0.276,0.473-0.554,0.946-0.83,1.418c1.336,1.172,2.542,2.729,4.153,3.497
		c4.873,2.414,9.853,4.529,14.86,6.752c0.315,0.132,0.774,0.044,1.196,0.059c0.63-1.453,1.618-2.712,2.829-2.968
		c7.776-1.68,15.323-1.416,22.154,3.356c0.43,0.293,0.986,0.327,1.726,0.563c0.301-1.222,0.676-2.265,0.882-3.322
		c0.552-3.118,0.156-5.065-3.901-5.228c-7.317-0.328-14.576-1.362-21.725,1.367c-1.337,0.494-4.028-0.388-4.865-1.551
		c-1.877-2.437-4.016-3.184-6.777-2.929c-1.448-5.433-2.952-10.884-4.314-16.369c-0.512-2.124-0.109-3.576,2.61-4.569
		c11.043-4.045,14.598-20.949,6.348-29.366c-6.106-6.239-17.551-4.583-21.575,3.115c-4.281,8.045-0.146,21.842,8.102,25.682
		c2.763,1.316,3.202,3.159,3.854,5.608C40.944,48.378,42.676,53.697,44.299,59.074z M23.314,175.941c0-0.005,0-0.01,0-0.015
		c-3.725,0-7.509-0.107-11.228,0.037c-0.803,0.018-2.153,0.495-2.361,1.046c-0.3,0.941-0.103,2.94,0.247,3.083
		c3.008,0.815,1.555,2.913,1.312,4.383c-1.968,11.998-4.112,23.976-6.053,35.978c-0.178,0.967,0.762,2.126,1.201,3.163
		c0.728-0.911,1.904-1.69,2.075-2.683c1.057-4.875,1.823-9.787,2.619-14.691c0.299-1.928,0.768-3.372,3.323-3.325
		c5.935,0.17,11.873,0.143,17.868,0.013c2.161-0.025,2.811,0.942,3.154,2.916c0.719,4.809,1.505,9.613,2.532,14.313
		c0.242,1.065,1.616,1.948,2.427,2.914c0.314-1.129,1.138-2.312,0.95-3.318c-1.958-11.724-4.116-23.425-6.08-35.146
		c-0.254-1.514-1.052-3.169,1.279-4.535c1.868-1.126,0.398-4.049-2.053-4.107C30.813,175.815,27.031,175.941,23.314,175.941z
		 M70.69,178.408c3.812,0.026,6.907-2.998,7.014-6.796c0.047-3.85-2.899-6.816-6.804-6.856c-3.872-0.039-6.978,2.89-7.039,6.652
		C63.803,175.069,67.002,178.382,70.69,178.408z"/>
	<path fill-rule="evenodd" clip-rule="evenodd" d="M27.954,102.753c0.438,1.188,1.274,2.412,1.187,3.559
		c-0.371,3.096-1.099,6.224-1.665,9.359c-0.913,4.689-0.484,9.206,0.903,13.888c3.659,12.562,3.325,25.374,0.397,38.121
		c-0.651,3.095-2.112,4.8-5.398,4.243c-2.98-0.407-4.146-2.712-3.654-6.24c1.418-10.191,2.632-20.406-0.057-30.511
		c-0.424-1.505-1.806-2.737-2.738-4.148c-1.358-1.999-3.455-3.932-3.797-6.104c-1.019-7.597-0.576-15.254,2.368-22.468
		c1.287-3.209,3.271-5.746,7.302-6.373c-0.383,1.132-0.661,2.175-0.939,3.158c-0.296,0.582-0.957,1.258-0.901,1.804
		c0.22,1.652,0.714,3.217,1.124,4.852c1.535-0.482,3.161-0.889,4.647-1.488C27.261,104.17,27.533,103.297,27.954,102.753z"/>
	<path fill-rule="evenodd" clip-rule="evenodd" d="M44.299,59.074c-1.623-5.376-3.354-10.695-4.702-16.141
		c-0.652-2.449-1.092-4.292-3.854-5.608c-8.247-3.84-12.383-17.637-8.102-25.682c4.024-7.698,15.469-9.354,21.575-3.115
		c8.25,8.417,4.695,25.321-6.348,29.366c-2.72,0.994-3.122,2.445-2.61,4.569c1.362,5.484,2.866,10.936,4.314,16.369L44.299,59.074z
		 M33.037,31.093c-2.142-7.435-3.113-14.159,0.38-21.125C26.806,15.719,26.652,25.024,33.037,31.093z"/>
	<path fill-rule="evenodd" clip-rule="evenodd" d="M23.314,175.941c3.717,0,7.498-0.126,11.214,0.023
		c2.451,0.059,3.921,2.981,2.053,4.107c-2.331,1.366-1.533,3.021-1.279,4.535c1.964,11.722,4.122,23.423,6.08,35.146
		c0.188,1.007-0.636,2.189-0.95,3.318c-0.811-0.966-2.185-1.849-2.427-2.914c-1.027-4.699-1.813-9.504-2.532-14.313
		c-0.344-1.974-0.993-2.941-3.154-2.916c-5.995,0.13-11.934,0.157-17.868-0.013c-2.556-0.047-3.024,1.397-3.323,3.325
		c-0.796,4.904-1.563,9.816-2.619,14.691c-0.171,0.992-1.348,1.771-2.075,2.683c-0.439-1.037-1.379-2.196-1.201-3.163
		c1.94-12.002,4.085-23.979,6.053-35.978c0.243-1.47,1.696-3.567-1.312-4.383c-0.35-0.143-0.547-2.142-0.247-3.083
		c0.208-0.551,1.559-1.028,2.361-1.046c3.719-0.145,7.503-0.037,11.228-0.037C23.314,175.931,23.314,175.936,23.314,175.941z
		 M34.299,200.082c-0.493-3.021-0.804-5.306-1.262-7.574c-0.752-3.895-0.386-9.273-2.723-11.231
		c-2.438-2.054-7.503-1.052-11.475-1.136c-0.433-0.009-1.111,0.215-1.404,0.415c-0.737,0.396-1.89,0.955-1.986,1.563
		c-1.004,5.142-1.934,10.301-2.61,15.542c-0.066,0.709,1.403,2.261,2.175,2.28C21.19,200.145,27.434,200.082,34.299,200.082z"/>
	<path fill-rule="evenodd" clip-rule="evenodd" d="M68.254,180.69c3.245-1.283,4.878,1.068,6.081,3.264
		c2.676,4.901,3.032,10.288,2.298,15.721c-0.103,1.001-0.745,2.432-1.525,2.771c-6.888,3.256-3.999,8.997-3.844,14.061
		c0.093,1.048,0.924,2.162,0.86,3.178c-0.147,1.418-0.403,3.446-1.275,3.97c-2.104,1.211-4.047-0.065-4.353-2.262
		c-0.755-5.141-2.224-10.534-1.389-15.458c1.14-6.315,1.636-12.301-0.187-18.433c-0.166-0.756,0.332-1.729,0.459-2.57
		c1.559,0.161,3.058,0.382,4.559,0.604c-0.4-1.433-0.728-2.865-1.152-4.23C68.737,181.074,68.454,180.893,68.254,180.69z"/>
	<path fill-rule="evenodd" clip-rule="evenodd" d="M27.954,102.753c-0.421,0.544-0.693,1.417-1.222,1.65
		c-1.486,0.6-3.112,1.006-4.647,1.488c-0.41-1.635-0.904-3.199-1.124-4.852c-0.056-0.546,0.605-1.222,0.901-1.804
		c1.213-1.63,2.427-3.259,3.638-4.827c2.146-2.587,4.23-5.113,6.375-7.699c4.23-5.02,8.535-10.087,12.744-15.185
		c1.391-1.64,2.697-3.596,5.085-1.855c2.508,1.829,1.221,3.787-0.266,5.671c-6.328,7.862-12.645,15.734-18.882,23.683
		C29.606,100.218,28.778,101.507,27.954,102.753z"/>
	<path fill-rule="evenodd" clip-rule="evenodd" d="M44.572,58.832c2.762-0.254,4.9,0.493,6.777,2.929
		c0.837,1.163,3.528,2.045,4.865,1.551c7.148-2.729,14.407-1.695,21.725-1.367c4.058,0.163,4.453,2.11,3.901,5.228
		c-0.206,1.058-0.581,2.101-0.882,3.322c-0.739-0.235-1.296-0.27-1.726-0.563c-6.831-4.772-14.378-5.036-22.154-3.356
		c-1.211,0.255-2.199,1.515-2.829,2.968c-0.422-0.015-0.881,0.074-1.196-0.059c-5.008-2.223-9.987-4.338-14.86-6.752
		c-1.611-0.768-2.817-2.324-4.153-3.497c0.276-0.472,0.554-0.945,0.83-1.418c2.576,0.729,5.081,1.54,7.681,2.111
		c0.491,0.117,1.121-0.535,1.748-0.856L44.572,58.832z"/>
	<path fill-rule="evenodd" clip-rule="evenodd" d="M31.875,86.71c-2.145,2.586-4.229,5.112-6.375,7.699
		c-6.006-0.749-8.978-3.336-9.333-8.01c-0.41-4.587,1.977-8.144,6.201-9.496c3.972-1.235,8.925,0.718,10.272,4.634
		C33.149,82.995,32.163,84.974,31.875,86.71z"/>
	<path fill-rule="evenodd" clip-rule="evenodd" d="M70.69,178.408c-3.688-0.025-6.888-3.339-6.829-7
		c0.062-3.763,3.167-6.691,7.039-6.652c3.904,0.04,6.851,3.007,6.804,6.856C77.598,175.41,74.502,178.434,70.69,178.408z"/>
	<path fill-rule="evenodd" clip-rule="evenodd" d="M68.254,180.69c0.2,0.203,0.483,0.384,0.532,0.614
		c0.425,1.365,0.752,2.798,1.152,4.23c-1.501-0.223-3-0.443-4.559-0.604c-3.178-3.405-6.347-6.816-9.533-10.215
		c-0.82-0.923-1.956-1.652-2.544-2.671c-0.464-0.751-0.938-1.905-0.446-2.856c0.727-0.844,2.274-0.214,2.897,0.363
		c3.042,2.74,5.913,5.727,8.909,8.579C65.767,179.125,67.051,179.862,68.254,180.69z"/>
	<path fill-rule="evenodd" clip-rule="evenodd" fill="none" d="M33.037,31.093c-6.385-6.069-6.231-15.374,0.38-21.125
		C29.924,16.934,30.896,23.875,33.037,31.093z"/>
	<path fill-rule="evenodd" clip-rule="evenodd" fill="none" d="M34.299,200.082c-6.865,0-13.108,0.063-19.285-0.142
		c-0.771-0.02-2.241-1.571-2.175-2.28c0.677-5.241,1.606-10.4,2.61-15.542c0.097-0.607,1.249-1.167,1.986-1.563
		c0.293-0.2,0.792-0.105,1.227-0.097c3.97,0.145,9.214-1.236,11.652,0.817c2.337,1.958,1.971,7.337,2.723,11.231
		C33.495,194.776,33.806,197.061,34.299,200.082z"/>
	
		<path fill-rule="evenodd" clip-rule="evenodd" fill="none" stroke="#000000" stroke-width="2" stroke-linecap="round" stroke-linejoin="round" stroke-miterlimit="10" d="
		M38.234,9.793c-5.654-2.968-8.657-1.374-10.345,5.815c-1.577,6.558-0.327,12.545,4.536,17.45c0.596,0.57,1.648,0.597,2.456,0.866"
		/>
	
		<path fill-rule="evenodd" clip-rule="evenodd" fill="none" stroke="#000000" stroke-width="2" stroke-linecap="round" stroke-linejoin="round" stroke-miterlimit="10" d="
		M54.509,170.945c4.16,3.893,8.322,7.784,12.483,11.676"/>
	
		<path fill-rule="evenodd" clip-rule="evenodd" fill="none" stroke="#000000" stroke-width="2" stroke-linecap="round" stroke-linejoin="round" stroke-miterlimit="10" d="
		M71.154,63.708c-6.272,0.625-12.485,1.269-18.757,1.895"/>
	
		<path fill-rule="evenodd" clip-rule="evenodd" fill="none" stroke="#000000" stroke-width="2" stroke-linecap="round" stroke-linejoin="round" stroke-miterlimit="10" d="
		M43.249,52.162"/>
	
		<path fill-rule="evenodd" clip-rule="evenodd" fill="none" stroke="#000000" stroke-width="2" stroke-linecap="round" stroke-linejoin="round" stroke-miterlimit="10" d="
		M41.098,40.314"/>
	
		<path fill-rule="evenodd" clip-rule="evenodd" fill="none" stroke="#000000" stroke-width="2" stroke-linecap="round" stroke-linejoin="round" stroke-miterlimit="10" d="
		M11.589,200.945c7.889,0.165,15.838,0.27,23.728,0.435"/>
	
		<path fill-rule="evenodd" clip-rule="evenodd" fill="none" stroke="#000000" stroke-width="2" stroke-linecap="round" stroke-linejoin="round" stroke-miterlimit="10" d="
		M32.831,178.895c0.809,5.838,1.52,11.691,2.508,17.509c1.421,8.175,3.062,16.383,4.573,24.541"/>
	
		<path fill-rule="evenodd" clip-rule="evenodd" fill="none" stroke="#000000" stroke-width="2" stroke-linecap="round" stroke-linejoin="round" stroke-miterlimit="10" d="
		M13.64,178.895c-0.809,6.107-1.536,12.228-2.505,18.319c-1.267,8.066-2.715,16.114-4.201,24.153
		c-0.073,0.355,0.473-0.429-0.232-0.159"/>
	
		<path fill-rule="evenodd" clip-rule="evenodd" fill="none" stroke="#000000" stroke-width="2" stroke-linecap="round" stroke-linejoin="round" stroke-miterlimit="10" d="
		M29.478,178.243c-3.997-0.052-8.053-0.104-12.051-0.217"/>
	
		<path fill-rule="evenodd" clip-rule="evenodd" fill="none" stroke="#000000" stroke-width="2" stroke-linecap="round" stroke-linejoin="round" stroke-miterlimit="10" d="
		M44.074,62.682c-2.756-1.107-5.569-2.215-8.323-3.323"/>
	
		<path fill-rule="evenodd" clip-rule="evenodd" fill="none" stroke="#000000" stroke-width="2" stroke-linecap="round" stroke-linejoin="round" stroke-miterlimit="10" d="
		M22.89,97.176c-1.078,1.242-1.84,1.344-2.978,2.587"/>
	
		<path fill-rule="evenodd" clip-rule="evenodd" fill="none" stroke="#000000" stroke-width="2" stroke-linecap="round" stroke-linejoin="round" stroke-miterlimit="10" d="
		M69.478,186.41c-0.973-0.112-1.946-0.166-2.92-0.218"/>
	
		<path fill-rule="evenodd" clip-rule="evenodd" fill="none" stroke="#000000" stroke-width="2" stroke-linecap="round" stroke-linejoin="round" stroke-miterlimit="10" d="
		M47.583,71.006c0.487,0.337,0.974,0.703,1.46,1.04"/>
</g>
<path fill-rule="evenodd" clip-rule="evenodd" fill="none" stroke="#000000" stroke-width="0.5" stroke-linecap="round" stroke-linejoin="round" stroke-miterlimit="10" d="
	M46.264,65.512c0.812,1.8,0.747,4.03,1.988,5.647c1.284,1.691,3.884,3.293,5.92,3.726c2.034,0.412,6.175,0.304,6.453,3.01
	c0.053,0.681-0.164,1.433,0.07,2.075"/>
<path fill-rule="evenodd" clip-rule="evenodd" fill="none" stroke="#000000" stroke-width="0.5" stroke-linecap="round" stroke-linejoin="round" stroke-miterlimit="10" d="
	M46.602,65.972c0.192-1.357-0.608-2.766-0.538-4.257c0.118-1.3,0.874-1.924,1.86-2.785c1.238-1.087,1.816-0.46,2.446,0.993
	c0.242,0.59,0.489,1.406,0.454,2.062c-0.098,0.716-0.483,0.989-0.869,1.579c-0.713,1.173-0.99,2.55-0.808,3.99
	c0.104,1.235,1.714,2.127,2.767,1.401c2.165-1.451,0.437-6.095-0.298-7.809c-0.259-0.613-1.004-1.908-1.731-1.946
	c-0.979-0.01-1.487,1.678-1.658,2.417c-0.212,1.036-0.219,2.07-0.219,3.149c0,0.584,0.012,0.999,0.2,1.487
	c0.185,0.455,0.502,0.763,0.469,1.301"/>
</svg>
