<?xml version="1.0" encoding="utf-8"?>
<!-- Generator: Adobe Illustrator 16.0.0, SVG Export Plug-In . SVG Version: 6.00 Build 0)  -->
<!DOCTYPE svg PUBLIC "-//W3C//DTD SVG 1.1//EN" "http://www.w3.org/Graphics/SVG/1.1/DTD/svg11.dtd">
<svg version="1.1" id="Capa_1" xmlns="http://www.w3.org/2000/svg" xmlns:xlink="http://www.w3.org/1999/xlink" x="0px" y="0px"
	 width="120.169px" height="277.368px" viewBox="-34.335 -54.83 120.169 277.368"
	 enable-background="new -34.335 -54.83 120.169 277.368" xml:space="preserve">
<g>
	<path fill="#0E0F0F" d="M40.868-44.326c2.515-3.417,7.321-4.149,10.734-1.636c3.419,2.514,4.148,7.322,1.636,10.737
		c-2.513,3.417-7.319,4.149-10.738,1.635C39.085-36.102,38.354-40.91,40.868-44.326z"/>
	<path fill="#0E0F0F" d="M64.511-52.562c-3.204,7.941-6.688,15.754-10.434,23.445c-0.44-0.282-0.924-0.536-1.457-0.743
		c-2.195-0.856-5.023-0.562-7.176,0.715c-0.584,0.051-1.184,0.24-1.77,0.628c-1.99,1.328-3.988,2.674-6.026,3.949
		c-0.405-2.085-0.811-4.166-1.218-6.247c-0.908-4.655-8.193-3.564-7.282,1.107c0.747,3.817,1.492,7.637,2.239,11.455
		c0.425,2.177,2.908,3.975,5.098,2.826c1.217-0.638,2.407-1.329,3.589-2.038c-1.054,3.119-2.223,6.191-3.524,9.21
		c-0.105,0.138-0.21,0.288-0.307,0.447c-8.666,14.192-17.332,28.384-25.996,42.58c-3.071,5.025,4.318,10.521,7.413,5.455
		c5.146-8.425,10.289-16.857,15.436-25.282c-3.521,8.602-7.044,17.209-10.569,25.813c-2.248,5.489,6.348,8.781,8.6,3.288
		c4.518-11.037,9.036-22.076,13.558-33.11c0.249-0.619,0.362-1.206,0.364-1.757c0.446-0.555,0.857-1.154,1.216-1.802
		c4.353-7.926,7.699-16.221,10.172-24.891c5.502-10.562,10.497-21.363,14.95-32.414C73.164-54.333,66.288-56.969,64.511-52.562z"/>
	<path fill="#0E0F0F" d="M35.149-10.211c0.16-0.303,0.311-0.605,0.46-0.899c1.072-1.794,1.556-2.765,1.162-2.508l-5.517-0.063
		l-39.24,38.835l18.269,5.077C10.286,30.231,25.5,9.212,35.149-10.211z"/>
	<polygon fill="#0E0F0F" points="21.917,34.391 23.59,35.056 28.853,23.332 	"/>
</g>
<g>
	<g>
		<g>
			<g>
				<g>
					<g>
						<path fill="none" d="M13.889,42.471c0,0-0.246,0.162-0.677,0.445c-0.427,0.289-1.053,0.681-1.737,1.237
							c-1.417,1.055-3.132,2.675-4.579,4.444c-1.452,1.767-2.669,3.654-3.427,5.097c-0.771,1.44-1.206,2.418-1.205,2.418
							l13.668,6.174c0-0.001,0.269-0.591,0.709-1.42c0.432-0.84,1.102-1.837,1.824-2.724c0.726-0.886,1.519-1.643,2.172-2.116
							c0.308-0.266,0.602-0.43,0.794-0.565c0.194-0.133,0.305-0.209,0.305-0.209L13.889,42.471z"/>
					</g>
					<path fill-rule="evenodd" clip-rule="evenodd" fill="#231F20" d="M11.216,56.332l-1.277-0.787c0,0-0.087,0.141-0.219,0.351
						c-0.121,0.216-0.282,0.504-0.443,0.792c-0.335,0.569-0.609,1.168-0.609,1.168l1.345,0.664c0,0,0.259-0.57,0.577-1.108
						c0.153-0.272,0.305-0.545,0.419-0.749C11.133,56.464,11.216,56.332,11.216,56.332z"/>
					<path fill-rule="evenodd" clip-rule="evenodd" fill="#231F20" d="M13.903,52.774l-1.1-1.02c0,0-0.115,0.121-0.287,0.302
						c-0.16,0.19-0.373,0.446-0.586,0.701c-0.439,0.5-0.815,1.047-0.815,1.047l1.208,0.889c0,0,0.353-0.515,0.764-0.981
						c0.199-0.239,0.398-0.478,0.547-0.657C13.795,52.887,13.903,52.774,13.903,52.774z"/>
					<path fill-rule="evenodd" clip-rule="evenodd" fill="#231F20" d="M17.249,49.876l-0.85-1.236c0,0-0.139,0.093-0.347,0.232
						c-0.205,0.144-0.463,0.356-0.728,0.56c-0.538,0.397-1.023,0.855-1.023,0.855l0.998,1.119c0,0,0.451-0.427,0.952-0.795
						c0.246-0.188,0.485-0.387,0.675-0.521C17.12,49.962,17.249,49.876,17.249,49.876z"/>
				</g>
			</g>
			<g>
				<g>
					<g>
						<path fill="none" d="M2.265,56.112c0,0-0.105,0.244-0.289,0.671c-0.187,0.427-0.448,1.038-0.711,1.774
							c-0.568,1.472-1.172,3.441-1.634,5.404c-0.478,1.965-0.8,3.919-0.99,5.378c-0.202,1.461-0.275,2.427-0.275,2.427l14.933,1.4
							c0,0,0.055-0.746,0.208-1.835c0.141-1.094,0.379-2.529,0.715-3.899c0.325-1.376,0.729-2.694,1.091-3.622
							c0.167-0.478,0.33-0.852,0.445-1.111c0.112-0.263,0.175-0.413,0.175-0.413L2.265,56.112z"/>
					</g>
					<path fill-rule="evenodd" clip-rule="evenodd" fill="#231F20" d="M6.805,69.02l-1.481-0.241c0,0-0.117,0.64-0.193,1.284
						c-0.082,0.643-0.165,1.286-0.165,1.286l1.491,0.168c0,0,0.08-0.626,0.16-1.251C6.69,69.639,6.804,69.02,6.805,69.02z"/>
					<path fill-rule="evenodd" clip-rule="evenodd" fill="#231F20" d="M7.749,64.606L6.3,64.215c0,0-0.179,0.628-0.32,1.264
						c-0.157,0.633-0.284,1.271-0.284,1.271l1.469,0.304c0,0.001,0.123-0.617,0.275-1.228C7.575,65.211,7.749,64.606,7.749,64.606z"
						/>
					<path fill-rule="evenodd" clip-rule="evenodd" fill="#231F20" d="M9.179,60.357l-1.387-0.572c0,0-0.063,0.151-0.159,0.378
						c-0.086,0.23-0.2,0.537-0.315,0.845c-0.24,0.61-0.43,1.235-0.43,1.235l1.425,0.468c0,0,0.182-0.602,0.412-1.186
						c0.109-0.293,0.219-0.587,0.301-0.808C9.119,60.501,9.179,60.357,9.179,60.357z"/>
				</g>
			</g>
			<g>
				<g>
					<g>
						<path fill="none" d="M-1.635,71.767c0,0-0.023,0.242-0.064,0.666c-0.029,0.422-0.071,1.024-0.121,1.748
							c-0.07,1.442-0.145,3.364-0.099,5.267c0.046,3.812,0.493,7.565,0.493,7.565l14.902-1.691c0,0-0.364-3.069-0.399-6.126
							c-0.039-1.529,0.024-3.039,0.077-4.167c0.039-0.56,0.071-1.026,0.093-1.354c0.032-0.323,0.051-0.508,0.051-0.508
							L-1.635,71.767z"/>
					</g>
					<path fill-rule="evenodd" clip-rule="evenodd" fill="#231F20" d="M6.242,82.585l-1.497,0.097c0,0,0.039,0.645,0.095,1.287
						c0.058,0.643,0.116,1.285,0.116,1.285l1.493-0.148c0,0-0.057-0.629-0.114-1.259C6.28,83.217,6.242,82.585,6.242,82.585z"/>
					<path fill-rule="evenodd" clip-rule="evenodd" fill="#231F20" d="M6.096,78.054l-1.5-0.003c0,0,0.007,0.646,0.013,1.292
						c0.004,0.646,0.035,1.292,0.035,1.292l1.499-0.054c0,0-0.031-0.632-0.034-1.264C6.103,78.686,6.096,78.054,6.096,78.054z"/>
					<path fill-rule="evenodd" clip-rule="evenodd" fill="#231F20" d="M6.271,73.543L4.775,73.43c0,0-0.043,0.646-0.087,1.292
						c-0.027,0.646-0.053,1.293-0.053,1.293l1.499,0.05c0,0,0.026-0.632,0.052-1.263C6.229,74.172,6.271,73.543,6.271,73.543z"/>
				</g>
			</g>
			<g>
				<g>
					<g>
						<path fill="none" d="M-1.426,87.013c0,0,0.402,3.756,1.218,7.489c0.192,0.924,0.423,1.893,0.637,2.724
							c0.22,0.811,0.425,1.567,0.601,2.215c0.353,1.297,0.588,2.161,0.588,2.161l14.444-4.037c0,0-0.215-0.792-0.538-1.979
							c-0.162-0.594-0.351-1.286-0.553-2.028c-0.187-0.726-0.354-1.427-0.511-2.183c-0.652-2.977-0.984-6.054-0.984-6.054
							L-1.426,87.013z"/>
					</g>
					<polygon fill-rule="evenodd" clip-rule="evenodd" fill="#231F20" points="8.419,96.014 6.966,96.387 7.639,98.859 
						9.086,98.465 					"/>
					<path fill-rule="evenodd" clip-rule="evenodd" fill="#231F20" d="M7.394,91.595L5.921,91.88c0,0,0.129,0.633,0.257,1.267
						c0.131,0.633,0.282,1.262,0.282,1.262l1.46-0.342c0,0-0.147-0.614-0.275-1.233C7.52,92.214,7.394,91.595,7.394,91.595z"/>
					<path fill-rule="evenodd" clip-rule="evenodd" fill="#231F20" d="M6.68,87.132l-1.488,0.19c0,0,0.088,0.64,0.175,1.279
						c0.09,0.639,0.197,1.275,0.196,1.275l1.48-0.242c0,0-0.104-0.624-0.192-1.25C6.765,87.758,6.68,87.132,6.68,87.132z"/>
				</g>
			</g>
			<g>
				<g>
					<g>
						<path fill="none" d="M1.618,101.602c0,0,0.238,0.861,0.596,2.153c0.386,1.265,0.902,2.952,1.417,4.639
							c0.507,1.704,1.058,3.321,1.454,4.567c0.401,1.237,0.668,2.063,0.668,2.063l14.259-4.649c0,0-0.262-0.808-0.654-2.019
							c-0.383-1.206-0.938-2.839-1.409-4.425c-0.488-1.595-0.976-3.189-1.341-4.386c-0.328-1.188-0.546-1.98-0.546-1.98
							L1.618,101.602z"/>
					</g>
					<polygon fill-rule="evenodd" clip-rule="evenodd" fill="#231F20" points="12.291,109.148 10.862,109.605 11.648,112.033 
						13.075,111.57 					"/>
					<polygon fill-rule="evenodd" clip-rule="evenodd" fill="#231F20" points="10.927,104.794 9.493,105.233 10.24,107.679 
						11.67,107.226 					"/>
					<path fill-rule="evenodd" clip-rule="evenodd" fill="#231F20" d="M9.623,100.44l-1.442,0.412c0,0.001,0.155,0.623,0.349,1.232
						c0.187,0.611,0.374,1.223,0.374,1.223l1.438-0.429c0,0-0.186-0.608-0.372-1.217C9.777,101.057,9.623,100.44,9.623,100.44z"/>
				</g>
			</g>
			<g>
				<g>
					<g>
						<path fill="none" d="M5.753,115.023c0,0,1.057,3.247,2.113,6.494c0.994,3.197,1.987,6.394,1.987,6.394l14.379-4.265
							c0,0-1.043-3.357-2.086-6.715c-1.067-3.279-2.133-6.558-2.133-6.558L5.753,115.023z"/>
					</g>
					<polygon fill-rule="evenodd" clip-rule="evenodd" fill="#231F20" points="16.497,122.219 15.063,122.663 15.816,125.089 
						17.253,124.657 					"/>
					<polygon fill-rule="evenodd" clip-rule="evenodd" fill="#231F20" points="15.118,117.856 13.69,118.316 14.466,120.738 
						15.896,120.285 					"/>
					
						<rect x="12.639" y="113.693" transform="matrix(0.9503 -0.3112 0.3112 0.9503 -35.1174 9.8774)" fill-rule="evenodd" clip-rule="evenodd" fill="#231F20" width="1.5" height="2.546"/>
				</g>
			</g>
			<g>
				<g>
					<g>
						<path fill="none" d="M9.853,127.911c0,0,0.221,0.792,0.551,1.979c0.319,1.187,0.799,2.772,1.19,4.351
							c0.367,1.575,0.734,3.15,1.01,4.331c0.299,1.182,0.408,1.968,0.408,1.968l14.715-2.898c0,0-0.133-0.914-0.462-2.23
							c-0.309-1.325-0.721-3.092-1.133-4.859c-0.436-1.752-0.947-3.453-1.298-4.752c-0.361-1.291-0.602-2.152-0.602-2.152
							L9.853,127.911z"/>
					</g>
					<polygon fill-rule="evenodd" clip-rule="evenodd" fill="#231F20" points="20.13,135.493 18.667,135.825 19.242,138.288 
						20.71,137.984 					"/>
					<path fill-rule="evenodd" clip-rule="evenodd" fill="#231F20" d="M19.059,131.033l-1.451,0.381c0,0,0.184,0.607,0.316,1.226
						c0.144,0.615,0.287,1.231,0.287,1.231l1.458-0.354c0,0-0.146-0.623-0.291-1.246C19.244,131.645,19.059,131.033,19.059,131.033z
						"/>
					<polygon fill-rule="evenodd" clip-rule="evenodd" fill="#231F20" points="17.832,126.633 16.391,127.051 17.072,129.491 
						18.518,129.094 					"/>
				</g>
			</g>
			<g>
				<g>
					<g>
						<path fill="none" d="M13.012,140.539c0,0,0.137,0.786,0.343,1.966c0.104,0.59,0.225,1.278,0.354,2.015
							c0.065,0.369,0.133,0.75,0.201,1.137c0.073,0.468,0.148,0.943,0.223,1.419c0.314,1.887,0.672,3.627,0.937,4.927
							c0.267,1.278,0.445,2.13,0.445,2.13l14.677-3.087c0,0-0.173-0.828-0.432-2.069c-0.25-1.222-0.58-2.844-0.828-4.343
							c-0.059-0.372-0.117-0.744-0.175-1.11c-0.077-0.444-0.153-0.883-0.227-1.307c-0.148-0.847-0.286-1.638-0.404-2.315
							c-0.238-1.355-0.397-2.26-0.397-2.26L13.012,140.539z"/>
					</g>
					<polygon fill-rule="evenodd" clip-rule="evenodd" fill="#231F20" points="22.652,148.996 21.181,149.289 21.694,151.794 
						23.163,151.487 					"/>
					<path fill-rule="evenodd" clip-rule="evenodd" fill="#231F20" d="M21.859,144.525l-1.485,0.213c0,0,0.101,0.64,0.201,1.279
						c0.111,0.635,0.222,1.271,0.222,1.271l1.476-0.269c0,0-0.109-0.623-0.218-1.246C21.958,145.149,21.859,144.525,21.859,144.525z
						"/>
					<polygon fill-rule="evenodd" clip-rule="evenodd" fill="#231F20" points="21.07,140.017 19.596,140.293 20.031,142.779 
						21.512,142.539 					"/>
				</g>
			</g>
			<g>
				<g>
					<g>
						<path fill="none" d="M15.514,154.132c0,0,0.731,3.376,1.354,6.602c0.32,1.623,0.589,3.214,0.786,4.405
							c0.176,1.181,0.292,1.968,0.292,1.968l14.856-2.058c0,0-0.135-0.91-0.338-2.275c-0.222-1.348-0.527-3.141-0.871-4.884
							c-0.68-3.513-1.404-6.845-1.404-6.845L15.514,154.132z"/>
					</g>
					<path fill-rule="evenodd" clip-rule="evenodd" fill="#231F20" d="M25.349,162.469l-1.479,0.254c0,0,0.104,0.623,0.208,1.246
						c0.095,0.624,0.191,1.248,0.191,1.248l1.484-0.221c0,0-0.097-0.633-0.194-1.266C25.454,163.1,25.349,162.469,25.349,162.469z"
						/>
					<polygon fill-rule="evenodd" clip-rule="evenodd" fill="#231F20" points="24.507,157.963 23.036,158.256 23.518,160.745 
						24.992,160.471 					"/>
					<polygon fill-rule="evenodd" clip-rule="evenodd" fill="#231F20" points="23.585,153.496 22.117,153.806 22.638,156.296 
						24.107,155.992 					"/>
				</g>
			</g>
			<g>
				<g>
					<g>
						<path fill="none" d="M17.947,167.106c0,0,0.459,3.149,0.577,6.104c0.042,1.465,0.051,2.906-0.041,3.906
							c-0.02,0.52-0.079,0.916-0.109,1.202c-0.031,0.285-0.048,0.447-0.048,0.447l14.867,1.981c0,0,0.029-0.264,0.082-0.725
							c0.05-0.46,0.136-1.127,0.172-1.894c0.131-1.566,0.125-3.562,0.063-5.524c-0.085-1.949-0.253-3.848-0.416-5.243
							c-0.157-1.401-0.29-2.314-0.291-2.313L17.947,167.106z"/>
					</g>
					<path fill-rule="evenodd" clip-rule="evenodd" fill="#231F20" d="M26.566,176.225l-1.5-0.046c0,0-0.003,0.155-0.008,0.389
						c-0.015,0.232-0.034,0.542-0.053,0.852c-0.027,0.62-0.1,1.233-0.099,1.233l1.492,0.15c0,0,0.075-0.644,0.104-1.289
						c0.02-0.322,0.04-0.645,0.055-0.887C26.563,176.386,26.566,176.225,26.566,176.225z"/>
					<path fill-rule="evenodd" clip-rule="evenodd" fill="#231F20" d="M26.479,171.608l-1.497,0.094c0,0,0.033,0.625,0.067,1.25
						c0.015,0.625,0.03,1.249,0.03,1.249l1.5-0.022c0,0-0.016-0.644-0.031-1.287C26.513,172.25,26.479,171.608,26.479,171.608z"/>
					<path fill-rule="evenodd" clip-rule="evenodd" fill="#231F20" d="M26.036,167.042l-1.488,0.188c0,0,0.074,0.625,0.148,1.25
						c0.066,0.625,0.132,1.251,0.132,1.251l1.494-0.141c0,0-0.067-0.638-0.135-1.275C26.112,167.679,26.036,167.042,26.036,167.042z
						"/>
				</g>
			</g>
			<g>
				<g>
					<g>
						<path fill="none" d="M18.326,178.767c0,0-0.015,0.165-0.066,0.429c-0.055,0.26-0.093,0.671-0.2,1.095
							c-0.176,0.888-0.517,1.932-0.918,2.784c-0.396,0.87-0.881,1.48-1.291,1.882c-0.099,0.104-0.189,0.199-0.27,0.283
							c-0.094,0.071-0.176,0.134-0.244,0.185c-0.129,0.109-0.203,0.172-0.203,0.172L24.1,197.62c0,0,0.259-0.207,0.714-0.57
							c0.224-0.186,0.496-0.41,0.808-0.668c0.298-0.274,0.619-0.604,0.971-0.959c0.728-0.694,1.431-1.611,2.176-2.596
							c0.326-0.511,0.663-1.039,1.005-1.575c0.33-0.541,0.588-1.103,0.878-1.663c1.073-2.246,1.733-4.507,2.07-6.14
							c0.193-0.828,0.271-1.487,0.36-1.964c0.084-0.475,0.11-0.736,0.111-0.737L18.326,178.767z"/>
					</g>
					<path fill-rule="evenodd" clip-rule="evenodd" fill="#231F20" d="M22.572,189.455l-1.176-0.931
						c0.044,0.039-1.573,1.769-1.625,1.713l0.983,1.133C20.812,191.432,22.623,189.497,22.572,189.455z"/>
					<path fill-rule="evenodd" clip-rule="evenodd" fill="#231F20" d="M24.895,185.364l-1.395-0.552c0,0-0.056,0.141-0.14,0.35
						c-0.081,0.212-0.194,0.491-0.339,0.753c-0.135,0.268-0.271,0.534-0.373,0.734c-0.095,0.205-0.184,0.324-0.184,0.324
						l1.294,0.758c0,0,0.098-0.135,0.203-0.357c0.111-0.221,0.26-0.514,0.409-0.807c0.159-0.29,0.283-0.593,0.371-0.822
						C24.834,185.517,24.895,185.364,24.895,185.364z"/>
					<path fill-rule="evenodd" clip-rule="evenodd" fill="#231F20" d="M26.119,180.874l-1.479-0.253c0,0-0.025,0.151-0.064,0.378
						c-0.031,0.229-0.097,0.528-0.17,0.824c-0.07,0.297-0.14,0.595-0.192,0.817c-0.046,0.226-0.1,0.367-0.1,0.367l1.444,0.406
						c0,0,0.057-0.153,0.107-0.393c0.056-0.238,0.13-0.555,0.205-0.872c0.078-0.316,0.147-0.634,0.181-0.875
						C26.092,181.034,26.119,180.874,26.119,180.874z"/>
				</g>
			</g>
			<g>
				<g>
					<g>
						<path fill="none" d="M15.136,185.596c0,0-0.065,0.07-0.228,0.154c-0.168,0.08-0.336,0.255-0.646,0.391
							c-0.467,0.273-1.725,0.775-2.838,1.085c-1.151,0.346-2.311,0.469-3.14,0.541c-0.834,0.056-1.339,0.014-1.339,0.014
							l-0.628,14.985c0-0.001,1.21,0.083,2.947-0.033c1.731-0.127,3.997-0.423,6.145-1.048c2.188-0.625,4.146-1.363,5.939-2.325
							c0.85-0.425,1.531-0.925,2.012-1.22c0.482-0.303,0.738-0.52,0.739-0.52L15.136,185.596z"/>
					</g>
					<path fill-rule="evenodd" clip-rule="evenodd" fill="#231F20" d="M10.254,195.634l-0.194-1.487c0,0.001-0.604,0.082-1.21,0.13
						c-0.607,0.026-1.213,0.053-1.213,0.053l0.017,1.5c0,0,0.652-0.028,1.305-0.057C9.607,195.721,10.254,195.635,10.254,195.634z"
						/>
					<path fill-rule="evenodd" clip-rule="evenodd" fill="#231F20" d="M14.797,194.586l-0.473-1.424c0,0-0.577,0.207-1.169,0.359
						c-0.592,0.15-1.185,0.302-1.185,0.302l0.322,1.465c0,0,0.631-0.16,1.262-0.32C14.183,194.805,14.797,194.586,14.797,194.586z"
						/>
					<path fill-rule="evenodd" clip-rule="evenodd" fill="#231F20" d="M19.041,192.635l-0.806-1.265c0,0-0.125,0.08-0.313,0.2
						c-0.181,0.131-0.445,0.268-0.716,0.396c-0.268,0.133-0.535,0.266-0.735,0.365c-0.197,0.104-0.342,0.157-0.342,0.157l0.588,1.38
						c0,0,0.152-0.056,0.373-0.171c0.221-0.109,0.516-0.256,0.811-0.402c0.298-0.142,0.589-0.294,0.792-0.438
						C18.901,192.724,19.041,192.635,19.041,192.635z"/>
				</g>
			</g>
			<g>
				<g>
					<g>
						<path fill="none" d="M6.947,187.78c0,0-0.13-0.002-0.357-0.007c-0.213-0.026-0.51-0.07-0.872-0.101
							c-0.673-0.131-1.469-0.363-2.007-0.669c-0.116-0.092-0.277-0.139-0.377-0.23c-0.096-0.094-0.2-0.171-0.312-0.236
							c-0.141-0.204-0.341-0.321-0.434-0.52c-0.056-0.088-0.133-0.143-0.175-0.226c-0.038-0.09-0.074-0.164-0.107-0.225
							c-0.07-0.118-0.11-0.187-0.11-0.187l-13.515,6.503c0,0,0.164,0.31,0.451,0.852c0.149,0.268,0.331,0.593,0.538,0.966
							c0.219,0.368,0.525,0.769,0.838,1.206c0.604,0.895,1.495,1.814,2.47,2.769c0.52,0.434,1.068,0.87,1.635,1.3
							c0.567,0.426,1.184,0.76,1.791,1.127c2.464,1.377,5.021,2.043,6.876,2.368c0.916,0.123,1.684,0.211,2.217,0.261
							c0.523,0.021,0.822,0.034,0.822,0.034L6.947,187.78z"/>
					</g>
					<path fill-rule="evenodd" clip-rule="evenodd" fill="#231F20" d="M-2.926,191.912l1.083-1.038
						c-0.052,0.049-1.482-1.785-1.401-1.844l-1.291,0.764C-4.629,189.853-2.988,191.968-2.926,191.912z"/>
					<path fill-rule="evenodd" clip-rule="evenodd" fill="#231F20" d="M0.987,194.595l0.591-1.378c0,0-0.134-0.06-0.335-0.149
						c-0.202-0.09-0.476-0.2-0.718-0.363c-0.502-0.299-1.002-0.598-0.987-0.618l-0.872,1.221c0,0,0.123,0.115,0.342,0.235
						c0.214,0.129,0.5,0.3,0.786,0.472c0.279,0.185,0.586,0.311,0.814,0.412S0.987,194.595,0.987,194.595z"/>
					<path fill-rule="evenodd" clip-rule="evenodd" fill="#231F20" d="M5.543,195.73l0.148-1.492c0,0-0.601-0.056-1.19-0.156
						c-0.584-0.124-1.168-0.248-1.168-0.248l-0.381,1.45c0,0,0.644,0.138,1.289,0.274C4.89,195.671,5.543,195.73,5.543,195.73z"/>
				</g>
			</g>
			<g>
				<g>
					<g>
						<path fill="none" d="M2.196,185.381c0.014,0.063-0.204-0.406-0.489-1.208c-0.303-0.792-0.601-2.016-0.788-3.227
							c-0.206-1.222-0.233-2.426-0.194-3.253c0.031-0.409,0.025-0.767,0.077-0.972c0.031-0.218,0.049-0.343,0.049-0.343
							l-14.824-2.278c0,0-0.042,0.3-0.115,0.824c-0.09,0.535-0.12,1.252-0.171,2.127c-0.081,1.74-0.002,3.983,0.351,6.15
							c0.335,2.178,0.865,4.301,1.458,5.923c0.572,1.623,1.092,2.711,1.13,2.759L2.196,185.381z"/>
					</g>
					<path fill-rule="evenodd" clip-rule="evenodd" fill="#231F20" d="M-7.311,178.8l1.5-0.03c0,0-0.002-0.153-0.006-0.382
						c-0.002-0.229-0.018-0.535,0.01-0.837c0.035-0.606,0.07-1.213,0.07-1.213l-1.493-0.146c0,0-0.038,0.652-0.076,1.304
						c-0.028,0.326-0.013,0.652-0.011,0.896C-7.313,178.637-7.311,178.8-7.311,178.8z"/>
					<path fill-rule="evenodd" clip-rule="evenodd" fill="#231F20" d="M-6.794,183.428l1.47-0.297c0,0-0.14-0.598-0.213-1.208
						c-0.044-0.304-0.088-0.606-0.122-0.835c-0.03-0.228-0.037-0.381-0.037-0.381l-1.492,0.153c0,0,0.007,0.163,0.04,0.404
						c0.035,0.241,0.082,0.563,0.128,0.884C-6.941,182.794-6.794,183.428-6.794,183.428z"/>
					<path fill-rule="evenodd" clip-rule="evenodd" fill="#231F20" d="M-5.471,187.883l1.388-0.568c0-0.001-0.244-0.554-0.425-1.14
						c-0.209-0.572-0.364-1.166-0.364-1.166l-1.443,0.409c0,0,0.165,0.629,0.388,1.242C-5.734,187.282-5.471,187.882-5.471,187.883z
						"/>
				</g>
			</g>
			<g>
				<g>
					<g>
						<path fill="none" d="M0.851,176.379c0,0,0.016-0.125,0.042-0.345c0.054-0.188,0.123-0.456,0.186-0.784
							c0.193-0.567,0.474-1.146,0.67-1.365c0.064-0.031,0.091-0.101,0.131-0.149c0.063-0.011,0.103-0.04,0.131-0.091
							c0.039-0.042,0.129-0.029,0.17-0.072c0.025-0.017,0.048-0.037,0.069-0.062c0.093-0.03,0.182-0.059,0.268-0.086
							c0.348-0.103,0.65-0.25,0.832-0.277c0.182-0.037,0.286-0.059,0.286-0.059l-3.325-14.624c0,0-0.315,0.073-0.865,0.201
							c-0.553,0.129-1.247,0.393-2.122,0.688c-0.218,0.079-0.445,0.16-0.679,0.245c-0.288,0.136-0.585,0.276-0.89,0.421
							c-0.604,0.311-1.251,0.603-1.872,1.019c-0.617,0.43-1.243,0.896-1.858,1.391c-0.58,0.521-1.118,1.103-1.654,1.683
							c-2.052,2.398-3.104,5.047-3.687,6.924c-0.236,0.923-0.414,1.698-0.534,2.24c-0.079,0.524-0.124,0.824-0.124,0.824
							L0.851,176.379z"/>
					</g>
					<path fill-rule="evenodd" clip-rule="evenodd" fill="#231F20" d="M-1.618,166.497l0.699,1.327
						c0.016,0.017,0.473-0.29,1.047-0.48c0.569-0.196,1.139-0.392,1.139-0.392l-0.428-1.438c0,0-0.621,0.213-1.241,0.426
						c-0.313,0.089-0.612,0.256-0.839,0.367C-1.467,166.422-1.618,166.497-1.618,166.497z"/>
					<path fill-rule="evenodd" clip-rule="evenodd" fill="#231F20" d="M-5.137,169.727l1.257,0.819c0,0,0.082-0.118,0.204-0.295
						c0.131-0.169,0.26-0.436,0.475-0.624c0.398-0.403,0.772-0.834,0.79-0.813l-0.986-1.13c-0.019-0.021-0.474,0.479-0.942,0.965
						c-0.25,0.231-0.406,0.534-0.56,0.733C-5.042,169.589-5.137,169.727-5.137,169.727z"/>
					<path fill-rule="evenodd" clip-rule="evenodd" fill="#231F20" d="M-6.893,174.105l1.466,0.317c0,0,0.122-0.588,0.292-1.155
						c0.197-0.557,0.394-1.112,0.394-1.112l-1.385-0.576c0,0-0.222,0.624-0.443,1.249C-6.759,173.46-6.893,174.104-6.893,174.105z"
						/>
				</g>
			</g>
			<g>
				<g>
					<g>
						<path fill="none" d="M3.636,173.089c0,0.001,0.442-0.127,0.944-0.154c0.508-0.016,1.021,0.007,1.461,0.178
							c0.445,0.151,0.952,0.536,1.376,0.951c0.103,0.107,0.205,0.187,0.292,0.281c0.085,0.106,0.159,0.199,0.22,0.275
							c0.128,0.148,0.201,0.232,0.201,0.232l11.878-9.157c0,0-0.202-0.245-0.554-0.674c-0.179-0.212-0.397-0.47-0.646-0.765
							c-0.265-0.291-0.598-0.611-0.948-0.96c-1.402-1.376-3.66-3.147-6.455-4.191c-2.778-1.088-5.759-1.274-7.806-1.137
							c-1.003,0.104-1.892,0.163-2.42,0.306c-0.552,0.121-0.868,0.19-0.868,0.19L3.636,173.089z"/>
					</g>
					<path fill-rule="evenodd" clip-rule="evenodd" fill="#231F20" d="M11.897,167.331l-0.92,1.185
						c0.033-0.047,1.768,1.561,1.716,1.62l1.126-0.991C13.882,169.088,11.941,167.283,11.897,167.331z"/>
					<path fill-rule="evenodd" clip-rule="evenodd" fill="#231F20" d="M7.639,165.221l-0.362,1.455c0,0,0.552,0.17,1.104,0.341
						c0.527,0.238,1.055,0.478,1.055,0.478l0.701-1.326c0,0-0.609-0.276-1.218-0.552C8.284,165.404,7.639,165.221,7.639,165.221z"/>
					<path fill-rule="evenodd" clip-rule="evenodd" fill="#231F20" d="M2.91,165.041l0.227,1.482c0,0,0.585-0.061,1.171-0.12
						c0.293-0.033,0.583,0.006,0.802,0.002c0.219,0.005,0.364,0.009,0.364,0.009l0.086-1.498c0,0-0.167-0.004-0.416-0.011
						c-0.25,0.003-0.585-0.035-0.915,0C3.57,164.973,2.91,165.041,2.91,165.041z"/>
				</g>
			</g>
			<g>
				<g>
					<g>
						<path fill="none" d="M8.13,174.853c0.002-0.006,0.073,0.088,0.192,0.273c0.115,0.192,0.315,0.401,0.505,0.774
							c0.429,0.651,0.912,1.746,1.333,2.91c0.434,1.165,0.712,2.469,0.908,3.44c0.082,0.495,0.149,0.908,0.197,1.197
							c0.033,0.293,0.051,0.461,0.051,0.461l14.889-1.807c0,0-0.418-4.134-1.892-8.256c-0.734-2.062-1.659-4.117-2.613-5.642
							c-0.42-0.762-0.903-1.39-1.195-1.826c-0.301-0.438-0.497-0.684-0.497-0.684L8.13,174.853z"/>
					</g>
					<path fill-rule="evenodd" clip-rule="evenodd" fill="#231F20" d="M18.667,179.38l-1.462,0.337c0,0,0.13,0.604,0.261,1.208
						c0.101,0.61,0.203,1.221,0.203,1.221l1.483-0.224c0,0-0.106-0.639-0.212-1.276C18.803,180.013,18.667,179.38,18.667,179.38z"/>
					<path fill-rule="evenodd" clip-rule="evenodd" fill="#231F20" d="M17.279,174.943l-1.39,0.564c0,0,0.058,0.142,0.145,0.354
						c0.093,0.21,0.194,0.5,0.29,0.792c0.196,0.583,0.386,1.168,0.386,1.168l1.437-0.432c0,0-0.2-0.617-0.407-1.232
						c-0.101-0.309-0.208-0.614-0.307-0.838C17.341,175.095,17.279,174.943,17.279,174.943z"/>
					<path fill-rule="evenodd" clip-rule="evenodd" fill="#231F20" d="M15.109,170.824l-1.24,0.844c0,0,0.355,0.485,0.644,1.021
						c0.151,0.263,0.303,0.525,0.417,0.723c0.1,0.205,0.167,0.343,0.167,0.343l1.338-0.679c0,0-0.072-0.146-0.179-0.366
						c-0.123-0.213-0.286-0.496-0.449-0.779C15.496,171.355,15.108,170.824,15.109,170.824z"/>
				</g>
			</g>
			<g>
				<g>
					<g>
						<path fill="none" d="M11.316,183.909c0,0,0.104,0.666,0.152,1.682c0.072,1.012,0.081,2.372-0.026,3.692
							c-0.083,1.332-0.316,2.595-0.529,3.486c-0.207,0.903-0.406,1.425-0.406,1.425l14.223,4.76c0,0,0.396-1.092,0.77-2.698
							c0.386-1.608,0.758-3.734,0.896-5.83c0.37-4.199-0.192-8.323-0.192-8.323L11.316,183.909z"/>
					</g>
					<path fill-rule="evenodd" clip-rule="evenodd" fill="#231F20" d="M19.02,193.223l-1.475-0.272c0,0-0.099,0.608-0.247,1.204
						c-0.15,0.594-0.301,1.188-0.301,1.188l1.442,0.413c0,0,0.16-0.63,0.319-1.261C18.916,193.863,19.021,193.223,19.02,193.223z"/>
					<path fill-rule="evenodd" clip-rule="evenodd" fill="#231F20" d="M19.523,188.609l-1.499-0.058c0,0-0.008,0.619-0.071,1.234
						c-0.025,0.308-0.05,0.616-0.069,0.847c-0.018,0.231-0.045,0.384-0.045,0.384l1.49,0.173c0,0,0.028-0.16,0.047-0.402
						c0.02-0.241,0.046-0.564,0.072-0.887C19.514,189.256,19.523,188.609,19.523,188.609z"/>
					<path fill-rule="evenodd" clip-rule="evenodd" fill="#231F20" d="M19.408,183.99l-1.494,0.137c0,0,0.042,0.618,0.083,1.236
						c0.026,0.309,0.038,0.618,0.037,0.851c0.004,0.232,0.007,0.388,0.007,0.388l1.5-0.029c0,0-0.003-0.161-0.007-0.404
						c0-0.242-0.012-0.565-0.039-0.888C19.452,184.636,19.408,183.99,19.408,183.99z"/>
				</g>
			</g>
			<g>
				<g>
					<g>
						<path fill="none" d="M10.508,194.194c0,0-0.043,0.137-0.12,0.376c-0.089,0.216-0.215,0.525-0.367,0.896
							c-0.172,0.322-0.349,0.734-0.568,1.047c-0.097,0.192-0.211,0.33-0.32,0.463l-0.153,0.221l-0.287,0.315
							c-0.759,0.854-1.755,1.733-2.535,2.368c-0.408,0.313-0.749,0.572-0.986,0.754c-0.25,0.176-0.392,0.276-0.392,0.276
							l8.698,12.219c0,0,0.833-0.58,2.054-1.541c1.216-0.987,2.814-2.37,4.341-4.078l0.57-0.643
							c0.207-0.267,0.412-0.532,0.616-0.797c0.413-0.532,0.792-1.062,1.09-1.573c0.669-1.032,1.117-1.988,1.522-2.816
							c0.36-0.819,0.619-1.501,0.811-1.981c0.158-0.475,0.249-0.745,0.249-0.745L10.508,194.194z"/>
					</g>
					<path fill-rule="evenodd" clip-rule="evenodd" fill="#231F20" d="M12.282,205.226l-0.986-1.131c0,0-0.475,0.396-0.949,0.793
						c-0.49,0.38-0.98,0.76-0.98,0.76l0.901,1.199c0,0,0.51-0.396,1.021-0.792C11.786,205.64,12.282,205.226,12.282,205.226z"/>
					<path fill-rule="evenodd" clip-rule="evenodd" fill="#231F20" d="M15.511,201.854l-1.192-0.91c0,0-0.334,0.477-0.762,0.924
						c-0.395,0.463-0.84,0.889-0.84,0.889l1.063,1.058c0,0,0.469-0.449,0.894-0.946C15.124,202.399,15.511,201.854,15.511,201.854z"
						/>
					<path fill-rule="evenodd" clip-rule="evenodd" fill="#231F20" d="M17.761,197.744l-1.397-0.544c0,0-0.057,0.141-0.142,0.352
						c-0.09,0.208-0.185,0.499-0.33,0.763c-0.134,0.27-0.268,0.538-0.368,0.74c-0.096,0.205-0.175,0.332-0.174,0.332l1.308,0.733
						c0,0,0.086-0.141,0.191-0.363c0.11-0.22,0.256-0.514,0.402-0.808c0.157-0.29,0.26-0.601,0.356-0.825
						C17.7,197.896,17.761,197.744,17.761,197.744z"/>
				</g>
			</g>
			<g>
				<g>
					<g>
						<path fill="none" d="M4.78,200.91c0,0-0.56,0.41-1.458,0.986c-0.905,0.563-2.137,1.306-3.436,1.944
							c-2.587,1.32-5.312,2.2-5.312,2.2l4.676,14.251c0-0.001,3.824-1.236,7.359-3.045c1.781-0.879,3.497-1.901,4.772-2.702
							c1.27-0.813,2.096-1.416,2.096-1.416L4.78,200.91z"/>
					</g>
					<path fill-rule="evenodd" clip-rule="evenodd" fill="#231F20" d="M0.453,212.41l-0.578-1.385c0,0-0.577,0.236-1.159,0.462
						c-0.578,0.235-1.169,0.432-1.169,0.432l0.5,1.414c0,0,0.612-0.203,1.209-0.446C-0.143,212.654,0.453,212.41,0.453,212.41z"/>
					<path fill-rule="evenodd" clip-rule="evenodd" fill="#231F20" d="M4.626,210.43l-0.708-1.322c0,0-0.555,0.286-1.109,0.572
						c-0.556,0.282-1.124,0.542-1.124,0.542l0.636,1.358c0,0,0.586-0.268,1.16-0.56C4.054,210.726,4.626,210.43,4.626,210.43z"/>
					<path fill-rule="evenodd" clip-rule="evenodd" fill="#231F20" d="M8.573,208.055l-0.838-1.244c0,0-0.521,0.341-1.041,0.683
						c-0.533,0.323-1.065,0.647-1.065,0.647l0.765,1.29c0,0,0.551-0.335,1.102-0.669C8.034,208.408,8.573,208.055,8.573,208.055z"/>
				</g>
			</g>
			<g>
				<g>
					<g>
						<path fill="none" d="M-5.425,206.041c0,0-0.169,0.052-0.465,0.143c-0.296,0.085-0.718,0.236-1.226,0.359
							c-1.015,0.295-2.365,0.574-3.685,0.771c-1.326,0.207-2.589,0.234-3.5,0.225c-0.915-0.014-1.47-0.097-1.47-0.097l-1.657,14.906
							c0,0,1.147,0.156,2.808,0.185c1.659,0.03,3.838-0.051,5.906-0.366c2.074-0.302,4.087-0.737,5.546-1.153
							c0.742-0.188,1.333-0.391,1.758-0.516c0.421-0.131,0.662-0.205,0.662-0.205L-5.425,206.041z"/>
					</g>
					<path fill-rule="evenodd" clip-rule="evenodd" fill="#231F20" d="M-13.028,215.556l-0.047-1.499c0,0-0.615,0.026-1.228,0.015
						c-0.612-0.022-1.224-0.045-1.224-0.045l-0.1,1.497c0,0,0.65,0.023,1.3,0.047C-13.677,215.584-13.028,215.556-13.028,215.556z"
						/>
					<path fill-rule="evenodd" clip-rule="evenodd" fill="#231F20" d="M-8.413,215.06l-0.263-1.477c0,0-0.608,0.124-1.222,0.197
						c-0.613,0.076-1.226,0.153-1.226,0.153l0.15,1.492c0,0,0.643-0.08,1.285-0.16C-9.047,215.188-8.413,215.06-8.413,215.06z"/>
					<path fill-rule="evenodd" clip-rule="evenodd" fill="#231F20" d="M-3.928,213.98l-0.433-1.437c0,0-0.593,0.19-1.197,0.341
						c-0.6,0.165-1.204,0.305-1.204,0.306l0.342,1.46c0,0,0.629-0.146,1.251-0.317C-4.542,214.177-3.928,213.98-3.928,213.98z"/>
				</g>
			</g>
			<g>
				<g>
					<g>
						<path fill="none" d="M-15.772,207.441c0,0-0.142-0.015-0.392-0.04c-0.235-0.041-0.571-0.102-0.974-0.173
							c-0.783-0.168-1.726-0.479-2.519-0.896c-0.798-0.416-1.47-0.925-1.912-1.417c-0.463-0.462-0.725-0.856-0.739-0.838
							l-12.028,8.959c0,0,0.198,0.246,0.545,0.676c0.357,0.425,0.83,1.052,1.528,1.72c1.309,1.394,3.382,3.018,5.631,4.179
							c2.245,1.184,4.601,1.911,6.333,2.28c0.866,0.18,1.582,0.282,2.087,0.369c0.497,0.056,0.781,0.088,0.781,0.088
							L-15.772,207.441z"/>
					</g>
					<path fill-rule="evenodd" clip-rule="evenodd" fill="#231F20" d="M-26.219,211.542l0.967-1.147
						c-0.043,0.049-1.733-1.638-1.686-1.683l-1.143,0.972C-28.135,209.729-26.267,211.595-26.219,211.542z"/>
					<path fill-rule="evenodd" clip-rule="evenodd" fill="#231F20" d="M-22.208,214.002l0.591-1.379c0,0-0.138-0.059-0.344-0.147
						c-0.211-0.08-0.476-0.219-0.736-0.365c-0.263-0.142-0.526-0.283-0.723-0.39c-0.187-0.123-0.311-0.206-0.311-0.206l-0.805,1.267
						c0,0,0.138,0.09,0.344,0.226c0.217,0.118,0.507,0.274,0.796,0.432c0.288,0.161,0.58,0.313,0.81,0.401
						C-22.358,213.938-22.208,214.002-22.208,214.002z"/>
					<path fill-rule="evenodd" clip-rule="evenodd" fill="#231F20" d="M-17.714,215.279l0.237-1.481c0,0-0.149-0.025-0.374-0.063
						c-0.224-0.04-0.527-0.079-0.817-0.162c-0.293-0.072-0.587-0.145-0.807-0.198c-0.222-0.05-0.363-0.101-0.364-0.101l-0.426,1.438
						c0,0,0.155,0.055,0.395,0.108c0.238,0.059,0.556,0.138,0.874,0.216c0.316,0.089,0.64,0.131,0.881,0.175
						C-17.875,215.252-17.714,215.279-17.714,215.279z"/>
				</g>
			</g>
		</g>
	</g>
</g>
</svg>
