<?xml version="1.0"?>
<svg width="76" height="66" xmlns="http://www.w3.org/2000/svg">

 <g>
  <title>background</title>
  <rect fill="none" id="canvas_background" height="402" width="582" y="-1" x="-1"/>
 </g>
 <g>
  <title>Layer 1</title>
  <g id="svg_1">
   <path id="svg_2" d="m61.419998,66c8.053001,0 14.579002,-6.716 14.579002,-15c0,-8.285 -6.526001,-15 -14.579002,-15c-14.577999,0 -4.858997,-29 14.579002,-29l0,-7c-34.690002,0 -48.286001,66 -14.579002,66zm-41.999998,0c8.052,0 14.579,-6.716 14.579,-15c0,-8.285 -6.527,-15 -14.579,-15c-14.578,0 -4.858,-29 14.579,-29l0,-7c-34.689001,0 -48.286,66 -14.579,66z" fill="#000222"/>
  </g>
 </g>
</svg>