<?xml version="1.0" encoding="utf-8"?>
<!-- Generator: Adobe Illustrator 16.0.0, SVG Export Plug-In . SVG Version: 6.00 Build 0)  -->
<!DOCTYPE svg PUBLIC "-//W3C//DTD SVG 1.1//EN" "http://www.w3.org/Graphics/SVG/1.1/DTD/svg11.dtd">
<svg version="1.1" id="Capa_1" xmlns="http://www.w3.org/2000/svg" xmlns:xlink="http://www.w3.org/1999/xlink" x="0px" y="0px"
	 width="100.001px" height="75.529px" viewBox="-35.105 -25.998 100.001 75.529"
	 enable-background="new -35.105 -25.998 100.001 75.529" xml:space="preserve">
<path fill="#FFFFFF" d="M8.953,5.701l-29.656-29.656c-2.724-2.724-7.175-2.724-9.886,0l-2.479,2.471
	c-2.717,2.721-2.717,7.172,0,9.883l22.632,22.632l-22.632,22.631c-2.717,2.718-2.717,7.169,0,9.877l2.475,2.475
	c2.717,2.725,7.169,2.725,9.887,0L8.95,16.355c1.459-1.456,2.107-3.413,2.003-5.33C11.062,9.114,10.412,7.157,8.953,5.701z"/>
<path fill="#FFFFFF" d="M62.884,5.701L33.228-23.955c-2.725-2.724-7.176-2.724-9.887,0l-2.479,2.471
	c-2.717,2.721-2.717,7.172,0,9.883l22.632,22.632L20.863,33.663c-2.717,2.718-2.717,7.169,0,9.877l2.476,2.475
	c2.717,2.725,7.169,2.725,9.887,0l29.656-29.659c1.458-1.456,2.107-3.413,2.003-5.33C64.991,9.114,64.343,7.157,62.884,5.701z"/>
</svg>
