<?xml version="1.0" encoding="utf-8"?>
<!-- Generator: Adobe Illustrator 16.0.0, SVG Export Plug-In . SVG Version: 6.00 Build 0)  -->
<!DOCTYPE svg PUBLIC "-//W3C//DTD SVG 1.1//EN" "http://www.w3.org/Graphics/SVG/1.1/DTD/svg11.dtd">
<svg version="1.1" id="Capa_1" xmlns="http://www.w3.org/2000/svg" xmlns:xlink="http://www.w3.org/1999/xlink" x="0px" y="0px"
	 width="199.71px" height="265.56px" viewBox="-45.21 -75.011 199.71 265.56" enable-background="new -45.21 -75.011 199.71 265.56"
	 xml:space="preserve">
<path fill="#0E0F0F" d="M-45.21,63.724l7.973,93.727h4.163h11.132h53.86v-11.302H19.283v-21.102h3.589v15.884
	c5.044-0.048,8.831,0.419,13.424,1.419c-0.728,9.483-4.269,18.448-11.483,29.806c-3.542,5.574-1.901,12.962,3.672,16.523
	c1.984,1.253,4.214,1.87,6.408,1.87c3.965,0,7.831-1.953,10.116-5.566c8.459-13.294,16.875-29.924,15.124-52.543
	c-0.348-4.681-3.415-8.725-7.835-10.33c-9.262-3.367-18.982-5.04-29.355-5.099c-3.661-10.448-4.392-20.75-1.795-31.031
	c5.724,1.881,11.614,2.846,17.603,2.846c1.633,0,3.277-0.083,4.918-0.218c3.135-0.269,5.731-2.114,7.119-4.676
	c1.521,3.11,4.285,5.388,7.59,5.98v1.617h17.757V65.66H58.379v1.621c-3.756,0.68-6.854,3.502-8.155,7.266
	c-1.787-2.546-4.811-4.1-8.107-3.822c-5.364,0.482-10.61-0.229-15.733-1.949C25.936,52.395-3.115,41.057-11.333,58.454
	c-10.618,22.457-13.745,46.721-4.392,70.233c0.336,0.834,1.186,3.562,1.289,4.155c2.696,6.024,8.783,8.934,14.432,9.7v-27.458h3.317
	v27.672v3.392h-26.225l-7.005-82.425H-45.21z M52.959,78.614c0-3.51,2.316-6.428,5.412-7.241v14.483
	C55.275,85.042,52.959,82.109,52.959,78.614z"/>
<circle fill="#0E0F0F" cx="-0.664" cy="23.837" r="21.892"/>
<path fill="#0E0F0F" d="M49.365-19.088c0,2.714-2.181,4.926-4.895,4.926c-2.718,0-4.948-2.212-4.948-4.926s2.23-4.922,4.948-4.922
	C47.185-24.01,49.365-21.802,49.365-19.088z"/>
<path fill="#0E0F0F" d="M78.006-38.545c0,2.58-2.095,4.674-4.651,4.674c-2.604,0-4.702-2.094-4.702-4.674
	c0-2.558,2.099-4.651,4.702-4.651C75.911-43.197,78.006-41.103,78.006-38.545z"/>
<polygon fill="#0E0F0F" points="99.967,-13.253 103.979,-9.358 103.034,-3.821 108.002,-6.421 112.969,-3.821 112.012,-9.358 
	116.035,-13.253 110.49,-14.068 108.002,-19.092 105.516,-14.068 "/>
<polygon fill="#0E0F0F" points="95.314,-56.764 96.358,-57.819 94.906,-58.031 94.219,-59.376 93.571,-58.031 92.069,-57.819 
	93.167,-56.764 92.878,-55.272 94.219,-55.99 95.551,-55.272 "/>
<polygon fill="#0E0F0F" points="40.491,-49.246 44.444,-51.299 48.347,-49.246 47.589,-53.603 50.785,-56.689 46.394,-57.334 
	44.444,-61.299 42.445,-57.334 38.103,-56.689 41.248,-53.603 "/>
<polygon fill="#0E0F0F" points="18.854,-32.135 22.227,-35.452 17.545,-36.126 15.474,-40.358 13.38,-36.126 8.698,-35.452 
	12.101,-32.135 11.278,-27.491 15.474,-29.695 19.647,-27.491 "/>
<polygon fill="#0E0F0F" points="96.358,-45.322 101.065,-40.7 99.937,-34.172 105.826,-37.249 111.67,-34.172 110.587,-40.7 
	115.301,-45.322 108.752,-46.276 105.826,-52.222 102.908,-46.276 "/>
<polygon fill="#0E0F0F" points="5.425,-44.699 3.252,-53.401 -5.61,-54.809 3.093,-56.98 4.5,-65.844 6.673,-57.142 15.534,-55.735 
	6.833,-53.561 "/>
<polygon fill="#0E0F0F" points="71.377,-57.748 71.629,-64.802 65.234,-67.795 72.287,-67.543 75.281,-73.939 75.029,-66.885 
	81.425,-63.891 74.371,-64.142 "/>
</svg>
